/* XPM */
static const char *const ar16_9_576[] = {
/* columns rows colors chars-per-pixel */
"27 18 24 1 ",
"  c #000000",
". c #010101",
"X c #020202",
"o c #050505",
"O c #0B0B0B",
"+ c #191919",
"@ c #2A2A2A",
"# c #353535",
"$ c #454545",
"% c #5C5C5C",
"& c #696969",
"* c #7A7A7A",
"= c #868686",
"- c #989898",
"; c #BBBBBB",
": c #A8A8A8",
"> c #D7D7D7",
", c #C7C7C7",
"< c #E6E6E6",
"1 c #FFFFFF",
"2 c #FEFEFE",
"3 c #FCFCFC",
"4 c #FAFAFA",
"5 c #F6F6F6",
/* pixels */
"111111111111111111111111111",
"111- %111<$O@,111111>#O$>11",
"111$ %111$   +311111@   @31",
"13;  %11>  #  ;1111;o #o ;1",
"1;+  %11= @1@O-1111= $1$ &1",
"1    %11% &1>11<==<% *1- $1",
"1  + %11# *:*51>  ;% =1- +1",
"1 =& %11# $  $1>  ,& &1= +1",
"1:1% %11@     ,>  ,- +>@  1",
"111% %11+ +>@ *<#@,>     O1",
"111% %11@ &1= %51111%  $ +1",
"111% %11# =1- #111115=-- @1",
"111% %11% *1- $<&&>11>1* $1",
"111% %11= #1% &>  ;:O+1$ &1",
"111% %11,  #o :>  ;>  #o ;1",
"111% %111$   +5<  ,1@   @11",
"111=$=111<$O@>1<$$,1>@O$<11",
"111111111111111113111111111"
};
