/* XPM */
static const char *const ar16_9_1080[] = {
/* columns rows colors chars-per-pixel */
"50 33 24 1 ",
"  c #000000",
". c #020202",
"X c #060606",
"o c #0C0C0C",
"O c #181818",
"+ c #252525",
"@ c #363636",
"# c #454545",
"$ c #585858",
"% c #767676",
"& c #7D7D7D",
"* c #676767",
"= c #989898",
"- c #878787",
"; c #A7A7A7",
": c #B9B9B9",
"> c #D9D9D9",
", c #CACACA",
"< c #FFFFFF",
"1 c #FEFEFE",
"2 c #FCFCFC",
"3 c #FAFAFA",
"4 c #F5F5F5",
"5 c #E8E8E8",
/* pixels */
"<<<<<<<<<<<<<<<<<<<<<<<<<<<<<<<<<<<<<<<<<<<<<<<<<<",
"<<<<<<<<<<<<<<<<<<<<<<<<<<<<<<<<<<<<<<<<<<<<<<<<<<",
"<<<<<<<<<<<<<<<<<<<<<<<<<<<<<<<<<<<<<<<<<<<<<<<<<<",
"<<<<<<<<<<<<<<<<<<<<<<<<<<<<<<<<<<<<<<<<<<<<<<<<<<",
"<<<<<<5.  %<<<<<<<5%+.O$><<<<<<<<<<<<<5*+.O$><<<<<",
"<<<<<<-   %<<<<<<>O     o,<<<<<<<<<<<>o     o:<<<<",
"<<<<<4+   %<<<<<4+.      +3<<<<<<<<<<+       o5<<<",
"<<<<<%    %<<<<<-..       ;<<<<<<<<<;         -<<<",
"<<<<=..   %<<<<<+  .$,@   $<<<<<<<<<#   @:$   O<<<",
"<<4-      %<<<<>   o4<;   O<<<<<<<<<o  .5<3O   ,<<",
"<<+       %<<<<=   #<<5*;>3<<<<<<<<>.  @<<<%   -<<",
"<<        %<<<<*   %<<<<<<<<<*ooO#<,   #<<<=   *<<",
"<<    +   %<<<<#   =<:%;4<<<<$   @<:   $<<<;   @<<",
"<<   ;$   %<<<<+   =$   +5<<<$   #<,   #<<<-   +<<",
"<< o;<$   %<<<<+   @    .#<<3$   #35   o3<<$   O<<",
"<<#><<$   %<<<<O          ;<<$  .@<<o   =<5o   o<<",
"<<<<<<$   %<<<<o    o#o.  #<<$   @<<$   o#O     <<",
"<<<<<<$   %<<<<O   o><;.  .3<%@@@*<<:          o<<",
"<<<<<<$.  %<<<<+   $<<<O   ><<3<<<<<<#.    @   O<<",
"<<<<<<$   %<<<<@   &<<<#   :<<<<<<<<<5@   #:   +<<",
"<<<<<<$   %<<<<#   =<<<*   :<<<<<<<<<<3;&;3=.  @<<",
"<<<<<<$   %<<<<*   -<<<$   :<5>>>5<<<<<<<<<-   *<<",
"<<<<<<$   %<<<<=   *<<<#   ,<$   #<<<>;%><<$   -<<",
"<<<<<<$   %<<<<,   O4<5.  .4<$   @<<@   =<4O   ,<<",
"<<<<<<$   %<<<<<+   #:#   @<<$   #<<$   +,*   O3<<",
"<<<<<<$   %<<<<<-   .     =<<$   #<<:         -<<<",
"<<<<<<$   %<<<<<4O  ..   +3<3$   @<<<@       +5<<<",
"<<<<<<$   %<<<<<<,o     o,<<<$   #<<<,O     O,<<<<",
"<<<<<<=***;<<<<<<<>$Oo+$><<<<=***-<<<<>$OoO*5<<<<<",
"<<<<<<<<<<<<<<<<<<<<<<<<<<<<<<<<<<<<<<<<<<<<<<<<<<",
"<<<<<<<<<<<<<<<<<<<<<<<<<<<<<<<<<<<<<<<<<<<<<<<<<<",
"<<<<<<<<<<<<<<<<<<<<<<<<<<<<<<<<<<<<<<<<<<<<<<<<<<",
"<<<<<<<<<<<<<<<<<<<<<<<<<<<<<<<<<<<<<<<<<<<<<<<<<<"
};
