/* XPM */
static const char *const ar16_9_720[] = {
/* columns rows colors chars-per-pixel */
"33 22 24 1 ",
"  c #000000",
". c #010101",
"X c #030303",
"o c #050505",
"O c #0B0B0B",
"+ c #161616",
"@ c #262626",
"# c #3E3E3E",
"$ c #333333",
"% c #464646",
"& c #5A5A5A",
"* c #686868",
"= c #767676",
"- c #979797",
"; c #898989",
": c #AFAFAF",
"> c #CACACA",
", c #D9D9D9",
"< c #EBEBEB",
"1 c #FFFFFF",
"2 c #FEFEFE",
"3 c #FDFDFD",
"4 c #FAFAFA",
"5 c #F4F4F4",
/* pixels */
"111111111111111111111111111111111",
"111111111111111111111111111111111",
"1111%.#11114=+O%,11111111>$O@-111",
"111,..#1111*....@5111111,O....-11",
"111&..#111>..o...-111111*.....O51",
"14;...#111=..-:..%111111O.+<*..:1",
"1%....#111$.O14%;:11111,..=1,..*1",
"1.....#111o.$111411=+O->..-11o.#1",
"1..&..#11<..%:@#>11*..->..-11o.+1",
"1.*<..#11,..$o..+51*.o-,..*1<..+1",
"1:1<..#11,.......-1*..-1O.+>*..o1",
"111<..#11>...;:..#1=O+-1*......o1",
"111<..%11,..+11#.+111111>...++.O1",
"111<..#11<..#11&..5111111:$#>+.@1",
"111<..#114O.#11*..5<,,5111114..#1",
"111<..#111$.+11%.O1*..-4:=*1>..*1",
"111<..#111=..->O.#1*..-1+..<*..:1",
"111<..#111>......-1*..-1*.....O51",
"111<..#1111&....@51*..-1,+....-11",
"111<%%=11115=+O%,11-%%:11:$O@-111",
"111111111111111111111111111111111",
"111111111111111111111111111111111"
};
