/* XPM */
static const char *const ar16_9[] = {
/* columns rows colors chars-per-pixel */
"100 66 16 1 ",
"  c #000000",
". c #171717",
"X c #272727",
"o c #393939",
"O c #484848",
"+ c #575757",
"@ c #676767",
"# c #7B7B7B",
"$ c #888888",
"% c #979797",
"& c #ABABAB",
"* c #B8B8B8",
"= c #C9C9C9",
"- c #D9D9D9",
"; c #E9E9E9",
": c #FFFFFF",
/* pixels */
"::::::::::::::::::::::::::::::::::::::::::::::::::::::::::::::::::::::::::::::::::::::::::::::::::::",
"::::::::::::::::::::::::::::::::::::::::::::::::::::::::::::::::::::::::::::::::::::::::::::::::::::",
"::::::::::::::::::::::::::::::::::::::::::::::::::::::::::::::::::::::::::::::::::::::::::::::::::::",
"::::::::::::::::::::::::::::::::::::::::::::::::::::::::::::::::::::::::::::::::::::::::::::::::::::",
"::::::::::::::::::::::::::::::::::::::::::::::::::::::::::::::::::::::::::::::::::::::::::::::::::::",
"::::::::::::::::::::::::::::::::::::::::::::::::::::::::::::::::::::::::::::::::::::::::::::::::::::",
"::::::::::::::::::::::::::::::::::::::::::::::::::::::::::::::::::::::::::::::::::::::::::::::::::::",
"::::::::::::::::::::::::::::::::::::::::::::::::::::::::::::::::::::::::::::::::::::::::::::::::::::",
"::::::::::::::.      ;::::::::::::::::;%O. ..o#=::::::::::::::::::::::::::::::;$O. ..O$;::::::::::::",
":::::::::::::*       ::::::::::::::::%.         +;:::::::::::::::::::::::::::$          +;::::::::::",
":::::::::::::+       :::::::::::::::+            X;:::::::::::::::::::::::::O            X-:::::::::",
"::::::::::::;        ;:::::::::::::+              o::::::::::::::::::::::::+              X;::::::::",
"::::::::::::#        :::::::::::::$                $::::::::::::::::::::::%                O::::::::",
":::::::::::;         ;:::::::::::-                  ;::::::::::::::::::::;.                 &:::::::",
":::::::::::+         ;:::::::::::+                  $::::::::::::::::::::$                  X:::::::",
"::::::::::&          :::::::::::=                   X::::::::::::::::::::.                   &::::::",
":::::::::=           :::::::::::@        O&%.        =::::::::::::::::::*        .$$o        O::::::",
"::::::::=.           ;::::::::::.       O:::&        $::::::::::::::::::@       .-:::+        ;:::::",
":::::::&.            ::::::::::=        -::::X       O::::::::::::::::::X       %::::;.       &:::::",
"::::::@              ;:::::::::#       O:::::#       o:::::::::::::::::;       .::::::#       +:::::",
"::::&.               ::::::::::o       $:::::&  o+%=:::::::::::::::::::=       O::::::=       .:::::",
"::::                 ;:::::::::.       *:::::;=;:::::::::::::::::::::::&       #:::::::.       ;::::",
"::::                 :::::::::;        ;::::::::::::::::::*X.XXXX.X%:::$       %:::::::o       =::::",
"::::                 ;::::::::=        :::::::::::::::::::&        #:::$       &:::::::O       %::::",
"::::                 ;::::::::&       .:::::::::::::::::::&        $:::#       &:::::::+       @::::",
"::::        #        ;::::::::$       X:::$X  .@;:::::::::&        #:::$       %:::::::O       +::::",
"::::       &&        :::::::::@       O:;o       &::::::::&        #:::%       %:::::::o       O::::",
"::::      %:&        ;::::::::+       +;X         %:::::::&        #:::%       #:::::::X       X::::",
"::::    .&::&        ;::::::::O       @+           -::::::&        $:::*       O::::::;        .::::",
"::::   X=:::&        :::::::::O       X            X::::::&        #:::-        ::::::&        .::::",
"::::  @:::::&        :::::::::o                     &:::::&        $::::        %:::::O        .::::",
"::::O-::::::*        ;::::::::X                     X:::::&        #::::O       .-:::%          ::::",
"::::::::::::&        :::::::::X                      =::::&        $::::$        .%*@           ::::",
"::::::::::::&        ;::::::::X          +*&X        @::::&        #::::-                       ::::",
"::::::::::::&        ;::::::::X         #:::;X       X::::&        $:::::o                     .::::",
"::::::::::::*        :::::::::X        X:::::*        ;:::=@@@@@@@@&:::::=                     .::::",
"::::::::::::*        :::::::::o        $::::::X       =:::::::::::::::::::O            X       X::::",
"::::::::::::&        ;::::::::o        -::::::@       %:::::::::::::::::::-.          o$       X::::",
"::::::::::::&        :::::::::+        :::::::%       #::::::::::::::::::::*         .;@       o::::",
"::::::::::::&        ;::::::::@       X:::::::*       @:::::::::::::::::::::=.      X-:@       O::::",
"::::::::::::&        :::::::::@       X:::::::=       @::::::::::::::::::::::;#.  .#;::O       @::::",
"::::::::::::&        ;::::::::%       o:::::::=       +::::::::::::::::::::::::::;:::::o       $::::",
"::::::::::::&        :::::::::&       X:::::::=       @::::::::::::::::::::::::::::::::X       &::::",
"::::::::::::*        ;::::::::-       .:::::::*       @:::;********-:::::::::::::::::::        =::::",
"::::::::::::&        ::::::::::        ;::::::&       $:::&        $:::::::::::=;:::::-        ;::::",
"::::::::::::&        ;:::::::::o       *::::::@       &:::&        #::::::-%@o  $:::::&       X:::::",
"::::::::::::&        ::::::::::#       @::::::X       -:::&        $::::+.      O:::::@       @:::::",
"::::::::::::*        ;:::::::::&        ;::::*       .::::&        #::::@       .::::;        &:::::",
"::::::::::::&        ;::::::::::.       o:::;X       +::::&        $::::&        %:::@        ;:::::",
"::::::::::::&        :::::::::::+        X$$X        %::::&        #::::;         $&+        +::::::",
"::::::::::::&        :::::::::::=                    ;::::&        #:::::O                   *::::::",
"::::::::::::*        ;:::::::::::o                  @:::::&        #:::::&                  X:::::::",
"::::::::::::&        ::::::::::::*                  -:::::&        $::::::.                 *:::::::",
"::::::::::::&        ;::::::::::::@                @::::::&        #::::::&                @::::::::",
"::::::::::::&        ;::::::::::::;o              o:::::::&        $:::::::+              o:::::::::",
"::::::::::::*        ::::::::::::::;X            o;:::::::&        #:::::::;o            O;:::::::::",
"::::::::::::&        ::::::::::::::::@          @;::::::::&        $:::::::::@          $:::::::::::",
"::::::::::::;=-======:::::::::::::::::;$OX. .o$-::::::::::;========;::::::::::-$O.. .O%;::::::::::::",
"::::::::::::::::::::::::::::::::::::::::::::::::::::::::::::::::::::::::::::::::::::::::::::::::::::",
"::::::::::::::::::::::::::::::::::::::::::::::::::::::::::::::::::::::::::::::::::::::::::::::::::::",
"::::::::::::::::::::::::::::::::::::::::::::::::::::::::::::::::::::::::::::::::::::::::::::::::::::",
"::::::::::::::::::::::::::::::::::::::::::::::::::::::::::::::::::::::::::::::::::::::::::::::::::::",
"::::::::::::::::::::::::::::::::::::::::::::::::::::::::::::::::::::::::::::::::::::::::::::::::::::",
"::::::::::::::::::::::::::::::::::::::::::::::::::::::::::::::::::::::::::::::::::::::::::::::::::::",
"::::::::::::::::::::::::::::::::::::::::::::::::::::::::::::::::::::::::::::::::::::::::::::::::::::",
"::::::::::::::::::::::::::::::::::::::::::::::::::::::::::::::::::::::::::::::::::::::::::::::::::::"
};
