/* XPM */
static const char *const ar16_9_2160[] = {
/* columns rows colors chars-per-pixel */
"100 66 24 1 ",
"  c #000000",
". c #010101",
"X c #020202",
"o c #060606",
"O c #0B0B0B",
"+ c #181818",
"@ c #272727",
"# c #383838",
"$ c #474747",
"% c #585858",
"& c #676767",
"* c #7D7D7D",
"= c #747474",
"- c #909090",
"; c #B5B5B5",
": c #A8A8A8",
"> c #CACACA",
", c #D8D8D8",
"< c #EBEBEB",
"1 c #FFFFFF",
"2 c #FEFEFE",
"3 c #FDFDFD",
"4 c #FAFAFA",
"5 c #F4F4F4",
/* pixels */
"1111111111111111111111111111111111111111111111111111111111111111111111111111111111111111111111111111",
"1111111111111111111111111111111111111111111111111111111111111111111111111111111111111111111111111111",
"1111111111111111111111111111111111111111111111111111111111111111111111111111111111111111111111111111",
"1111111111111111111111111111111111111111111111111111111111111111111111111111111111111111111111111111",
"1111111111111111111111111111111111111111111111111111111111111111111111111111111111111111111111111111",
"1111111111111111111111111111111111111111111111111111111111111111111111111111111111111111111111111111",
"1111111111111111111111111111111111111111111111111111111111111111111111111111111111111111111111111111",
"1111111111111111111111111111111111111111111111141111111111111111111111111111111111111111111111111111",
"11111111111111+      <11111111111111115-$+oo+#*,111111111111111111111111111111<-$+oo@$-,111111111111",
"1111111111111;       5111111111111111-+    o    %<111111111111111111111111114*          &51111111111",
"1111111111111%       <11111111111114%            @<4111111111111111111111115$            @,111111111",
"111111111111<o       <1111111111111%              #511111111111111111111111$              +<11111111",
"111111111114*        <111111111111-                *4111111111111111111111-                $11111111",
"11111111111<o        <11111111111,o                o<41111111111111111111<O                 :1111111",
"11111111111%         <11111111111%                  -41111111111111111111*                  @1111111",
"1111111111:          <1111111111,                   +41111111111111111115+                   :111111",
"111111111>o          <1111111111&        $;-O        ;111111111111111111;        +--#        $111111",
"11111111>+           <1111111111+       $111;        *111111111111111111&       +,515%        <11111",
"1111111;O            <111111111;       o,4111@       $111111111111111111@       :1111<+       :11111",
"111114&              <111111111*       #11111*       #11111111111111111<       O411111*       %11111",
"1111:@               <111111114$       -11111:  @&->5111111111111111111;       %111111>       +11111",
"1111                 <111111111O       ;11111<>511111111111411111111111:       *1111111O       <1111",
"1111                 <11111111<        ,111111111111111111;@@@@+@+@-111-       :1111111@       >1111",
"1111                 <11111111>       o1111111111111111111:        *111*       :1111111$       -1111",
"1111                 <11111111:       +1111155111111111111:        -511=       ;1111111$       =1111",
"1111       o=        <11111111-       @115-@  @&,111111111:        *111=       :1111111$       %1111",
"1111     o :;        <11111111&       #1<#      o:11111111:        *111-       -1111111#       $1111",
"1111     o-1;        <11111111%       %5#        o-1111111:        =111-       *1111111@       @1111",
"1111    o:11;        <11111111$       &%          o>111111:        -111:       $111111<        +1111",
"1111   @>111;        <11111111$       @           o@441111:        *111,       O511111:        +1111",
"1111 o&51111;        511111111#                     :41111:        -1114o       -11111#        +1111",
"1111$,111111:        <11111111@                     @41111:        *1111#       +<111-         o1111",
"111111111111;        <11111111@                      ;1111:        -5111-        +:;&           1111",
"111111111111;        <11111111@          %;:@        &1111:        *1111>                       1111",
"111111111111:        <11111111@         =1115@       +1111:        *11111#                     +1111",
"111111111111;        <11111111@        @41111;        <111>&&&&&&&&;11111;                     +1111",
"111111111111;        <11111111#        -111111@       ;1111111111111111111$            @       @1111",
"111111111111;        <11111111#        ,111111&       -1111111111111111111,O          #-       @1111",
"111111111111;        <11111111$        4111111-o      *11111111111111111111;o        +,=       #1111",
"111111111111;        <11111111&      o+1111111;       &111111111111111111111;+      @,1%       $1111",
"111111111111;        511111111=       @1111111>       %1111111111111111111111<=+  +*<11$       &1111",
"111111111111;        <11111111-       #1111111,       %11111111111111111111111115511111#       -1111",
"111111111111;        <11111111;       @1111111>       &11111111111141111111111111111114@       :1111",
"111111111111:        <11111111,       +1111111;       &111<;;>;;;;;,1111111111111111114o       >1111",
"111111111111;        <111111115o       <111111:       -411:        -11111111114,<41111,        <1111",
"111111111111;        <111111111#       ;111111=       :411:        *111114>:&#o -11111:       @11111",
"111111111111;        <111111111=       &111114@       ,111:        *1111%o      %41111&       &11111",
"111111111111;        <111111111;       o,1111>       o5111:        *1111&       +5111<o       :11111",
"111111111111;        <1111111115O       #<14<@       $1111:        -5111:        -111%        <11111",
"111111111111;        51111111111&        @--@        -1111:        *1111,         -;%        %111111",
"111111111111;        <1111111111>                   o<1111:        *11111#                   ;111111",
"111111111111;        <11111111111#                  %11111:        =11111:                  #1111111",
"111111111111:        <11111111111;o                o,11111:        -111115+                 ;1111111",
"111111111111;        <111111111111&                =111111:        *111111:                &11111111",
"111111111111;        <111111111111<@o             #5111111:        -1111111$              $511111111",
"111111111111;        <1111111111111<@            @<1111111:        *11111115#            $5111111111",
"111111111111;        <111111111111115=o        o&511111111:        *111111115&         O-51111111111",
"111111111111<>>>>>>>>11111111111111111<-$@Oo+#*,1111111111<>>,>>>>><1111111111,*$+oo+$-<111111111111",
"1111111111111111111111111111111111111111111111111111111111111111111111111111111111111111111111111111",
"1111111111111111111111111111111111111111111111111111111111111111111111111111111111111111111111111111",
"1111111111111111111111111111111111111111111111111111111111111111111111111111111111111111111111111111",
"1111111111111111111111111111111111111111111111111111111111111111111111111111111111111111111111111111",
"1111111111111111111111111111111111111111111111111111111111111111111111111111111111111111111111111111",
"1111111111111111111111111111111111111111111111111111111111111111111111111111111111111111111111111111",
"1111111111111111111111111111111111111111111111111111111111111111111111111111111111111111111111111111",
"1111111111111111111111111111111111111111111111111111111111111111111111111111111111111111111111111111"
};
