/* XPM */
static const char *const ar4_3_576[] = {
/* columns rows colors chars-per-pixel */
"27 18 23 1 ",
"  c #000000",
". c #010101",
"X c #020202",
"o c #060606",
"O c #0B0B0B",
"+ c #181818",
"@ c #242424",
"# c #373737",
"$ c #454545",
"% c #575757",
"& c #787878",
"* c #676767",
"= c #8C8C8C",
"- c #AAAAAA",
"; c #A3A3A3",
": c #BABABA",
"> c #D8D8D8",
", c #CBCBCB",
"< c #FFFFFF",
"1 c #FEFEFE",
"2 c #FAFAFA",
"3 c #F4F4F4",
"4 c #E9E9E9",
/* pixels */
"<<<<<<<<<<<<<<<<<<<<<<<<<<<",
"<<<<<<%  -<<<<<<<<>%+o+&3<<",
"<<<<<:   ;<<<<<<<4+  o  %<<",
"<<<<2@   -<<<<<<<&  +#   ><",
"<<<<=    ;<<<<<<<+  ,<#  ;<",
"<<<4O O  -<<===><>;*<<%  ;<",
"<<<$ O=  -<<o  -<<<<<>O  ><",
"<<:  &;  -<<   -<<<<=   &<<",
"<2@ @3;  -<<   -<<<<&  o=<<",
"<&  :<;  ;<<###,<<<<&@  o=<",
"<o +==%  %-<<<22<<<<2<&  #<",
"<         $<<<<<<<<2<<,   <",
"<         $<***,3=%#2<>  +<",
"<@@@@@+  +%<   :2O  :<=  #<",
"<<<<<<;  -<<   -<*  +$o  =<",
"<<<<<<;  ;<<   :<4+     #2<",
"<<<<<<:$$:<<$$$,2<4%+ +&4<<",
"<<<<<<<<<<<<<<<<<<<<<<<<<<<"
};
