/* XPM */
static const char *const ar4_3_720[] = {
/* columns rows colors chars-per-pixel */
"33 22 23 1 ",
"  c #000000",
". c #010101",
"X c #030303",
"o c #050505",
"O c #0B0B0B",
"+ c #151515",
"@ c #252525",
"# c #373737",
"$ c #444444",
"% c #545454",
"& c #717171",
"* c #8B8B8B",
"= c #A9A9A9",
"- c #A5A5A5",
"; c #BCBCBC",
": c #D9D9D9",
"> c #C7C7C7",
", c #E9E9E9",
"< c #FFFFFF",
"1 c #FEFEFE",
"2 c #FDFDFD",
"3 c #F9F9F9",
"4 c #F4F4F4",
/* pixels */
"<<<<<<<<<<<<<<<<<<<<<<<<<<<<<<<<<",
"<<<<<<<<<<<<<<<<<<<<<<<<<<<<<<<<<",
"<<<<<<<=   -<<<<<<<<<<2*#O +%><<<",
"<<<<<<,+   =<<<<<<<<<2#      o;<<",
"<<<<<<%    =<<<<<<<<<*     o  @<<",
"<<<<<-     =<<<<<<<<<+  +>,@  o><",
"<<<<,+     =<<<<<<<<,%+ &2<&   ;<",
"<<<<%  #   -<<=++O%2<<<,:2<%   :<",
"<<<-  O:   =<<-   $<<<<<<>*o  #<<",
"<<,+  *<   =<<-   #<<<<<<#   @:<<",
"<<%  #2<   =<<-   #<<<<<<@  o@;<<",
"<-  O:<<   -<<=+++%<<<<<<+O   o;<",
"<+  %-==   &=2<<<<<<<<<<<,<&   $<",
"<            ,<<<<<<<<<<<<<3O  +<",
"<            ,3:,:,<<4>-><<<+  O<",
"<            ,-  o#<;   %<<4O  @<",
"2*******   %*3-   $<4O  o;2&   &<",
"222<2222   =<<-   #<2*    o   o:<",
"<<<<22<<   -<<-   $<<2$o   o  -2<",
"<<<<<<<<$$$;<<;$$$&<<<<*#+O+%;<<<",
"<<<<<<<<<<<<<<<<<<<<<<<<<<<<<<<<<",
"<<<<<<<<<<<<<<<<<<<<<<<<<<<<<<<<<"
};
