/* XPM */
static const char *const ar4_3[] = {
/* columns rows colors chars-per-pixel */
"100 66 16 1 ",
"  c #000000",
". c #171717",
"X c #252525",
"o c #383838",
"O c #484848",
"+ c #575757",
"@ c #666666",
"# c #797979",
"$ c #979797",
"% c #868686",
"& c #A3A3A3",
"* c #BABABA",
"= c #CACACA",
"- c #DBDBDB",
"; c #E8E8E8",
": c #FFFFFF",
/* pixels */
"::::::::::::::::::::::::::::::::::::::::::::::::::::::::::::::::::::::::::::::::::::::::::::::::::::",
"::::::::::::::::::::::::::::::::::::::::::::::::::::::::::::::::::::::::::::::::::::::::::::::::::::",
"::::::::::::::::::::::::::::::::::::::::::::::::::::::::::::::::::::::::::::::::::::::::::::::::::::",
"::::::::::::::::::::::::::::::::::::::::::::::::::::::::::::::::::::::::::::::::::::::::::::::::::::",
"::::::::::::::::::::::::::::::::::::::::::::::::::::::::::::::::::::::::::::::::::::::::::::::::::::",
"::::::::::::::::::::::::::::::::::::::::::::::::::::::::::::::::::::::::::::::::::::::::::::::::::::",
"::::::::::::::::::::::::::::::::::::::::::::::::::::::::::::::::::::::::::::::::::::::::::::::::::::",
"::::::::::::::::::::::::::::::::::::::::::::::::::::::::::::::::::::::::::::::::::::::::::::::::::::",
"::::::::::::::::::::::::-.         :::::::::::::::::::::::::::::::::::::*#+X.  .Xo+$=:::::::::::::::",
"::::::::::::::::::::::::o          ::::::::::::::::::::::::::::::::::-@.             .%;::::::::::::",
":::::::::::::::::::::::%           :::::::::::::::::::::::::::::::::%.                 .*:::::::::::",
"::::::::::::::::::::::=            ::::::::::::::::::::::::::::::::O                     $::::::::::",
"::::::::::::::::::::::X            :::::::::::::::::::::::::::::::+                       *:::::::::",
":::::::::::::::::::::#             ::::::::::::::::::::::::::::::%                        .;::::::::",
"::::::::::::::::::::*              :::::::::::::::::::::::::::::-                          #::::::::",
"::::::::::::::::::::.              :::::::::::::::::::::::::::::O                           ;:::::::",
":::::::::::::::::::+               ::::::::::::::::::::::::::::=            @&$+            &:::::::",
"::::::::::::::::::&                ::::::::::::::::::::::::::::@          .;::::*           @:::::::",
":::::::::::::::::;.                ::::::::::::::::::::::::::::.          =::::::@          o:::::::",
":::::::::::::::::O                 :::::::::::::::::::::::::::=          o:::::::=          .:::::::",
"::::::::::::::::$                  :::::::::::::::::::::::::::=o.        %::::::::          .:::::::",
":::::::::::::::-                   ::::::::::::::::::::::::::::::=$@X    =:::::::;          .:::::::",
":::::::::::::::X         .         :::::::::*.XXXXXX.XXX%::::::::::::;*%O;:::::::-          o:::::::",
"::::::::::::::#         @O         :::::::::$           #::::::::::::::::::::::::%          #:::::::",
":::::::::::::=         X:O         :::::::::&           #:::::::::::::::::::::::;.          =:::::::",
"::::::::::::;X         =:O         :::::::::$           #::::::::::::::::::::::;o          o::::::::",
"::::::::::::@         %::O         :::::::::&           #::::::::::::::::::-==$.           *::::::::",
":::::::::::*         o:::O         :::::::::&           #::::::::::::::::::@              #:::::::::",
"::::::::::;.        .-:::O         :::::::::&           #::::::::::::::::::+             +::::::::::",
"::::::::::O         &::::O         :::::::::$           #::::::::::::::::::O            @:::::::::::",
":::::::::$         @:::::O         :::::::::&           #::::::::::::::::::X           +::::::::::::",
"::::::::-         .;:::::O         :::::::::&           #::::::::::::::::::X             @;:::::::::",
"::::::::o         *::::::O         :::::::::$           #::::::::::::::::::.              .*::::::::",
":::::::%         #:::::::O         :::::::::&           #::::::::::::::::::                 *:::::::",
"::::::=         o::::::::O         :::::::::&           #::::::::::::::::::                 .;::::::",
":::::;X         =::::::::O         :::::::::=@@@@@@@@@@@*:::::::::::::::::; X@#+.            @::::::",
":::::@         $:::::::::O         ::::::::::::::::::::::::::::::::::::::::-:::::#            ;:::::",
":::::         X**********o         *****::::::::::::::::::::::::::::::::::::::::::@           $:::::",
":::::                                   ::::::::::::::::::::::::::::::::::::::::::;.          +:::::",
":::::                                   :::::::::::::::::::::::::::::::::::::::::::@          X:::::",
":::::                                   :::::::::::::::::::::::::::::::::::::::::::$          .:::::",
":::::                                   :::::::::::::::::::::::::::::::::::::::::::*           :::::",
":::::                                   :::::::::::::::::::::::::::::::;*::::::::::=           :::::",
":::::                                   ::::;***********-::::::::=*%+X   =:::::::::*          .:::::",
":::::                                   ::::&           #:::::+X         $:::::::::$          o:::::",
":::::                                   ::::$           #:::::o          O:::::::::@          @:::::",
":::::                                   ;:::&           #:::::#           ;::::::::.          $:::::",
":::::                                   ::::&           #:::::-           #:::::::#           ;:::::",
":::::----;-----;-----;---o         -----::::&           #::::::o           *:::::&           o::::::",
":::::::::::::::::::::::::O         :::::::::$           #::::::&            +*=&+            &::::::",
":::::::::::::::::::::::::O         :::::::::&           #:::::::X                           X:::::::",
":::::::::::::::::::::::::O         :::::::::&           #:::::::=                           *:::::::",
":::::::::::::::::::::::::O         :::::::::&           #::::::::#                         @::::::::",
":::::::::::::::::::::::::O         :::::::::$           #:::::::::O                       o:::::::::",
":::::::::::::::::::::::::O         :::::::::&           #::::::::::+                     O::::::::::",
":::::::::::::::::::::::::O         :::::::::&           #:::::::::::%.                  %:::::::::::",
":::::::::::::::::::::::::O         :::::::::&           #::::::::::::;@.              @-::::::::::::",
":::::::::::::::::::::::::-=========:::::::::;===========;:::::::::::::::*#+o..  .XO#*:::::::::::::::",
"::::::::::::::::::::::::::::::::::::::::::::::::::::::::::::::::::::::::::::::::::::::::::::::::::::",
"::::::::::::::::::::::::::::::::::::::::::::::::::::::::::::::::::::::::::::::::::::::::::::::::::::",
"::::::::::::::::::::::::::::::::::::::::::::::::::::::::::::::::::::::::::::::::::::::::::::::::::::",
"::::::::::::::::::::::::::::::::::::::::::::::::::::::::::::::::::::::::::::::::::::::::::::::::::::",
"::::::::::::::::::::::::::::::::::::::::::::::::::::::::::::::::::::::::::::::::::::::::::::::::::::",
"::::::::::::::::::::::::::::::::::::::::::::::::::::::::::::::::::::::::::::::::::::::::::::::::::::",
"::::::::::::::::::::::::::::::::::::::::::::::::::::::::::::::::::::::::::::::::::::::::::::::::::::",
"::::::::::::::::::::::::::::::::::::::::::::::::::::::::::::::::::::::::::::::::::::::::::::::::::::"
};
