/* XPM */
static const char *const ar4_3_2160[] = {
/* columns rows colors chars-per-pixel */
"100 66 25 1 ",
"  c #000000",
". c #010101",
"X c #020202",
"o c #050505",
"O c #0B0B0B",
"+ c #161616",
"@ c #252525",
"# c #383838",
"$ c #4C4C4C",
"% c #595959",
"& c #676767",
"* c #787878",
"= c #9D9D9D",
"- c #939393",
"; c #878787",
": c #BABABA",
"> c #A9A9A9",
", c #CACACA",
"< c #DBDBDB",
"1 c #FFFFFF",
"2 c #FEFEFE",
"3 c #FDFDFD",
"4 c #FAFAFA",
"5 c #F2F2F2",
"6 c #E8E8E8",
/* pixels */
"1111111111111111111111111111111111111111111111111111111111111111111111111111111111111111111111111111",
"1111111111111111111111111111111111111111111111111111111111111111111111111111111111111111111111111111",
"1111111111111111111111111111111111111111111111111111111111111111111111111111111111111111111111111111",
"1111111111111111111111111111111111111111111111111111111111111111111111111111111111111111111111111111",
"1111111111111111111111111111111111111111111111111111111111111111111111111111111111111111111111111111",
"1111111111111111111111111111111111111111111111111111111111111111111111111111111111111111111111111111",
"1111111111111111111111111111111111111111111111111111111111111111111111111111111111111111111111111111",
"1111111111111111111111111111111111111111111111111111111111111111111111111111111111111111111111111111",
"111111111111111111111111<+         4111111111111111111111111111111111115:*$@+Oo+@#%=,111111111111111",
"111111111111111111111114$          4111111111111111111111111111111111<&O             @;5111111111111",
"11111111111111111111111-           411111111111111111111111111111111;O                 +:11111111111",
"1111111111111111111111<o           41111111111111111111111111111115$                     =1111111111",
"1111111111111111111115#            4111111111111111111111111111114$                       :111111111",
"111111111111111111111*             411111111111111111111111111111*                        +611111111",
"11111111111111111111,              41111111111111111111111111111,O                         *11111111",
"11111111111111111115+              41111111111111111111111111111#              o           O54111111",
"1111111111111111111&               4111111111111111111111111111,           +&==$            >1111111",
"111111111111111111>                4111111111111111111111111111%          @<1111>           %1111111",
"11111111111111111<+                4111111111111111111111111114O         o,111111&          #1111111",
"11111111111111111$                 411111111111111111111111114,          #1111114,          @1111111",
"1111111111111114-                  411111111111111111111111111:#O        -11111115          +1111111",
"111111111111111<O                  411111111111111111111111111111,=%@    ,11111115          +1111111",
"111111111111111#         +         411111111>@@@@@@@+@@@;1111111111115:;$51111111,          #1111111",
"11111111111111*         &$         411111111=           *111111111111111111111111;          *1111111",
"1111111111111,         @5$         411111111=           *111111111111111111111116+          ,1111111",
"1111111111115@        o,1$         411111111=           *11111111111111111111115#          #11111111",
"111111111111&         ;11$         411111111=           *111111111111111111<,,-+           ,11111111",
"11111111111>         #411$         411111111=           *111111111111111111% o            *111111111",
"11111111116+        O<111$         411111111=           *111111111111111111$            o%1111111111",
"1111111111$         =1111$         411111111=           *111111111111111111#            &11111111111",
"111111111=         %11111$         411111111=           *111111111111111111#           %511111111111",
"11111111<O        +511111$         411111111=           *111111111111111111+            O&6111111111",
"11111114#         :111111$         411111111=           *111111111111111111O              +:11111111",
"1111111;         *1111111$         411111111=           *111111111111111111o               o:1111111",
"111111,o        #51111111$         411111111=           *111111111111111115                 +5111111",
"111115@        o,11111111$         411111111,&&&&&&&&&&&>11111111111111111< #&*%+            &111111",
"11111&         -111111111$         4111111111111111111111111111111111111115611115*           o511111",
"11111         @::::::::::#         :::::411111111111111111111111111111111111111111&           -11111",
"11111                                   5111111111111111111111111111111111111111115O          %11111",
"11111                                   5111111111111111111111111111111111111111111&          @11111",
"11111                                   5111111111111111111111111111111111111111111-          O11111",
"11111                                   5111111111111111111111111111111111111111111:          o11111",
"11111                                   5111111111111111111111111111144<:4111111111,          O11111",
"11111                                   51116:::::::::::<11111111,>;%#O  ,111111114:          +11111",
"11111                                   5111=           *11115$@o        =111111111=          #11111",
"11111                                   5111=           *11111#          %111111114&          %11111",
"11111                                   5111=           *11111&          O511111115+          =11111",
"11111                                   5411=           *11111,           *1111111*           611111",
"11111<<<<<<<<<<<<<<<<<<<<$         <<<<<1111=           *111111#          o>11111=           #111111",
"1111111111111111111111111$         411111111=           *111111=           o%>,>%            >111111",
"1111111111111111111111111$         411111111=o          *1111115@                           @1111111",
"1111111111111111111111111$         411111111=           *1111111:                           :1111111",
"1111111111111111111111111$         411111111=           *11111111&                         &11111111",
"1111111111111111111111111$         411111111=           *111111114$                       $411111111",
"1111111111111111111111111$         411111111=           *1111111114$                     $5411111111",
"1111111111111111111111111$         411111111=           *11111111111-O                  ;11111111111",
"1111111111111111111111111$         411111111=           *1111111111116&+             O&<111111111111",
"1111111111111111111111111<,,,,,,,,,1111111115,,,,,,,,,,,6111111111111115:;$#++ O+@$*:511111111111111",
"1111111111111111111111111111111111111111111111111111111111111111111111111111111111111111111111111111",
"1111111111111111111111111111111111111111111111111111111111111111111111111111111111111111111111111111",
"1111111111111111111111111111111111111111111111111111111111111111111111111111111111111111111111111111",
"1111111111111111111111111111111111111111111111111111111111111111111111111111111111111111111111111111",
"1111111111111111111111111111111111111111111111111111111111111111111111111111111111111111111111111111",
"1111111111111111111111111111111111111111111111111111111111111111111111111111111111111111111111111111",
"1111111111111111111111111111111111111111111111111111111111111111111111111111111111111111111111111111",
"1111111111111111111111111111111111111111111111111111111111111111111111111111111111111111111111111111"
};
