/* XPM */
static const char *const ar4_3_1080[] = {
/* columns rows colors chars-per-pixel */
"50 33 25 1 ",
"  c #000000",
". c #010101",
"X c #020202",
"o c #060606",
"O c #0C0C0C",
"+ c #151515",
"@ c #2A2A2A",
"# c #363636",
"$ c #454545",
"% c #575757",
"& c #646464",
"* c #6B6B6B",
"= c #797979",
"- c #929292",
"; c #A6A6A6",
": c #AAAAAA",
"> c #B9B9B9",
", c #DBDBDB",
"< c #C9C9C9",
"1 c #EBEBEB",
"2 c #FFFFFF",
"3 c #FEFEFE",
"4 c #FDFDFD",
"5 c #FAFAFA",
"6 c #F4F4F4",
/* pixels */
"22222222222222222222222222222222222222222222222222",
"22222222222222222222222222222222222222222222222222",
"22222222222222222222222222222222222222222222222222",
"22222222222522222222222222222222222222222222222222",
"222222222221+    ;22222222222222225>%@O O@&>222222",
"22222222222%o    ;2222222222222221#o        $12222",
"2222222222-      ;222222222222226@           $2222",
"222222222,O      ;22222222222222*             ;222",
"222222225#       ;22222222222221O    +;<%     $222",
"22222222=        ;2222222222222- o   >222@   o+222",
"2222222>         ;2222522222222<=$O O2222%    +222",
"2222221+   o@    ;2222%+O+O+:222222,>2225@    #222",
"222222%    -%    :2222$     :22222222222-     -222",
"22222-    #5&    ;2222#     :222222225&$     @5222",
"2222,O   +12&    ;2222$     :222222221      @,2222",
"2225#    :22%o   ;2222#     :22222225,      &,2222",
"222=    &222&    ;2222$     :22222222<       o:222",
"22>o   @5222&    ;2222&#####>22222222>O@O     O,22",
"22+o  o:,,,,%    -,1222252222222222225525$     *22",
"22                 O2222222222222225222221O    @22",
"22                 +2222222222225225222222@    O22",
"22                 +221,,,,,62225,:-=22222#    O22",
"22                 +22$     :22$     62225+    #22",
"22                 +22#     :22=     -222>     *22",
"221611611161%   o-1122$     :22,o    O-,:O     <22",
"222222222222&    :2222$     :222&             $222",
"222222222222&    :2222#     :2226#           +1222",
"222222222222&    ;2222$     :22251%         @,2222",
"222222222222;&&&&<2222-&*&&&<222222>*@+o+@%;522222",
"22222222222222222222225222222222222222222222222222",
"22222222222222222222222222222222222222222222222222",
"22222222222222222222222222222222222222222222222222",
"22222222222222222222222222222222222222222222222222"
};
