/* XPM */
static const char *const arHD_576[] = {
/* columns rows colors chars-per-pixel */
"27 18 25 1 ",
"  c #000000",
". c #010101",
"X c #030303",
"o c #050505",
"O c #0A0A0A",
"+ c #121212",
"@ c #1B1B1B",
"# c #282828",
"$ c #373737",
"% c #484848",
"& c #575757",
"* c #767676",
"= c #696969",
"- c #858585",
"; c #999999",
": c #A9A9A9",
"> c #B5B5B5",
", c #D9D9D9",
"< c #C8C8C8",
"1 c #E7E7E7",
"2 c #FFFFFF",
"3 c #FEFEFE",
"4 c #FDFDFD",
"5 c #FAFAFA",
"6 c #F5F5F5",
/* pixels */
"222222222222222222222222222",
"222222222222222222222222222",
"222=X  >22* XX:2&   X@%>222",
"222$   ,22%  X<2#       ;22",
"222O  +222@  O55X       X,2",
"22,   $221   #2,   %*$   -2",
"22:   %<<;   &2:   >26#  $2",
"22-      X   -2-   ,22%  @2",
"22&          >5&  O522&  X2",
"22#          12#  $222$  #2",
"26   +**=   +22O  &221X  %2",
"2<   %22,   $2,   -25%   ;2",
"2;X  *22:   =2>   %*#   +62",
"2=   :22-   ;5-   X X  X:22",
"2$   <22&   <2&X       -222",
"2#+@@522$+++12$ X++#&-,2222",
"222222222222222222222222222",
"222222222222222222222222222"
};
