/* XPM */
static const char *const arHD_720[] = {
/* columns rows colors chars-per-pixel */
"33 22 23 1 ",
"  c #000000",
". c #010101",
"X c #030303",
"o c #060606",
"O c #0B0B0B",
"+ c #121212",
"@ c #1C1C1C",
"# c #292929",
"$ c #363636",
"% c #474747",
"& c #585858",
"* c #696969",
"= c #757575",
"- c #999999",
"; c #8B8B8B",
": c #AFAFAF",
"> c #CECECE",
", c #E9E9E9",
"< c #FFFFFF",
"1 c #FEFEFE",
"2 c #FDFDFD",
"3 c #FAFAFA",
"4 c #F4F4F4",
/* pixels */
"<<<<<<<<<<<<<<<<<<<<<<<<<<<<<<<<<",
"<<<<<<<<<<<<<<<<<<<<<<<<<<<<<<<<<",
"<<<<<<<<<<<<<<<<<<<<<<<<<<<<<<<<<",
"<<<4++o $<<<:o  o=<3O    ++%:<<<<",
"<<3>    *<<<;    -<>o        %,<<",
"<<<-    ;<<<&    ><:          %<<",
"<<<*    :<<<#o  o4<=           ><",
"<<<$    ,<<4o   $<<%   $4,:o   *<",
"<<4O   O===*    *<3#   *<<<&   #<",
"<<>             ;<,    ;<<<=   +<",
"<<-o            >3>    :<<<=   o<",
"<<*             ,3-    ,<<<%   @<",
"<<$o   #$$$    #<<*   +<<<4+   %<",
"<<+   +<<<>    &<<%   %<<<=   o;<",
"<>    %<<<-    ;<<+   *3>=    +,<",
"<:    =<<<*    :<,            ;<<",
"<=    :<<<$    ,<:           &3<<",
"<%    ><<<+   +<<;         o=3<<<",
"<#+++#<<<,++++&3<& O+++@%*-,<<<<<",
"<<<<<<<<<3<<<<<<<<<<<<<<<<<<<<<<<",
"<<<<<<<<<<<<<<<<<<<<<<<<<<<<<<<<<",
"<<<<<<<<<<<<<<<<<<<<<<<<<<<<<<<<<"
};
