/* XPM */
static const char *const arHD_1080[] = {
/* columns rows colors chars-per-pixel */
"50 33 24 1 ",
"  c #000000",
". c #010101",
"X c #030303",
"o c #040404",
"O c #0C0C0C",
"+ c #111111",
"@ c #1B1B1B",
"# c #272727",
"$ c #393939",
"% c #474747",
"& c #575757",
"* c #797979",
"= c #676767",
"- c #999999",
"; c #888888",
": c #A8A8A8",
"> c #B9B9B9",
", c #D0D0D0",
"< c #E9E9E9",
"1 c #FFFFFF",
"2 c #FEFEFE",
"3 c #FDFDFD",
"4 c #FAFAFA",
"5 c #F4F4F4",
/* pixels */
"11111111111111111111111111111111111111111111111111",
"11111111111111111111111111111111111111111111111111",
"11111111111111111111111111111111111111111111111111",
"11111111111111111111111111111111111111111111111111",
"11111:++++++O<11111$....OO&111*......+++@&;5111111",
"11111*.o....O411111+......*111&............O*41111",
"11111%......$11111,o......:111@..............%<111",
"11111+......=11111:o......,115................%111",
"1111<.......;11111*......O111,.................:11",
"1111>.......,11111%......$111-.................#11",
"1111;.......511111+......=111=......=::-$.......,1",
"1111&......#11111<.......-111%......,5111%......*1",
"1111#......#----;=.......,111+......<1111,......%1",
"111<............o........511<......@111115......#1",
"111,....................#111>......%111111......O1",
"111;....................&111;......*111115......o1",
"111=....................;111=......:11111,......+1",
"111#....................>111$......,11111>......#1",
"115.......o.............5111O......411111=......&1",
"11,.......*>>>>:$......#111,......#11111<O......-1",
"11-.......,11111#......%111:......&11111=.......<1",
"11=......O411115.......;111;......;1114*.......%11",
"11$......$11111,.......>111&......*>:*#........,11",
"14O......=11111-.......,111#..................&111",
"1,.......-11111=......+1115o................o#5111",
"1:.......,11111%......%111,.................@,1111",
"1*.......411111+......=111:................#,11111",
"1%......$11111,o......:111*..............%:4111111",
"1#++#@##*11111>++++OO+,111&++++O+++@$&;><111111111",
"11111114111111111111111111111111111111411111111111",
"11111111111111111111111111111111111111111111111111",
"11111111111111111111111111111111111111111111111111",
"11111111111111111111111111111111111111111111111111"
};
