/* XPM */
static const char *const arHD_2160[] = {
/* columns rows colors chars-per-pixel */
"100 66 23 1 ",
"  c #000000",
". c #010101",
"X c #020202",
"o c #050505",
"O c #0B0B0B",
"+ c #141414",
"@ c #252525",
"# c #353535",
"$ c #474747",
"% c #585858",
"& c #707070",
"* c #888888",
"= c #979797",
"- c #A6A6A6",
"; c #B8B8B8",
": c #D8D8D8",
"> c #C8C8C8",
", c #E9E9E9",
"< c #FFFFFF",
"1 c #FEFEFE",
"2 c #FDFDFD",
"3 c #FAFAFA",
"4 c #F4F4F4",
/* pixels */
"<<<<<<<<<<<<<<<<<<<<<<<<<<<<<<<<<<<<<<<<<<<<<<<<<<<<<<<<<<<<<<<<<<<<<<<<<<<<<<<<<<<<<<<<<<<<<<<<<<<<",
"<<<<<<<<<<<<<<<<<<<<<<<<<<<<<<<<<<<<<<<<<<<<<<<<<<<<<<<<<<<<<<<<<<<<<<<<<<<<<<<<<<<<<<<<<<<<<<<<<<<<",
"<<<<<<<<<<<<<<<<<<<<<<<<<<<<<<<<<<<<<<<<<<<<<<<<<<<<<<<<<<<<<<<<<<<<<<<<<<<<<<<<<<<<<<<<<<<<<<<<<<<<",
"<<<<<<<<<<<<<<<<<<<<<<<<<<<<<<<<<<<<<<<<<<<<<<<<<<<<<<<<<<<<<<<<<<<<<<<<<<<<<<<<<<<<<<<<<<<<<<<<<<<<",
"<<<<<<<<<<<<<<<<<<<<<<<<<<<<<<<<<<<<<<<<<<<<<<<<<<<<<<<<<<<<<<<<<<<<<<<<<<<<<<<<<<<<<<<<<<<<<<<<<<<<",
"<<<<<<<<<<<<<<<<<<<<<<<<<<<<<<<<<<<<<<<<<<<<<<<<<<<<<<<<<<<<<<<<<<<<<<<<<<<<<<<<<<<<<<<<<<<<<<<<<<<<",
"<<<<<<<<<<<<<<<<<<<<<<<<<<<<<<<<<<<<<<<<<<<<<<<<<<<<<<<<<<<<<<<<<<<<<<<<<<<<<<<<<<<<<<<<<<<<<<<<<<<<",
"<<<<<<<<<<<<<<<<<<<<<<<<<<<<<<<<<<<<<<<<<<<<<<<<<<<<<<<<<<<<<<<<<<<<<<<<<<<<<<<<<<<<<<<<<<<<<<<<<<<<",
"<<<<<<<<<<<&@+++O     +++O;<<<<<<<<<<<=            ++*<<<<<<<+         o++O+@@@@#$&-,<<<<<<<<<<<<<<<",
"<<<<<<<<<<<#o             :<<<<<<<<<<<&              -<<<<<<,                       o$-3<<<<<<<<<<<<",
"<<<<<<<<<<<O              4<<<<<<<<<<<#              :<<<<<<;                         o+=<<<<<<<<<<<",
"<<<<<<<<<<:              @<<<<<<<<<<<<O             O<<<<<<<*                            #,<<<<<<<<<",
"<<<<<<<<<<-              %<<<<<<<<<<<:              #<<<<<<<%                             +;<<<<<<<<",
"<<<<<<<<<<&              *<<<<<<<<<<<=              &<<<<<<<#                              O;<<<<<<<",
"<<<<<<<<<<$              ;<<<<<<<<<<<&o             =<<<<<<3o                               O:<<<<<<",
"<<<<<<<<<<+              ,<<<<<<<<<<<#              ><<<<<<:                                 @4<<<<<",
"<<<<<<<<3,              +<<<<<<<<<<<<+              4<<<<<<-o                                 *<<<<<",
"<<<<<<<<3;              #<<<<<<<<<<<:              #<<<<<<<&                                  O,<<<<",
"<<<<<<<<<*              &<<<<<<<<<<<;              %<<<<<<<$                                   =<<<<",
"<<<<<<<<3%              -<<<<<<<<<<<&              *<<<<<<<@                                   @<<<<",
"<<<<<<<<<@              ><<<<<<<<<<<$              ;<<<<<<4o            O$$%%%%#                ;<<<",
"<<<<<<<<,              o3<<<<<<<<<<<+              ,<<<<<<>             $<<<<<<<:@              &<<<",
"<<<<<<<<>              #<<<<<<<<<<<,              +<<<<<<<=             &<<<<<<<<4#             @<<<",
"<<<<<<<<*              %<<<<<<<<<<3;              %<<<<<<<&             -<<<<<<<<<:+             :<<",
"<<<<<<<<%              *<<<<<<<<<<<*              &<<<<<<<$             ><<<<<<<<<<&             -<<",
"<<<<<<<<@              O@@+@@@@++@@+              ;<<<<<<<+            o3<<<<<<<<<<>             &<<",
"<<<<<<<4o                 o                       :<<<<<<,             @<<<<<<<<<<<:             %<<",
"<<<<<<<>                                         +<<<<<<<;             %<<<<<<<<<<<,             #<<",
"<<<<<<<=                                         $3<<<<<<*             &<<<<<<<<<<<4             +<<",
"<<<<<<3&                                         &<<<<<<<&             ;<<<<<<<<<<<<o           o+<<",
"<<<<<<<#                                         -<<<<<<<#             :<<<<<<<<<<<<             O<<",
"<<<<<<3O                                         ><<<<<<<O            O<<<<<<<<<<<<4             O<<",
"<<<<<<:                                         o3<<<<<<:             #<<<<<<<<<<<<:             +<<",
"<<<<<<=                                         #<<<<<<<;             %<<<<<<<<<<<<;             #<<",
"<<<<<<&                                         %<<<<<<<&             *<<<<<<<<<<<<=             $<<",
"<<<<<<$                                         =<<<<<<<%o            ;<<<<<<<<<<<<%             &<<",
"<<<<<3O                                         ><<<<<<<@             ,<<<<<<<<<<<3+             =<<",
"<<<<<:              oO                          4<<<<<<3O            +<<<<<<<<<<<<;              :<<",
"<<<<<;              +&&&&&&&%&&%#o             @<<<<<<<>             $<<<<<<<<<<<<$             O3<<",
"<<<<<*              %<<<<<<<<<<<=              %<<<<<<<-             &<<<<<<<<<<3>              $<<<",
"<<<<<%              *<<<<<<<<<<<&              *<<<<<<<&             =<<<<<<<<<<3#              -<<<",
"<<<<<+              ><<<<<<<<<<<#o             ;<<<<<<<$             ><<<<<<<<<<&              O4<<<",
"<<<<,              o4<<<<<<<<<<<+              ,<<<<<<<+             4<<<<<<<<<*              o%<<<<",
"<<<<;              @<<<<<<<<<<<:              +<<<<<<<,             @<<<<<<<<4&               o><<<<",
"<<<<*             o%<<<<<<<<<<<;              $<<<<<<<>             %<<3<<<,=@                $<<<<<",
"<<<<%o             *<<<<<<<<<<<&              &<<<<<<<=             #&&&%$#o                  ><<<<<",
"<<<<@              ;<<<<<<<<<<<%              -<<<<<<<&                                      %<<<<<<",
"<<<3o              ,<<<<<<<<<<<@              :<<<<<<<#                                     +,<<<<<<",
"<<<>              @<<<<<<<<<<<4              O<<<<<<<<O                                     ;<<<<<<<",
"<<<=              %<<<<<<<<<<<>              #<<<<<<3,                                     *<<<<<<<<",
"<<<&              *<<<<<<<<<<<=              &<<<<<<<;                                    %<<<<<<<<<",
"<33#              ;<<<<<<<<<<<%              =<<<<<<<*                                   %3<<<<<<<<<",
"<<3o              ,<<<<<<<<<<<#              ><<<<<<<%                                  %<<<<<<<<<<<",
"<<:              @<<<<<<<<<<<3O              4<<<<<<<#                                O=<<<<<<<<<<<<",
"<<-              %<<<<<<<<<<<>              #<<<<<<<3o                              O&,<<<<<<<<<<<<<",
"<<&              *<<<<<<<<<<<-              %<<<<<<<:                            +%-4<<<<<<<<<<<<<<<",
"<<$              ;<<<<<<<<<<3&              *<<<<<<<-                        @%&>3<<<<<<<<<<<<<<<<<<",
"<3$###########$$$,<<<<<<<<<<<&##############><<<<<<<*O+OOO   o++O+@@@@#$&*-;,<<<<<<<<<<<<<<<<<<<<<<<",
"<<<<<<<<<<<<<<3<<<<<<<<<<<<<<<<<<<<<<<<<<<<<<<<<<<<<<<<<<<<<<<<<<<<<<<<<3<<<<<<<<<<<<<<<<<<<<<<<<<<<",
"<<<<<<<<<<<<<<<<<<<<<<<<<<<<<<<<<<<<<<<<<<<<<<<<<<<<<<<<<<<<<<<<<<<<<<<<<<<<<<<<<<<<<<<<<<<<<<<<<<<<",
"<<<<<<<<<<<<<<<<<<<<<<<<<<<<<<<<<<<<<<<<<<<<<<<<<<<<<<<<<<<<<<<<<<<<<<<<<<<<<<<<<<<<<<<<<<<<<<<<<<<<",
"<<<<<<<<<<<<<<<<<<<<<<<<<<<<<<<<<<<<<<<<<<<<<<<<<<<<<<<<<<<<<<<<<<<<<<<<<<<<<<<<<<<<<<<<<<<<<<<<<<<<",
"<<<<<<<<<<<<<<<<<<<<<<<<<<<<<<<<<<<<<<<<<<<<<<<<<<<<<<<<<<<<<<<<<<<<<<<<<<<<<<<<<<<<<<<<<<<<<<<<<<<<",
"<<<<<<<<<<<<<<<<<<<<<<<<<<<<<<<<<<<<<<<<<<<<<<<<<<<<<<<<<<<<<<<<<<<<<<<<<<<<<<<<<<<<<<<<<<<<<<<<<<<<",
"<<<<<<<<<<<<<<<<<<<<<<<<<<<<<<<<<<<<<<<<<<<<<<<<<<<<<<<<<<<<<<<<<<<<<<<<<<<<<<<<<<<<<<<<<<<<<<<<<<<<",
"<<<<<<<<<<<<<<<<<<<<<<<<<<<<<<<<<<<<<<<<<<<<<<<<<<<<<<<<<<<<<<<<<<<<<<<<<<<<<<<<<<<<<<<<<<<<<<<<<<<<"
};
