/* XPM */
static const char *const arHD[] = {
/* columns rows colors chars-per-pixel */
"100 66 16 1 ",
"  c #000000",
". c #141414",
"X c #252525",
"o c #353535",
"O c #474747",
"+ c #585858",
"@ c #686868",
"# c #777777",
"$ c #888888",
"% c #979797",
"& c #A6A6A6",
"* c #B8B8B8",
"= c #C8C8C8",
"- c #D8D8D8",
"; c #E9E9E9",
": c #FFFFFF",
/* pixels */
"::::::::::::::::::::::::::::::::::::::::::::::::::::::::::::::::::::::::::::::::::::::::::::::::::::",
"::::::::::::::::::::::::::::::::::::::::::::::::::::::::::::::::::::::::::::::::::::::::::::::::::::",
"::::::::::::::::::::::::::::::::::::::::::::::::::::::::::::::::::::::::::::::::::::::::::::::::::::",
"::::::::::::::::::::::::::::::::::::::::::::::::::::::::::::::::::::::::::::::::::::::::::::::::::::",
"::::::::::::::::::::::::::::::::::::::::::::::::::::::::::::::::::::::::::::::::::::::::::::::::::::",
"::::::::::::::::::::::::::::::::::::::::::::::::::::::::::::::::::::::::::::::::::::::::::::::::::::",
"::::::::::::::::::::::::::::::::::::::::::::::::::::::::::::::::::::::::::::::::::::::::::::::::::::",
"::::::::::::::::::::::::::::::::::::::::::::::::::::::::::::::::::::::::::::::::::::::::::::::::::::",
":::::::::::#X....     ....&:::::::::::%            ..$:::::::.          ....XXXXoO#&;:::::::::::::::",
":::::::::::o              -:::::::::::@              &::::::;                        O&:::::::::::::",
":::::::::::.              ::::::::::::o              -::::::*                          .&:::::::::::",
"::::::::::-              X::::::::::::               :::::::$                            o;:::::::::",
"::::::::::&              +:::::::::::-              o:::::::+                             .=::::::::",
"::::::::::#              $:::::::::::&              @:::::::o                               *:::::::",
"::::::::::O              *:::::::::::#              %:::::::                                 -::::::",
"::::::::::.              ;:::::::::::o              =::::::-                                 X::::::",
":::::::::;              .::::::::::::.              :::::::&                                  $:::::",
":::::::::*              O:::::::::::-              o:::::::#                                   ;::::",
":::::::::#              @:::::::::::&              +:::::::+                                   %::::",
":::::::::+              &:::::::::::#              $:::::::.                                   X::::",
":::::::::X              =:::::::::::O              *:::::::              OO++@+o                *:::",
"::::::::;               ::::::::::::.              ;::::::=             O:::::::-X              #:::",
"::::::::=              o:::::::::::;              .:::::::&             #::::::::;o             X:::",
"::::::::$              +:::::::::::*              +:::::::@             &:::::::::-.             -::",
"::::::::+              $:::::::::::$              #:::::::O             =::::::::::#             &::",
"::::::::X              .X.XXXX.XX...              *:::::::.             :::::::::::*             #::",
"::::::::                                          -::::::;             X:::::::::::;             +::",
":::::::=                                         .:::::::*             +:::::::::::;             o::",
":::::::%                                         O:::::::$             #:::::::::::;             .::",
":::::::@                                         @:::::::@             *::::::::::::             .::",
":::::::o                                         &:::::::o             -::::::::::::             .::",
":::::::                                          -:::::::.             :::::::::::::             .::",
"::::::-                                          :::::::-             o::::::::::::-             .::",
"::::::&                                         o:::::::*             @::::::::::::*             o::",
"::::::@                                         @:::::::#             $::::::::::::%             O::",
"::::::O                                         $:::::::+             *::::::::::::+             @::",
"::::::.                                         =:::::::X             ;::::::::::::.             %::",
":::::;                                          ;:::::::             .::::::::::::*              -::",
":::::&              .#######@@@+o              X:::::::=             O::::::::::::O              :::",
":::::#              +:::::::::::&              +:::::::&             @:::::::::::*              +:::",
":::::+              $:::::::::::@              $:::::::#             %:::::::::::o              &:::",
":::::.              =:::::::::::o              *:::::::O             =::::::::::@               ;:::",
"::::;               ;:::::::::::.              ;:::::::.             ;:::::::::$               @::::",
"::::*              X:::::::::::-              .:::::::;             X:::::::::#                =::::",
"::::$              +:::::::::::&              O:::::::=             O::::::;%.                O:::::",
"::::+              $:::::::::::$              #:::::::%             o##@+Oo                   =:::::",
"::::o              =:::::::::::+              &:::::::@                                      +::::::",
"::::               ;:::::::::::X              -:::::::o                                     .;::::::",
":::=              X:::::::::::;              .::::::::                                      *:::::::",
":::%              +:::::::::::=              o:::::::;                                     $::::::::",
":::@              $:::::::::::%              @:::::::*                                    +:::::::::",
":::o              *:::::::::::@              &:::::::$                                   +::::::::::",
":::               ;:::::::::::o              =:::::::+                                  +:::::::::::",
"::-              X::::::::::::               ::::::::o                                 &::::::::::::",
"::&              +:::::::::::=              o::::::::                                #;:::::::::::::",
"::@              $:::::::::::&              +:::::::-                            .+&::::::::::::::::",
"::O              *:::::::::::#              $:::::::&                        .+#=:::::::::::::::::::",
"::OoooooooooooOOO;:::::::::::@oooooooooooooo=:::::::$....     ....XXXXoO@$&*;:::::::::::::::::::::::",
"::::::::::::::::::::::::::::::::::::::::::::::::::::::::::::::::::::::::::::::::::::::::::::::::::::",
"::::::::::::::::::::::::::::::::::::::::::::::::::::::::::::::::::::::::::::::::::::::::::::::::::::",
"::::::::::::::::::::::::::::::::::::::::::::::::::::::::::::::::::::::::::::::::::::::::::::::::::::",
"::::::::::::::::::::::::::::::::::::::::::::::::::::::::::::::::::::::::::::::::::::::::::::::::::::",
"::::::::::::::::::::::::::::::::::::::::::::::::::::::::::::::::::::::::::::::::::::::::::::::::::::",
"::::::::::::::::::::::::::::::::::::::::::::::::::::::::::::::::::::::::::::::::::::::::::::::::::::",
"::::::::::::::::::::::::::::::::::::::::::::::::::::::::::::::::::::::::::::::::::::::::::::::::::::",
"::::::::::::::::::::::::::::::::::::::::::::::::::::::::::::::::::::::::::::::::::::::::::::::::::::"
};
