/* XPM */
static const char *const arrow_turn_720[] = {
/* columns rows colors chars-per-pixel */
"22 23 20 1 ",
"  c #000000",
". c #060606",
"X c #111111",
"o c #161616",
"O c #1A1A1A",
"+ c #313131",
"@ c #5F5F5F",
"# c #515151",
"$ c #464646",
"% c #646464",
"& c #909090",
"* c #B0B0B0",
"= c #BBBBBB",
"- c #ABABAB",
"; c #D9D9D9",
": c #C6C6C6",
"> c #E8E8E8",
", c #FFFFFF",
"< c #FEFEFE",
"1 c #F9F9F9",
/* pixels */
",,,,,,,>:=;1,11,,,,,,,",
",,,,,>@oXXoO&1,,,,,,,,",
",,,,=OXXXXXoO+>,,,,,,,",
",,,;OXXo#%+oXX#1,,,,,,",
",,,@XX+;,,,-OXX-,,,,,,",
",,>oXX;,,,,,&XX#,,,,,,",
",,:XX$,,,,,,>oXO,,,,,,",
",,-OO@,,,,,,,OOO,,,,,,",
",,*XX@,,,,,,,XXX,,,,,,",
",,*XX@,,,,,,,XXX,,,,,,",
",,*XX@,,,,,,,XXX,,,,,,",
",,*XX@,,,,,,,XXX,,,,,,",
",,*XX@,,,,,,,XXX,,,,,,",
",,*XX@,,,,,,,XXX,,,,,,",
",,*XX@,,,,,,,XXX,,,,,,",
",,*XX@,,,,,,,XXX,,,,,,",
",,*XX@1,,,,,,XXX,,,,,,",
",,*XX@,,,>+XX   XX+>,,",
",,*XX@,,,,:.     .:,,,",
",,*XX@,,,,,&     &,,,,",
",,*XX@,,,,,,%.  @,,,,,",
",1>--:,,,,,,,+ +1,,,,,",
",,,,,,,,,,,,,>+>,,,,,,"
};
