/* XPM */
static const char *const arrow_turn_576[] = {
/* columns rows colors chars-per-pixel */
"17 18 23 1 ",
"  c #010101",
". c #0B0B0B",
"X c #111111",
"o c #151515",
"O c #1D1D1D",
"+ c #292929",
"@ c #353535",
"# c #595959",
"$ c #444444",
"% c #646464",
"& c #989898",
"* c #878787",
"= c #A9A9A9",
"- c #A4A4A4",
"; c #BBBBBB",
": c #D7D7D7",
"> c #C4C4C4",
", c #FFFFFF",
"< c #FEFEFE",
"1 c #FDFDFD",
"2 c #FAFAFA",
"3 c #F4F4F4",
"4 c #E0E0E0",
/* pixels */
",,,,,:-&;2,,,,,,,",
",,,3#XXXX+>,,,,,,",
",,2$XX++XXX>,,,,,",
",,&XX&2,:@X@,,,,,",
",,$X%,,,,>XX:,,,,",
",,$@&,,,,2@@=2,,,",
",,OX=,,,,,OX=,,,,",
",,OX=,,,,,OX=,,,,",
",,OX-,,,,,oX=,,,,",
",2+X-,,,,,OX=,,,,",
",,OX-,,,,,OX=,,,,",
",,OX-,,,,,OX=,,,,",
",,OX-,,,,,OX=,,,,",
",,OX-,,:%%..$%&,,",
",,OX-,,,#    X:,,",
",2+X-,,,2@   ;,,,",
",,##;,,,,4o *,,,,",
",,,,,,,,,,;#,,,,,"
};
