/* XPM */
static const char *const arrowdown[] = {
/* columns rows colors chars-per-pixel */
"46 46 33 1 ",
"  c #000000",
". c #2D2D2D",
"X c #3D3D3D",
"o c #4B4B4B",
"O c #565656",
"+ c #6A6A6A",
"@ c #727272",
"# c #7B7B7B",
"$ c #838383",
"% c #8A8A8A",
"& c #919191",
"* c #989898",
"= c #9E9E9E",
"- c #A5A5A5",
"; c #ABABAB",
": c #B0B0B0",
"> c #B6B6B6",
", c #BBBBBB",
"< c #C5C5C5",
"1 c #C9C9C9",
"2 c #CECECE",
"3 c #D2D2D2",
"4 c #D6D6D6",
"5 c #D9D9D9",
"6 c #DDDDDD",
"7 c #E3E3E3",
"8 c #E6E6E6",
"9 c #ECECEC",
"0 c #EEEEEE",
"q c #F2F2F2",
"w c #F6F6F6",
"e c #F9F9F9",
"r c #FFFFFF",
/* pixels */
"                                              ",
"*                                            *",
"q                                            q",
"r&                                          &r",
"rq                                          qr",
"rr%                                        %rr",
"rr0                                        0rr",
"rrr$                                      $rrr",
"rrr0                                      0rrr",
"rrrr#                                    #rrrr",
"rrrr0                                    9rrrr",
"rrrrr#                                  @rrrrr",
"rrrrr8                                  8rrrrr",
"rrrrrr+                                +rrrrrr",
"rrrrrr7                                8rrrrrr",
"rrrrrrrO                              Orrrrrrr",
"rrrrrrr7                              7rrrrrrr",
"rrrrrrrrO                            Orrrrrrrr",
"rrrrrrrr6                            6rrrrrrrr",
"rrrrrrrrro                          orrrrrrrrr",
"rrrrrrrrr5                          5rrrrrrrrr",
"rrrrrrrrrrX                        Xrrrrrrrrrr",
"rrrrrrrrrr4                        4rrrrrrrrrr",
"rrrrrrrrrrr.                      .rrrrrrrrrrr",
"rrrrrrrrrrr3                      3rrrrrrrrrrr",
"rrrrrrrrrrrr                      rrrrrrrrrrrr",
"rrrrrrrrrrrr2                    2rrrrrrrrrrrr",
"rrrrrrrrrrrrr                    rrrrrrrrrrrrr",
"rrrrrrrrrrrrr1                  1rrrrrrrrrrrrr",
"rrrrrrrrrrrrrr                  rrrrrrrrrrrrrr",
"rrrrrrrrrrrrrr<                <rrrrrrrrrrrrrr",
"rrrrrrrrrrrrrrr                rrrrrrrrrrrrrrr",
"rrrrrrrrrrrrrrr,              <rrrrrrrrrrrrrrr",
"rrrrrrrrrrrrrrrr              errrrrrrrrrrrrrr",
"rrrrrrrrrrrrrrrr,            ,rrrrrrrrrrrrrrrr",
"rrrrrrrrrrrrrrrre            errrrrrrrrrrrrrrr",
"rrrrrrrrrrrrrrrrr>          >rrrrrrrrrrrrrrrrr",
"rrrrrrrrrrrrrrrrre          errrrrrrrrrrrrrrrr",
"rrrrrrrrrrrrrrrrrr:        :rrrrrrrrrrrrrrrrrr",
"rrrrrrrrrrrrrrrrrre        errrrrrrrrrrrrrrrrr",
"rrrrrrrrrrrrrrrrrrr;      ;rrrrrrrrrrrrrrrrrrr",
"rrrrrrrrrrrrrrrrrrrw      wrrrrrrrrrrrrrrrrrrr",
"rrrrrrrrrrrrrrrrrrrr-    -rrrrrrrrrrrrrrrrrrrr",
"rrrrrrrrrrrrrrrrrrrrw    wrrrrrrrrrrrrrrrrrrrr",
"rrrrrrrrrrrrrrrrrrrrr=  =rrrrrrrrrrrrrrrrrrrrr",
"rrrrrrrrrrrrrrrrrrrrrw  wrrrrrrrrrrrrrrrrrrrrr"
};
