/* XPM */
static const char *const arrow_turn_remote_720[] = {
/* columns rows colors chars-per-pixel */
"22 23 23 1 ",
"  c #010101",
". c #070707",
"X c #0D0D0D",
"o c #111111",
"O c #1D1D1D",
"+ c #383838",
"@ c #2B2B2B",
"# c #424242",
"$ c #4F4F4F",
"% c #5A5A5A",
"& c #787878",
"* c #696969",
"= c #8A8A8A",
"- c #959595",
"; c #B1B1B1",
": c #A8A8A8",
"> c #CFCFCF",
", c #E4E4E4",
"< c #FFFFFF",
"1 c #FEFEFE",
"2 c #FDFDFD",
"3 c #F9F9F9",
"4 c #F6F6F6",
/* pixels */
"<<<<<<<<,;>43<<<<<<<<<",
"<<<<<<>#oooO=<<<<<<<<<",
"<<<<<>OXoOooo*<<<<<<<<",
"<<<<<#o@>34*o.><<<<<<<",
"<<<<,Xo><<<<#o&<<<<<<<",
"<<<<;++<<<<<=+%<<<<<<<",
"<<<<;oO<<<<<=o#<<<<<<<",
"<<<<;oO<<<<<=o#<<<<<<<",
"<<<<;oO<<<<<=o#<<<<<<<",
"<<<<;oO<<<<<=o#<<<<<<<",
"<<<<;oO<<<<<=o+<<<<<<<",
"<<<<;oO<<<<<=o#<<<<<<<",
"<<<<;XO<<<<<=X#<<<<<<<",
"<<<<;oO<<<*++@@++4<<<<",
"<<<<;oO<<<,O    :<<<<<",
"<<<<;oO<<<3>.  &<<<<<<",
"<<<<>=-<<<<<- #<<<<<<<",
"<<<<<<<4<<<<3=,<<<<<<<",
"<<<3,-+#3<<<<3#@&,3<<<",
"<,=+ o%:,,,,,,;%o.+&,<",
"=. o.ooooXooXXooo.X .&",
"<3;%. #-<<<<<<:# .%;4<",
"<<<<4:%%<<<<<<%$:4<<<<"
};
