/* XPM */
static const char *const arrow_turn_remote_2160[] = {
/* columns rows colors chars-per-pixel */
"66 70 25 1 ",
"  c #000000",
". c #010101",
"X c #030303",
"o c #060606",
"O c #0C0C0C",
"+ c #111111",
"@ c #141414",
"# c #1B1B1B",
"$ c #373737",
"% c #272727",
"& c #464646",
"* c #4A4A4A",
"= c #5A5A5A",
"- c #737373",
"; c #8E8E8E",
": c #A1A1A1",
"> c #ABABAB",
", c #B8B8B8",
"< c #CECECE",
"1 c #FFFFFF",
"2 c #FEFEFE",
"3 c #FDFDFD",
"4 c #FAFAFA",
"5 c #F3F3F3",
"6 c #E8E8E8",
/* pixels */
"111111111111111111111111111111111111111111111111111111111111111111",
"111111111111111111111111111111111111111111111111111111111111111111",
"111111111111111111111114<;*%%O%$->51111111111111111111111111111111",
"1111111111111111111114:$O+@@++@+O+#-611111111111111111111111111111",
"11111111111111111111<$++O++++++++++++;4111111111111111111111111111",
"1111111111111111111;++++++++++++++++++*611111111111111111111111111",
"111111111111111111-++++++++++++++++++++$61111111111111111111111111",
"11111111111111111;@+++++++++++++++++++++&5111111111111111111111111",
"1111111111111111<@+++++++++O@%OO+++++++++-111111111111111111111111",
"1111111111111114$++++++O+*>6115<-#++++++++<11111111111111111111111",
"111111111111111:+++++++@;111111146$+++++++$11111111111111111111111",
"111111111111111$++++++#<11111111115*+++++OO<1111111111111111111111",
"11111111111111<++++++O:1111111111116%++++++-1111111111111111111111",
"11111111111111;++++++&11111111111111:++++++%1111111111111111111111",
"11111111111111*++++++>111111111111115%++++++6111111111111111111111",
"11111111111111%++++++6111111111111111=++++++,111111111111111111111",
"11111111111111#+++++%1111111111111111-+@++++>111111111111111111111",
"11111111111111OOOOOO%1111111111111111;OOOOOO;111111111111111111111",
"11111111111111++@+++$1111111111111111;++++++:111111111111111111111",
"11111111111111++++++$1111111111111111:++++++:111111111111111111111",
"11111111111111++++++$1111111111111111;@+++++:111111111111111111111",
"11111111111111++++++$1111111111111111:++++++:111111111111111111111",
"11111111111111++++++$1111111111111111;++++++:111111111111111111111",
"11111111111111+++++O$1111111111111111;++++++:111111111111111111111",
"11111111111111++++++$1111111111111111:O+++++:111111111111111111111",
"11111111111111++++++$1111111111111111;++++++:111111111111111111111",
"11111111111111++++++$1111111111111111:++++++:111111111111111111111",
"11111111111111++++++$1111111111111111;++++++:111111111111111111111",
"11111111111111++++++$1111111111111111:O+++++:111111111111111111111",
"11111111111111++++++$1111111111111111;++++++:111111111111111111111",
"11111111111111++++++$1111111111111111:++++++:111111111111111111111",
"11111111111111++++++$1111111111111111;+++++O:111111111111111111111",
"11111111111111++++++$1111111111111111:O+++++:111111111111111111111",
"11111111111111++++++$1111111111111111;++++++:111111111111111111111",
"11111111111111++++++$1111111111111111:++++++:111111111111111111111",
"11111111111111+++++O$1111111111111111;++++++:111111111111111111111",
"11111111111111++++++$4111111111111111:O+++++:111111111111111111111",
"11111111111111++++++$1111111111111111;++++++:111111111111111111111",
"11111111111111++++++$1111111111111111:++++++:111111111111111111111",
"11111111111111++++++$1111111111111111;+++++O:111111111111111111111",
"11111111111111++++++$111111111-&&&&&&$$$$$$$&&&&&&*-11111111111111",
"11111111111111++++++$1111111116+                  #611111111111111",
"11111111111111++++++$1111111111,                 o,111111111111111",
"11111111111111++++++$11111111111;                ;1111111111111111",
"11111111111111++++++$111111111114*              =11111111111111111",
"11111111111111++++++$1111111111115%           o%611111111111111111",
"11111111111111++++++$1111111111111<O          O<111111111111111111",
"11111111111111+++++O$11111111111111>          >1111111111111111111",
"11111111111111++++++$111111111111111-o      o-11111111111111111111",
"11111111111111++@#++$1111111111111114$      &411111111111111111111",
"11111111111111<<<<<<611111111111111116@    #6111111111111111111111",
"11111111111111111111411111111111111111<o  o<1111111111111111111111",
"111111111111111111111111111111111111111; o:11111111111111111111111",
"1111111111111111111111111111111111111111==111111111111111111111111",
"111111111111111111115:,41111111111111111111<:611111111111111111111",
"111111111111111115,=O %41111111111111111114$  &:511111111111111111",
"111111111111111<-+     >111111111111111111,     O*>411111111111111",
"111111111114<-@        %411111111111111111&        +=,411111111111",
"111111111<;%         +=<111111111111111111<-#         #-<111111111",
"1111116;$         O&>411111111141111111114541<-O         #-<111111",
"1116;$          %=;;;;;;;;;-;;;;;;;;;;;-;;;;;;;;=%O         %;6111",
"5:$                                                            #-6",
";%                                                              #-",
"416:$          @%&&*&&*&&*&**&&*&&&*&*&**&&*&&&&&$#          #-611",
"111116;%oo       O=,41111111111111111111111111,=@         %-611111",
"11111144<-%         +=,41111111111111111111<-#         #-<41111111",
"11111111114<-@         $411111111111111111&         @=<51111111111",
"11111111111114<-@      -111111111111111111;      O*>11111111111111",
"11111111111111114,=O  O61111111111111111115#  o&:51111111111111111",
"11111111111111111415:*-11111111111111111111;$:61111111111111111111"
};
