/* XPM */
static const char *const arrow_turn_remote_1080[] = {
/* columns rows colors chars-per-pixel */
"33 35 24 1 ",
"  c #000000",
". c #050505",
"X c #090909",
"o c #111111",
"O c #151515",
"+ c #1C1C1C",
"@ c #242424",
"# c #353535",
"$ c #444444",
"% c #525252",
"& c #676767",
"* c #797979",
"= c #999999",
"- c #8C8C8C",
"; c #A9A9A9",
": c #CDCDCD",
"> c #C1C1C1",
", c #D4D4D4",
"< c #E9E9E9",
"1 c #FFFFFF",
"2 c #FEFEFE",
"3 c #FDFDFD",
"4 c #F9F9F9",
"5 c #F4F4F4",
/* pixels */
"111111111111111111111111111111111",
"11111111111;&#+@%;411111111111111",
"111111111<%ooooooo#,1111111111111",
"11111111<#ooooooooo+:111111111111",
"11111111%ooo+&-*@ooo#511111111111",
"1111111;ooo$<1115&ooo-11111111111",
"1111111&oo+<111114#oo#11111111111",
"1111111#oo&1111111=Ooo51111111111",
"1111111###-1111111;###:1111111111",
"1111111ooo=1111111:ooO:1111111111",
"1111111ooo=1111111:ooo:1111111111",
"1111111ooo=1111111:ooo:1111111111",
"1111111ooo=1111111:ooo:1111111111",
"1111111ooo=1111111:ooo:1111111111",
"1111111ooo=1111111:ooo:1111111111",
"1111111ooo=1111114:ooo:1111111111",
"1111111ooo=1111111:ooo:1111111111",
"1111111ooo=1111111:ooo:1111111111",
"1111111ooo=1111111:ooo:1111111111",
"1111111ooo=1111114:ooo:1111111111",
"1111111ooo=1111&+@@+++@@@&1111111",
"1111111ooo=11115@       @51111111",
"1111111ooo=11111:X     .:11111111",
"1111111ooo=111111;     ;111111111",
"1111111ooo=1111111&  .&1111111111",
"1111111<<<511111111# #11111111111",
"1111111111111111111<#<11111111111",
"111111111>&;111111111;&;111111111",
"111411,*@  #111111111$  o&:111111",
"111<-@   O&:111111111:*@   +&:111",
",&+   .+##$$$$$#$$$$$$$$#+.   O&,",
"=#.   XO@+@@@@@@@@@@@@@@+oX    #-",
"115;%.   $=51111111115;$   .%;511",
"111115;$.  @111111111#   $=511111",
"11111111<-#;111111111;#-<11111111"
};
