/* XPM */
static const char *const arrow_turn_remote_576[] = {
/* columns rows colors chars-per-pixel */
"17 18 23 1 ",
"  c #000000",
". c #111111",
"X c #141414",
"o c #191919",
"O c #363636",
"+ c #282828",
"@ c #494949",
"# c #595959",
"$ c #696969",
"% c #797979",
"& c #8D8D8D",
"* c #999999",
"= c #A4A4A4",
"- c #ACACAC",
"; c #B4B4B4",
": c #C4C4C4",
"> c #D9D9D9",
", c #FFFFFF",
"< c #FEFEFE",
"1 c #FDFDFD",
"2 c #F9F9F9",
"3 c #F3F3F3",
"4 c #EAEAEA",
/* pixels */
",,,,12;&;2,,,,,,,",
",,,,>O...+>,,,,,,",
",,,,O.%;%.O1,,,,,",
",,,:.$,,,%.;,,,,,",
",,,=O=,,,-O*,,,,,",
",,,=.-,,,;X*,,,,,",
",,,=.=,,,;.&,,,,,",
",,,*.=,,,;.*,,,,,",
",,,=.=,,,;.*,,,,,",
",,,*.=,,,-.*,,,,,",
",,,=.-,3#@O@#4,,,",
",,,=.=,,=   %,,,,",
",,,-+-,,,$ @,,,,,",
",,,,11,,,1#4,,,,,",
",,,:$+3,,,3+$:,,,",
";@..@%&&&&&%@X.@;",
";#o.@%*****&@.X@;",
",,,:%+2,,,1+$:1,,"
};
