/* XPM */
static const char *const arrowup[] = {
/* columns rows colors chars-per-pixel */
"46 46 34 1 ",
"  c #000000",
". c #2D2D2D",
"X c #3D3D3D",
"o c #4B4B4B",
"O c #565656",
"+ c #606060",
"@ c #6A6A6A",
"# c #727272",
"$ c #7B7B7B",
"% c #838383",
"& c #8A8A8A",
"* c #919191",
"= c #989898",
"- c #9E9E9E",
"; c #A5A5A5",
": c #ABABAB",
"> c #B0B0B0",
", c #B6B6B6",
"< c #BBBBBB",
"1 c #C5C5C5",
"2 c #C9C9C9",
"3 c #CECECE",
"4 c #D2D2D2",
"5 c #D6D6D6",
"6 c #D9D9D9",
"7 c #DDDDDD",
"8 c #E3E3E3",
"9 c #E6E6E6",
"0 c #E9E9E9",
"q c #EEEEEE",
"w c #F0F0F0",
"e c #F7F7F7",
"r c #F9F9F9",
"t c #FFFFFF",
/* pixels */
"ttttttttttttttttttttte  ettttttttttttttttttttt",
"ttttttttttttttttttttt-  -ttttttttttttttttttttt",
"tttttttttttttttttttte    etttttttttttttttttttt",
"tttttttttttttttttttt;    ;tttttttttttttttttttt",
"ttttttttttttttttttte      rttttttttttttttttttt",
"ttttttttttttttttttt:      :ttttttttttttttttttt",
"tttttttttttttttttte        rtttttttttttttttttt",
"tttttttttttttttttt>        :tttttttttttttttttt",
"tttttttttttttttttr          rttttttttttttttttt",
"ttttttttttttttttt,          ,ttttttttttttttttt",
"ttttttttttttttttr            rtttttttttttttttt",
"tttttttttttttttt<            <tttttttttttttttt",
"tttttttttttttttr              tttttttttttttttt",
"ttttttttttttttt1              <ttttttttttttttt",
"ttttttttttttttt                ttttttttttttttt",
"tttttttttttttt1                1tttttttttttttt",
"tttttttttttttt                  tttttttttttttt",
"ttttttttttttt2                  2ttttttttttttt",
"ttttttttttttt                    ttttttttttttt",
"tttttttttttt3                    3tttttttttttt",
"tttttttttttt                      tttttttttttt",
"ttttttttttt4                      4ttttttttttt",
"ttttttttttt.                      .ttttttttttt",
"tttttttttt5                        5tttttttttt",
"ttttttttttX                        Xtttttttttt",
"ttttttttt6                          6ttttttttt",
"ttttttttto                          ottttttttt",
"tttttttt7                            7tttttttt",
"ttttttttO                            Otttttttt",
"ttttttt7                              8ttttttt",
"ttttttt+                              +ttttttt",
"tttttt8                                8tttttt",
"tttttt@                                @tttttt",
"ttttt9                                  9ttttt",
"ttttt#                                  #ttttt",
"tttt0                                    0tttt",
"tttt$                                    $tttt",
"tttq                                      qttt",
"ttt%                                      %ttt",
"ttq                                        qtt",
"tt&                                        &tt",
"tw                                          wt",
"t*                                          *t",
"w                                            w",
"=                                            =",
"                                              "
};
