/* XPM */
static const char *const arrow_turn_2160[] = {
/* columns rows colors chars-per-pixel */
"66 70 23 1 ",
"  c #000000",
". c #010101",
"X c #030303",
"o c #040404",
"O c #0A0A0A",
"+ c #111111",
"@ c #131313",
"# c #161616",
"$ c #1A1A1A",
"% c #282828",
"& c #363636",
"* c #545454",
"= c #767676",
"- c #676767",
"; c #8C8C8C",
": c #B4B4B4",
"> c #D1D1D1",
", c #E8E8E8",
"< c #FFFFFF",
"1 c #FEFEFE",
"2 c #FCFCFC",
"3 c #F9F9F9",
"4 c #F4F4F4",
/* pixels */
"<<<<<<<<<<<<<<<<<<<<<<<<<<<<<<<<<<<<<<<<<<<<<<<<<<<<<<<<<<<<<<<<<<",
"<<<<<<<<<<<<<<<<<<<<<<<<<<<<<<<<<<<<<<<<<<<<<<<<<<<<<<<<<<<<<<<<<<",
"<<<<<<<<<<<<<<<<<<<<<<>;-&%$@%&*;><<<<<<<<<<<<<<<<<<<<<<<<<<<<<<<<",
"<<<<<<<<<<<<<<<<<<<,;%O@#O@@@#$@#@%;,<<<<<<<<<<<<<<<<<<<<<<<<<<<<<",
"<<<<<<<<<<<<<<<<<,=$@@@@@@@@O@O@@@@@#=,<<<<<<<<<<<<<<<<<<<<<<<<<<<",
"<<<<<<<<<<<<<<<<:%##@@O@@O@@@@@@@O@@O@%:<<<<<<<<<<<<<<<<<<<<<<<<<<",
"<<<<<<<<<<<<<<<=@@@@O@@O@O@O@@@@O@@O@@@@=<<<<<<<<<<<<<<<<<<<<<<<<<",
"<<<<<<<<<<<<<3*OO@@O@@@@@@@@O@O@@@@@O@@O#*4<<<<<<<<<<<<<<<<<<<<<<<",
"<<<<<<<<<<<<<*#@@@@@@@O@@@@@@O@@@@@OO@@@@O*<<<<<<<<<<<<<<<<<<<<<<<",
"<<<<<<<<<<<<=O@@O@O@@O@@@@O@@@@OO@@@@@@O@@@=<<<<<<<<<<<<<<<<<<<<<<",
"<<<<<<<<<<<:@O@O@@@@@@@OO@O@@O@@O@@@@@@O@O@O:<<<<<<<<<<<<<<<<<<<<<",
"<<<<<<<<<<,%@@@@@O@O@O@%=:,33,:=%@@OO@@@@@@@%,<<<<<<<<<<<<<<<<<<<<",
"<<<<<<<<<<=@@@@@@O@@@$;4<<<<<<<<4;$@@@@@@@@@O=<<<<<<<<<<<<<<<<<<<<",
"<<<<<<<<<,$O@O@O@@@@%><<<<<<<<<<<<>%@O@O@O@@@$,<<<<<<<<<<<<<<<<<<<",
"<<<<<<<<<;@@@@@@O@@&,<<<<<<<<<<<<<<,%#@@@O@O@O;<<<<<<<<<<<<<<<<<<<",
"<<<<<<<<<%@@O@O@@@#><<<<<<<<<<<<<<<<>$@@@@@@@@%<<<<<<<<<<<<<<<<<<<",
"<<<<<<<<>@@@@@@@O@;<<<<<<<<<<<<<<<<<<;@@@@@@O@@><<<<<<<<<<<<<<<<<<",
"<<<<<<<<;@O@@O@@O%4<<<<<<<<<<<<<<<<<<,%@@O@@@@@;<<<<<<<<<<<<<<<<<<",
"<<<<<<<<-@@@@@@O@=<<<<<<<<<<<<<<<<<<<<=OO@@O@@#-<<<<<<<<<<<<<<<<<<",
"<<<<<<<<&O@@@O@@@:<<<<<<<<<<<<<<<<<<<<:O@@@@O@#&<<<<<<<<<<<<<<<<<<",
"<<<<<<<<%@@O@@O@O,<<<<<<<<<<<<<<<<<<<<,@@O@@@@O%<<<<<<<<<<<<<<<<<<",
"<<<<<<<<OOOOOOOOO4<<<<<<<<<<<<<<<<<<<<4OOOOOOOOO<<<<<<<<<<<<<<<<<<",
"<<<<<<<<@@@OO@@@@<<<<<<<<<<<<<<<<<<<<<<O@@O@O@@O<<<<<<<<<<<<<<<<<<",
"<<<<<<<<O@@@@@O@@<<<<<<<<<<<<<<<<<<<<<<@@O@@@@@@<<<<<<<<<<<<<<<<<<",
"<<<<<<<<@@@O@@O@O<<<<<<<<<<<<<<<<<<<<<<@O@@O@@@@<<<<<<<<<<<<<<<<<<",
"<<<<<<<<O@@@@O@@@<<<<<<<<<<<<<<<<<<<<<<O@@@@@@O@<<<<<<<<<<<<<<<<<<",
"<<<<<<<<@@@@@@@@@<<<<<<<<<<<<<<<<<<<<<<@O@@OO@O@<<<<<<<<<<<<<<<<<<",
"<<<<<<<<O@@O@@O@@<<<<<<<<<<<<<<<<<<<<<<@@@@@@@@@<<<<<<<<<<<<<<<<<<",
"<<<<<<<<@@@@@OO@O<<<<<<<<<<<<<<<<<<<<<<O@@@@@@O@<<<<<<<<<<<<<<<<<<",
"<<<<<<<<O@@O@@@@@<<<<<<<<<<<<<<<<<<<<<<@@OO@O@@@<<<<<<<<<<<<<<<<<<",
"<<<<<<<<@@O@@@@@@<<<<<<<<<<<<<<<<<<<<<<@@@@@@@@@<<<<<<<<<<<<<<<<<<",
"<<<<<<<<@@@@O@@OO<<<<<<<<<<<<<<<<<<<<<<@@O@@O@O@<<<<<<<<<<<<<<<<<<",
"<<<<<<<<O@O@@@@@@<<<<<<<<<<<<<<<<<<<<<<O@@@@@@@@<<<<<<<<<<<<<<<<<<",
"<<<<<<<<@@@@@O@@@<<<<<<<<<<<<<<<<<<<<<<@O@@O@O@@<<<<<<<<<<<<<<<<<<",
"<<<<<<<<@@@@@O@OO<<<<<<<<<<<<<<<<<<<<<<@@@@@@O@O<<<<<<<<<<<<<<<<<<",
"<<<<<<<<O@O@@@@@@<<<<<<<<<<<<<<<<<<<<<<@@O@O@@@@<<<<<<<<<<<<<<<<<<",
"<<<<<<<<@O@@O@@O@<<<<<<<<<<<<<<<<<<<<<<O@O@@@O@@<<<<<<<<<<<<<<<<<<",
"<<<<<<<<@@@@@@@@O<<<<<<<<<<<<<<<<<<<<<<@@@@@@@@O<<<<<<<<<<<<<<<<<<",
"<<<<<<<<@OO@O@@O@<<<<<<<<<<<<<<<<<<<<<<@@OO@@@@@<<<<<<<<<<<<<<<<<<",
"<<<<<<<<@@@@@@@@@<<<<<<<<<<<<<<<<<<<<<<@@@@@@O@O<<<<<<<<<<<<<<<<<<",
"<<<<<<<<O@@O@@@@O<<<<<<<<<<<<<<<<<<<<<<@O@@O@O@@<<<<<<<<<<<<<<<<<<",
"<<<<<<<<@@@@@@O@@<<<<<<<<<<<<<<<<<<<<<<@@@@@@@@@<<<<<<<<<<<<<<<<<<",
"<<<<<<<<O@@OO@O@@<<<<<<<<<<<<<<<<<<<<<<OO@@O@OO@<<<<<<<<<<<<<<<<<<",
"<<<<<<<<@@@@@@@@O<<<<<<<<<<<<<<<<<<<<<<@@@@@@@@@<<<<<<<<<<<<<<<<<<",
"<<<<<<<<@@@@O@O@@<<<<<<<<<<<<<<<<<<<<<<@@@@@O@O@<<<<<<<<<<<<<<<<<<",
"<<<<<<<<@OO@@@@@@<<<<<<<<<<<<<<<<<<<<<<@@O@@@@@@<<<<<<<<<<<<<<<<<<",
"<<<<<<<<@@@@@@@@O<<<<<<<<<<<<<<<<<<<<<<@@O@OO@@@<<<<<<<<<<<<<<<<<<",
"<<<<<<<<@O@@O@O@@<<<<<<<<<<<<<<<<<<<<<<O@@@@@@O@<<<<<<<<<<<<<<<<<<",
"<<<<<<<<@O@O@O@@@<<<<<<<<<<<<<<<<<<<<<<@@O@@@@@@<<<<<<<<<<<<<<<<<<",
"<<<<<<<<@@@@@@@@@<<<<<<<<<<<<<<<<<<<<<<O@@@OO@O@<<<<<<<<<<<<<<<<<<",
"<<<<<<<<@@@@@OO@@<<<<<<<<<<<<<<<<<<<<<<@@O@@@@O@<<<<<<<<<<<<<<<<<<",
"<<<<<<<<@O@O@@@@O<<<<<<<<<<<<<<<<<<<<<<@@@@O@@@@<<<<<<<<<<<<<<<<<<",
"<<<<<<<<@@@@@@@@@<<<<<<<<<<<<-                           -<<<<<<<<",
"<<<<<<<<@O@@O@@O@<<<<<<<<<<<<4&                         &4<<<<<<<<",
"<<<<<<<<O@@O@@@@@<<<<<<<<<<<<<,$                       #,3<<<<<<<<",
"<<<<<<<<@@@@O@@OO<<<<<<<<<<<<<3:O                      :<<<<<<<<<<",
"<<<<<<<<@O@O@O@@@<<<<<<<<<<<<<<<;                     ;<<<<<<<<<<<",
"<<<<<<<<@@@@@@@@@<<<<<<<<<<<<<<<<*                   *3<<<<<<<<<<<",
"<<<<<<<<@@@@@@O@@<<<<<<<<<<<<<<<<4%                 %4<<<<<<<<<<<<",
"<<<<<<<<@O@O@O@@O<<<<<<<<<<<<<<<<<>#               O><<<<<<<<<<<<<",
"<<<<<<<<@@@@@@@@@<<<<<<<<<<<<<<<<<<:O             O:<<<<<<<<<<<<<<",
"<<<<<<<<@O@@O@@O@<<<<<<<<<<<<<<<<<<<=             =3<<<<<<<<<<<<<<",
"<<<<<<<<O@@O@@@@@<<<<<<<<<<<<<<<<<<<3*           *<<<<<<<<<<<<<<<<",
"<<<<<<<<@@@@O@@OO<<<<<<<<<<<<<<<<<<<<,%         $,<<<<<<<<<<<<<<<<",
"<<<<<<<<@O@@@O@@O<<<<<<<<<<<<<<<<<<<<<>O        >3<<<<<<<<<<<<<<<<",
"<<<<<<<<<<<<<<<<<<<<<<<<<<<<<<<<<<<<<<4:       :<3<<<<<<<<<<<<<<<<",
"<<<<<<<<<<<<<<<<<<<<<<<<<<<<<<<<<<<<<<<<-O    -<<<<<<<<<<<<<<<<<<<",
"<<<<<<<<<<<<<<<<<<<<<<<<<<<<<<<<<<<<<<<<<&   &<<<<<<<<<<<<<<<<<<<<",
"<<<<<<<<<<<<<<<<<<<<<<<<<<<<<<<<<<<<<<<<<,# #,<<<<<<<<<<<<<<<<<<<<",
"<<<<<<<<<<<<<<<<<<<<<<<<<<<<<<<<<<<<<<<<<<>O:<<<<<<<<<<<<<<<<<<<<<"
};
