/* XPM */
static const char *const arrow_turn_1080[] = {
/* columns rows colors chars-per-pixel */
"33 35 22 1 ",
"  c #000000",
". c #030303",
"X c #0D0D0D",
"o c #111111",
"O c #191919",
"+ c #2B2B2B",
"@ c #343434",
"# c #494949",
"$ c #515151",
"% c #656565",
"& c #777777",
"* c #888888",
"= c #B2B2B2",
"- c #AAAAAA",
"; c #DBDBDB",
": c #C9C9C9",
"> c #FFFFFF",
", c #FEFEFE",
"< c #FCFCFC",
"1 c #F9F9F9",
"2 c #F4F4F4",
"3 c #EDEDED",
/* pixels */
">>>>>>>>>>>>>>>>>>>>>>>>>>>>>>>>>",
">>>>>>>>><-%@oO+%-<>>>>>>>>>>>>>>",
">>>>>>>>=+oooooooo+=<>>>>>>>>>>>>",
">>>>>><&oooooooooooX&<>>>>>>>>>>>",
">>>>>>&XoooooooXooooo&>>>>>>>>>>>",
">>>>>=oooooo$&&$oooooX=>>>>>>>>>>",
">>>>1+ooXo#;>>>>;#XXoo+1>>>>>>>>>",
">>>>-oooX#1>>>>>><#Xooo=>>>>>>>>>",
">>>>%oooo;>>>>>>>>;oooX%>>>>>>>>>",
">>>>+ooo$>>>>>>>>>>$ooX@>>>>>>>>>",
">>>>oXXX%>>>>>>>>>>%XXXo>>>>>>>>>",
">>>>oooo*>>>>>>>>>>*oooo>>>>>>>>>",
">>>>oooo*>>>>>>>>>>*oooo>>>>>>>>>",
">>>>oooo*>>>>>>>>>>*oooo>>>>>>>>>",
">>>>oooo*>>>>>>>>>>*oooo>>>>>>>>>",
">>>>oooo*>>>>>>>>>>*oooX>>>>>>>>>",
">>>>oooo*>>>>>>>>>>*oooo>>>>>>>>>",
">>>>oooo*>>>>>>>>>>*oooo>>>>>>>>>",
">>>>oooo*>>>>>>>>>>*oooo>>>>>>>>>",
">>>>oooo*>>>>>>>>>>*oooo>>>>>>>>>",
">>>>oooo*>>>>>>>>>>*oooo>>>>>>>>>",
">>>>oooo*>>>>>>>>>>*oooo>>>>>>>>>",
">>>>oooo*>>>>>>>>>>*oooo>>>>>>>>>",
">>>>oooX*>>>>>>>>>>*oooo>>>>>>>>>",
">>>>oooo*>>>>>>>>>>*oooo>>>>>>>>>",
">>>>oooo*>>>>>>>>>>*oooo>>>>>>>>>",
">>>>oooo*>>>>>;X            %>>>>",
">>>>oooo*>>>>>>=           @1>>>>",
">>>>oooo*>>>>>>>&         o;>>>>>",
">>>>oooo*>>>>>>>>#       X=>>>>>>",
">>>>oXoo*>>>>>>>>3+      *>>>>>>>",
">>>>oooo*>>>>>>>>>:.    $>>>>>>>>",
">>>>****:>>>>>>>>>>-   +3>>>>>>>>",
">>>>>>>>>>>>>>>>>>>>% X;>>>>>>>>>",
">>>>>>>>>>>>>>>>>>>><@=>>>>>>>>>>"
};
