/* XPM */
static const char *const arrowturn[] = {
/* columns rows colors chars-per-pixel */
"66 70 27 1 ",
"  c #000000",
". c #333333",
"X c #525252",
"o c #696969",
"O c #707070",
"+ c #727272",
"@ c #7C7C7C",
"# c #8D8D8D",
"$ c #939393",
"% c #949494",
"& c #9B9B9B",
"* c #9D9D9D",
"= c #ABABAB",
"- c #B0B0B0",
"; c #B7B7B7",
": c #C3C3C3",
"> c #CDCDCD",
", c #D6D6D6",
"< c #DADADA",
"1 c #DEDEDE",
"2 c #E2E2E2",
"3 c #E5E5E5",
"4 c #EBEBEB",
"5 c #F1F1F1",
"6 c #F7F7F7",
"7 c #FBFBFB",
"8 c #FFFFFF",
/* pixels */
"888888888888888888888888888888888888888888888888888888888888888888",
"88888888888888888888888<&         *<688888888888888888888888888888",
"888888888888888888884*               *4888888888888888888888888888",
"8888888888888888885%                   %58888888888888888888888888",
"88888888888888888>                       ,888888888888888888888888",
"8888888888888887*                         *78888888888888888888888",
"888888888888887O                           O7888888888888888888888",
"88888888888888O                             o788888888888888888888",
"8888888888888*                               *88888888888888888888",
"888888888888>                                 >8888888888888888888",
"888888888885              $>272>$              5888888888888888888",
"88888888888$            >888888888>            $888888888888888888",
"88888888884           $6888888888886$           488888888888888888",
"8888888888*          -888888888888888=          *88888888888888888",
"8888888887          %88888888888888888$          68888888888888888",
"888888888,          6888888888888888886          <8888888888888888",
"888888888&         >8888888888888888888>         *8888888888888888",
"888888888          788888888888888888887          8888888888888888",
"888888888         $888888888888888888888$         8888888888888888",
"888888888         >888888888888888888888>         8888888888888888",
"888888888         28888888888888888888882         8888888888888888",
"888888888         48888888888888888888884         8888888888888888",
"888888888         88888888888888888888888         8888888888888888",
"888888888         88888888888888888888888         8888888888888888",
"888888888         88888888888888888888888         8888888888888888",
"888888888         88888888888888888888888         8888888888888888",
"888888888         88888888888888888888888         8888888888888888",
"888888888         88888888888888888888888         8888888888888888",
"888888888         88888888888888888888888         8888888888888888",
"888888888         88888888888888888888888         8888888888888888",
"888888888         88888888888888888888888         8888888888888888",
"888888888         88888888888888888888888         8888888888888888",
"888888888         88888888888888888888888         8888888888888888",
"888888888         88888888888888888888888         8888888888888888",
"888888888         88888888888888888888888         8888888888888888",
"888888888         88888888888888888888888         8888888888888888",
"888888888         88888888888888888888888         8888888888888888",
"888888888         88888888888888888888888         8888888888888888",
"888888888         88888888888888888888888         8888888888888888",
"888888888         88888888888888888888888         8888888888888888",
"888888888         88888888888888888888888         8888888888888888",
"888888888         88888888888888888888888         8888888888888888",
"888888888         88888888888888888888888         8888888888888888",
"888888888         88888888888888888888888         8888888888888888",
"888888888         88888888888888888888888         8888888888888888",
"888888888         88888888888888888888888         8888888888888888",
"888888888         88888888888888888888888         8888888888888888",
"888888888         88888888888888888888888         8888888888888888",
"888888888         88888888888888888888888         8888888888888888",
"888888888         88888888888888888888888         8888888888888888",
"888888888         88888888888888888888888         8888888888888888",
"888888888         88888888888888888888888         8888888888888888",
"888888888         8888888888888                             888888",
"888888888         8888888888888>                           >888888",
"888888888         88888888888888=                         =8888888",
"888888888         888888888888888@                       @88888888",
"888888888         8888888888888887.                     .788888888",
"888888888         88888888888888885                     5888888888",
"888888888         888888888888888881                   18888888888",
"888888888         888888888888888888:                 :88888888888",
"888888888         8888888888888888888*               *888888888888",
"888888888         88888888888888888888o             o8888888888888",
"888888888         888888888888888888887             78888888888888",
"888888888         8888888888888888888884           488888888888888",
"888888888         8888888888888888888888,         ,888888888888888",
"888888888         88888888888888888888888;       ;8888888888888888",
"888888888888888888888888888888888888888888#     #88888888888888888",
"8888888888888888888888888888888888888888888X   X888888888888888888",
"88888888888888888888888888888888888888888885   6888888888888888888",
"888888888888888888888888888888888888888888883 38888888888888888888"
};
