/* XPM */
static const char *const arUHD_576[] = {
/* columns rows colors chars-per-pixel */
"27 18 24 1 ",
"  c #000000",
". c #010101",
"X c #030303",
"o c #060606",
"O c #0A0A0A",
"+ c #1A1A1A",
"@ c #292929",
"# c #393939",
"$ c #454545",
"% c #575757",
"& c #787878",
"* c #666666",
"= c #898989",
"- c #979797",
"; c #B9B9B9",
": c #A9A9A9",
"> c #C7C7C7",
", c #D9D9D9",
"< c #E9E9E9",
"1 c #FFFFFF",
"2 c #FEFEFE",
"3 c #FDFDFD",
"4 c #FAFAFA",
"5 c #F2F2F2",
/* pixels */
"111141111111111111111111111",
"1111@%1+%*$1:O O$&@$#<1;o41",
"111< =< =#&145o<1$,1%>5#%>1",
"111; ;; >O:11>@11+$$*1=-=:1",
"111- ;%O> ,11=%1<#5;%<@$@&1",
"111>O  =-   >%=1:*1>%%:1>%1",
"11115><15,,<4<51<514<,111<1",
"11<$$$=111$$$*1&$$$$$$&>111",
"11;   =11,   *1+        *11",
"11=  o;11:   -<   +$@o   =1",
"11%   -::%   >:   =11,   @1",
"11+         o4&   >111#  O1",
"1<     o    #1$   5111+  +1",
"1;   &,,;   *1+  @111-   *1",
"1=   >11:   -,   @&&$   O,1",
"1$   514&   ,:         +;11",
"1+  @111#  O4&      @#-<111",
"111111111111111111114111111"
};
