/* XPM */
static const char *const arUHD_720[] = {
/* columns rows colors chars-per-pixel */
"33 22 24 1 ",
"  c #000000",
". c #010101",
"X c #020202",
"o c #060606",
"O c #0B0B0B",
"+ c #151515",
"@ c #292929",
"# c #373737",
"$ c #474747",
"% c #565656",
"& c #696969",
"* c #797979",
"= c #989898",
"- c #868686",
"; c #A8A8A8",
": c #B7B7B7",
"> c #CACACA",
", c #DADADA",
"< c #E7E7E7",
"1 c #FFFFFF",
"2 c #FEFEFE",
"3 c #FDFDFD",
"4 c #FAFAFA",
"5 c #F4F4F4",
/* pixels */
"111111111111111111111111111111111",
"1111< @1= ** <1&    &*X++%111#$11",
"1111: &1& ;$@11,,+&><$=45X<1;#+11",
"1111- =1# <+$1115 ;11O>5;+55@,+<1",
"1111$ >5o+, -111: <1,X#@o>1-$,#:1",
"1111@ :- %;X:111-+11;#11$=<+$$+=1",
"1111& X O>*   +1%$11*&11$;%*11-&1",
"11111;*-,1:===;1:>11:,11:>=514,:1",
"111<>>>>1111,>>>>15>,>>>>,<411111",
"111$   +1111@   @1;        O$>111",
"111+   $1115    &1*           -11",
"115X   *114>    =1#   XOo      :1",
"11:    ;111-X   >4o   $145*    $1",
"11-    O+O+o    5,    -1111#   O1",
"11$X           #1;    :1111%   o1",
"11+X           &1&    <1111@   @1",
"1<    &,,,;    =1#   +1111;X   &1",
"1:    ;111-    >1o   $,<>*X   o,1",
"1*    ,111%   X4,             =11",
"1$   +1111@   #1;           +;111",
"1+   $1115    &1&       X@$=51111",
"111111111111111111111111111111111"
};
