/* XPM */
static const char *const arUHD_1080[] = {
/* columns rows colors chars-per-pixel */
"50 33 23 1 ",
"  c #000000",
". c #010101",
"X c #030303",
"o c #050505",
"O c #0B0B0B",
"+ c #161616",
"@ c #272727",
"# c #363636",
"$ c #474747",
"% c #565656",
"& c #686868",
"* c #787878",
"= c #909090",
"- c #B9B9B9",
"; c #A6A6A6",
": c #C7C7C7",
"> c #D6D6D6",
", c #EBEBEB",
"< c #FFFFFF",
"1 c #FEFEFE",
"2 c #FDFDFD",
"3 c #F9F9F9",
"4 c #F3F3F3",
/* pixels */
"<<<<<<<<<<<<<<<<<<<<<<<<<<<<<<<<<<<<<<<<<<<<<<<<<<",
"<<<<<<<<<<<<<<<<<<<<<<<<<<<<<<<<<<<<<<<<<<<<<<<<<<",
"<<<<<<<+XX,<>XX#<#X$<<<&XXXXXXX;-XXoXO$><<<<>oo3<<",
"<<<<<<,XX@<<;XX&<OX*<<<%##XX@##>=X*==*X#<<<<$oX:<<",
"<<<<<<;oX%<<&XX;>XX;<<<<<4oX,<<<%X,<<<#O<<3;X=X;<<",
"<<<<<<*XX=<<#XX>;XX><<<<<:X+3<<<+#<<<,+#<<3@$3o*<<",
"<<<<<<$XX:<3oX+<&XO<<<<<<=X%<<<,X+&&%O@><<*o><@$<<",
"<<<<<<+XX4<:XX#<#X$<<<<<<%X=<<<;X#%$@o;<<>O$::#+<<",
"<<<<<,XXX<<&XX*3oX*3<3<<<@X-<<<*X:<<3+#<<$XXXXXX,<",
"<<<<<,XXX$%XXX:>XX$***;<,XX4<<<$X3<<<O#<-X*,,,=X:<",
"<<<<<<&XXXXXX=<=XXXXXX&<-X@<<<<+#3<<<+$3@+4<<<;X=<",
"<<<<<<3;$@#%-<<;&&&&&&:<-&=<<<,&;<<<<&=:&-<<<<,&-<",
"<<<<<<<<<<<<<<<<3<<<<<<<<<<<<<<<<<<<<<<<<<<<<<<<<<",
"<<<<,-------<<<<<<>------:<<>-----------:,<<<<<<<<",
"<<<<;XXXXXX#<<<<<<%XXXXXX*<<%XXXXXXXXXXXXX@*><<<<<",
"<<<<&XXXXXX&<<<<<<+XXXXXX;<<#XXXXXXXXXXXXXXXX&4<<<",
"<<<<#XXXXXX=<<<<<,XXXXXXX><4XXXXXXXXXXXXXXXXXX#,<<",
"<<<<OXXXXXX><<<<<-XXXXXX+<<-XXXXXXXXXXXXXXXXXXX#<<",
"<<<:XXXXXXO3<<<<3=XXXXXX$3<=XXXXXX#====$oXXXXXXX-3",
"<<<=XXXXXX#<<<<3<$XXXXXX=3<%XXXXXX&<<<3<>OXXXXXX%<",
"<<<&XXXXXXoOO+O+OoXXXXXX-<<+XXXXXX;<<<<<3=XXXXXX+<",
"<<3#XXXXXXXXXXXXXXXXXXXX,<,XXXXXXX><<<<<3-XXXXXXO<",
"<<4XXXXXXXXXXXXXXXXXXXX+3<-XXXXXX+<<<<<<<:XXXXXXO<",
"<<:XXXXXXXXXXXXXXXXXXXX%<<*XXXXXX$<<<<<<<=XXXXXX#<",
"<<=XXXXXX+$$$$$$OXXXXXX=<<$XXXXXX*<<<<<<<#XXXXXX&3",
"<<%XXXXXX*<<<3<3OXXXXXX:<<+XXXXXX-<<<<<<=XXXXXXX-<",
"<<@XXXXXX;<<<<<>XXXXXXX,<,XXXXXXX,<3<3,*oXXXXXX#<<",
"<,XXXXXXX,<<<<<;XXXXXX#<<;XXXXXXX$$$$#oXXXXXXXX><<",
"3-XXXXXX+<<<<<<*XXXXXX%<<*XXXXXXXXXXXXXXXXXXoo;<<<",
"3=XXXXXX$3<<<<<#XXXXXX=<<#XXXXXXXXXXXXXXXXXX+-<<<<",
"3$XXXXXX=3<<<<<OXXXXXX:<<OXXXXXXXXXXXXXXXX+*,<<<<<",
"<+XXXXXX-<<<<<:XXXXXXo3<>XXXXXXXXXXXXO@$*-3<<<<<<<",
"<<<<<<<<<<<<<<<<<<<<<<<<<<<<<<<<<<<<<<<<<<<<<<<<<<"
};
