/* XPM */
static const char *const arUHD_2160[] = {
/* columns rows colors chars-per-pixel */
"100 66 24 1 ",
"  c #000000",
". c #010101",
"X c #030303",
"o c #050505",
"O c #0C0C0C",
"+ c #171717",
"@ c #272727",
"# c #363636",
"$ c #505050",
"% c #767676",
"& c #7B7B7B",
"* c #666666",
"= c #989898",
"- c #888888",
"; c #BABABA",
": c #A7A7A7",
"> c #C7C7C7",
", c #D8D8D8",
"< c #EAEAEA",
"1 c #FFFFFF",
"2 c #FEFEFE",
"3 c #FDFDFD",
"4 c #F9F9F9",
"5 c #F4F4F4",
/* pixels */
"1111111111111111111111111111111111111111111111111111111111111111111111111111111111111111111111111111",
"1111111111111111111111111111111111111111111111111111111111111111111111111111111111111111111111111111",
"1111111111111111111111111111111111111111111111111111111111111111111111111111111111111111111111111111",
"11111111111111$     >1111>     $11=    *111111<               @11=OOOOO+O+O@$;111111111115+ o+111111",
"11111111111111+    o51111=     -11*    =111111;               $11*            *4111111111%    ,11111",
"1111111111111<     @11114*     ;11#    ,111111%               =11@  +####@+    -11111111,     :11111",
"1111111111111;     *11114@     515o   o1111111=*****+   #*****,4<   =111111;O  $11111111$  @  -11111",
"1111111111111&     =1111<o    @11>    #1111111111111O   ;1111111>   >1111111&  +1111111:  @=  $11111",
"1111111111111$     >1111;     $11=    %111111111111,   o<1111111-  o11111111-  +1111115+o ;;  @11111",
"1111111111111+    o41111-     =11$    :411111111111:   @11111111$  #11111111*  #111111&  $1<  o41111",
"111111111111,     #11111$     >11@    ,111111111111*   $11111111@  *1111111;   =11111,o o>11O  ,1111",
"111111111111:     *11111+    o515o   o1111111111111#   -1111111<   &>>>>;:$o  $111111$  *111#  :1111",
"111111111111%     :1111<     @11;    #1111111111114o   >1111111;            +&511111:o O<111$o &1111",
"111111111111$     ,4111:     *11-    %111111111111>   o51111111%           O;4111115@  &1111&  $1111",
"111111111111O     51111%     =11$    :111111111111=   @11111111$  #:::==-#  o,11111-   =====*  @1111",
"11111111111,     +11114@     >11@    ,111111111111*   *11111111O  &1111114+  %1111,o            5111",
"11111111111;     o4111=     +11<    O1111111111111@   =1111111,   :1111111#  $1111$             >111",
"11111111111;     o$,,-o     *11;    #<<5<5<<<51115    ,1111111:   <1111111#  *111;   =<,,,<,,O  =111",
"11111111111<o             oo,11&             =111>   O41111111%  +11111111@o %115@  $41111111#  &111",
"111111111111*              -111$             >111-   #11111111#  $11111111+  =14-   ,11111111$  $411",
"1111111111115#            &1111+            o4111$   %11111114o  -41111111o  =1<o  %111111111&  +111",
"11111111111115&O        #;1114<             @1111+   :1111111,   ;11111111O  &1$  +<111111111:  o<11",
"111111111111111<:&*$$*=,111111<;;;;;;;;;;;;;,1111;;;;51111111<>;;511111111>;;,4;;;,1111111111<;;;511",
"1111111111111111111111111111111111111111111111111111111111111111111111111111111111111111111111111111",
"1111111111111111111111111111111111111111111111111111111111111111111111111111111111111111111111111111",
"1111111111111111111111111111111111111111111111111111111111111111111111111111111111111111111111111111",
"111111111>%%%&%&%%%&%&%-1111111111115%%&%%&%%&%%%&%>11111&&%%%%&%%&%%&%%%%%&%&&-=:>51111111111111111",
"111111111*             $111111111111>              >1111,                           @*:5111111111111",
"111111111@             &111111111111=             o41111:                              O%,1111111111",
"111111114o             ;111111111111$             #11111%                                o%<11111111",
"11111111>              <111111111111@             *11111#                                 o+>4111111",
"11111111-             +1111111111114o             :11111O                                   o=111111",
"11111111*             $111111111111>              ,1111,                                      =11111",
"11111111+             -111111111111=             O11111=                                       ,1111",
"1111111<              ;111111111111$             $11111*                                       #4111",
"1111114;              <111111111111@             %11111#             O@###@@+                   =111",
"1111111-             @1111111111115              :11115o             =11111115;&+               #111",
"1111111$            o$111111111111;              <1111>              >11111111115$               >11",
"1111111+             -141111111111-             +11111=             o5111111111111$              &11",
"111111<              O@@@@+@@+@@+@O             $41111$             #1111111111111,o             $11",
"111111:o                                        -11111@             *11111111111111$             +11",
"111111&                                         ;1111<              =11111111111111*            oO11",
"111111$                                        o<1111;              ,11111111111111-             o11",
"111111O                                        @11111-             o111111111111111=             O11",
"11111,                                         $11111$             $111111111111111-            o+11",
"11111:                                         -11111+             %111111111111114*             #11",
"11111%                                         >1111<              :111111111111111+             *11",
"11111#                                        o51111;              <11111111111111;              =11",
"11111O             *------------#             @11111&             +111111111111114$              <41",
"1111>              ,141111111111@             *11111$             $11111111111111:              #111",
"1111=             O1111111111115oo            =11114O             -1111111111114>o              =111",
"1111*             $111111111111>              >1111,              ;111111111111:O             o+4111",
"1111@o            &111111111111=             o11111:             o<1111111111;$                =1111",
"1115o             :111111111111*            o#11111%             O========&$+                o#11111",
"111>              <111111111111#             *11111#                                         O,11111",
"111-             +4111111111115o             :11114o                                        o>111111",
"111$             $111111111111>              ,1111,                                        O;1111111",
"111@             -111111111111=             O11111=                                       @>11111111",
"11<              ;111111111111*             $11111*                                      *5111111111",
"11;              <111111111111@             &11111@                                   o#;11111111111",
"11-             @1111111111115              ;11115                                   $>4111111111111",
"11$             $111111111111>              <1111>                                $=<111111111111111",
"11+             =411111111111-             +51111-                       o+@#$%:,5111111111111111111",
"1111111111111111111111111111111111111111111111111111111111111111111111111111111111111111111111111111",
"1111111111111111111111111111111111111111111111111111111111111111111111111111111111111111111111111111",
"1111111111111111111111111111111111111111111111111111111111111111111111111111111111111111111111111111"
};
