/* XPM */
static const char *const arUHD[] = {
/* columns rows colors chars-per-pixel */
"100 66 16 1 ",
"  c #000000",
". c #141414",
"X c #252525",
"o c #383838",
"O c #464646",
"+ c #565656",
"@ c #676767",
"# c #777777",
"$ c #878787",
"% c #989898",
"& c #A8A8A8",
"* c #B8B8B8",
"= c #D8D8D8",
"- c #C8C8C8",
"; c #EAEAEA",
": c #FFFFFF",
/* pixels */
"::::::::::::::::::::::::::::::::::::::::::::::::::::::::::::::::::::::::::::::::::::::::::::::::::::",
"::::::::::::::+     -::::-     +::%    #::::::;               X::% ........X+-:::::::::::;.  X::::::",
"::::::::::::::X     ;::::%     #::@    %::::::*               +::@            #::::::::::#    =:::::",
":::::::::::::;     X:::::@     *::o    -::::::$               $::o             &::::::::;.    *:::::",
":::::::::::::-     +:::::o     ;::.    ;::::::@XXX.X    ..XXXX*::   $:::::;#   +::::::::@     $:::::",
":::::::::::::$     $:::::     .::=    X:::::::::::::X   &:::::::-   -:::::::@  .:::::::=  .$  @:::::",
":::::::::::::+     *::::-     O::%    @::::::::::::;    =:::::::%   ;:::::::$  .:::::::O  $*  o:::::",
":::::::::::::X     ;::::%     #::#    $::::::::::::*   .::::::::@  X::::::::#  X::::::*  .;=  .:::::",
"::::::::::::;     .:::::@     &::o    -::::::::::::$   O::::::::o  +::::::::X  @::::::X  %:;   ;::::",
"::::::::::::-     +:::::o     =::.    ;::::::::::::+   @::::::::   $::::::;O   =:::::&  .:::X  *::::",
"::::::::::::%     #::::;.    .::=    .:::::::::::::X   &:::::::=   o+++++o    &:::::;.  %:::O  %::::",
"::::::::::::@     *::::=     o::&    +::::::::::::;    =:::::::%           .#=::::::#  X::::@  @::::",
"::::::::::::X     ;::::&     #::#    #::::::::::::*    ::::::::@            #::::::;   &::::$  O::::",
":::::::::::;     .:::::+     &::+    *::::::::::::$   O::::::::O  O=;===-+   *:::::@   +++++o  .::::",
":::::::::::=     .:::::.     =::.    =::::::::::::+   @::::::::   #:::::::X  @::::-             ;:::",
":::::::::::*      ;:::$     .::;    .:::::::::::::X   &:::::::=   *:::::::o  +::::O             -:::",
":::::::::::*      +==#      @::*    o;;;:;;;;;:::;    =:::::::&   ;:::::::o  @:::*   &;;;;;;;   &:::",
":::::::::::;                =::$             %:::-    ::::::::#  .::::::::X  #:::X  O::::::::o  #:::",
"::::::::::::+              #:::+             -:::%   o::::::::O  O::::::::.  %::%   -::::::::+  O:::",
"::::::::::::;.            +;:::.             ;:::+   @::::::::.  #::::::::   %:;.  +:::::::::#  X:::",
":::::::::::::;o         .$::::;             X::::X   %:::::::=   &::::::::   $:#   =:::::::::%   ;::",
":::::::::::::::*@X.  .O%;:::::;#############%::::####=:::::::=###;::::::::$##&:###&::::::::::=###;::",
"::::::::::::::::::::::::::::::::::::::::::::::::::::::::::::::::::::::::::::::::::::::::::::::::::::",
"::::::::::::::::::::::::::::::::::::::::::::::::::::::::::::::::::::::::::::::::::::::::::::::::::::",
"::::::::::::::::::::::::::::::::::::::::::::::::::::::::::::::::::::::::::::::::::::::::::::::::::::",
"::::::::::::::::::::::::::::::::::::::::::::::::::::::::::::::::::::::::::::::::::::::::::::::::::::",
":::::::::$.............o::::::::::::;..............*::::;                .......Xo+$-;::::::::::::::",
":::::::::+             +::::::::::::&              =::::=                             +&::::::::::::",
":::::::::X             %::::::::::::$             .:::::%                               X&::::::::::",
"::::::::;              *::::::::::::+             o:::::@                                 o=::::::::",
"::::::::*              ;::::::::::::X             #:::::o                                   %:::::::",
"::::::::$             X::::::::::::;              &:::::                                     $::::::",
"::::::::+             +::::::::::::-              =::::=                                      %:::::",
"::::::::X             #::::::::::::%             .:::::%                                      .=::::",
":::::::;              *::::::::::::@             o:::::#                                       o::::",
":::::::-              ;::::::::::::X             @:::::o                                        &:::",
":::::::%             .:::::::::::::              &:::::              $:::::;;*$O                O:::",
":::::::+             O::::::::::::-              =::::=              *::::::::::-.               =::",
":::::::X             #::::::::::::%              :::::&              ;:::::::::::;.              %::",
":::::::              +$$$$$$$$$$$$o             o:::::@             .:::::::::::::&              @::",
"::::::-                                         @:::::o             +::::::::::::::.             o::",
"::::::%                                         %:::::.             $::::::::::::::+             .::",
"::::::@                                         =::::=              &::::::::::::::$              ::",
"::::::o                                         ;::::&              ;::::::::::::::%              ::",
"::::::                                         o:::::#             .:::::::::::::::%             .::",
":::::-                                         @:::::o             +:::::::::::::::#             X::",
":::::%                                         %:::::.             #:::::::::::::::+             o::",
":::::@                                         -::::;              *:::::::::::::::.             @::",
":::::o                                         ;::::&              ;::::::::::::::*              %::",
":::::.             +############X             o:::::#             .:::::::::::::::O              ;::",
"::::-              =::::::::::::o             +:::::+             O::::::::::::::*              X:::",
"::::&              :::::::::::::              %:::::.             #:::::::::::::;.              $:::",
"::::#             o::::::::::::=              -::::;              *::::::::::::=X               ;:::",
"::::o             @::::::::::::&              ;::::*              ;::::::::::;$.               #::::",
"::::.             %::::::::::::#             X:::::#             .;;;;;;;;=*@.                .;::::",
":::=              -::::::::::::O             +:::::+                                          &:::::",
":::&              :::::::::::::.             $:::::.                                         @::::::",
":::#             o::::::::::::;              *::::;                                         O;::::::",
":::O             @::::::::::::*              ;::::*                                        O;:::::::",
":::.             %::::::::::::$             X:::::$                                       @;::::::::",
"::=              =::::::::::::+             +:::::+                                     .&::::::::::",
"::&              ;::::::::::::.             $:::::X                                    #;:::::::::::",
"::$             X::::::::::::;              *::::;                                  .#;:::::::::::::",
"::O             @::::::::::::*              ;::::*                               .+*;:::::::::::::::",
"::.             %::::::::::::$             .:::::$                        .XO+$&=:::::::::::::::::::",
"::::::::::::::::::::::::::::::::::::::::::::::::::::::::::::::::::::::::::::::::::::::::::::::::::::"
};
