/* XPM */
static const char *const audioright[] = {
/* columns rows colors chars-per-pixel */
"100 66 38 1 ",
"  c #000000",
". c #3D3D3D",
"X c #434343",
"o c #505050",
"O c #535353",
"+ c #5F5F5F",
"@ c #616161",
"# c #666666",
"$ c #696969",
"% c #6D6D6D",
"& c #737373",
"* c #757575",
"= c #787878",
"- c #858585",
"; c #8A8A8A",
": c #8C8C8C",
"> c #959595",
", c #A3A3A3",
"< c #A5A5A5",
"1 c #ABABAB",
"2 c #ACACAC",
"3 c #AFAFAF",
"4 c #BDBDBD",
"5 c #C2C2C2",
"6 c #CBCBCB",
"7 c #CDCDCD",
"8 c #D0D0D0",
"9 c #D4D4D4",
"0 c #DBDBDB",
"q c #DCDCDC",
"w c #E2E2E2",
"e c #E6E6E6",
"r c #EBEBEB",
"t c #ECECEC",
"y c #F2F2F2",
"u c #F7F7F7",
"i c #F9F9F9",
"p c #FFFFFF",
/* pixels */
"pppppppppppppppppppppppppppppppppppppppppppppppppppppppppppppppppppppppppppppppppppppppppppppppppppp",
"pppppppppppppppppppppppppppppppppppppppppppppppppppppppppppppppppppppppppppppppppppppppppppppppppppp",
"pppppppppppppppppppppppppppppppppppppppppppppppppppppppppppppppppppppppppppppppppppppppppppppppppppp",
"pppppppppppppppppppppppppppppppppppppppppppppppppppppppppppppppppppppppppppppppppppppppppppppppppppp",
"pppppppppppppppppppppppppppppppppppppppppppppppppppppppppppppppppppppppppppppppppppppppppppppppppppp",
"pppppppppppppppppppppppppppppppppppppppppppppppppppppppppppppppppppppppppppppppppppppppppppppppppppp",
"pppppppppppppppppppppppppppppppppppppppppppppppppppppppppppppppppppppppppppppppppppppppppppppppppppp",
"pppppppppppppppppppppppppppppppppppppppppppppppppppppppppppppppppppppppppppppppppppppppppppppppppppp",
"pppppppppppppppppppppppppppppppppppppppppppppppppppppppppppppppppppppppppppppppppppppppppppppppppppp",
"pppppppppppppppppppppppppppppppppppppppppppppppppppppppppppppppppppppppppppppppppppppppppppppppppppp",
"pppppppppppppppppppppppppppppppppppppppppppppppppppppppppppppppppppppppppppppppppppppppppppppppppppp",
"pppppppppppppppppppppppppppppppppppppppppppppppppppppppppppppppppppppppppppppppppppppppppppppppppppp",
"pppppppppppppppppppppppppppppppppppppppppppppppppppppppppppppppppppppppppppppppppppppppppppppppppppp",
"ppppppppppppppppppppr71;$#-28rpppppppppppppppppppppppppppppppppppppppppt842249tppppppppppppppppppppp",
"pppppppppppppppppr<            ,rppppppppppppppppppppppppppppppppppi7%          %7ippppppppppppppppp",
"pppppppppppppppe$                #eppppppppppppppppppppppppppppppi2                2ippppppppppppppp",
"pppppppppppppi<                    <ippppppppppppppppppppppppppp7                    7pppppppppppppp",
"ppppppppppppr                        tppppppppppppppppppppppppi:                      :ipppppppppppp",
"pppppppppppw                          wppppppppppppppppppppppiO                        Oippppppppppp",
"ppppppppppe                            eppppppppppppppppppppiX                          Xipppppppppp",
"pppppppppy                              yppppppppppppppppppp%                            $pppppppppp",
"ppppppppp$              OO              $pppppppppppppppppp2                              2ppppppppp",
"pppppppp6           *0pppppiq&           6ppppppppppppppppr                                rpppppppp",
"pppppppu           wppppppppppw           uppppppppppppppp@                                @pppppppp",
"ppppppp4         *ippppppppppppu&         5ppppppppppppppw                                  wppppppp",
"ppppppp         OippppppppppppppuO         pppppppppppppp=                                  *ppppppp",
"ppppppw         yppppppppppppppppy         wppppppppppppi                                    ipppppp",
"pppppp2        5pppppppppppppppppp5        1pppppppppppp8                                    9pppppp",
"pppppp         uppppppppppppppppppi         pppppppppppp>                                    >pppppp",
"pppppp        ;pppppppppppppppppppp;        ppppppppppppX                                    Xpppppp",
"pppppp        7pppppppppppppppppppp7        pppppppppppp                                      pppppp",
"pppppp        wppppppppppppppppppppw        pppppppppppp                                      pppppp",
"pppppp        eppppppppppppppppppppe    .+*-pppppppppppp                                      pppppp",
"pppppp        wppppppppppppppppppppw        pppppppppppp                                      pppppp",
"pppppp        7pppppppppppppppppppp7        pppppppppppp                                      pppppp",
"pppppp        ;pppppppppppppppppppp;        ppppppppppppX                                    Xpppppp",
"pppppp         ippppppppppppppppppu         pppppppppppp>                                    >pppppp",
"pppppp1        5pppppppppppppppppp5        1pppppppppppp8                                    8pppppp",
"ppppppw         yppppppppppppppppy         wppppppppppppi                                    ipppppp",
"ppppppp         OippppppppppppppiO         pppppppppppppp=                                  =ppppppp",
"ppppppp5         &uppppppppppppi&         5ppppppppppppppw                                  wppppppp",
"pppppppu           wppppppppppw           uppppppppppppppp@                                @pppppppp",
"pppppppp6           *0pppppp0*           6ppppppppppppppppr                                rpppppppp",
"ppppppppp$              OO              $pppppppppppppppppp2                              2ppppppppp",
"pppppppppy                              yppppppppppppppppppp%                            %pppppppppp",
"ppppppppppe                            eppppppppppppppppppppiX                          Xipppppppppp",
"pppppppppppw                          wppppppppppppppppppppppuO                        Oippppppppppp",
"ppppppppppppr                        rppppppppppppppppppppppppp:                      :ppppppppppppp",
"pppppppppppppi<                    <uppppppppppppppppppppppppppp7                    7pppppppppppppp",
"pppppppppppppppe#                $eppppppppppppppppppppppppppppppi2                2ippppppppppppppp",
"pppppppppppppppppr,            <rppppppppppppppppppppppppppppppppppi7%          %8ippppppppppppppppp",
"ppppppppppppppppppppt82;#$-27rpppppppppppppppppppppppppppppppppppppppppr942249tppppppppppppppppppppp",
"pppppppppppppppppppppppppppppppppppppppppppppppppppppppppppppppppppppppppppppppppppppppppppppppppppp",
"pppppppppppppppppppppppppppppppppppppppppppppppppppppppppppppppppppppppppppppppppppppppppppppppppppp",
"pppppppppppppppppppppppppppppppppppppppppppppppppppppppppppppppppppppppppppppppppppppppppppppppppppp",
"pppppppppppppppppppppppppppppppppppppppppppppppppppppppppppppppppppppppppppppppppppppppppppppppppppp",
"pppppppppppppppppppppppppppppppppppppppppppppppppppppppppppppppppppppppppppppppppppppppppppppppppppp",
"pppppppppppppppppppppppppppppppppppppppppppppppppppppppppppppppppppppppppppppppppppppppppppppppppppp",
"pppppppppppppppppppppppppppppppppppppppppppppppppppppppppppppppppppppppppppppppppppppppppppppppppppp",
"pppppppppppppppppppppppppppppppppppppppppppppppppppppppppppppppppppppppppppppppppppppppppppppppppppp",
"pppppppppppppppppppppppppppppppppppppppppppppppppppppppppppppppppppppppppppppppppppppppppppppppppppp",
"pppppppppppppppppppppppppppppppppppppppppppppppppppppppppppppppppppppppppppppppppppppppppppppppppppp",
"pppppppppppppppppppppppppppppppppppppppppppppppppppppppppppppppppppppppppppppppppppppppppppppppppppp",
"pppppppppppppppppppppppppppppppppppppppppppppppppppppppppppppppppppppppppppppppppppppppppppppppppppp",
"pppppppppppppppppppppppppppppppppppppppppppppppppppppppppppppppppppppppppppppppppppppppppppppppppppp",
"pppppppppppppppppppppppppppppppppppppppppppppppppppppppppppppppppppppppppppppppppppppppppppppppppppp"
};
