/* XPM */
static const char *const audiostereo[] = {
/* columns rows colors chars-per-pixel */
"100 66 23 1 ",
"  c #000000",
". c #404040",
"X c #424242",
"o c #525252",
"O c #616161",
"+ c #6B6B6B",
"@ c #6D6D6D",
"# c #767676",
"$ c #787878",
"% c #8D8D8D",
"& c #959595",
"* c #ADADAD",
"= c #BCBCBC",
"- c #CDCDCD",
"; c #CECECE",
": c #D3D3D3",
"> c #D4D4D4",
", c #E1E1E1",
"< c #E9E9E9",
"1 c #ECECEC",
"2 c #F8F8F8",
"3 c #FAFAFA",
"4 c #FFFFFF",
/* pixels */
"4444444444444444444444444444444444444444444444444444444444444444444444444444444444444444444444444444",
"4444444444444444444444444444444444444444444444444444444444444444444444444444444444444444444444444444",
"4444444444444444444444444444444444444444444444444444444444444444444444444444444444444444444444444444",
"4444444444444444444444444444444444444444444444444444444444444444444444444444444444444444444444444444",
"4444444444444444444444444444444444444444444444444444444444444444444444444444444444444444444444444444",
"4444444444444444444444444444444444444444444444444444444444444444444444444444444444444444444444444444",
"4444444444444444444444444444444444444444444444444444444444444444444444444444444444444444444444444444",
"4444444444444444444444444444444444444444444444444444444444444444444444444444444444444444444444444444",
"4444444444444444444444444444444444444444444444444444444444444444444444444444444444444444444444444444",
"4444444444444444444444444444444444444444444444444444444444444444444444444444444444444444444444444444",
"4444444444444444444444444444444444444444444444444444444444444444444444444444444444444444444444444444",
"4444444444444444444444444444444444444444444444444444444444444444444444444444444444444444444444444444",
"4444444444444444444444444444444444444444444444444444444444444444444444444444444444444444444444444444",
"4444444444444444444441>=**=><4444444444444444444444444444444444444444441:=**=>1444444444444444444444",
"444444444444444443;@          @;344444444444444444444444444444444443;@          @;344444444444444444",
"4444444444444443*                *34444444444444444444444444444443*                *3444444444444444",
"44444444444444;                    ;4444444444444444444444444444;                    ;44444444444444",
"4444444444443%                      %44444444444444444444444444%                      %4444444444444",
"444444444443o                        o344444444444444444444443o                        o344444444444",
"44444444443X                          X3444444444444444444443X                          X34444444444",
"4444444444@                            +44444444444444444444@                            +4444444444",
"444444444*                              *444444444444444444*                              *444444444",
"44444444<                                <4444444444444444<                                <44444444",
"44444444O                                O4444444444444444O                                O44444444",
"4444444,                                  ,44444444444444,                                  ,4444444",
"4444444$                                  #44444444444444$                                  #4444444",
"4444443                                    34444444444443                                    3444444",
"444444:                                    :444444444444:                                    :444444",
"444444&                                    &444444444444&                                    &444444",
"444444X                                    X444444444444X                                    X444444",
"444444                                      444444444444                                      444444",
"444444                                      444444444444                                      444444",
"444444                                      444444444444                                      444444",
"444444                                      444444444444                                      444444",
"444444                                      444444444444                                      444444",
"444444X                                    X444444444444X                                    X444444",
"444444&                                    &444444444444&                                    &444444",
"444444:                                    :444444444444:                                    :444444",
"4444443                                    34444444444443                                    3444444",
"4444444$                                  $44444444444444#                                  #4444444",
"4444444,                                  ,44444444444444,                                  ,4444444",
"44444444O                                O4444444444444444O                                O44444444",
"44444444<                                <4444444444444444<                                <44444444",
"444444444*                              *444444444444444444*                              *444444444",
"4444444444+                            @44444444444444444444@                            @4444444444",
"44444444443X                          X3444444444444444444443X                          X34444444444",
"444444444443o                        o344444444444444444444443o                        o344444444444",
"4444444444444%                      %44444444444444444444444444%                      %4444444444444",
"44444444444444;                    ;4444444444444444444444444444;                    ;44444444444444",
"4444444444444443*                *34444444444444444444444444444443*                *3444444444444444",
"444444444444444443;@          @;344444444444444444444444444444444443;@          @;344444444444444444",
"4444444444444444444441>=**=><444444444444444444444444444444444444444444<>=**=:1444444444444444444444",
"4444444444444444444444444444444444444444444444444444444444444444444444444444444444444444444444444444",
"4444444444444444444444444444444444444444444444444444444444444444444444444444444444444444444444444444",
"4444444444444444444444444444444444444444444444444444444444444444444444444444444444444444444444444444",
"4444444444444444444444444444444444444444444444444444444444444444444444444444444444444444444444444444",
"4444444444444444444444444444444444444444444444444444444444444444444444444444444444444444444444444444",
"4444444444444444444444444444444444444444444444444444444444444444444444444444444444444444444444444444",
"4444444444444444444444444444444444444444444444444444444444444444444444444444444444444444444444444444",
"4444444444444444444444444444444444444444444444444444444444444444444444444444444444444444444444444444",
"4444444444444444444444444444444444444444444444444444444444444444444444444444444444444444444444444444",
"4444444444444444444444444444444444444444444444444444444444444444444444444444444444444444444444444444",
"4444444444444444444444444444444444444444444444444444444444444444444444444444444444444444444444444444",
"4444444444444444444444444444444444444444444444444444444444444444444444444444444444444444444444444444",
"4444444444444444444444444444444444444444444444444444444444444444444444444444444444444444444444444444",
"4444444444444444444444444444444444444444444444444444444444444444444444444444444444444444444444444444"
};
