/* XPM */
static const char *const audioleft[] = {
/* columns rows colors chars-per-pixel */
"100 66 38 1 ",
"  c #000000",
". c #3D3D3D",
"X c #424242",
"o c #434343",
"O c #505050",
"+ c #555555",
"@ c #5F5F5F",
"# c #616161",
"$ c #656565",
"% c #696969",
"& c #6D6D6D",
"* c #737373",
"= c #767676",
"- c #787878",
"; c #858585",
": c #8B8B8B",
"> c #8C8C8C",
", c #959595",
"< c #A2A2A2",
"1 c #A5A5A5",
"2 c #AAAAAA",
"3 c #ADADAD",
"4 c #BCBCBC",
"5 c #C0C0C0",
"6 c #CBCBCB",
"7 c #CDCDCD",
"8 c #D3D3D3",
"9 c #D4D4D4",
"0 c #DBDBDB",
"q c #DCDCDC",
"w c #E1E1E1",
"e c #E6E6E6",
"r c #E9E9E9",
"t c #ECECEC",
"y c #F2F2F2",
"u c #F7F7F7",
"i c #FAFAFA",
"p c #FFFFFF",
/* pixels */
"pppppppppppppppppppppppppppppppppppppppppppppppppppppppppppppppppppppppppppppppppppppppppppppppppppp",
"pppppppppppppppppppppppppppppppppppppppppppppppppppppppppppppppppppppppppppppppppppppppppppppppppppp",
"pppppppppppppppppppppppppppppppppppppppppppppppppppppppppppppppppppppppppppppppppppppppppppppppppppp",
"pppppppppppppppppppppppppppppppppppppppppppppppppppppppppppppppppppppppppppppppppppppppppppppppppppp",
"pppppppppppppppppppppppppppppppppppppppppppppppppppppppppppppppppppppppppppppppppppppppppppppppppppp",
"pppppppppppppppppppppppppppppppppppppppppppppppppppppppppppppppppppppppppppppppppppppppppppppppppppp",
"pppppppppppppppppppppppppppppppppppppppppppppppppppppppppppppppppppppppppppppppppppppppppppppppppppp",
"pppppppppppppppppppppppppppppppppppppppppppppppppppppppppppppppppppppppppppppppppppppppppppppppppppp",
"pppppppppppppppppppppppppppppppppppppppppppppppppppppppppppppppppppppppppppppppppppppppppppppppppppp",
"pppppppppppppppppppppppppppppppppppppppppppppppppppppppppppppppppppppppppppppppppppppppppppppppppppp",
"pppppppppppppppppppppppppppppppppppppppppppppppppppppppppppppppppppppppppppppppppppppppppppppppppppp",
"pppppppppppppppppppppppppppppppppppppppppppppppppppppppppppppppppppppppppppppppppppppppppppppppppppp",
"pppppppppppppppppppppppppppppppppppppppppppppppppppppppppppppppppppppppppppppppppppppppppppppppppppp",
"pppppppppppppppppppppt943349rpppppppppppppppppppppppppppppppppppppppppr83;%$;38rpppppppppppppppppppp",
"pppppppppppppppppp7&          &7ippppppppppppppppppppppppppppppppppr1            <rppppppppppppppppp",
"pppppppppppppppi3                3ippppppppppppppppppppppppppppppe%                $eppppppppppppppp",
"pppppppppppppp7                    7pppppppppppppppppppppppppppi1                    1ippppppppppppp",
"ppppppppppppp>                      :pppppppppppppppppppppppppr                        tpppppppppppp",
"pppppppppppiO                        Oippppppppppppppppppppppw                          wppppppppppp",
"ppppppppppiX                          Xippppppppppppppppppppe                            epppppppppp",
"pppppppppp&                            %pppppppppppppppppppy                              yppppppppp",
"ppppppppp3                              3pppppppppppppppppp%              +O              %ppppppppp",
"ppppppppr                                rpppppppppppppppp7           =0pppppiq*           6pppppppp",
"pppppppp#                                #pppppppppppppppu           wppppppppppw           uppppppp",
"pppppppw                                  wpppppppppppppp4         =uppppppppppppi=         5ppppppp",
"ppppppp-                                  =pppppppppppppp         OpppppppppppppppiO         ppppppp",
"ppppppi                                    ippppppppppppw         yppppppppppppppppt         wpppppp",
"pppppp8                                    8pppppppppppp3        5pppppppppppppppppp5        2pppppp",
"pppppp,                                    ,pppppppppppp         uppppppppppppppppppi         pppppp",
"ppppppX                                    Xpppppppppppp        :pppppppppppppppppppp>        pppppp",
"pppppp                                      pppppppppppp        7pppppppppppppppppppp7        pppppp",
"pppppp                                      pppppppppppp        wppppppppppppppppppppw        pppppp",
"pppppp                                      pppppppppppp        eppppppppppppppppppppr    .@=;pppppp",
"pppppp                                      pppppppppppp        wppppppppppppppppppppw        pppppp",
"pppppp                                      pppppppppppp        7pppppppppppppppppppp7        pppppp",
"pppppp.                                    Xpppppppppppp        :pppppppppppppppppppp:        pppppp",
"pppppp,                                    ,pppppppppppp         ippppppppppppppppppu         pppppp",
"pppppp8                                    8pppppppppppp2        5pppppppppppppppppp5        2pppppp",
"ppppppi                                    ippppppppppppw         yppppppppppppppppy         wpppppp",
"ppppppp-                                  -pppppppppppppp         OippppppppppppppiO         ppppppp",
"pppppppw                                  wpppppppppppppp5         *uppppppppppppi*         5ppppppp",
"pppppppp#                                #pppppppppppppppu           wppppppppppw           uppppppp",
"ppppppppr                                rpppppppppppppppp6           =0ppppppq=           7pppppppp",
"ppppppppp3                              3pppppppppppppppppp%              OO              %ppppppppp",
"pppppppppp%                            &pppppppppppppppppppy                              yppppppppp",
"ppppppppppiX                          Xippppppppppppppppppppe                            epppppppppp",
"pppppppppppiO                        Oippppppppppppppppppppppe                          wppppppppppp",
"ppppppppppppp>                      >pppppppppppppppppppppppppr                        rpppppppppppp",
"pppppppppppppp7                    7pppppppppppppppppppppppppppi1                    1ippppppppppppp",
"pppppppppppppppi3                3ippppppppppppppppppppppppppppppe%                %eppppppppppppppp",
"pppppppppppppppppi7&          &7ippppppppppppppppppppppppppppppppppr<            1rppppppppppppppppp",
"pppppppppppppppppppppt943349rpppppppppppppppppppppppppppppppppppppppppt83;$%;38rpppppppppppppppppppp",
"pppppppppppppppppppppppppppppppppppppppppppppppppppppppppppppppppppppppppppppppppppppppppppppppppppp",
"pppppppppppppppppppppppppppppppppppppppppppppppppppppppppppppppppppppppppppppppppppppppppppppppppppp",
"pppppppppppppppppppppppppppppppppppppppppppppppppppppppppppppppppppppppppppppppppppppppppppppppppppp",
"pppppppppppppppppppppppppppppppppppppppppppppppppppppppppppppppppppppppppppppppppppppppppppppppppppp",
"pppppppppppppppppppppppppppppppppppppppppppppppppppppppppppppppppppppppppppppppppppppppppppppppppppp",
"pppppppppppppppppppppppppppppppppppppppppppppppppppppppppppppppppppppppppppppppppppppppppppppppppppp",
"pppppppppppppppppppppppppppppppppppppppppppppppppppppppppppppppppppppppppppppppppppppppppppppppppppp",
"pppppppppppppppppppppppppppppppppppppppppppppppppppppppppppppppppppppppppppppppppppppppppppppppppppp",
"pppppppppppppppppppppppppppppppppppppppppppppppppppppppppppppppppppppppppppppppppppppppppppppppppppp",
"pppppppppppppppppppppppppppppppppppppppppppppppppppppppppppppppppppppppppppppppppppppppppppppppppppp",
"pppppppppppppppppppppppppppppppppppppppppppppppppppppppppppppppppppppppppppppppppppppppppppppppppppp",
"pppppppppppppppppppppppppppppppppppppppppppppppppppppppppppppppppppppppppppppppppppppppppppppppppppp",
"pppppppppppppppppppppppppppppppppppppppppppppppppppppppppppppppppppppppppppppppppppppppppppppppppppp",
"pppppppppppppppppppppppppppppppppppppppppppppppppppppppppppppppppppppppppppppppppppppppppppppppppppp"
};
