/* XPM */
static const char *const audio[] = {
/* columns rows colors chars-per-pixel */
"100 50 22 1 ",
"  c #000000",
". c #656565",
"X c #868686",
"o c #8A8A8A",
"O c #8E8E8E",
"+ c #909090",
"@ c #A2A2A2",
"# c #A4A4A4",
"$ c #B3B3B3",
"% c #B4B4B4",
"& c #CDCDCD",
"* c #CECECE",
"= c #DBDBDB",
"- c #DFDFDF",
"; c #E3E3E3",
": c #E4E4E4",
"> c #EBEBEB",
", c #EDEDED",
"< c #F5F5F5",
"1 c #F6F6F6",
"2 c #F9F9F9",
"3 c #FFFFFF",
/* pixels */
"333333                                                                                        333333",
"333333                                                                                        333333",
"333333                                                                                        333333",
"333333     ,33333333333333333333333333333333333333333333333333333333333333333333333333333     333333",
"333333     ,33333333333333333333333333333333333333333333333333333333333333333333333333333     333333",
"333333     ,33333333333333333333333333333333333333333333333333333333333333333333333333333     333333",
"333333     ,33333333333333333333333333333333333333333333333333333333333333333333333333333     333333",
"333333     ,33333333333333333333333333333333333333333333333333333333333333333333333333333     333333",
"333333     ,33333333333333333333333333333333333333333333333333333333333333333333333333333     333333",
"333333     ,33333333333333333333333333333333333333333333333333333333333333333333333333333     333333",
"333333     ,333333333333333;@        #;3333333333333333333333:@        #;3333333333333333     333333",
"333333     ,3333333333333=              =333333333333333333=              =33333333333333     333333",
"333333     ,333333333331X                o1333333333333331X                o1333333333333     333333",
"333333     ,3333333333>                    >333333333333>                    >33333333333     333333",
"333333     ,333333333>                      >3333333333>                      >3333333333     333333",
"333333     ,333333331                        1333333331                        1333333333     333333",
"333333     ,33333333o         +&--&O         o33333333o         O&;-&O         o333333333     333333",
"333333     ,3333333=        %13333331$        =333333=        %13333331$        =33333333     333333",
"333333     ,3333333        -3333333333-        333333        -3333333333-        33333333     333333",
"333333     ,333333;       -333333333333-       :3333:       -333333333333-       ;3333333     333333",
"333333     ,333333#      $33333333333333$      #3333@      $33333333333333%      #3333333     333333",
"333333     ,333333       1333333333333331       3333       1333333333333331       3333333     333333",
"333333     ,333333      O3333333333333333O      3333      O3333333333333333O      3333333     333333",
"333333     ,333333      &3333333333333333&      3333      &3333333333333333&      3333333     333333",
"333333     ,333333      -3333333333333333-     .3333      -3333333333333333-     .3333333     333333",
"333333     ,333333      ;3333333333333333;      3333      ;3333333333333333;      3333333     333333",
"333333     ,333333      &3333333333333333&      3333      &3333333333333333&      3333333     333333",
"333333     ,333333      O3333333333333333O      3333      O3333333333333333O      3333333     333333",
"333333     ,333333       1333333333333331       3333       1333333333333331       3333333     333333",
"333333     ,333333@      %33333333333333%      @3333@      %33333333333333$      @3333333     333333",
"333333     ,333333;       -333333333333;       :3333;       -333333333333;       :3333333     333333",
"333333     ,3333333        -3333333333-        333333        -3333333333-        33333333     333333",
"333333     ,3333333=        $13333332%        =333333=        $13333332%        =33333333     333333",
"333333     ,33333333o         O&--&O         O33333333o         O&--&O         O333333333     333333",
"333333     ,333333331                        1333333331                        1333333333     333333",
"333333     ,333333333>                      >3333333333>                      >3333333333     333333",
"333333     ,3333333333>                    >333333333333>                    >33333333333     333333",
"333333     ,333333333331o                o1333333333333331o                o1333333333333     333333",
"333333     ,3333333333333-              -333333333333333333=              -33333333333333     333333",
"333333     ,333333333333333:#        @:3333333333333333333333:#        @:3333333333333333     333333",
"333333     ,3333333333333333333>::1333333333333333333333333333333>::133333333333333333333     333333",
"333333     ,33333333333333333333333333333333333333333333333333333333333333333333333333333     333333",
"333333     ,33333333333333333333333333333333333333333333333333333333333333333333333333333     333333",
"333333     ,33333333333333333333333333333333333333333333333333333333333333333333333333333     333333",
"333333     ,33333333333333333333333333333333333333333333333333333333333333333333333333333     333333",
"333333     ,33333333333333333333333333333333333333333333333333333333333333333333333333333     333333",
"333333     ,33333333333333333333333333333333333333333333333333333333333333333333333333333     333333",
"333333                                                                                        333333",
"333333                                                                                        333333",
"333333                                                                                        333333"
};
