/* XPM */
static const char *const clockremote_720[] = {
/* columns rows colors chars-per-pixel */
"25 28 24 1 ",
"  c #000000",
". c #010101",
"X c #030303",
"o c #050505",
"O c #0B0B0B",
"+ c #121212",
"@ c #1D1D1D",
"# c #262626",
"$ c #383838",
"% c #484848",
"& c #575757",
"* c #6F6F6F",
"= c #888888",
"- c #999999",
"; c #B9B9B9",
": c #A3A3A3",
"> c #CACACA",
", c #D9D9D9",
"< c #FFFFFF",
"1 c #FEFEFE",
"2 c #FCFCFC",
"3 c #F9F9F9",
"4 c #F5F5F5",
"5 c #E9E9E9",
/* pixels */
"<<<<<<<<<<<<<<<<<<<<<<<<<",
"<<<<<<<<<;*&%&*;33<<<<<<<",
"<<<<<<4=+XXXXXoo+-3<<<<<<",
"<<<<<,#XXXXXOXXXXX#,<<<<<",
"<<<<,OXX+*>3<<>*OXX+,<<<<",
"<<<5@XX%5<<5&&4<5%XX@5<<<",
"<<<&XX&3<<<,XX5<<<%XX*<<<",
"<<,XX#43<<<,XX5<<<4@XX,<<",
"<<*XX:<<<<<,XX,<<<<:XX=3<",
"<<$XO4<3<<<,XX5<<<<4oX$<<",
"<<OX$<,;;;;-XX5<<<<<$X+<<",
"<3XX&<*XXXXXXX5<<<<<&XX4<",
"<<OX%3*++O++O+5<<<<<%XO<<",
"<<#X@3<<<<<<<<<<<<<3+X#3<",
"<<&oX><<<<<<<<<<<<3>XX*3<",
"<<;XX%<<<<<<<<<<<<<%XX;<<",
"<<<$XX-3<<<<<<<<<<-XX$3<<",
"<<<>XXX-<<<<<<<<3-XXX><<<",
"<<<<-XXX%><<<<<>%XXX-<<<<",
"<<<<<-XXXX#%*%@XXXo-<<<<<",
"<<<<<<>$XXXXXXXXX$><<<<<<",
"<<<<<<<<;*#oXo#*;<<<<<<<<",
"<<<<<<<5<<<<5<<<<5<<<<<<<",
"<<<<,*##3<<<<<<<<##*><<<<",
"<,*#X+&->>>>>>>>>-&+X#*,<",
"=oX+ooOOOOOOOOOOOOOOXoXO=",
"<3;*+X$=3<<<<<<<4=$X+*;3<",
"<<<34;&%<<<<<<<<<%&;3<<<<"
};
