/* XPM */
static const char *const clockinactsml_576[] = {
/* columns rows colors chars-per-pixel */
"14 14 21 1 ",
"  c #000000",
". c #030303",
"X c #050505",
"o c #090909",
"O c #1B1B1B",
"+ c #2E2E2E",
"@ c #4E4E4E",
"# c #414141",
"$ c #5A5A5A",
"% c #626262",
"& c #6B6B6B",
"* c #9A9A9A",
"= c #969696",
"- c #8C8C8C",
"; c #AFAFAF",
": c #CECECE",
"> c #D5D5D5",
", c #F1F1F1",
"< c #FFFFFF",
"1 c #FEFEFE",
"2 c #FDFDFD",
/* pixels */
"<<<<<,::,<<<&=",
"<<2>@   X@>% %",
"<<;Xo%**$oX %2",
"<>o+><;#<$ X><",
"<@o><<*o& @X@<",
",X%<<<*o %<%X,",
": *;&&OX%2<* :",
": *-#O O<<<* :",
",X%<& %<<<<$X,",
"<@X$ $<<<<>X@<",
"<>  $2<<<>+o><",
"<& XX%=*$oo;<<",
"% %>@X  o@><<<",
"*%<<<,::,<<<<<"
};
