/* XPM */
static const char *const clockinactiveremote_1080[] = {
/* columns rows colors chars-per-pixel */
"37 42 25 1 ",
"  c #000000",
". c #010101",
"X c #030303",
"o c #050505",
"O c #0C0C0C",
"+ c #131313",
"@ c #1A1A1A",
"# c #272727",
"$ c #323232",
"% c #3A3A3A",
"& c #545454",
"* c #6F6F6F",
"= c #9B9B9B",
"- c #8A8A8A",
"; c #AEAEAE",
": c #A1A1A1",
"> c #B4B4B4",
", c #C6C6C6",
"< c #D6D6D6",
"1 c #FFFFFF",
"2 c #FEFEFE",
"3 c #FDFDFD",
"4 c #FAFAFA",
"5 c #F4F4F4",
"6 c #E8E8E8",
/* pixels */
"11111111111111111111111111111111>&511",
"1111111111111111146411111111111>o.&51",
"1111111111114,*$@...@$*,111111;o...&1",
"11111111111=@.o.......o.@:111>o...o;1",
"111111111,#...............#,>o...o;11",
"11111111=o.......o+o............o;111",
"1111111*.....O&>61116;&O.......o;1111",
"111111=o....*61111111116*......;11111",
"11111,o...O>11114=oO#111>......,11111",
"11111#...O<111111-..#11>o......#11111",
"1111=....>1111111-..#1>o........:1111",
"1111@...*11111111-..@>o...o;*...@1111",
"111,..oO641111111-..+O...o;16+..o,111",
"111*..o&111111111-......o;114&..o*111",
"111$...;111111111=.....o;1111;...$111",
"111+...6111111111&....o;111116...@111",
"114...o11-++++++O....o;1111111o...411",
"116...+11-...........;11111111+...611",
"111...O11*..........+111111111o...411",
"111+...61<===*.....*;111111116...@111",
"111$...>1111>o...o;1111111111;..o$111",
"111*...&111>o...o;11111111111&..o*111",
"111,...O61>o...o;111111111116O...,111",
"1111@...*>o...o;111111111111&...#1111",
"1111=....o...o;111111111111>....:1111",
"11111#......o;111111111111<O...#11111",
"11111,o....o;441111111111>O...O,11111",
"11111>......*61111111116*.....=111111",
"1111>o.......O&;61116;&O.....*1111111",
"111>o....o........+o.......O=11111111",
"11>o...o;,#...............#,111111111",
"1>o...o;111:@...........#:11111111111",
"1&...o;111111,*%@...@$*<1111111111111",
"14&.o;1111111111146111111111111111111",
"114&;1111>*>1111111111111>*>111111111",
"111111<*#..$1111111111111$..@*,111111",
"111<-#...+*,1111111111111<*#...@*<111",
"<*@....+#$#$$#$$$$#$$$$$$$$##+....@*<",
"=$o....OO++++++OO+++O++OO++OOO....o$=",
"115;&O...&=611111111111116=&...O&;511",
"111115=&...#1111111111111#...&:611111",
"111111416=$=1111111111111=%=611111111"
};
