/* XPM */
static const char *const clockinact_720[] = {
/* columns rows colors chars-per-pixel */
"25 25 18 1 ",
"  c #000000",
". c #0E0E0E",
"X c #151515",
"o c #252525",
"O c #363636",
"+ c #666666",
"@ c #777777",
"# c #404040",
"$ c #828282",
"% c #8A8A8A",
"& c #949494",
"* c #B7B7B7",
"= c #CBCBCB",
"- c #D3D3D3",
"; c #FFFFFF",
": c #FBFBFB",
"> c #F4F4F4",
", c #EEEEEE",
/* pixels */
";;;;;;;;;;;;;:;;;;;;;;%@;",
";;;;;;;;;=%@+@&=;;;;;%  @",
";;;;;;;&o       o&:;$   $",
";;;;;-o           o@   $;",
";;;;*.   O$*=*%O      $;;",
";;;-.  o*;;>**,;*X   +;;;",
";;:o  #,;;;-  -;%    o:;;",
";;&  o,;;;;-  =%   X  &;;",
";;o  *;;;;;-  @   $*  o;;",
";=  O;;;;;;-     $;;O  -;",
";%  %;;;;;;-    @;;;$  %;",
";@  *;%@@@@O   $;;;;*  @;",
";+  =:X       +;;;;;=  +;",
";@  *;OooX   X-;;;;;*  @;",
";&  $;;;%   $;;;;;;;@  &;",
";=  O;;%   @;;;;;;;;O  -;",
";;o  *%   $;;;;;;;;*  o;;",
";;&  X   $;;;;;;;;,o  &;;",
";;:o    @;;;;;;;;,O  o;;;",
";;;@   X*;;;;;;;*o  X-;;;",
";;%      O$*=*$O   X*;;;;",
";%   +o           o-;;;;;",
"%   $;;&o       o&:;;;;;;",
"@  @;;;;;-%@+@%-;;;;;;;;;",
";$$;;;;;;;;;;;;;;;;;;;;;;"
};
