/* XPM */
static const char *const clocksml_720[] = {
/* columns rows colors chars-per-pixel */
"17 17 22 1 ",
"  c #000000",
". c #060606",
"X c #0A0A0A",
"o c #1F1F1F",
"O c #212121",
"+ c #393939",
"@ c #424242",
"# c #595959",
"$ c #707070",
"% c #929292",
"& c #8F8F8F",
"* c #BEBEBE",
"= c #A3A3A3",
"- c #CDCDCD",
"; c #C1C1C1",
": c #D6D6D6",
"> c #EDEDED",
", c #F5F5F5",
"< c #FFFFFF",
"1 c #FEFEFE",
"2 c #FDFDFD",
"3 c #F8F8F8",
/* pixels */
"<<<<<<<<><<<<<<<<",
"<<<<,&+. .+&,<<<<",
"<<<-O  XOX  O-<<<",
"<<-X @;<>>*@ X-<<",
"<,o $<<<X#<<$ O,<",
"<& @<<<<.#<<<@ &<",
"<+ ;<<<<X#<<<* +<",
"2 X<:---X#<<<<X.<",
"> o<O.   #<<<<o >",
"<.X<=%%&&*<<<<X.<",
"<+ ;<<<<<<<<<* +<",
"<& @<<<<<<<<<@ &<",
"<,O $<<<<<<<$ O2<",
"<<-X @*<<<*+ X-<<",
"<<<-O  XoX  O-<<<",
"<<<<,&+. .+&2<<<<",
"<<<<<<<<><<<<<<<<"
};
