/* XPM */
static const char *const clockinact_2160[] = {
/* columns rows colors chars-per-pixel */
"74 74 22 1 ",
"  c #000000",
". c #010101",
"X c #030303",
"o c #060606",
"O c #0E0E0E",
"+ c #181818",
"@ c #252525",
"# c #333333",
"$ c #515151",
"% c #686868",
"& c #797979",
"* c #858585",
"= c #969696",
"- c #A9A9A9",
"; c #B7B7B7",
": c #D4D4D4",
"> c #E6E6E6",
", c #FFFFFF",
"< c #FEFEFE",
"1 c #FDFDFD",
"2 c #F9F9F9",
"3 c #F5F5F5",
/* pixels */
",,,,,,,,,,,,,,,,,,,,,,,,,,,,,,,,,,,,,,,,,,,,,,,,,,,,,,,,,,,,,,,,,,,=%,,,,,",
",,,,,,,,,,,,,,,,,,,,,,,,,,,,,,,,,,,,,,,,,,,,,,,,,,,,,,,,,,,,,,,,,,=  %,,,,",
",,,,,,,,,,,,,,,,,,,,,,,,,,,,,,,,,,,,,,,,,,,,,,,,,,,,,,,,,,,,,,,,,=    %2,,",
",,,,,,,,,,,,,,,,,,,,,,,,,,,,,,,,,,,,,,,,,,,,,,,,,,,,,,,,,,,,,,,,=      %,,",
",,,,,,,,,,,,,,,,,,,,,,,,,,,,,>-&$#@OooO@#$*->,,,,,,,,,,,,,,,,,,=        %2",
",,,,,,,,,,,,,,,,,,,,,,,,,,;%@                @%;,,,,,,,,,,,,,,=          %",
",,,,,,,,,,,,,,,,,,,,,,,>&+                      +&>2,,,,,,,,,=           =",
",,,,,,,,,,,,,,,,,,,,,:%o                           %:,,,,,,,=           =,",
",,,,,,,,,,,,,,,,,,,3&                                &3,,,,=o          =,,",
",,,,,,,,,,,,,,,,,,-+                                  +-,,=           =,,,",
",,,,,,,,,,,,,,,,3%                                      %=           =,,,,",
",,,,,,,,,,,,,,,>#                                                   =,,,,,",
",,,,,,,,,,,,,3:+               o@$%&**&&$+o                        =,,,,,,",
",,,,,,,,,,,,,:O             O%->,,,,,,,,,,>-%O                    =,,,,,,,",
",,,,,,,,,,,,:O            #-3,,,,,,,,,,,,,,,,3-#                 =,,,,,,,,",
",,,,,,,,,,,>+           @;,,,,,,,,,,,,,,,,,,,,,,;@              =,,,,,,,,,",
",,,,,,,,,,3#          o*3,,,,,,,,,,,,,,,,,,,,,,,,3*            =,,,,,,,,,,",
",,,,,,,,,,%          +:,,,,,,,,,,,,       ,,,,,,,,=            %,,,,,,,,,,",
",,,,,,,,,-          #>2,,,,,,,,,,,,       ,,,,,,,=o             ;,,,,,,,,,",
",,,,,,,,3+         $3,,,,,,,,,,,,,,       ,,,,,,=               +3,,,,,,,,",
",,,,,,,,%         #3,,,,,,,,,,,,,,,       ,,,,,=o                &,,,,,,,,",
",,,,,,,:o        @>,,,,,,,,,,,,,,,,       ,,,,=                  o:,,,,,,,",
",,,,,,,%        o:,,,,,,,,,,,,,,,,,       ,,,=o          o        %,,,,,,,",
",,,,,,>         *2,,,,,,,,,,,,,,,,,       ,,=           =*         >,,,,,,",
",,,,,,&        @3,,,,,,,,,,,,,,,,,,       ,=o          =23@        &,,,,,,",
",,,,,,+        ;,,,,,,,,,,,,,,,,,,,       =           =,,,-        +,,,,,,",
",,,,,;        #,,,,,,,,,,,,,,,,,,,,                  =,,,,,#        ;,,,,,",
",,,,,%        -,,,,,,,,,,,,,,,,,,,,                 =,,,,,,-        %,,,,,",
",,,,,@       O3,,,,,,,,,,,,,,,,,,,,                =,,,,,,,3O       @2,,,,",
",,,,>        %,,,,,,,,,,,,,,,,,,,,,               =,,,,,,,,,%        >,,,,",
",,,,-        -,,,,,,,,,,,,,,,,,,,,,              =,,,,,,,,,,-        -,,,,",
",,,,&        >,,,,,,,,,,,,,,,,,,,,,             =,,,,,,,,,,,>        *,,,,",
",,,,$       @,,,,,,,,,,,,,,,,,,,,,,            =,,,,,,,,,,,,,+       $,,,,",
",,,,#       $,,,,,,,,,,,,,,,,,,,,,=           =,,,,,,,,,,,,,,$      o#,,,,",
",,,,@       %,,,,,                           =,,,,,,,,,,,,,,,%       @,,,,",
",,,,O       &,,,,,                          =,,,,,,,,,,,,,,,,&       +,,,,",
",,,,o       *,,,,,                         =,,,,,,,,,,,,,,,,,*       o,,,,",
",,,,o       *,,,,,                        =,,,,,,,,,,,,,,,,,,*       o,,,,",
",,,,O       *,,,,,                        ,,,,,,,,,,,,,,,,,,,*       +,,,,",
",,,,@       %,,,,,                        ,,,,,,,,,,,,,,,,,,,%       @,,,,",
",,,,#       $2,,,,                        ,,,,,,,,,,,,,,,,,,,$       #,,,,",
",,,,$       @,,,,,,,,,,,,,=o          =,,,,,,,,,,,,,,,,,,,,,,@      o$,,,,",
",,,,*        >,,,,,,,,,,,=           =,,,,,,,,,,,,,,,,,,,,,,>        *,,,,",
",,,,-        -,,,,,,,,,,=           =,,,,,,,,,,,,,,,,,,,,,,,-        -,,,,",
",,,,>        %,,,,,,,,,=           =,,,,,,,,,,,,,,,,,,,,,,,2%        >,,,,",
",,,,,@       O3,,,,,,,=           =,,,,,,,,,,,,,,,,,,,,,,,,3O       @,,,,,",
",,,,,%        -2,,,,,=o          =,,,,,,,,,,,,,,,,,,,,,,,,,-        %,,,,,",
",,,,,;        #,,,,,=           =,,,,,,,,,,,,,,,,,,,,,,,,,,#        :,,,,,",
",,,,,2+        ;,,,=o          =,,,,,,,,,,,,,,,,,,,,,,,,,,-        +,,,,,,",
",,,,,,&        @2,=           =,,,,,,,,,,,,,,,,,,,,,,,,,,3@        &,,,,,,",
",,,,,,>o        *=           =,,,,,,,,,,,,,,,,,,,,,,,,,,,&        o>,,,,,,",
",,,,,,,%                    =,,,,,,,,,,,,,,,,,,,,,,,,,,,:         %,,,,,,,",
",,,,,,,:o                  =,,,,,,,,,,,,,,,,,,,,,,,,,,,>+        o:,,,,,,,",
",,,,,,,,&                o=,,,,,,,,,,,,,,,,,,,,,,,,,,,3#o        &,,,,,,,,",
",,,,,,,,>+               =,,,,,,,,,,,,,,,,,,,,,,,,,,,3#         +3,,,,,,,,",
",,,,,,,,,;              =,,,,,,,,,,,,,,,,,,,,,,,,,,,>#o         ;,,,,,,,,,",
",,,,,,,,,,%            =,,,,,,,,,,,,,,,,,,,,,,,,,,2:@          &,,,,,,,,,,",
",,,,,,,,,,=            *3,,,,,,,,,,,,,,,,,,,,,,,,3&o          #3,,,,,,,,,,",
",,,,,,,,,=o             @-2,,,,,,,,,,,,,,,,,,,,,-@           +>,,,,,,,,,,,",
",,,,,,,,=                 #-3,,,,,,,,,,,,,,,,3-@            +:,,,,,,,,,,,,",
",,,,,,,=o                   O%->,,,,,,,,22>-%O             O:,,,,,,,,,,,,,",
",,,,,,=                         @$%&**&%$@                @:2,,,,,,,,,,,,,",
",,,,,=                                o                  #>,,,,,,,,,,,,,,,",
",,,,=           *&                                      %2,,,,,,,,,,,,,,,,",
",,,=o          =,,-+                                  +;,,,,,,,,,,,,,,,,,,",
",,=           =,,,,3&o                              o&3,,,,,,,,,,,,,,,,,,,",
",=o          =,,,,,,,:%o                         oo%:,,,,,,,,,,,,,,,,,,,,,",
"=           =,,,,,,,,,,>&@                      +&>,,,,,,,,,,,,,,,,,,,,,,,",
"%          =,,,,,,,,,,,,,,;%@   o            @%:,,,,,,,,,,,,,,,,,,,,,,,,,,",
",%        =,,,,,,,,,,,,,,,,,,>-*$#@OooO@#$*->,,,,,,,,,,,,,,,,,,,,,,,,,,,,,",
",,%o     =,,,,,,,,,,,,,,,,,,,,,,,,,,,,,,,,,,,,,,,,,,,,,,,,,,,,,,,,,,,,,,,,",
",,,%    =,,,,,,,,,,,,,,,,,,,,,,,,,,,,,,,,,,,,,,,,,,,,,,,,,,,,,,,,,,,,,,,,,",
",,,,%  =,,,,,,,,,,,,,,,,,,,,,,,,,,,,,,,,,,,,,,,,,,,,,,,,,,,,,,,,,,,,,,,,,,",
",,,,,%=,,,,,,,,,,,,,,,,,,,,,,,,,,,,,,,,,,,,,,,,,,,,,,,,,,,,,,,,,,,,,,,,,,,"
};
