/* XPM */
static const char *const clock_xpm[] = {
/* columns rows colors chars-per-pixel */
"74 74 30 1 ",
"  c #000000",
". c #3D3D3D",
"X c #4C4C4C",
"o c #535353",
"O c #565656",
"+ c #5E5E5E",
"@ c #626262",
"# c #646464",
"$ c #6C6C6C",
"% c #878787",
"& c #8A8A8A",
"* c #919191",
"= c #999999",
"- c #9E9E9E",
"; c #A3A3A3",
": c #ABABAB",
"> c #BFBFBF",
", c #C0C0C0",
"< c #C9C9C9",
"1 c #CCCCCC",
"2 c #D7D7D7",
"3 c #D9D9D9",
"4 c #DFDFDF",
"5 c #EAEAEA",
"6 c #EBEBEB",
"7 c #EDEDED",
"8 c #F3F3F3",
"9 c #F7F7F7",
"0 c #FAFAFA",
"q c #FFFFFF",
/* pixels */
"qqqqqqqqqqqqqqqqqqqqqqqqqqqqqqqqqqqqqqqqqqqqqqqqqqqqqqqqqqqqqqqqqqqqqqqqqq",
"qqqqqqqqqqqqqqqqqqqqqqqqqqqqqqqqqqqqqqqqqqqqqqqqqqqqqqqqqqqqqqqqqqqqqqqqqq",
"qqqqqqqqqqqqqqqqqqqqqqqqqqqqqqqqqqqqqqqqqqqqqqqqqqqqqqqqqqqqqqqqqqqqqqqqqq",
"qqqqqqqqqqqqqqqqqqqqqqqqqqqqqqqqqqqqqqqqqqqqqqqqqqqqqqqqqqqqqqqqqqqqqqqqqq",
"qqqqqqqqqqqqqqqqqqqqqqqqqqqqqqq73,;%$#$&;>37qqqqqqqqqqqqqqqqqqqqqqqqqqqqqq",
"qqqqqqqqqqqqqqqqqqqqqqqqqqq6>O               O>6qqqqqqqqqqqqqqqqqqqqqqqqqq",
"qqqqqqqqqqqqqqqqqqqqqqqq8>                       >8qqqqqqqqqqqqqqqqqqqqqqq",
"qqqqqqqqqqqqqqqqqqqqqq7=                           =7qqqqqqqqqqqqqqqqqqqqq",
"qqqqqqqqqqqqqqqqqqqq8-                               -8qqqqqqqqqqqqqqqqqqq",
"qqqqqqqqqqqqqqqqqqq<                                   <qqqqqqqqqqqqqqqqqq",
"qqqqqqqqqqqqqqqq07$                 X+X                 $8qqqqqqqqqqqqqqqq",
"qqqqqqqqqqqqqqqq6             &16qqqqqqqqq61&             4qqqqqqqqqqqqqqq",
"qqqqqqqqqqqqqqq1           &4qqqqqqqqqqqqqqqq04&           1qqqqqqqqqqqqqq",
"qqqqqqqqqqqqqq>          :8qqqqqqqqqqqqqqqqqqqqq8:          >qqqqqqqqqqqqq",
"qqqqqqqqqqqqq,         &8qqqqqqqqqqqqqqqqqqqqqqqqq8&         ,qqqqqqqqqqqq",
"qqqqqqqqqqqq1         2qqqqqqqqqqqqqqqqqqqqqqqqqqqqq2         <qqqqqqqqqqq",
"qqqqqqqqqqq4        X8qqqqqqqqqqqqqqqqqqqqqqqqqqqqqqq7X        4qqqqqqqqqq",
"qqqqqqqqqq8        *0qqqqqqqqqqqqqq        qqqqqqqqqqq0*        8qqqqqqqqq",
"qqqqqqqqqq$       -qqqqqqqqqqqqqqqq        qqqqqqqqqqqqq;       $qqqqqqqqq",
"qqqqqqqqq<       *qqqqqqqqqqqqqqqqq        qqqqqqqqqqqqqq*       <qqqqqqqq",
"qqqqqqqq8       X0qqqqqqqqqqqqqqqqq        qqqqqqqqqqqqqq0X       8qqqqqqq",
"qqqqqqqq-       8qqqqqqqqqqqqqqqqqq        qqqqqqqqqqqqqqq8       -qqqqqqq",
"qqqqqqq7       2qqqqqqqqqqqqqqqqqqq        qqqqqqqqqqqqqqqq2       7qqqqqq",
"qqqqqqq=      &qqqqqqqqqqqqqqqqqqqq        qqqqqqqqqqqqqqqqq&      =qqqqqq",
"qqqqqq8       8qqqqqqqqqqqqqqqqqqqq        qqqqqqqqqqqqqqqqq7       8qqqqq",
"qqqqqq>      :qqqqqqqqqqqqqqqqqqqqq        qqqqqqqqqqqqqqqqqq:      >qqqqq",
"qqqqqq       8qqqqqqqqqqqqqqqqqqqqq        qqqqqqqqqqqqqqqqqq8       qqqqq",
"qqqqq6      &qqqqqqqqqqqqqqqqqqqqqq        qqqqqqqqqqqqqqqqqqq&      6qqqq",
"qqqqq,      60qqqqqqqqqqqqqqqqqqqqq        qqqqqqqqqqqqqqqqqqq4      >qqqq",
"qqqqqO      0qqqqqqqqqqqqqqqqqqqqqq        qqqqqqqqqqqqqqqqqqq0      oqqqq",
"qqqq0      &qqqqqqqqqqqqqqqqqqqqqqq        qqqqqqqqqqqqqqqqqqqq&      0qqq",
"qqqq7      1qqqqqqqqqqqqqqqqqqqqqqq        qqqqqqqqqqqqqqqqqqqq1      7qqq",
"qqqq3      6qqqqqqqqqqqqqqqqqqqqqqq        qqqqqqqqqqqqqqqqqqqq6      3qqq",
"qqqq,      9qqqqqqqqqqqqqqqqqqqqqqq        qqqqqqqqqqqqqqqqqqqq9      >qqq",
"qqqq;      qqqqqqq                         qqqqqqqqqqqqqqqqqqqqq      ;qqq",
"qqqq%      qqqqqqq                         qqqqqqqqqqqqqqqqqqqqq      &qqq",
"qqqq$     Xqqqqqqq                         qqqqqqqqqqqqqqqqqqqqqX     $qqq",
"qqqq#     +qqqqqqq                         qqqqqqqqqqqqqqqqqqqqq@   .o$qqq",
"qqqq$     Xqqqqqqq                         qqqqqqqqqqqqqqqqqqqqqX     $qqq",
"qqqq%      qqqqqqq                         qqqqqqqqqqqqqqqqqqqqq      %qqq",
"qqqq;      qqqqqqq                         qqqqqqqqqqqqqqqqqqqqq      ;qqq",
"qqqq,      0qqqqqq                         qqqqqqqqqqqqqqqqqqqq9      >qqq",
"qqqq3      6qqqqqqqqqqqqqqqqqqqqqqqqqqqqqqqqqqqqqqqqqqqqqqqqqqq6      3qqq",
"qqqq7      1qqqqqqqqqqqqqqqqqqqqqqqqqqqqqqqqqqqqqqqqqqqqqqqqqqq1      7qqq",
"qqqq0      &qqqqqqqqqqqqqqqqqqqqqqqqqqqqqqqqqqqqqqqqqqqqqqqqqqq&      0qqq",
"qqqqqO      0qqqqqqqqqqqqqqqqqqqqqqqqqqqqqqqqqqqqqqqqqqqqqqqqq0      Oqqqq",
"qqqqq>      4qqqqqqqqqqqqqqqqqqqqqqqqqqqqqqqqqqqqqqqqqqqqqqqqq4      ,qqqq",
"qqqqq6      &qqqqqqqqqqqqqqqqqqqqqqqqqqqqqqqqqqqqqqqqqqqqqqqqq&      6qqqq",
"qqqqqq       8qqqqqqqqqqqqqqqqqqqqqqqqqqqqqqqqqqqqqqqqqqqqqqq8       qqqqq",
"qqqqqq>      :qqqqqqqqqqqqqqqqqqqqqqqqqqqqqqqqqqqqqqqqqqqqqqq:      >qqqqq",
"qqqqqq8       7qqqqqqqqqqqqqqqqqqqqqqqqqqqqqqqqqqqqqqqqqqqqq8       8qqqqq",
"qqqqqqq=      &qqqqqqqqqqqqqqqqqqqqqqqqqqqqqqqqqqqqqqqqqqqqq&      =qqqqqq",
"qqqqqqq7       2qqqqqqqqqqqqqqqqqqqqqqqqqqqqqqqqqqqqqqqqqqq3       7qqqqqq",
"qqqqqqqq-       8qqqqqqqqqqqqqqqqqqqqqqqqqqqqqqqqqqqqqqqqq8       -qqqqqqq",
"qqqqqqqq8       X0qqqqqqqqqqqqqqqqqqqqqqqqqqqqqqqqqqqqqqq0X       8qqqqqqq",
"qqqqqqqqq<       *qqqqqqqqqqqqqqqqqqqqqqqqqqqqqqqqqqqqqqq*       <qqqqqqqq",
"qqqqqqqqqq$       -qqqqqqqqqqqqqqqqqqqqqqqqqqqqqqqqqqqqq-       $qqqqqqqqq",
"qqqqqqqqqq8        *0qqqqqqqqqqqqqqqqqqqqqqqqqqqqqqqqq0*        8qqqqqqqqq",
"qqqqqqqqqqq4        X8qqqqqqqqqqqqqqqqqqqqqqqqqqqqqqq8X        4qqqqqqqqqq",
"qqqqqqqqqqqq1         2qqqqqqqqqqqqqqqqqqqqqqqqqqqqq2         <qqqqqqqqqqq",
"qqqqqqqqqqqqq>         &7qqqqqqqqqqqqqqqqqqqqqqqqq7&         ,qqqqqqqqqqqq",
"qqqqqqqqqqqqqq,          :8qqqqqqqqqqqqqqqqqqqqq8:          ,qqqqqqqqqqqqq",
"qqqqqqqqqqqqqqq1           &4qqqqqqqqqqqqqqqqq4&           <qqqqqqqqqqqqqq",
"qqqqqqqqqqqqqqqq4             &16qqqqqqqqq81&             4qqqqqqqqqqqqqqq",
"qqqqqqqqqqqqqqqqq8$                 X@X                 $8qqqqqqqqqqqqqqqq",
"qqqqqqqqqqqqqqqqqqq<                                   <qqqqqqqqqqqqqqqqqq",
"qqqqqqqqqqqqqqqqqqqq8-                               -9qqqqqqqqqqqqqqqqqqq",
"qqqqqqqqqqqqqqqqqqqqqq7=                           =7qqqqqqqqqqqqqqqqqqqqq",
"qqqqqqqqqqqqqqqqqqqqqqqq8>                       >8qqqqqqqqqqqqqqqqqqqqqqq",
"qqqqqqqqqqqqqqqqqqqqqqqqqqq6,O               O,7qqqqqqqqqqqqqqqqqqqqqqqqqq",
"qqqqqqqqqqqqqqqqqqqqqqqqqqqqqqq72>;%$@$%;,39qqqqqqqqqqqqqqqqqqqqqqqqqqqqqq",
"qqqqqqqqqqqqqqqqqqqqqqqqqqqqqqqqqqqqqqqqqqqqqqqqqqqqqqqqqqqqqqqqqqqqqqqqqq",
"qqqqqqqqqqqqqqqqqqqqqqqqqqqqqqqqqqqqqqqqqqqqqqqqqqqqqqqqqqqqqqqqqqqqqqqqqq",
"qqqqqqqqqqqqqqqqqqqqqqqqqqqqqqqqqqqqqqqqqqqqqqqqqqqqqqqqqqqqqqqqqqqqqqqqqq"
};
