/* XPM */
static const char *const clockremote_1080[] = {
/* columns rows colors chars-per-pixel */
"37 42 24 1 ",
"  c #000000",
". c #010101",
"X c #030303",
"o c #060606",
"O c #0C0C0C",
"+ c #131313",
"@ c #1B1B1B",
"# c #262626",
"$ c #323232",
"% c #3A3A3A",
"& c #545454",
"* c #707070",
"= c #8B8B8B",
"- c #9B9B9B",
"; c #A9A9A9",
": c #B6B6B6",
"> c #C6C6C6",
", c #D5D5D5",
"< c #E8E8E8",
"1 c #FFFFFF",
"2 c #FEFEFE",
"3 c #FDFDFD",
"4 c #FBFBFB",
"5 c #F4F4F4",
/* pixels */
"1111111111111111111111111111111111111",
"111111111111111114<411111111111111111",
"1111111111114>*$+...@$*>1411111111111",
"11111111111-@.o.......o.@;41111111111",
"111111111>#...............#>111111111",
"11111111-o.......o+o.......o-11111111",
"1111111*.....O&:<111<;&O....o*1111111",
"111111-o....*<111111111<*.....-111111",
"11111>o...O:11111=oO#1114:O...o>11111",
"11111#...O,111111=..#11111,O...#41111",
"1111-....:1111111=..#111111:....;4111",
"1111@...*11111111=..#1111111*...@4111",
"111>...O<41111111=..@1111111<+...,111",
"111*...*111111111=..#11111114&..o*111",
"111$...;111111111=..#41111111;...$111",
"111+...<111111111=..#11111111<...@111",
"114...o11=+++++++O..#111111111o...411",
"11<...@11=..........@111111111+...<11",
"111...o11*..........#111111111o...411",
"111+...<1,----------;11111111<...@111",
"111$...:111111111111111111111;..o$111",
"111*...&111111111111111111111&..o*111",
"111>...O<1111111111111111111<O...>111",
"1111@...*1111111111111111145*...#4111",
"1111-....:11111111111111111:....;4111",
"11111$...O,111111111111111,O...$11111",
"11111>o...O:1511111111111;O...o>11111",
"111111-.....*<111111111<*.....-111111",
"1111111*.....O&;<111<;&O.....*1111111",
"11111111-o....o..o+........o-11111111",
"111111111>$...............$>111111111",
"11111111111-@...........@;11111111111",
"1111111111111>*%+...@$*,1111111111111",
"111111111111111114<111111111111111111",
"111111111:*:1111111111111:*:111111111",
"111111,*#..$1111111111111$..+*>411111",
"111<=#...+*>1111111114111,*@...#*,111",
",*@....+#$#$$$$$$$$$$$$$$$$##+...o+*,",
"-$o....OO+O++OO+O+++O+++OO+O+O....o$-",
"115;&o...&-511111111111115-&...o&;411",
"111115-&...$1111111111111#...&-511111",
"11111441<=%-1111111111111-%=<11111111"
};
