/* XPM */
static const char *const clockinactsml_1080[] = {
/* columns rows colors chars-per-pixel */
"26 26 20 1 ",
"  c #000000",
". c #010101",
"X c #020202",
"o c #050505",
"O c #0A0A0A",
"+ c #1B1B1B",
"@ c #3A3A3A",
"# c #474747",
"$ c #555555",
"% c #6A6A6A",
"& c #767676",
"* c #8E8E8E",
"= c #959595",
"- c #B4B4B4",
"; c #D8D8D8",
": c #F4F4F4",
"> c #FFFFFF",
", c #FEFEFE",
"< c #FAFAFA",
"1 c #EDEDED",
/* pixels */
">>>>>>>>>><>><>>>>>>>>>%*>",
">>>>>>>>>:-*&&*-:>>>>>%XX*",
">>>>>><;$oXXXXXXo$;>>%XXX%",
">>>>><%XXXXXXXXXXXX%%XXX%>",
">>>>1@XXXo@&**&@oXXXXXX%>>",
">>><@XXo$;>><<>>;$XXXX%>>>",
">>>%XXo=>>>>#X@>>%XXXX%>>>",
">>;XXX=>>>>>#X@>%XXXXXX;>>",
">>$XX$>>>>>>#X@%XXX%$XX$>>",
">:oXo;>>>>>>#o+oXX%<;XXO:>",
">-XX@>>>>>>>#XXXX%>>>@XX->",
">*XX&>:1::11+XXX%>>>>&XX*>",
">&XX=>$XXXXXXXX%>>>>>=XX&>",
">&XX=>$XXXXXXX+<>>>>>*XX&>",
">*XX&>-==@XXX@-<>>>>>&XX*>",
">-XX@>>>%XXX%>>>>>>>>@XX->",
">:OXX;>%XXX%<>>>>>>>;XXO:>",
">>$XX$%XXX%<>>>>>>>>$XX$>>",
">>;XXXXXX%>>>>>>>>>=XXX;>>",
">>>%XXXX%>>>>>>>>>=oXX%>>>",
">>>%XXXX$;>>>>><;$XXX#<>>>",
">>%XXXXXXX@&=*&@XXXX@1>>>>",
">%XXX%%XXXXXXXXXXXX%<>>>>>",
"%XXX%>>;$OXXXXXXO$;>>>>>>>",
"=XX%>>>>>:-*&&*-:>>>>>>>>>",
">=%<>>>>>>>>>>>>>>>>>>>>>>"
};
