/* XPM */
static const char *const clockinactsml_2160[] = {
/* columns rows colors chars-per-pixel */
"52 52 22 1 ",
"  c #000000",
". c #010101",
"X c #030303",
"o c #060606",
"O c #0B0B0B",
"+ c #151515",
"@ c #2E2E2E",
"# c #363636",
"$ c #565656",
"% c #5C5C5C",
"& c #444444",
"* c #7B7B7B",
"= c #686868",
"- c #909090",
"; c #A6A6A6",
": c #B9B9B9",
"> c #D3D3D3",
", c #E5E5E5",
"< c #FBFBFB",
"1 c #FFFFFF",
"2 c #FCFCFC",
"3 c #F3F3F3",
/* pixels */
"1111111111111111111111111111111111111111111111<%;111",
"111111111111111111111111111<111111111111111111%..;11",
"111111111111111111111113,>>,3111111111111111<%....;1",
"1111111111111111111:*&+......+&*:<1111111111%......;",
"1111111111111111>=+..............+=>111111<%.......%",
"11111111111111>$oo.................o$>111<%.......$<",
"1111111111113*o......................o*<<%.......$<1",
"11111111111>@..........................@$.......$<11",
"111111111<:O.........o.O@##@O..................$<111",
"111111111:o........o%;,111111,;%o.............$<1111",
"11111111:o.......+-31111111111113-O..........$<11111",
"1111111>O.......=3111111<3333<11113=........&<111111",
"1111113@o.....o:11111111-....*1111<%........@<111111",
"111111*......+>111111111-....*1111%..........*111111",
"11111>o.....O>1111111111;....*11<%...........o>11111",
"11111$......;11111111111-....*11%.............%11111",
"1111>......=111111111111-....*1%.......$%......,1111",
"1111=.....+,111111111111-....*%.......$<3+.....=1111",
"1111+o....-<111111111111-....@.......$<1<-.....+<111",
"111:.....o31111111111111;...........$<11<3o.....:111",
"111*.....%11111111111111-..........$<11111$.....-111",
"111&.....;11111111111111-.........$<111111;.....#111",
"111+.....,1111111<1<1<1<-o.......$<1111111,.....+111",
"113.....O1113,,,,,,,,,,,@o......$<111111111O....o311",
"11,.....#111;..................$<1111111111@.....,11",
"11>.....#111;.................$<11111111111#.....>11",
"11>.....#111;................@<111111111111#.....>11",
"11,.....@111;................*1111111111111@.....,11",
"113.....O111:@@@@@@O.......O@-1111111111111O.....311",
"111+.....,1111111<%.......%<11111111111111,.....+111",
"111&.....;1111111%.......$<111111111111111;.....&111",
"111*.....%111111%.......$<1111111111111111$.....*111",
"111:.....o,111<%.......$<11111111111111113o.....>3<1",
"1111+o....-<11%.......$<11111111111111113-.....+<111",
"1111=o....+3<%.......$<11111111111111111,O.....=1111",
"1111>......=%.......$<111111111111111111=......,1111",
"11111$.............$<11111111111111111<;......%11111",
"11111>o...........$<111111111111111111>O.....o>11111",
"111111*..........$<111111111111111111>O......*111111",
"111111<@........$<111111111111111111;O......#<111111",
"1111111&........=311111111111111113%.......O,1111111",
"111111%..........O-,1111111111113-O........><1111111",
"11111%.............o$;,111111,;$o.........:111111111",
"111<%..................O@##@O...........O><<11111111",
"11<%......o&#...........o..............#>11111111111",
"11%.......%<<*o......................O*<111111111111",
"<%.......$<111>%....................%>11111111111111",
"%.......%<111111,=+..............+*>1111111111111111",
";o.....$<1111111111:-&+......+&*>3111111111111111111",
"1;....$<111111111111<<13,>>,31111<111111111111111111",
"11;o.$<111111111111111111111111111111111111111111111",
"111;%11111111111111111111111111111111111111111111111"
};
