/* XPM */
static const char *const clockremote_576[] = {
/* columns rows colors chars-per-pixel */
"20 23 23 1 ",
"  c #000000",
". c #020202",
"X c #050505",
"o c #0D0D0D",
"O c #191919",
"+ c #2A2A2A",
"@ c #353535",
"# c #444444",
"$ c #5C5C5C",
"% c #646464",
"& c #787878",
"* c #8C8C8C",
"= c #989898",
"- c #AAAAAA",
"; c #B8B8B8",
": c #CBCBCB",
"> c #D6D6D6",
", c #E8E8E8",
"< c #FFFFFF",
"1 c #FEFEFE",
"2 c #FCFCFC",
"3 c #F8F8F8",
"4 c #F4F4F4",
/* pixels */
"<<<<<<<<<<<<<<<<<<<<",
"<<<<<<:&@OO@&:<<<<<<",
"<<<<4%X       %4<<<<",
"<<<,@  @*;;=@  @,<<<",
"<<<# o-<<;%><-o #2<<",
"<<=  :<<<& ;<<:X -<<",
"<<+ &<<<<& ;<<2& +<<",
"<>  ,<<<<& ;<22,  ><",
"<-X+<::::% ;<<<<+ -<",
"<= @<+    X;<<<<# =<",
"<- @<&$%%%$:<<<<+ -<",
"<: X4<<<<<<<<<<,X :<",
"<<O *<<<<<<<<<<* O<<",
"<<* O><<<<<<<<>o *<<",
"<<4+ O:<<<<<<:OX+2<<",
"<<<>O X%;,,;%X O><<<",
"<<<<,@        @,<<<<",
"<<<<22-#o  o#-<<<<<<",
"<<<<<,<<<,,<<2,<<<<<",
"<<,-@X;<<<<<<; @=4<<",
"*+ O@$$$$$$$$$$@OX+*",
",&@ @&--;--;--%@ @&,",
"<<<,*+;2<<<<<;+*,2<<"
};
