/* XPM */
static const char *const clocksml[] = {
/* columns rows colors chars-per-pixel */
"52 52 33 1 ",
"  c #000000",
". c #222222",
"X c #282828",
"o c #2C2C2C",
"O c #2F2F2F",
"+ c #313131",
"@ c #3D3D3D",
"# c #424242",
"$ c #444444",
"% c #5D5D5D",
"& c #606060",
"* c #656565",
"= c #717171",
"- c #747474",
"; c #939393",
": c #949494",
"> c #989898",
", c #A3A3A3",
"< c #A4A4A4",
"1 c #B2B2B2",
"2 c #B6B6B6",
"3 c #B7B7B7",
"4 c #C7C7C7",
"5 c #CBCBCB",
"6 c #CCCCCC",
"7 c #D5D5D5",
"8 c #E5E5E5",
"9 c #EBEBEB",
"0 c #EEEEEE",
"q c #F4F4F4",
"w c #F7F7F7",
"e c #FAFAFA",
"r c #FFFFFF",
/* pixels */
"rrrrrrrrrrrrrrrrrrrrrrrrrrrrrrrrrrrrrrrrrrrrrrrrrrrr",
"rrrrrrrrrrrrrrrrrrrrrrrrrrrrrrrrrrrrrrrrrrrrrrrrrrrr",
"rrrrrrrrrrrrrrrrrrrrrrrrrrrrrrrrrrrrrrrrrrrrrrrrrrrr",
"rrrrrrrrrrrrrrrrrrrrrrrrrrrrrrrrrrrrrrrrrrrrrrrrrrrr",
"rrrrrrrrrrrrrrrrrrrrrw72:-*=;270rrrrrrrrrrrrrrrrrrrr",
"rrrrrrrrrrrrrrrrrr8<             ,8rrrrrrrrrrrrrrrrr",
"rrrrrrrrrrrrrrrr7                   7rrrrrrrrrrrrrrr",
"rrrrrrrrrrrrrr8+                     X8rrrrrrrrrrrrr",
"rrrrrrrrrrrrr2           #%@           2rrrrrrrrrrrr",
"rrrrrrrrrrrw=       @49rrrrrrr04@       =wrrrrrrrrrr",
"rrrrrrrrrrw       >9rrrrrrrrrrrrr9>       wrrrrrrrrr",
"rrrrrrrrrw      #9rrrrrrrrrrrrrrrrr8@      wrrrrrrrr",
"rrrrrrrrr=     1errrrrrrrrrrrrrrrrrrr1     -rrrrrrrr",
"rrrrrrrr2     6rrrrrrrrr       rrrrrrr5     2rrrrrrr",
"rrrrrrr8     6rrrrrrrrrr       rrrrrrrr6     8rrrrrr",
"rrrrrrr+    1rrrrrrrrrrr       rrrrrrrrr1    Orrrrrr",
"rrrrrr7    #rrrrrrrrrrrr       rrrrrrrrre@    7rrrrr",
"rrrrrr     9rrrrrrrrrrrr       rrrrrrrrrr9     rrrrr",
"rrrrr8    :rrrrrrrrrrrrr       rrrrrrrrrrr>    8rrrr",
"rrrrr<    9rrrrrrrrrrrrr       rrrrrrrrrrr0    ,rrrr",
"rrrre    #rrrrrrrrrrrrrr       rrrrrrrrrrrr@    rrrr",
"rrrrw    4rrrrrrrrrrrrrr       rrrrrrrrrrrr4    0rrr",
"rrrr7    9rrrrrrrrrrrrrr       rrrrrrrrrrrr9    7rrr",
"rrrr2    errrrrrrrrrrrrr       rrrrrrrrrrrre    2rrr",
"rrrr:    rrrrrr                rrrrrrrrrrrrr    ;rrr",
"rrrr=   $rrrrrr                rrrrrrrrrrrrr@   =rrr",
"rrrr*   %rrrrrr                rrrrrrrrrrrrr&  @*rrr",
"rrrr=   @rrrrrr                rrrrrrrrrrrrr#   =rrr",
"rrrr;    rrrrrr                rrrrrrrrrrrrr    ;rrr",
"rrrr2    errrrr                rrrrrrrrrrrre    2rrr",
"rrrr7    0rrrrrrrrrrrrrrrrrrrrrrrrrrrrrrrrr9    7rrr",
"rrrr0    4rrrrrrrrrrrrrrrrrrrrrrrrrrrrrrrrr4    0rrr",
"rrrrr    #rrrrrrrrrrrrrrrrrrrrrrrrrrrrrrrrr$    rrrr",
"rrrrr,    9rrrrrrrrrrrrrrrrrrrrrrrrrrrrrrr9    <rrrr",
"rrrrr8    >rrrrrrrrrrrrrrrrrrrrrrrrrrrrrrr:    8rrrr",
"rrrrrr     9rrrrrrrrrrrrrrrrrrrrrrrrrrrrr9     rrrrr",
"rrrrrr7    @errrrrrrrrrrrrrrrrrrrrrrrrrrr#    7rrrrr",
"rrrrrrr.    1rrrrrrrrrrrrrrrrrrrrrrrrrrr1    Orrrrrr",
"rrrrrrr8     5rrrrrrrrrrrrrrrrrrrrrrrrr5     8rrrrrr",
"rrrrrrrr2     6rrrrrrrrrrrrrrrrrrrrrrr6     2rrrrrrr",
"rrrrrrrrr=     1errrrrrrrrrrrrrrrrrrr1     =rrrrrrrr",
"rrrrrrrrre      @9rrrrrrrrrrrrrrrrr9@      wrrrrrrrr",
"rrrrrrrrrrw       >0rrrrrrrrrrrrr9>       wrrrrrrrrr",
"rrrrrrrrrrrw-       @49rrrrrrr94@       =errrrrrrrrr",
"rrrrrrrrrrrrr2           @%@           2rrrrrrrrrrrr",
"rrrrrrrrrrrrrr8O                     +8rrrrrrrrrrrrr",
"rrrrrrrrrrrrrrrr7                   7rrrrrrrrrrrrrrr",
"rrrrrrrrrrrrrrrrrr8,             ,8rrrrrrrrrrrrrrrrr",
"rrrrrrrrrrrrrrrrrrrrr072;=*-:27wrrrrrrrrrrrrrrrrrrrr",
"rrrrrrrrrrrrrrrrrrrrrrrrrrrrrrrrrrrrrrrrrrrrrrrrrrrr",
"rrrrrrrrrrrrrrrrrrrrrrrrrrrrrrrrrrrrrrrrrrrrrrrrrrrr",
"rrrrrrrrrrrrrrrrrrrrrrrrrrrrrrrrrrrrrrrrrrrrrrrrrrrr"
};
