/* XPM */
static const char *const clockinactiveremote_2160[] = {
/* columns rows colors chars-per-pixel */
"74 84 25 1 ",
"  c #000000",
". c #010101",
"X c #030303",
"o c #050505",
"O c #0B0B0B",
"+ c #191919",
"@ c #151515",
"# c #2B2B2B",
"$ c #242424",
"% c #343434",
"& c #484848",
"* c #5C5C5C",
"= c #666666",
"- c #7C7C7C",
"; c #909090",
": c #AEAEAE",
"> c #D4D4D4",
", c #DCDCDC",
"< c #C9C9C9",
"1 c #E7E7E7",
"2 c #FFFFFF",
"3 c #FEFEFE",
"4 c #FDFDFD",
"5 c #FAFAFA",
"6 c #F3F3F3",
/* pixels */
"22222222222222222222222222222222222222222222222222222222222222222>&1222222",
"2222222222222222222222222222222222222222222222222222222222222222,+ $122222",
"222222222222222222222222222222222222222222222222222222222222222>+   #12222",
"22222222222222222222222222222222251,<<,15222222222222222222222>@     $1222",
"22222222222222222222222222226:-&$o      o$&-:6252222222222222>+       #122",
"22222222222222222222222226;&Oo            o o &:622222222222>@         %22",
"22222222222222222222222,=O                      O=,22222222>+         @>22",
"2222222222222222222251*o                          o*122222>+         @>222",
"22222222222222222225;O                              O-622>+         @>2222",
"222222222222222225>#                                  %,>+         +>22222",
"22222222222222222:O                                    O@         @>222222",
"2222222222222222-                 +#%%#+                         @<2222222",
"222222222222222=            oO&;<62222226<;&O                   @>22222222",
"22222222222222=            %;6222222222222226;%                @>222222222",
"2222222222222-           %:22222222222222222222:#             @>2222222222",
"222222222255:          O;222222222222222222222222;O          O>22222222222",
"22222222222,O        o#>22222222222%@@@@+&2222222>@          O>22222222222",
"22222222225#         &6222222222222+     &222222>+            %52222222222",
"2222222222;         *52222222222222+     &22222>+              ;2222222222",
"222222222,o        &522222222222222+     &2222>+               o,222222222",
"222222222*        %6222222222222222+     &522>+                 =222222222",
"222222221o       O>2222222222222222+     &22>+         @O       o,22222222",
"22222222=        ;22222222222222222+     &2>+         @>;        =22222222",
"22222226O       %222222222222222222+     &>+         @>22#       O62222222",
"2222222;o       :222222222222222222+     %+         @<222:        :2222222",
"2222222&       %2222222222222222222+     o         @>22222%       &2222222",
"2222226o      o;2222222222222222222+              @>222222;       O2222222",
"222222:       O62222222222222222222+             @>22222226O       :222222",
"222222-       &22222222222222222222+            @>222222222&       -222222",
"222222&       ;22222222222222222222+           @>2222222222;       &222222",
"222222$       <22222222222222222222+          @>22222222222<       $222222",
"222225       o62222222222222222222>o         @>2222222222226       o522222",
"222221       @22222%####$########$o         @>22222222222222@       122222",
"22222,       #22222o                       @>222222222222222$       ,22222",
"22222<       %22222o                      @>2222222222222222%       >22222",
"22222>      o%22222o                     o>22222222222222222%       <22222",
"22222,       #22222o                     %222222222222222222#       ,22222",
"222221       +22222o                     &222222222222222222+       122222",
"222225o       62222%%%%%%%%#o         o#%=222222222222222226       o522222",
"222222$       <22222222222,+         @>22222222222222222222<       $222222",
"222222&       ;2222222222>+         @<222222222222222222222;       &222222",
"222222-       &222222222>+         @>2222222222222222222222&       -222222",
"222222:o      O62222222>+         @>22222222222222222222226O      O:222222",
"2222226O       ;222222>+         @>22222222222222222222222;       O6222222",
"2222222&       %22222>+         @>222222222222222222222222#       &2222222",
"2222226:        :222>+         @>222222222222222222222222:        :5222222",
"22222226O       %52>+         @<2222222222222222222222225#       @62222222",
"22222222=        ;>+         +>2222222222222222222222222;        =22222222",
"22222222,o       O@         @>2222222222222222222222222>o        ,22222222",
"222222222*                 @>22222222222222222222222226#        =222222222",
"2222222221O               @>22222222222222222222222225&        O1522222222",
"2222222222;              @>22222222222222222222222225*         ;2222222222",
"22222222225%            @>22222222222222222222222226&         %52222222222",
"22222222222,O          @>2222222222222222222222222,#         O,22222222222",
"22222222222>@          O;222222222222222222222225;O          :222222222222",
"2222222222>@             #:22222222222222222222:#           ;2222222222222",
"222222222>+                %;6222222222222226;%            =22222222222222",
"22222222>+                   O&;<62222226<;&O             =522222222222222",
"2222222>+                         @#%%#@                 ;6222222222222222",
"222222>+         OO                                    O:22222222222222222",
"22222>+         @<,%                                  %,222222222222222222",
"2222>+         @>225;O                              O-52222222222222222222",
"222>+         @>222221*o                          o=1222222222222222222222",
"22>+         @>222222221=O                      @=,22222222222222222222222",
"22&         @>222222222226:& oo             OO&:62222222222222222222222222",
"226#       +>2222222222222226:-&$o      o$&-:62222222222222222222222222222",
"2221#     @>22222222222222222222251,<<115222222222222222222222222222222222",
"22226#   @<222222222222222222222222222222222222222222222222222222222222222",
"222221# @>22222222226::2222222222222222222222222222:;622222222222222222222",
"2222221&>222222226:*O $5222222222222222222222222222#oO&:622222222222222222",
"222222222222222<=@     :22222222222222222222222222:     @*:522222222222222",
"222222222222<-+ o      #22222222222222222222222222#        O=<222222222222",
"222222222>-$         @=:22222222222222222222222222:=@         $->222222222",
"2222221;%         O&:22222222222222222222222222222222:*O         #-,222222",
"2221;%          +&======================================&+o         %;1222",
"6;%                                                                    $;6",
";$                                                                      +;",
"226;%          O@$$$$$$$$$$$$$$$$$$$$$$$$$$$$$$$$$$$$$$$$+O          $;126",
"222221;#         O*:5222222222222222222222222222222522:*O      o  %;122222",
"22222262>;$         @*:2222222222222222222222222222<=+         +=>22222222",
"22222222222<=@ o       #22222222222222222222222222#         +=<22222222222",
"22222222222222<=@      -22222222222222222222222222-      @*:52222222222222",
"22222222222222225:*O  O1222222222222222222222222221O  o&:62222222222222222",
"22222222222222222226:&-2222222222222222222222222225-&:62552222222222222222"
};
