/* XPM */
static const char *const clocksml_576[] = {
/* columns rows colors chars-per-pixel */
"14 14 16 1 ",
"  c #030303",
". c #090909",
"X c #0D0D0D",
"o c #303030",
"O c #4E4E4E",
"+ c #434343",
"@ c #5F5F5F",
"# c #606060",
"$ c #6E6E6E",
"% c #9A9A9A",
"& c #8C8C8C",
"* c #AFAFAF",
"= c #CECECE",
"- c #D7D7D7",
"; c #F1F1F1",
": c #FFFFFF",
/* pixels */
":::::;==;:::::",
":::=O.   O-:::",
"::* X#%%@ .*::",
":-.o-:*o:-o.-:",
":O.-::%X::-.O:",
";.@:::%X:::@.;",
"= %*$$OX:::% =",
"= %%o+oO:::% =",
"; @::::::::@.;",
":O.-::::::-.O:",
":=.o-::::-o -:",
"::*..@%%@..*::",
":::-O    O-:::",
":::::;==;:::::"
};
