/* XPM */
static const char *const clock_1080[] = {
/* columns rows colors chars-per-pixel */
"37 37 22 1 ",
"  c #000000",
". c #030303",
"X c #040404",
"o c #0E0E0E",
"O c #141414",
"+ c #2A2A2A",
"@ c #333333",
"# c #4B4B4B",
"$ c #5E5E5E",
"% c #7F7F7F",
"& c #757575",
"* c #696969",
"= c #8C8C8C",
"- c #989898",
"; c #AEAEAE",
": c #B7B7B7",
"> c #D3D3D3",
", c #FFFFFF",
"< c #FEFEFE",
"1 c #FCFCFC",
"2 c #FBFBFB",
"3 c #F2F2F2",
/* pixels */
",,,,,,,,,,,,,,,,,,,,,,,,,,,,,,,,,,,,,",
",,,,,,,,,,,,,,,,,,,,,,,,,,,,,,,,,,,,,",
",,,,,,,,,,,,,>=#@OXO@#=>,,,,,,,,,,,,,",
",,,,,,,,,,,-+   X     X +-,,,,,,,,,,,",
",,,,,,,,,;+     X         +:,,,,,,,,,",
",,,,,,,,&                   *,,,,,,,,",
",,,,,,3#      o$-;:;-$o      #3,,,,,,",
",,,,,2#     +:2,,,,,,,,;+     #,,,,,,",
",,,,,&    X=,,,,,:%%%,,,,=XX   &,,,,,",
",,,,;    o:,,,,,,%   ,,,,,:o    :,,,,",
",,,2+   X:,,,,,,,%   ,,,,,,:X   +,,,,",
",,,-    =,,,,,,,,%   ,,,,,,,=    -,,,",
",,,+   +,,,,,,,,,%   ,,,,,,,,+   +,,,",
",,>    ;,,,,,,,,,%   ,,,,,,,,;    >,,",
",,=   O,,,,,,,,,,%   ,,,,,,,,,O   =,,",
",,#   $,,,,,,,,,,%   ,,,,,,,,,$   #,,",
",,@   =,,,,,,,,,,%   ,,,,,,,,,-   +,,",
",,O   ;,,            ,,,,,,,,,:   X,,",
",,XX  >3,            ,,,,,,,,,>    ,,",
",,O   ;,,            ,,,,,,,,,:   o,,",
",,@   -,,%%%%%%%%%%%%,,,,,,,,,-   +,,",
",,#   $,,,,,,,,,,,,,,,,,,,,,,,$   #,,",
",,=   o,,,,,,,,,,,,,,,,,,,,,,,o   =,,",
",,>    ;,,,,,,,,,,,,,,,,,,,,,;  XX>,,",
",,,+   +,,,,,,,,,,,,,,,,,,,,2+   +,,,",
",,,-    =,,,,,,,,,,,,,,,,,,,=    -,,,",
",,,,+   X:,,,,,,,,,,,,,,,,,:X   +,,,,",
",,,,:    o:,,,,,,,,,,,,,,,:o    :,,,,",
",,,,,&    X=,,,,,,,,,,,,,=X    &,,,,,",
",,,,,,#     +;2,,,,,,,2;+     #,,,,,,",
",,,,,,3#      O$-:>;-$o      #3,,,,,,",
",,,,,,,,%                   *,,,,,,,,",
",,,,,,,,,;+               +:,,,,,,,,,",
",,,,,,,,,,,-+           +;2,,,,,,,,,,",
",,,,,,,,,,,,,>=#+o o+#=>,,,,,,,,,,,,,",
",,,,,,,,,,,,,,,,,,,,,,,,,,,,,,,,,,,,,",
",,,,,,,,,,,,,,,,,,,,,,,,,,,,,,,,,,,,,"
};
