/* XPM */
static const char *const clockinact_576[] = {
/* columns rows colors chars-per-pixel */
"20 20 22 1 ",
"  c #000000",
". c #010101",
"X c #030303",
"o c #0C0C0C",
"O c #191919",
"+ c #151515",
"@ c #222222",
"# c #2F2F2F",
"$ c #3C3C3C",
"% c #505050",
"& c #767676",
"* c #696969",
"= c #848484",
"- c #979797",
"; c #A5A5A5",
": c #C4C4C4",
"> c #D3D3D3",
", c #DCDCDC",
"< c #FFFFFF",
"1 c #FCFCFC",
"2 c #F8F8F8",
"3 c #E8E8E8",
/* pixels */
"<<<<<<<<<<<<<<<<<>%3",
"<<<<<<>&$@O$&><<>+.$",
"<<<<3%........%:+.+>",
"<<<>O..@&--&@..X.+><",
"<<3OXo-<<:-,<=..X:<<",
"<<%.o><<<&.;>O..X%<<",
"<>..-<<<<&.=+.+=..><",
"<&.@<<<<<&.+.+>2@.&<",
"<$.&<<<<<*..+><<&.$<",
"<O.-3###@..o><<<-.O<",
"<@.-,......=<<<<-.@<",
"<$.&<3:+.+:2<<<<&.$<",
"<&.@<>O.+><<<<<2@.&<",
"<>..=+.+><<<<<<-XX><",
"<<%...+><<<<<<:o.%<<",
"<<:X..=2<<<<<-o.@3<<",
"<>+....@&--&O.X@,<<<",
">O.+:%........%3<<<<",
"%.+><<>&$@@$&><<<<<<",
"3$><<<<<<<<<<<<<<<<<"
};
