/* XPM */
static const char *const clocksml_1080[] = {
/* columns rows colors chars-per-pixel */
"26 26 19 1 ",
"  c #000000",
". c #010101",
"X c #020202",
"o c #050505",
"O c #0A0A0A",
"+ c #3B3B3B",
"@ c #484848",
"# c #555555",
"$ c #767676",
"% c #6C6C6C",
"& c #8E8E8E",
"* c #959595",
"= c #9B9B9B",
"- c #B4B4B4",
"; c #D8D8D8",
": c #F4F4F4",
"> c #FFFFFF",
", c #F9F9F9",
"< c #EDEDED",
/* pixels */
">>>>>>>>>>,>>,>>>>>>>>>>>>",
">>>>>>>>>:-&$$&-,>>>>>>>>>",
">>>>>>,;#oXXXXXXo#;>>>>>>>",
">>>>>,%XXXXXXXXXXXX%,>>>>>",
">>>><+XXXo+$**$+XXXX+<>>>>",
">>>,+XXX#;>>,,,,;#XXX+,>>>",
">>>%XXo=>>>>@X+>>>=oXX%>>>",
">>;XXX*>>>>>@X+>>>>=XXX;>>",
">>#XX#>>>>>>@X+>>>>>#XX#>>",
">,oXX;>>>>>>@X+>>>>>;XXO,>",
">-XX+>>>>>>>@X+>>>>>>+XX->",
",&XX$>,<::<:@X+>>>>>>$XX&>",
">$XX*>#XXXXXXX+>>>>>,*XX$>",
">$XX*>#XXXXXXX+>>>>>>*XX$>",
">&XX$>-****=**->>>>>>$XX&>",
">-XX+>>>>>>>>>>>>>>>>+XX->",
">:OXX;>>>>>>>>>>>>>>;XXO,,",
">>#XX#>>>>>>>>>>>>>>#XX#>>",
">>;XXX*>>>>>>>>>>>>=XXX;>>",
">>>%XXo=>>>>>>>>>>*oXX%>>>",
">>>,+XXX#;>>>>>,;#XXX@,>>>",
">>>><+XXXX+$**$+XXXX+<>>>>",
">>>>>,%XXXXXXXXXXXX%,>>>>>",
">>>>>>>;#OXXXXXXO#;>>>>>>>",
">>>>>>>>>:-&$$&-,>>>>>>>>>",
">>>>>>>>>>>>>>>>>>>>>>>>>>"
};
