/* XPM */
static const char *const clockinactiveremote_720[] = {
/* columns rows colors chars-per-pixel */
"25 28 24 1 ",
"  c #000000",
". c #010101",
"X c #030303",
"o c #050505",
"O c #0B0B0B",
"+ c #151515",
"@ c #252525",
"# c #383838",
"$ c #474747",
"% c #585858",
"& c #676767",
"* c #787878",
"= c #878787",
"- c #979797",
"; c #B8B8B8",
": c #A7A7A7",
"> c #CACACA",
", c #D8D8D8",
"< c #FFFFFF",
"1 c #FEFEFE",
"2 c #FCFCFC",
"3 c #FAFAFA",
"4 c #F5F5F5",
"5 c #E8E8E8",
/* pixels */
"<<<<<<<<<<<<<<<<<<<<<,#5<",
"<<<<<<<<3;*%$%*;3<<<>+X@5",
"<<<<<<4=+XXXXXXX+=3>+XX%3",
"<<<<<5@XXXXXOXXXXX@OoX%3<",
"<<<<>+XXO*>3<<>*OXXXX%3<<",
"<<<5+XX$5<<5%%4<;XXXO5<<<",
"<<<&oX%3<<<,XX5>+XXXX&<<<",
"<<,XX@43<<<,XX;OXo%+XX,<<",
"<<*XX:<<<<<,XXOXX&3:XX*<<",
"<<#XO4<<<<<,XXXX&<<4oX#<<",
"<<OX#<,;;;;*XXX&<<<<#X+<<",
"<3XX%<&XXXXXXX&<<<<<%XX4<",
"<<OX$<*++OXXXo5<<<<<$XO<<",
"<<@X+3<<;oXX*3<<<<<3+X@<<",
"<<&XX><;oXX*<<<<<<3>XX&<<",
"<<;XX$;oXX*<<<<<<<<$XX;<<",
"<<<#XXXXX*<<<<<<<<-XX#3<<",
"<<<>XXXX=<<<<<<<<-XXX><<<",
"<<<:XXXX$><<<<<>$XXX-<<<<",
"<<:XXXXXXX@$&$@XXXo-<<<<<",
"<:XXX->#XXXXXXXXX#><<<<<<",
"5oXX=<<<;&@oXo@&;<<<<<<<<",
"<;o-<<<5<<<<43<<<4<<<<<<<",
"<<5<,*@@3<<<<<<<3@@&><<<<",
"<,*@X+%->>>>>>>>>-%+X@*,<",
"*OXOXooOOOOOOOOOOOOoXOXo=",
"<<;&+X#=3<<<<<<<4=#X+&;3<",
"<<<<4;%$<<<<<<<<<$%;3<<<<"
};
