/* XPM */
static const char *const clock_576[] = {
/* columns rows colors chars-per-pixel */
"20 20 20 1 ",
"  c #000000",
". c #010101",
"X c #0B0B0B",
"o c #1D1D1D",
"O c #222222",
"+ c #2F2F2F",
"@ c #3C3C3C",
"# c #575757",
"$ c #737373",
"% c #7A7A7A",
"& c #6F6F6F",
"* c #989898",
"= c #A5A5A5",
"- c #D2D2D2",
"; c #DCDCDC",
": c #CACACA",
"> c #E9E9E9",
", c #FFFFFF",
"< c #FCFCFC",
"1 c #F8F8F8",
/* pixels */
",,,,,,,,,,,,,,,,,,,,",
",,,,,,-%@oO@%-,,,,,,",
",,,,>#        #>,,,,",
",,,-o  O$**$O  o-,,,",
",,>o X*,<:*;,*X O>,,",
",,# X-,,<% =,,-X #,,",
",-  *,,,,$ =,,,*  -,",
",% O,,,,<% =,,,<O %,",
",@ $,,,,,$ =,,,,& @,",
",o *>++++o =,,,,* O,",
",O *;      =,,,,* O,",
",@ &,>>>>>><,,,,$ @,",
",% O,,,,,,,,,,,,O %,",
",-  *,,,,,,,,,,*  -,",
",,# X:,,,,,,,,:X #,,",
",,>o X*<,,,,<*X O>,,",
",,,-O  O$**&O  O-,,,",
",,,,>#        #>,,,,",
",,,,,,-%@OO@%-,,,,,,",
",,,,,,,,,,,,,,,,,,,,"
};
