/* XPM */
static const char *const clockinactsml_720[] = {
/* columns rows colors chars-per-pixel */
"17 17 23 1 ",
"  c #000000",
". c #020202",
"X c #060606",
"o c #0A0A0A",
"O c #1F1F1F",
"+ c #121212",
"@ c #252525",
"# c #343434",
"$ c #3C3C3C",
"% c #444444",
"& c #575757",
"* c #707070",
"= c #BFBFBF",
"- c #A8A8A8",
"; c #909090",
": c #C8C8C8",
"> c #D6D6D6",
", c #EDEDED",
"< c #F3F3F3",
"1 c #FFFFFF",
"2 c #FEFEFE",
"3 c #FDFDFD",
"4 c #F8F8F8",
/* pixels */
"11111111,11111<%:",
"11114;#..X#;4,#.%",
"111:O..o@X..O@.#,",
"11:o.$:1,,=$..@,1",
"14O.*111o&,#..O41",
"1;.$1111o&#.#$.;1",
"1#.:1111X+.#,=.#1",
"3.o1>:::..#,11oX1",
",.O1O....+,111O.,",
"1Xo1-;O.O-1113oX1",
"1#.=,#.#,1111:.#1",
"1;.$#.#,11113$.;1",
"14O..#,31111*.@41",
"1<@..$=313=$.o:11",
"<#.@O..oOo..@:111",
"%.#<4;#X.X$;31111",
":%,11111,11111111"
};
