/* XPM */
static const char *const clockinact_1080[] = {
/* columns rows colors chars-per-pixel */
"37 37 21 1 ",
"  c #000000",
". c #030303",
"X c #050505",
"o c #0E0E0E",
"O c #141414",
"+ c #2A2A2A",
"@ c #363636",
"# c #4A4A4A",
"$ c #5E5E5E",
"% c #7F7F7F",
"& c #747474",
"* c #676767",
"= c #898989",
"- c #989898",
"; c #AEAEAE",
": c #B6B6B6",
"> c #D3D3D3",
", c #FFFFFF",
"< c #FCFCFC",
"1 c #FBFBFB",
"2 c #F2F2F2",
/* pixels */
",,,,,,,,,,,,,,,,,,,,,,,,,,,,,,,,,=&,,",
",,,,,,,,,,,,,,,,,,,,,,,,,,,,,,,,=  &,",
",,,,,,,,,,,,,>=#@OXO+#->,,,,,,,=    &",
",,,,,,,,,,,-+ X X       +-,,,,=     =",
",,,,,,,,,;+               +:,=     =,",
",,,,,,,,&                   @X    =,,",
",,,,,,2#      o$-;:;-$o          =,,,",
",,,,,1#    X+;,,,,,,,,,;+       =,,,,",
",,,,,&    X-1,,,2>%%%,,,,#     #,,,,,",
",,,,;    o:1,,,,,%   ,,,=X      :,,,,",
",,,1+   X:,,,,,,,%   ,,=        +,,,,",
",,,-    -,,,,,,,,%   ,=     #    -,,,",
",,,+   +1,,,,,,,,%   =     =,+   +,,,",
",,>    ;,,,,,,,,,%        =,,;    >,,",
",,=   O,,,,,,,,,,%       =,,,,O   =,,",
",,#   $,,,,,,,,,,%      =,,,,,$   #,,",
",,@   -,,,,,,,,,,#     =1,,,,,-   +,,",
",,O   ;,,             =,,,,,,,:   X,,",
",,XX  >2,            =,,,,,,,,>   X,,",
",,O   ;,,            ,,,,,,,,,:   o,,",
",,+X  -,,%%%=#     #&,,,,,,,,,-   +,,",
",,#   $,,,,,=     =,,,,,,,,,,,$   #,,",
",,=X  o,,,,=     =1,,,,,,,,,,,o   =,,",
",,>    ;,,=     =,,,,,,,,,,,,;  XX>,,",
",,,+   +,=     =,,,,,,,,,,,,1+   +,,,",
",,,-    #     =,,,,,,,,,,,,,=    -,,,",
",,,,+        =,,,,,,,,,,,,,:X   +,,,,",
",,,,:       =,,,,,,,,,,,,,:o    :,,,,",
",,,,,#     #,,,,,,,,,,,,,=     &,,,,,",
",,,,=       +;1,,,,,,,1;+     #,,,,,,",
",,,=          O$-:>;-$o      #2,,,,,,",
",,=     #                   &,,,,,,,,",
",=X    =1;+               +:,,,,,,,,,",
"=     =,,,,-+          X+;1,,,,,,,,,,",
"&    =,,,,,,,>=#+o o+#=>,,,,,,,,,,,,,",
",%  =,,,,,,,,,,,,,,,,,,,,,,,,,,,,,,,,",
",,&=,,,,,,,,,,,,,,,,,,,,,,,,,,,,,,,,,"
};
