/* XPM */
static const char *const clock_720[] = {
/* columns rows colors chars-per-pixel */
"25 25 19 1 ",
"  c #000000",
". c #0E0E0E",
"X c #1A1A1A",
"o c #242424",
"O c #292929",
"+ c #373737",
"@ c #767676",
"# c #626262",
"$ c #404040",
"% c #888888",
"& c #949494",
"* c #B7B7B7",
"= c #CFCFCF",
"- c #C5C5C5",
"; c #D3D3D3",
": c #EEEEEE",
"> c #FFFFFF",
", c #FBFBFB",
"< c #F4F4F4",
/* pixels */
">>>>>>>>>>>>>>>>>>>>>>>>>",
">>>>>>>>>=%@#@%=>>>>>>>>>",
">>>>>>,&X       o&,>>>>>>",
">>>>>;O           O;>>>>>",
">>>>*.   +%*-*%+   .*>>>>",
">>>;.  O*>,<*-<,*O  .;>>>",
">>,O  +<>>>;  =>>:+  O>>>",
">>&  O<>>>>;  =>>><O  &>>",
">>o  *>>>>>;  ;>>>>*  o>>",
">=  +>>>>>>;  =>>>>>+  ;>",
">%  %>>>>>>;  =>>>>>%  %>",
">@  *>%@@@@#  =>>>>>*  @>",
">#  -,.       =>>>>>-  #>",
">@  *>+OOoOOOo;>>>>>*  @>",
">%  %,>>>>>>>>>>>>>>%  &>",
">=  +>>>>>>>>>>>>>>>+  ;>",
">>o  *>>>>>>>>>>>>>*  o>>",
">>&  O:>>>>>>>>>>>:O  &>>",
">>,O  +<>>>>>>>>>:+  O>>>",
">>>;.  O*>>>>>>>*o  .;>>>",
">>>>*.   +%*-*%+   .*>>>>",
">>>>>;O           O;>>>>>",
">>>>>>>&X       O&,>>>>>>",
">>>>>>>>>=&@#@&;>>>>>>>>>",
">>>>>>>>>>>>>>>>>>>>>>>>>"
};
