/* XPM */
static const char *const clocksml_2160[] = {
/* columns rows colors chars-per-pixel */
"52 52 21 1 ",
"  c #000000",
". c #010101",
"X c #030303",
"o c #070707",
"O c #0C0C0C",
"+ c #161616",
"@ c #2F2F2F",
"# c #363636",
"$ c #515151",
"% c #7B7B7B",
"& c #686868",
"* c #909090",
"= c #B8B8B8",
"- c #A8A8A8",
"; c #C6C6C6",
": c #D8D8D8",
"> c #E5E5E5",
", c #FFFFFF",
"< c #FCFCFC",
"1 c #F9F9F9",
"2 c #F3F3F3",
/* pixels */
",,,,,,,,,,,,,,,,,,,,,,,,,,,,,,,,,,,,,,,,,,,,,,,,,,,,",
",,,,,,,,,,,,,,,,,,,,,,,,,,,,,,,,,,,,,,,,,,,,,,,,,,,,",
",,,,,,,,,,,,,,,,,,,,<<,2::::2<,,,,,,,,,,,,,,,,,,,,,,",
",,,,,,,,,,,,,,,,,,,=%$+......+$%=<,,,,,,,,,,,,,,,,,,",
",,,,,,,,,,,,,,,,:&+..............+&:,,,,,,,,,,,,,,,,",
",,,,,,,,,,,,,,:$o..................o$:,,,,,,,,,,,,,,",
",,,,,,,,,,,,2%o......................o%<,,,,,,,,,,,,",
",,,,,,,,,,,:@..........................@:,,,,,,,,,,,",
",,,,,,,,,<=O...........+@##@+...........+=,,,,,,,,,,",
",,,,,,,,,=o........o$->,,,,,,>-$o........o=,,,,,,,,,",
",,,,,,,,=o.......+*2,,,,,,,,,,,,2*+.......o=,,,,,,,,",
",,,,,,,:+.......&2,,,,,,<2222<,,,,>&.......+:,,,,,,,",
",,,,,,2@......+=,,,,,,,,*....%,,,,,,=O......#2,,,,,,",
",,,,,,%......+;,,,,,,,,,*....%,,,,,,,;+......%,,,,,,",
",,,,,:o.....O;,,,,,,,,,,-....%,,,,,,,,;O.....o:,,,,,",
",,,,,$......-,,,,,,,,,,,*....%,,,,,,,,<=.....o$,,,,,",
",,,,:......&,,,,,,,,,,,,*....%,,,,,,,,,,&......:,,,,",
",,,,&.....+>,,,,,,,,,,,,*....%,,,,,,,,,,>+.....&,,,,",
",,,,+.....*<,,,,,,,,,,,,*....%,,,,,,,,,,<*.....+<,,,",
",,,=.....o2,,,,,,,,,,,,,-....%,,,,,,,,,,<2o.....=,,,",
",,,%.....$,,,,,,,,,,,,,,*....%,,,,,,,,,,,,$.....*,,,",
",,2$.....-,,,,,,,,,,,,,,*....%,,,,,,,,,,,,-.....#,,,",
",,,+.....>,,,,,,,<,,,,,<-....%,,,,,,,,,,,,>.....+,,,",
",,2.....+,,,2>>>>>>:>>>>*....%,,,,,,,,,,,,<O....o2,,",
",,:.....@,,,-................%,,,,,,,,,,,,,@.....>,,",
",,:.....#,,,-................%,,,,,,,,,,,,,#.....:,,",
",,:.....#,,,-................%,,,,,,,,,,,,,#.....:<,",
",,:.....@,,,-................%,,,,,,,,,,,,,@.....>,,",
",,2.....+,,,=@@@@@@@@@@@@@@@@*,,,,,,,,,,,,,O.....2,,",
",,,+.....>,,,,,,,,,,,,,,,,,,,,,,,,,,,,,,,,>.....+,,,",
",,,$.....-,,,,,,,,,,,,,,,,,,,,,,,,,,,,,,,,-.....$<,,",
",,,%....o$,,,,,,,,,,,,,,,,,,,,,,,,,,,,,,,,$.....%<,,",
",,,=.....o>,,,,,,,,,,,,,,,,,,,,,,,,,,,,,,2o.....;<,,",
",,,<+.....*<,,,,,,,,,,,,,,,,,,,,,,,,,,,,2*.....+<,,,",
",,,,&o....+2,,,,,,,,,,,,,,,,,,,,,,,,,,,,>+.....&,,,,",
",,,,:......&,,,,,,,,,,,,,,,,,,,,,,,,,,,,&....oo:,,,,",
",,,,,$......-,,,,,,,,,,,,,,,,,,,,,,,,,,-......$,,,,,",
",,,,,:o.....O;,,,,,,,,,,,,,,,,,,,,,,,,;O.....o:,,,,,",
",,,,,,%......+;,,,,,,,,,,,,,,,,,,,,,,;+......%,,,,,,",
",,,,,,<@......+-,,,,,,,,,,,,,,,,,,,,-O......#<,,,,,,",
",,,,,,,:O.......&>,<<,,,,,,,,,,,<<>&.......+:,,,,,,,",
",,,,,,,,;o.......+*2,,,,,,,,,,,,2*+.......o;,,,,,,,,",
",,,,,,,,,-o........o$->,,,,,,>-$.........o=,,,,,,,,,",
",,,,,,,,,,;O...........O@##@O...........+=,,,,,,,,,,",
",,,,,,,,,,,>#..........................@:,,,,,,,,,,,",
",,,,,,,,,,,,<%o......................o%<,,,,,,,,,,,,",
",,,,,,,,,,,,,,:$o................o..$>,,,,,,,,,,,,,,",
",,,,,,,,,,,,,,,,:&+..............+&:,,,,,,,,,,,,,,,,",
",,,,,,,,,,,,,,,,,,<;%$+......+$%;,,,,,,,,,,,,,,,,,,,",
",,,,,,,,,,,,,,,,,,,,,,,2:::>2,,,,,,,,,,,,,,,,,,,,,,,",
",,,,,,,,,,,,,,,,,,,,,,,,,,,,,,,,,,,,,,,,,,,,,,,,,,,,",
",,,,,,,,,,,,,,,,,,,,,,,,,,,,,,,,,,,,,,,,,,,,,,,,,,,,"
};
