/* XPM */
static const char *const clockinactiveremote_576[] = {
/* columns rows colors chars-per-pixel */
"20 23 24 1 ",
"  c #000000",
". c #010101",
"X c #020202",
"o c #050505",
"O c #0B0B0B",
"+ c #191919",
"@ c #2A2A2A",
"# c #353535",
"$ c #464646",
"% c #5B5B5B",
"& c #666666",
"* c #787878",
"= c #999999",
"- c #8B8B8B",
"; c #AAAAAA",
": c #B8B8B8",
"> c #CBCBCB",
", c #D5D5D5",
"< c #E7E7E7",
"1 c #FFFFFF",
"2 c #FEFEFE",
"3 c #FDFDFD",
"4 c #F9F9F9",
"5 c #F4F4F4",
/* pixels */
"11111111111111111*-1",
"111113>*#++#*>11*  >",
"11115&o       &*  *1",
"111<#  #-::=#    *11",
"111$ O;11:&,1%  +111",
"11=  >111* :-  o ;11",
"11@ *1111* &  ** @11",
"1,  <1111*   &3<  ,1",
"1;o@1,>>>#  &111@ ;1",
"1= #1@   o $1111$ =1",
"1; #1*&#  @>1111@ ;1",
"1> O<1=  &31111<o >1",
"11+ -=o %311111- +11",
"11- O  %111111,O -11",
"114+  $411111>@ @311",
"11;    &:<<:&  +,111",
"1;o $#        #<1111",
">o $11:$O  O$;311111",
"1&$41<411<<114<11111",
"13<;# :111111: $=511",
"-@ +#%&%%%%%%%%#+o@-",
"<*# #&;;:;;:;;&# #*<",
"111<-@:111111:@-<311"
};
