/* XPM */
static const char *const clockremote_2160[] = {
/* columns rows colors chars-per-pixel */
"74 84 24 1 ",
"  c #000000",
". c #010101",
"X c #020202",
"o c #050505",
"O c #0B0B0B",
"+ c #181818",
"@ c #2B2B2B",
"# c #242424",
"$ c #343434",
"% c #474747",
"& c #5B5B5B",
"* c #666666",
"= c #7C7C7C",
"- c #888888",
"; c #979797",
": c #ADADAD",
"> c #DADADA",
", c #C9C9C9",
"< c #E7E7E7",
"1 c #FFFFFF",
"2 c #FEFEFE",
"3 c #FDFDFD",
"4 c #FAFAFA",
"5 c #F3F3F3",
/* pixels */
"11111111111111111111111111111111111111111111111111111111111111111111111111",
"11111111111111111111111111111111111111111111111111111111111111111111111111",
"11111111111111111111111111111111111111111111111111111111111111111111111111",
"1111111111111111111111111111111114<>,,><4111111111111111111111111111111111",
"11111111111111111111111111445:=%#o      o#%=:51411111111111111111111111111",
"11111111111111111111111145:%oo              o %:51111111111111111111111111",
"11111111111111111111111>*o                  o   o*<11111111111111111111111",
"111111111111111111111<&o                           &<111111111111111111111",
"11111111111111111115;o                              o=41111111111111111111",
"111111111111111114>@                                  $>111111111111111111",
"11111111111111111:O                                    O:11111111111111111",
"1111111111111111=                 +@$$@+                 =1111111111111111",
"111111111111111*             o&-,51111115,-&o             *111111111111111",
"11111111111111*            $;5111111111111115;$            *11111111111111",
"1111111111111=           $:11111111111111111111:@           =4111111111111",
"111111111114:          o;111111111111111111111111;O          :111111111111",
"11111111111>O         @>11111111111$+++++%11111111>@         O>11111111111",
"11111111115@         &5411111111111+     %1111111115%         $41111111111",
"1111111111-        o&41111111111111+     %11111111114&         -1111111111",
"111111111<O        %411111111111111+     %111111111115&        o>111111111",
"111111111&        $5111111111111111+     %4111111111115@        *111111111",
"11111111>o       o>1111111111111111+     %1111111111111>O        <11111111",
"11111111*        ;11111111111111111+     %11111111111111;        *11111111",
"11111115O       $411111111111111111+     %111111111111111@       o51111111",
"1111111;        :111111111111111111+     %111111111111111:        :1111111",
"1111111%       $1111111111111111111+     %1111111111111111$       %4111111",
"1111115o       ;1111111111111111111+     %1111111111111111;       o5111111",
"111111:       o51111111111111111111+     %11111111111111115o       ,111111",
"111111=       &11111111111111111111+     %11111111111111111%       =111111",
"111111%       -11111111111111111111+     %11111111111111111-       %111111",
"111111#       ,11111111111111111111+     %11111111111111111,       #111111",
"111115        511111111111111111111+     %111111111111111115       o411111",
"11111<       +11111$@@@@#@@@@@@@@@@      %111111111111111111+       <11111",
"11111>       @11111o                     %111111111111111111#       >11111",
"11111,       $11111o                     %111111111111111111$       >11111",
"11111>       $11111o                     %111111111111111111$       ,11111",
"11111>       @11111o                     %111111111111111111@       >11111",
"11111<       +11111o                     %111111111111111111+       <11111",
"111114o       51111$$$$$$$$$$$$$$$$$$$$$$*111111111111111115       o411111",
"111111#       ,11111111111111111111111111111111111111111111,       #111111",
"111111%       ;11111111111111111111111111111111111111111111-       &411111",
"111111=       %11111111111111111111111111111111111111111111%       =111111",
"111111:o      o51111111111111111111111111111111111111111115o      o:111111",
"1111114o      o;111111111111111111111111111111111111111111;       O5111111",
"1111111%       $111111111111111111111111111111111111111111$       %1111111",
"1111115:        :1111111111111111111111111111111111111111:        :1111111",
"11111115O       $1111111111111111111111111111111111111114@       +51111111",
"11111111*        -11111111111111111111111111111111111111-        *11111111",
"11111111<        o>111111111111111111111111111111111111>o        >11111111",
"111111111&        @511111111111111111111111111111111115@        *111111111",
"111111111<o        %4111111111111111111111111111111114%        O<111111111",
"1111111111-         &41111111111111111111111111111114&         -1111111111",
"11111111114@         %511111111111111111111111111115%        o$41111111111",
"11111111111>+         @>11111111111111111111111111>@         O>11111111111",
"111111111111:          o-411111111111111111111114-O          :111111111111",
"1111111111114-           $:11111111111111111111:@           -1111111111111",
"11111111111111*            $;5111111111111115;$            *11111111111111",
"111111111111111*            oo%-,51111115,-%o             *411111111111111",
"1111111111111111=                 +@$$#+                 -4111111111111111",
"11111111111111111:O                                    O:11111111111111111",
"111111111111111111>@                                  $>111111111111111111",
"11111111111111111114;O                              o=11111111111111111111",
"111111111111111111111<&o                          o*<111111111111111111111",
"11111111111111111111141<*O                      O*<11111111111111111111111",
"11111111111111111111111115:% oo             o+%:54111111111111111111111111",
"11111111111111111111111111115:-%#o      o#%=:51111111111111111111111111111",
"1111111111111111111111111111111114<>,,<<4111111111111111111111111111111111",
"11111111111111111111111111111111111111111111111111111111111111111111111111",
"111111111111111111115::1111111111111111111111111111::511111111111111111111",
"111111111111111114:&o @4111111111111111111111111111@ o%;511111111111111111",
"111111111111111,*+     :11111111111111111111111111:   o O&:511111111111111",
"111111111111,=+        @41111111111111111111111111$        +*,111111111111",
"111111111>=#         +*:11111111111111111111111111:*+         #=>111111111",
"111111<-$o        o%:11111111111111111111111111111111:&O         @=>111111",
"111<;$         o#$**************************************%+o         $;<111",
"5;$o             o                                                     #=5",
"-#                                                                      #-",
"115;$          o+########################################+Oo         #-<11",
"11111<-@         O&:4111111111111111111111111111111411:&o      o  @-<11111",
"11111141>=#         +&:1111111111111111111111111111,*+         +=,11111111",
"11111111111,*+ o       @11111111111111111111111111$         +*,11111111111",
"11111111111114,*+      =11111111111111111111111111=      +&:41111111111111",
"11111111111111114:&O  O<11111111111111111111111111<O  o%:51111111111111111",
"11111111111111111115:%=1111111111111111111111111115=%:51141111111111111111"
};
