/* XPM */
static const char *const clock_2160[] = {
/* columns rows colors chars-per-pixel */
"74 74 21 1 ",
"  c #000000",
". c #010101",
"X c #020202",
"o c #050505",
"O c #0E0E0E",
"+ c #191919",
"@ c #252525",
"# c #333333",
"$ c #4F4F4F",
"% c #686868",
"& c #797979",
"* c #848484",
"= c #A9A9A9",
"- c #B7B7B7",
"; c #D1D1D1",
": c #E6E6E6",
"> c #F5F5F5",
", c #FFFFFF",
"< c #FEFEFE",
"1 c #FDFDFD",
"2 c #F8F8F8",
/* pixels */
",,,,,,,,,,,,,,,,,,,,,,,,,,,,,,,,,,,,,,,,,,,,,,,,,,,,,,,,,,,,,,,,,,,,,,,,,,",
",,,,,,,,,,,,,,,,,,,,,,,,,,,,,,,,,,,,,,,,,,,,,,,,,,,,,,,,,,,,,,,,,,,,,,,,,,",
",,,,,,,,,,,,,,,,,,,,,,,,,,,,,,,,,,,,,,,,,,,,,,,,,,,,,,,,,,,,,,,,,,,,,,,,,,",
",,,,,,,,,,,,,,,,,,,,,,,,,,,,,,,,,,,,,,,,,,,,,,,,,,,,,,,,,,,,,,,,,,,,,,,,,,",
",,,,,,,,,,,,,,,,,,,,,,,,,,,,,:=&$#@OooO@#$*=:,,,,,,,,,,,,,,,,,,,,,,,,,,,,,",
",,,,,,,,,,,,,,,,,,,,,,,,,2-%@   o            @%-,,,,,,,,,,,,,,,,,,,,,,,,,,",
",,,,,,,,,,,,,,,,,,,,,,,:&+                      +&:2,,,,,,,,,,,,,,,,,,,,,,",
",,,,,,,,,,,,,,,,,,,,2:%o                           %;,,,,,,,,,,,,,,,,,,,,,",
",,,,,,,,,,,,,,,,,,,2%o                              o%>,,,,,,,,,,,,,,,,,,,",
",,,,,,,,,,,,,,,,,,=+                                o +=,,,,,,,,,,,,,,,,,,",
",,,,,,,,,,,,,,,,2%                                      %>,,,,,,,,,,,,,,,,",
",,,,,,,,,,,,,,,:#                      o                 #:2,,,,,,,,,,,,,,",
",,,,,,,,,,,,,2;+               o@$%&**&%$@                @;,2,,,,,,,,,,,,",
",,,,,,,,,,,,,;O             O%=:,,,,,,,,,,:=%O             O;2,,,,,,,,,,,,",
",,,,,,,,,,,,;O            #=2,,,,,,,,,,,,,,,,2=#            +;,,,,,,,,,,,,",
",,,,,,,,,,,:+           @-,,,,,,,,,,,,,,,,,,,,2,-@           +:,,,,,,,,,,,",
",,,,,,,,,,2#          o*2,,,,,,,,,,,,,,,,,,,,,,,,2*o          #2,,,,,,,,,,",
",,,,,,,,,,%          +;,,,,,,,,,,,,       ,,,,,,,,2;@o         %,,,,,,,,,,",
",,,,,,,,,=          #:2,,,,,,,,,,,,       ,,,,,,,,,,:#          -,,,,,,,,,",
",,,,,,,,>+         $2,,,,,,,,,,,,,,       ,,,,,,,,,,,:$         +>,,,,,,,,",
",,,,,,,,%o        #>,,,,,,,,,,,,,,,       ,,,,,,,,,,,,2#         &,,,,,,,,",
",,,,,,,;o        @:,,,,,,,,,,,,,,,,       ,,,,,,,,,,,,,:@        o;,,,,,,,",
",,,,,,,%        o;,,,,,,,,,,,,,,,,,       ,,,,,,,,,,,,,,;         %,,,,,,,",
",,,,,,:         *2,,,,,,,,,,,,,,,,,       ,,,,,,,,,,,,,,,&        o:,,,,,,",
",,,,,,&        @2,,,,,,,,,,,,,,,,,,       ,,,,,,,,,,,,,,,2@        &,,,,,,",
",,,,,,+        -,,,,,,,,,,,,,,,,,,,       ,,,,,,,,,,,,,,,,=        +,,,,,,",
",,,,,-        #,,,,,,,,,,,,,,,,,,,,       ,,,,,,,,,,,,,,,,,#        -,,,,,",
",,,,,%        =,,,,,,,,,,,,,,,,,,,,       ,,,,,,,,,,,,,,,,,=        %,,,,,",
",,,,,@       O2,,,,,,,,,,,,,,,,,,,,       ,,,,,,,,,,,,,,,,,2O       @2,,,,",
",,,,:        %,,,,,,,,,,,,,,,,,,,,,       ,,,,,,,,,,,,,,,,,,%        :,,,,",
",,,,=        =,,,,,,,,,,,,,,,,,,,,,       ,,,,,,,,,,,,,,,,,,=        =,,,,",
",,,,&        :,,,,,,,,,,,,,,,,,,,,,       ,,,,,,,,,,,,,,,,,,:        *,,,,",
",,,,$       @,,,,,,,,,,,,,,,,,,,,,,       ,,,,,,,,,,,,,,,,,,,+       $,,,,",
",,,,#       $,,,,,,,,,,,,,,,,,,,,,,       ,,,,,,,,,,,,,,,,,,,$      o#,,,,",
",,,,@       %,,,,,                        ,,,,,,,,,,,,,,,,,,,%       @,,,,",
",,,,+       &,,,,,                        ,,,,,,,,,,,,,,,,,,,&       +,,,,",
",,,,o       *,,,,,                        ,,,,,,,,,,,,,,,,,,,*o      o,,,,",
",,,,o       *,,,,,                        ,,,,,,,,,,,,,,,,,,,*       o,,,,",
",,,,O       *,,,,,                        ,,,,,,,,,,,,,,,,,,,&       +,,,,",
",,,,@       %,,,,,                        ,,,,,,,,,,,,,,,,,,,%       @,,,,",
",,,,#       $,,,,,                        ,,,,,,,,,,,,,,,,,,,$       #,,,,",
",,,,$       @,,,,,,,,,,,,,,,,,,,,,,,,,,,,,,,,,,,,,,,,,,,,,,,,@      o$,,,,",
",,,,*        :,,,,,,,,,,,,,,,,,,,,,,,,,,,,,,,,,,,,,,,,,,,,,,:        *,,,,",
",,,,=        =,,,,,,,,,,,,,,,,,,,,,,,,,,,,,,,,,,,,,,,,,,,,,,=        =,,,,",
",,,,:        %,,,,,,,,,,,,,,,,,,,,,,,,,,,,,,,,,,,,,,,,,,,,,,%        :,,,,",
",,,,,@       O2,,,,,,,,,,,,,,,,,,,,,,,,,,,,,,,,,,,,,,,,,,,,>O       @,,,,,",
",,,,,%        =2,,,,,,,,,,,,,,,,,,,,,,,,,,,,,,,,,,,,,,,,,,,=        %,,,,,",
",,,,,-        #,,,,,,,,,,,,,,,,,,,,,,,,,,,,,,,,,,,,,,,,,,,2#        ;,,,,,",
",,,,,,+        -,,,,,,,,,,,,,,,,,,,,,,,,,,,,,,,,,,,,,,,,,,=        +,,,,,,",
",,,,,,&        @2,,,,,,,,,,,,,,,,,,,,,,,,,,,,,,,,,,,,,,,,2@        &,,,,,,",
",,,,,,:o        &,,,,,,,,,,,,,,,,,,,,,,,,,,,,,,,,,,,,,,,,&        o:,,,,,,",
",,,,,,,%         ;,,,,,,,,,,,,,,,,,,,,,,,,,,,,,,,,,,,,,,;         %,,,,,,,",
",,,,,,,;o        +:,,,,,,,,,,,,,,,,,,,,,,,,,,,,,,,,,,,,:+        o:,,,,,,,",
",,,,,,,,%         #2,,,,,,,,,,,,,,,,,,,,,,,,,,,,,,,,,,2#o        &2,,,,,,,",
",,,,,,,,2+         $>,,,,,,,,,,,,,,,,,,,,,,,,,,,,,,,,>#         +>,,,,,,,,",
",,,,,,,,,-          #:,2,,,,,,,,,,,,,,,,,,,,,,,,,,,,:#o         -,,,,,,,,,",
",,,,,,,,,,%          +;2,,,,,,,,,,,,,,,,,,,,,,,,,,2;@          %,,,,,,,,,,",
",,,,,,,,,,>#         oo*2,,,,,,,,,,,,,,,,,,,,,,,,2&o          #,,,,,,,,,,,",
",,,,,,,,,,,:+           @=,,,,,,,,,,,,,,,,,,,,,,=@           @:,,,,,,,,,,,",
",,,,,,,,,,,,;O            @=2,,,,,,,,,,,,,,,,2=@            O;,,,,,,,,,,,,",
",,,,,,,,,,,,,;O             O%=:,,,,,,,,2,:=%O             +;,,,,,,,,,,,,,",
",,,,,,,,,,,,,,;+                @$%&**&%$@                +;,,,,,,,,,,,,,,",
",,,,,,,,,,,,,,,:#                     o                  #:,,,,,,,,,,,,,,,",
",,,,,,,,,,,,,,,,,%                                      %,,,,,,,,,,,,,,,,,",
",,,,,,,,,,,,,,,,,,-+o                                 +-,,,,,,,,,,,,,,,,,,",
",,,,,,,,,,,,,,,,,,,>%                               o&>,,,,,,,,,,,,,,,,,,,",
",,,,,,,,,,,,,,,,,,,,,:%  o                       oo%;,,,,,,,,,,,,,,,,,,,,,",
",,,,,,,,,,,,,,,,,,,,,,,:&+                      +&:,,,,,,,,,,,,,,,,,,,,,,,",
",,,,,,,,,,,,,,,,,,,,,,,,,,-%@   o            @%;,,,,,,,,,,,,,,,,,,,,,,,,,,",
",,,,,,,,,,,,,,,,,,,,,,,,,,,,,:=*$#@OooO@#$*=:,,,,,,,,,,,,,,,,,,,,,,,,,,,,,",
",,,,,,,,,,,,,,,,,,,,,,,,,,,,,,,,,,,,,,,,,,,,,,,,,,,,,,,,,,,,,,,,,,,,,,,,,,",
",,,,,,,,,,,,,,,,,,,,,,,,,,,,,,,,,,,,,,,,,,,,,,,,,,,,,,,,,,,,,,,,,,,,,,,,,,",
",,,,,,,,,,,,,,,,,,,,,,,,,,,,,,,,,,,,,,,,,,,,,,,,,,,,,,,,,,,,,,,,,,,,,,,,,,",
",,,,,,,,,,,,,,,,,,,,,,,,,,,,,,,,,,,,,,,,,,,,,,,,,,,,,,,,,,,,,,,,,,,,,,,,,,"
};
