/* XPM */
static const char *const cutting_576[] = {
/* columns rows colors chars-per-pixel */
"27 18 24 1 ",
"  c #000000",
". c #010101",
"X c #020202",
"o c #050505",
"O c #0C0C0C",
"+ c #1A1A1A",
"@ c #121212",
"# c #242424",
"$ c #3C3C3C",
"% c #454545",
"& c #585858",
"* c #636363",
"= c #6B6B6B",
"- c #737373",
"; c #8D8D8D",
": c #BABABA",
"> c #ABABAB",
", c #D6D6D6",
"< c #CACACA",
"1 c #E6E6E6",
"2 c #FFFFFF",
"3 c #FEFEFE",
"4 c #FAFAFA",
"5 c #F7F7F7",
/* pixels */
"224;+@$>2222222222222222222",
"22- O#  =222222222222222222",
"22@@12,# :222222222224,:522",
"22@+522: *2222222222,&  =22",
"22& =22: *22222222,*o #:222",
"221+ +%O -222222,*o @;22222",
"2221*O    $<221*  o=1222222",
"222225<;%o  *=o  %,22222222",
"2222222221=    #>2222222222",
"2222222221=    #>2222222222",
"222225<;%o  *=o  %,22222222",
"2221*O    $<241=o  =1222222",
"221+ +%O -222222,*o @;42222",
"22& =22: *22222222,*o #:222",
"22@+422: *2222222222,&  -22",
"22+@12<# :222222222222,:522",
"22- O+  =222222222222222222",
"225;+@$>2222222222222222222"
};
