/* XPM */
static const char *const cutting_720[] = {
/* columns rows colors chars-per-pixel */
"33 22 23 1 ",
"  c #000000",
". c #010101",
"X c #030303",
"o c #050505",
"O c #0B0B0B",
"+ c #1A1A1A",
"@ c #252525",
"# c #373737",
"$ c #484848",
"% c #565656",
"& c #6A6A6A",
"* c #777777",
"= c #989898",
"- c #888888",
"; c #AFAFAF",
": c #C7C7C7",
"> c #D9D9D9",
", c #E8E8E8",
"< c #FFFFFF",
"1 c #FEFEFE",
"2 c #FDFDFD",
"3 c #F9F9F9",
"4 c #F5F5F5",
/* pixels */
"<<<:$OO#-3<<<<<<<<<<<<<<<<<<<<<<<",
"<<:ooXXXX@,<<<<<<<<<<<<<<<<<<<<<<",
"<<#X+;;&OX@3<<<<<<<<<<<<<<<<<<<<<",
"<<OX;<<<;XX=<<<<<<<<<<<<<<3=$&><<",
"<<@X*<<<<$X&<<<<<<<<<<<<3=+XX+=3<",
"<<&XO;<<<$X%<<<<<<<<<<3=+XXO&,<<<",
"<<,@XX$&#XX=<<<<<<<<4=+XXX$><<<<<",
"<<<,#XXXXXXO*4<<<<4=+XXX#:<<<<<<<",
"<<<<<;&#OXXXX+=<4=+XXX@=4<<<<<<<<",
"<<<<<<<<3:*+XXX@+XXXO-4<<<<<<<<<<",
"<<<<<<<<<<<<;OXXXXX&,<<<<<<<<<<<<",
"<<<<<<<<<<<3=OXXXXX&,<<<<<<<<<<<<",
"<<<<<<<<3:*+XXX@+XXXO-4<<<<<<<<<<",
"<<<<<;&#OXXXX+=34=+XXX+=<<<<<<<<<",
"<<<,#XXXXXXo*4<<<<4=+XXX#;<<<<<<<",
"<<,@XX#*#XX=<<<<<<<<3=+XXo$><<<<<",
"<<&XO;<<<$o%<<<<<<<<<<3=+XXX&4<<<",
"<<@X*<<<<$X&<<<<<<<<<<<<3=@XXO=<<",
"<<OX;<<<;OX=<<<<<<<<<<<<<<3=$&>3<",
"<<#X+;;&oX@3<<<<<<<<<<<<<<<<<<<<<",
"<<:oXXXXX@,<<<<<<<<<<<<<<<<<<<<<<",
"<<<:%Oo#-3<<<<<<<<<<<<<<<<<<<<<<<"
};
