/* XPM */
static const char *const cutting[] = {
/* columns rows colors chars-per-pixel */
"100 66 57 1 ",
"  c #000000",
". c #010101",
"X c #030303",
"o c #050505",
"O c #0A0A0A",
"+ c #080808",
"@ c #0D0D0D",
"# c #111111",
"$ c #151515",
"% c #191919",
"& c #1D1D1D",
"* c #252525",
"= c #222222",
"- c #292929",
"; c #2C2C2C",
": c #323232",
"> c #3E3E3E",
", c #3A3A3A",
"< c #424242",
"1 c #454545",
"2 c #4A4A4A",
"3 c #4D4D4D",
"4 c #535353",
"5 c #5C5C5C",
"6 c #646464",
"7 c #6B6B6B",
"8 c #737373",
"9 c #7C7C7C",
"0 c #818181",
"q c #858585",
"w c #8C8C8C",
"e c #939393",
"r c #999999",
"t c #9D9D9D",
"y c #A3A3A3",
"u c #ADADAD",
"i c #AAAAAA",
"p c #B3B3B3",
"a c #BCBCBC",
"s c #C1C1C1",
"d c #C6C6C6",
"f c #CACACA",
"g c #CDCDCD",
"h c #D5D5D5",
"j c #D1D1D1",
"k c #DDDDDD",
"l c #E2E2E2",
"z c #E6E6E6",
"x c #EEEEEE",
"c c #EAEAEA",
"v c #F1F1F1",
"b c #F5F5F5",
"n c #FBFBFB",
"m c #F9F9F9",
"M c #FFFFFF",
"N c #FEFEFE",
"B c #FDFDFD",
/* pixels */
"MMMMMMMMMMMMMlt4;$.$;1qfnMMMMMMMMMMMMMMMMMMMMMMMMMMMMMMMMMMMMMMMMMMMMMMMMMMMMMMMMMMMMMMMMMMMMMMMMMMM",
"MMMMMMMMMMMh5...........%9xMMMMMMMMMMMMMMMMMMMMMMMMMMMMMMMMMMMMMMMMMMMMMMMMMMMMMMMMMMMMMMMMMMMMMMMMM",
"MMMMMMMMMM8...............@9bMMMMMMMMMMMMMMMMMMMMMMMMMMMMMMMMMMMMMMMMMMMMMMMMMMMMMMMMMMMMMMMMMMMMMMM",
"MMMMMMMMb2..................*hMMMMMMMMMMMMMMMMMMMMMMMMMMMMMMMMMMMMMMMMMMMMMMMMMMMMMMMMMMMMMMMMMMMMMM",
"MMMMMMMM3....................OuMMMMMMMMMMMMMMMMMMMMMMMMMMMMMMMMMMMMMMMMMMMMMMMMMMMMMMMMMMMMMMMMMMMMM",
"MMMMMMMt......................oiMMMMMMMMMMMMMMMMMMMMMMMMMMMMMMMMMMMMMMMMMMMMMMMMMMMMMMMMMMMMMMMMMMMM",
"MMMMMMn&........#>2<%..........odMMMMMMMMMMMMMMMMMMMMMMMMMMMMMMMMMMMMMMMMMMMMMMMMMMMMMMMMMMMMMMMMMMM",
"MMMMMMy.......*pnMMMMh9#........&xMMMMMMMMMMMMMMMMMMMMMMMMMMMMMMMMMMMMMMMMMMMMMMMMMMMMMMMMMMMMMMMMMM",
"MMMMMM5......;vMMMMMMMMx6........7MMMMMMMMMMMMMMMMMMMMMMMMMMMMMMMMMMMMMMMMMMMMMMMMMMMMMMMMMMMMMMMMMM",
"MMMMMM*......aMMMMMMMMMMMy........kMMMMMMMMMMMMMMMMMMMMMMMMMMMMMMMMMMMMMMMMMMMMMMMMMMvhscMMMMMMMMMMM",
"MMMMMM@.....OMMMMMMMMMMMMMy.......7MMMMMMMMMMMMMMMMMMMMMMMMMMMMMMMMMMMMMMMMMMMMMMMMs4o...=9cMMMMMMMM",
"MMMMMMO.....#MMMMMMMMMMMMMM6......%MMMMMMMMMMMMMMMMMMMMMMMMMMMMMMMMMMMMMMMMMMMMMMs1........@qbMMMMMM",
"MMMMMM&......lMMMMMMMMMMMMMzo......hMMMMMMMMMMMMMMMMMMMMMMMMMMMMMMMMMMMMMMMMMMMs<............6MMMMMM",
"MMMMMM3......0MMMMMMMMMMMMMM3......uMMMMMMMMMMMMMMMMMMMMMMMMMMMMMMMMMMMMMMMMMs<............*iMMMMMMM",
"MMMMMM0......$cMMMMMMMMMMMMM0......eMMMMMMMMMMMMMMMMMMMMMMMMMMMMMMMMMMMMMMMs<............$wnMMMMMMMM",
"MMMMMMh.......2MMMMMMMMMMMMM9......tMMMMMMMMMMMMMMMMMMMMMMMMMMMMMMMMMMMMMs<............o8xMMMMMMMMMM",
"MMMMMMM2.......4nMMMMMMMMMMM>......uMMMMMMMMMMMMMMMMMMMMMMMMMMMMMMMMMMMs>.............5kMMMMMMMMMMMM",
"MMMMMMMf........:hMMMMMMMMMi.......lMMMMMMMMMMMMMMMMMMMMMMMMMMMMMMMMMa>.............>fMMMMMMMMMMMMMM",
"MMMMMMMM7........o6fMMMMMv0o......;MMMMMMMMMMMMMMMMMMMMMMMMMMMMMMMMa<.............;uMMMMMMMMMMMMMMMM",
"MMMMMMMMb:..........%366<O........eMMMMMMMMMMMMMMMMMMMMMMMMMMMMMMp:.............$enMMMMMMMMMMMMMMMMM",
"MMMMMMMMMz=.......................wnMMMMMMMMMMMMMMMMMMMMMMMMMMMu:.............O9vMMMMMMMMMMMMMMMMMMM",
"MMMMMMMMMMz;.......................;pMMMMMMMMMMMMMMMMMMMMMMMMy;..............5lMMMMMMMMMMMMMMMMMMMMM",
"MMMMMMMMMMMv4........................>fMMMMMMMMMMMMMMMMMMMny*..............1hMMMMMMMMMMMMMMMMMMMMMMM",
"MMMMMMMMMMMMMu&........................5lMMMMMMMMMMMMMMMbt=..............;pMMMMMMMMMMMMMMMMMMMMMMMMM",
"MMMMMMMMMMMMMMni:.......................o7vMMMMMMMMMMMbt%..............%eMMMMMMMMMMMMMMMMMMMMMMMMMMM",
"MMMMMMMMMMMMMMMMMgw1#.....................$enMMMMMMMbw$..............O0bMMMMMMMMMMMMMMMMMMMMMMMMMMMM",
"MMMMMMMMMMMMMMMMMMMMMcae6;..................=uMMMMvq#...............6zMMMMMMMMMMMMMMMMMMMMMMMMMMMMMM",
"MMMMMMMMMMMMMMMMMMMMMMMMMMva9:................,dx9#...............2hMMMMMMMMMMMMMMMMMMMMMMMMMMMMMMMM",
"MMMMMMMMMMMMMMMMMMMMMMMMMMMMMMct<o..............O...............:aMMMMMMMMMMMMMMMMMMMMMMMMMMMMMMMMMM",
"MMMMMMMMMMMMMMMMMMMMMMMMMMMMMMMMMz0%..........................&yMMMMMMMMMMMMMMMMMMMMMMMMMMMMMMMMMMMM",
"MMMMMMMMMMMMMMMMMMMMMMMMMMMMMMMMMMMny*......................@qbMMMMMMMMMMMMMMMMMMMMMMMMMMMMMMMMMMMMM",
"MMMMMMMMMMMMMMMMMMMMMMMMMMMMMMMMMMMMMnwO..................o7xMMMMMMMMMMMMMMMMMMMMMMMMMMMMMMMMMMMMMMM",
"MMMMMMMMMMMMMMMMMMMMMMMMMMMMMMMMMMMMMMMk<................<hMMMMMMMMMMMMMMMMMMMMMMMMMMMMMMMMMMMMMMMMM",
"MMMMMMMMMMMMMMMMMMMMMMMMMMMMMMMMMMMMMMMk<................1hMMMMMMMMMMMMMMMMMMMMMMMMMMMMMMMMMMMMMMMMM",
"MMMMMMMMMMMMMMMMMMMMMMMMMMMMMMMMMMMMMnwO..................o7cMMMMMMMMMMMMMMMMMMMMMMMMMMMMMMMMMMMMMMM",
"MMMMMMMMMMMMMMMMMMMMMMMMMMMMMMMMMMMnt=......................@qvMMMMMMMMMMMMMMMMMMMMMMMMMMMMMMMMMMMMM",
"MMMMMMMMMMMMMMMMMMMMMMMMMMMMMMMMMz9%..........................&ynMMMMMMMMMMMMMMMMMMMMMMMMMMMMMMMMMMM",
"MMMMMMMMMMMMMMMMMMMMMMMMMMMMMMzt>...............O...............:aMMMMMMMMMMMMMMMMMMMMMMMMMMMMMMMMMM",
"MMMMMMMMMMMMMMMMMMMMMMMMMMxp8:................,dx9#...............2hMMMMMMMMMMMMMMMMMMMMMMMMMMMMMMMM",
"MMMMMMMMMMMMMMMMMMMMMzaw6;..................*uMMMMvq#..............o6zMMMMMMMMMMMMMMMMMMMMMMMMMMMMMM",
"MMMMMMMMMMMMMMMMMfq1#.....................$enMMMMMMMvw$..............O0vMMMMMMMMMMMMMMMMMMMMMMMMMMMM",
"MMMMMMMMMMMMMMby;.......................o7xMMMMMMMMMMMnt&..............#enMMMMMMMMMMMMMMMMMMMMMMMMMM",
"MMMMMMMMMMMMMy%........................5lMMMMMMMMMMMMMMMne=..............;pMMMMMMMMMMMMMMMMMMMMMMMMM",
"MMMMMMMMMMMx4........................<fMMMMMMMMMMMMMMMMMMMMt*..............1gMMMMMMMMMMMMMMMMMMMMMMM",
"MMMMMMMMMMl;.......................;pMMMMMMMMMMMMMMMMMMMMMMMny;..............5zMMMMMMMMMMMMMMMMMMMMM",
"MMMMMMMMMz&.......................wnMMMMMMMMMMMMMMMMMMMMMMMMMMMu:.............O9vMMMMMMMMMMMMMMMMMMM",
"MMMMMMMMb;..........%3661@........eMMMMMMMMMMMMMMMMMMMMMMMMMMMMMMp:.............$eMMMMMMMMMMMMMMMMMM",
"MMMMMMMM7........o6gMMMMMvqo......;MMMMMMMMMMMMMMMMMMMMMMMMMMMMMMMMa>.............*pMMMMMMMMMMMMMMMM",
"MMMMMMMf........:hMMMMMMMMMi.......lMMMMMMMMMMMMMMMMMMMMMMMMMMMMMMMMMa>.............>fMMMMMMMMMMMMMM",
"MMMMMMM1.......4nMMMMMMMMMMM<......iMMMMMMMMMMMMMMMMMMMMMMMMMMMMMMMMMMMs>.............5kMMMMMMMMMMMM",
"MMMMMMh.......3nMMMMMMMMMMMM9......tMMMMMMMMMMMMMMMMMMMMMMMMMMMMMMMMMMMMMa>............o8vMMMMMMMMMM",
"MMMMMM0......$cMMMMMMMMMMMMM9......tMMMMMMMMMMMMMMMMMMMMMMMMMMMMMMMMMMMMMMMs<............#wnMMMMMMMM",
"MMMMMM3......0MMMMMMMMMMMMMM3......uMMMMMMMMMMMMMMMMMMMMMMMMMMMMMMMMMMMMMMMMMs<............=uMMMMMMM",
"MMMMMM%......lMMMMMMMMMMMMMzo......hMMMMMMMMMMMMMMMMMMMMMMMMMMMMMMMMMMMMMMMMMMMs<............6MMMMMM",
"MMMMMM@.....#MMMMMMMMMMMMMM6......&MMMMMMMMMMMMMMMMMMMMMMMMMMMMMMMMMMMMMMMMMMMMMMs<........@qbMMMMMM",
"MMMMMM@.....OMMMMMMMMMMMMMy.......8MMMMMMMMMMMMMMMMMMMMMMMMMMMMMMMMMMMMMMMMMMMMMMMMs4o...*9xMMMMMMMM",
"MMMMMM*......aMMMMMMMMMMMy........kMMMMMMMMMMMMMMMMMMMMMMMMMMMMMMMMMMMMMMMMMMMMMMMMMMvhfcMMMMMMMMMMM",
"MMMMMM5......;vMMMMMMMMv6........7MMMMMMMMMMMMMMMMMMMMMMMMMMMMMMMMMMMMMMMMMMMMMMMMMMMMMMMMMMMMMMMMMM",
"MMMMMMy.......*uMMMMMg8#........&xMMMMMMMMMMMMMMMMMMMMMMMMMMMMMMMMMMMMMMMMMMMMMMMMMMMMMMMMMMMMMMMMMM",
"MMMMMMn&........@,1,$..........odMMMMMMMMMMMMMMMMMMMMMMMMMMMMMMMMMMMMMMMMMMMMMMMMMMMMMMMMMMMMMMMMMMM",
"MMMMMMMt.......................uMMMMMMMMMMMMMMMMMMMMMMMMMMMMMMMMMMMMMMMMMMMMMMMMMMMMMMMMMMMMMMMMMMMM",
"MMMMMMMM4....................opMMMMMMMMMMMMMMMMMMMMMMMMMMMMMMMMMMMMMMMMMMMMMMMMMMMMMMMMMMMMMMMMMMMMM",
"MMMMMMMMv3..................;hMMMMMMMMMMMMMMMMMMMMMMMMMMMMMMMMMMMMMMMMMMMMMMMMMMMMMMMMMMMMMMMMMMMMMM",
"MMMMMMMMMM9...............@0nMMMMMMMMMMMMMMMMMMMMMMMMMMMMMMMMMMMMMMMMMMMMMMMMMMMMMMMMMMMMMMMMMMMMMMM",
"MMMMMMMMMMMh5...........%9xMMMMMMMMMMMMMMMMMMMMMMMMMMMMMMMMMMMMMMMMMMMMMMMMMMMMMMMMMMMMMMMMMMMMMMMMM",
"MMMMMMMMMMMMMlt4;%o$;2wfMMMMMMMMMMMMMMMMMMMMMMMMMMMMMMMMMMMMMMMMMMMMMMMMMMMMMMMMMMMMMMMMMMMMMMMMMMMM"
};
