/* XPM */
static const char *const cutting_2160[] = {
/* columns rows colors chars-per-pixel */
"100 66 24 1 ",
"  c #000000",
". c #010101",
"X c #030303",
"o c #050505",
"O c #0B0B0B",
"+ c #181818",
"@ c #282828",
"# c #383838",
"$ c #464646",
"% c #585858",
"& c #666666",
"* c #7A7A7A",
"= c #868686",
"- c #979797",
"; c #A8A8A8",
": c #B7B7B7",
"> c #C6C6C6",
", c #D7D7D7",
"< c #E8E8E8",
"1 c #FFFFFF",
"2 c #FEFEFE",
"3 c #FDFDFD",
"4 c #FAFAFA",
"5 c #F3F3F3",
/* pixels */
"1111111111111<-%@+o+@$=>1111111111111111111111111111111111111111111111111111111111111111111111111111",
"11111111111,%o    o     +=<1111111111111111111111111111111111111111111111111111111111111111111111111",
"1111111111*               O=511111111111111111111111111111111111111111111111111111111111111111111111",
"111111115$                  @,1111111111111111111111111111111111111111111111111111111111111111111111",
"11111111%                    o:111111111111111111111111111111111111111111111111111111111111111111111",
"1111111-                      o;11111111111111111111111111111111111111111111111111111111111111111111",
"1111114+        O#$$+          o>1111111111111111111111111111111111111111111111111111111111111111111",
"111111;       @:11111,*O        +5111111111111111111111111111111111111111111111111111111111111111111",
"111111%      @5111111115&        &111111111111111111111111111111111111111111111111111111111111111111",
"111111@      >11111111114;o       ,111111111111111111111111111111111111111111111111115>><11111111111",
"111111Oo    o1111111111111;       *111111111111111111111111111111111111111111111111>%o   @*511111111",
"111111O     O11111111111111&      +1111111111111111111111111111111111111111111111>$        o=5111111",
"111111+      <1111111111111<oo     ,1111111111111111111111111111111111111111111>$            &111111",
"111111$o     =11111111111111$     o;11111111111111111111111111111111111111111>#            @;1111111",
"111111=      +<1111111111111=      -111111111111111111111111111111111111111>$            O=411111111",
"111111,       $1111111111111*      -1111111111111111111111111111111111111:$            o*51111111111",
"1111111$       %411111111111#     o;11111111111111111111111111111111111:$             %<111111111111",
"1111111>        #,111111111;o      ,111111111111111111111111111111111:$             #>11111111111111",
"11111111&        o&>111115=o      @11111111111111111111111111111111:$             @:1111111111111111",
"111111115#          +$&&$o        -111111111111111111111111111111:#             +-411111111111111111",
"111111111<@                       -4111111111111111111111111111;#             o*51111111111111111111",
"1111111111<@                       @:111111111111111111111141;@              &<111111111111111111111",
"111111111115% o                      $>11111111111111111114;@              $>11111111111111111111111",
"1111111111111;+                        %<1111111111111114-@              @:1111111111111111111111111",
"111111111111114;#o                      o*<411111111114-+              +-411111111111111111111111111",
"11111111111111111>=$+                     +-411111115=+              O=51111111111111111111111111111",
"111111111111111111111<:-&@                  @;11115=+               &<111111111111111111111111111111",
"111111111111111111111111115:*#o               #>5*O               $,11111111111111111111111111111111",
"111111111111111111111111111111<-$               o               #:1111111111111111111111111111111111",
"111111111111111111111111111111111<=+                          +;111111111111111111111111111111111111",
"111111111111111111111111111111111114;@                      O=41111111111111111111111111111111111111",
"11111111111111111111111111111111111111=o                  o&5111111111111111111111111111111111111111",
"111111111111111111111111111111111111111,$                $,11111111111111111111111111111111111111111",
"111111111111111111111111111111111111111<$                $,11111111111111111111111111111111111111111",
"11111111111111111111111111111111111114=o                  o&<111111111111111111111111111111111111111",
"111111111111111111111111111111111115-@                      O=51111111111111111111111111111111111111",
"111111111111111111111111111111111<=+                          +;111111111111111111111111111111111111",
"111111111111111111111111111114<-#               o               #:1111111111111111111111111111111111",
"111111111111111111111111115:*#                #>5*O               $,11111111111111111111111111111111",
"111111111111111111111<:=&@                  @;11115=+               &<111111111111111111111111111111",
"11111111111111111>=$+                     O-411111115=+              O*51111111111111111111111111111",
"111111111111115;@                       o*5111111111114-+              +-411111111111111111111111111",
"1111111111111;+ o                      %,1111111111111111-@              @:1111111111111111111111111",
"111111111115%                        $>11111111111111111114-@              $>11111111111111111111111",
"1111111111<@                       @:111111111111111111111111;@              &<111111111111111111111",
"111111111,+                       =1111111111111111111111111111;#             o*51111111111111111111",
"111111114#          +$&&$O        -111111111111111111111111111111:#o            +-411111111111111111",
"11111111&        o&,111115=o      @11111111111111111111111111111111:#             @;1111111111111111",
"1111111>        #,111111111;       <111111111111111111111111111111111:#             $>11111111111111",
"1111111$       %411111111111$      :11111111111111111111111111111111111>$             %<111111111111",
"111111,       $1111111111111*      -1111111111111111111111111111111111111:$            o*51111111111",
"111111=      +<1111111111111=      -111111111111111111111111111111111111114>$            O=411111111",
"111111%      =11111111111111$o     ;11111111111111111111111111111111111111111>$            @;1111111",
"111111+      <1111111111111<o     o,1111111111111111111111111111111111111111111:$            &111111",
"111111o     O11111111111111%      +1111111111111111111111111111111111111111111114>$        O=5111111",
"111111Oo    O4111111111111;       *111111111111111111111111111111111111111111111111>%o   @*511111111",
"111111@      >11111111111;o       ,111111111111111111111111111111111111111111111111115>>541111111111",
"111111%      @5111111115%       o&111111111111111111111111111111111111111111111111111111111111111111",
"111111;       @;11111>*O        +5111111111111111111111111111111111111111111111111111111111111111111",
"1111115@        O#$#+          o>1111111111111111111111111111111111111111111111111111111111111111111",
"1111111-                      o;11111111111111111111111111111111111111111111111111111111111111111111",
"11111111%                    o:111111111111111111111111111111111111111111111111111111111111111111111",
"111111115$                  @,1111111111111111111111111111111111111111111111111111111111111111111111",
"1111111111*               O=411111111111111111111111111111111111111111111111111111111111111111111111",
"11111111111,%o         o+=<1111111111111111111111111111111111111111111111111111111111111111111111111",
"1111111111111<-%@+o+#$=>1111111111111111111111111111111111111111111111111111111111111111111111111111"
};
