/* XPM */
static const char *const cutting_1080[] = {
/* columns rows colors chars-per-pixel */
"50 33 23 1 ",
"  c #000000",
". c #010101",
"X c #030303",
"o c #060606",
"O c #0B0B0B",
"+ c #191919",
"@ c #252525",
"# c #363636",
"$ c #5A5A5A",
"% c #464646",
"& c #686868",
"* c #787878",
"= c #858585",
"- c #999999",
"; c #ADADAD",
": c #C7C7C7",
"> c #D8D8D8",
", c #E8E8E8",
"< c #FFFFFF",
"1 c #FEFEFE",
"2 c #FCFCFC",
"3 c #FAFAFA",
"4 c #F5F5F5",
/* pixels */
"<<<<<4=#Oo+$-<<<<<<<<<<<<<<<<<<<<<<<<<<<<<<<<<<<<<",
"<<<<:@XoXXXXX@:<<<<<<<<<<<<<<<<<<<<<<<<<<<<<<<<<<<",
"<<<,+XXXXXXXXXX-<<<<<<<<<<<<<<<<<<<<<<<<<<<<<<<<<<",
"<<<&XXX#=-*+XXXX;<<<<<<<<<<<<<<<<<<<<<<<<<<<<<<<<<",
"<<<@XX#3<<<3=XXX+<<<<<<<<<<<<<<<<<<<<<<<<<3,33<<<<",
"<<<oXX*<<<<<<*XXX;<<<<<<<<<<<<<<<<<<<<<<,=+Xo$><<<",
"<<<+XX$<<<<<<3+XX&<<<<<<<<<<<<<<<<<<<<,=+XXXXo=<<<",
"<<<$XXo:<<<<<<#XX%<<<<<<<<<<<<<<<<<<,*oXXXXX$,<<<<",
"<<<:XXX+;<<<<,OXX&<<<<<<<<<<<<<<<<,*oXXXXo%:<<<<<<",
"<<<<&XXXo%-;=+XXX;<<<<<<<<<<<<<<,&oXXXXX#;<<<<<<<<",
"<<<<3$XXXXXXXXXXX&,<<<<<<<<<<<,&oXXXXX+-33<<<<<<<<",
"<<<<<3=oXXXXXXXXXX+=3<<<<<<<>&oXXXXXo=4<<<<<<<<<<<",
"<<<<<<<,*#oXXXXXXXXX+;3<<<>&oXXXXXX&,<<<<<<<<<<<<<",
"<<<<<<<<<<3:-&@XXXXXXX#;>$XXXXXXX%>3<<<<<<<<<<<<<<",
"<<<<<<<<<<<<<<<>=@XXXXXXoXXXXXX#;<<<<<<<<<<<<<<<<<",
"<<<<<<<<<<<<<<<<<3;@XXXXXXXXX+-3<<<<<<<<<<<<<<<<<<",
"<<<<<<<<<<<<<<<<<<<,+XXXXXXX@,<<<<<<<<<<<<<<<<<<<<",
"<<<<<<<<<<<<<<<3<3;@XXXXXXXXX+-<<<<<<<<<<<<<<<<<<<",
"<<<<<<<<<<<<<<<>=+XXXXooXXXXXXX#;<<<<<<<<<<<<<<<<<",
"<<<<<<<<<<3:-&@XXXXXXX#;>$XXXXXXX%>3<<<<<<<<<<<<<<",
"<<<<<<<,*#XXXXXXXXXX+;<<<<>&XXXXXXX&,<<<<<<<<<<<<<",
"<<<<<<=oXXXXXXXXXX+=3<<<<<<<>&oXXXXXo*4<<<<<<<<<<<",
"<<<<3%XXXXXXXXXXX&,<3<<<<<<<<<,&XXXXXX+-<<<<<<<<<<",
"<<<<&XXXX#-;=@XXX;<<<<<<<<<<<<<<,*oXXXXX@;<<<<<<<<",
"<<<:XXX+:3<<<,oXX&<<<<<<<<<<<<<<<<,*oXXXXX%:<<<<<<",
"<<<$XXo:<<<<<<#XX%<<<<<<<<<<<<<<<<<<,*OXXXXX$,<<<<",
"<<<+XX$<<<<<<3+XX&<<<<<<<<<<<<<<<<<<<<,*OXXXXo=<<<",
"<<<oXX*<<<<3<=XXX-<<<<<<<<<<<<<<<<<<<<<<4*+XO$><<<",
"<<<+XX#3<<<3*XXX+<<<<<<<<<<<<<<<<<<<<<<<<<<,3<<<<<",
"<<<*XXX#=-*+XXXo;<<<<<<<<<<<<<<<<<<<<<<<<<<<<<<<<<",
"<<<,+XXXXXXXXXX-<<<<<<<<<<<<<<<<<<<<<<<<<<<<<<<<<<",
"<<<<:+XXXXXXX@:<<<<<<<<<<<<<<<<<<<<<<<<<<<<<<<<<<<",
"<<<<<3=#+o+$;3<<<<<<<<<<<<<<<<<<<<<<<<<<<<<<<<<<<<"
};
