/* XPM */
static const char *const cutting[] = {
/* columns rows colors chars-per-pixel */
"100 66 14 1 ",
"  c #000000",
". c #050505",
"X c #0B0B0B",
"o c #181818",
"O c #2E2E2E",
"+ c #5A5A5A",
"@ c #9D9D9D",
"# c #FFFFFF",
"$ c #FEFEFE",
"% c #FDFDFD",
"& c #FAFAFA",
"* c #F3F3F3",
"= c #E8E8E8",
"- c #CDCDCD",
/* pixels */
"#############=@+Oo oO+@-*###########################################################################",
"###########-+.          X+*#########################################################################",
"#########*+.             .X+*#######################################################################",
"########*+XX             .XXO-######################################################################",
"########+                    X@#####################################################################",
"#######@        .X     .      X@####################################################################",
"######&o     .  XO+Oo XX       .-&##################################################################",
"######@.     .O@#####-+X        o*##################################################################",
"######+      O=########*+.       +##################################################################",
"######O      -###########@.       =#################################################&*--=###########",
"######X     X&############@.      +################################################-+.   O+&*&######",
"######X     X##############+      o##############################################-O       .o@*######",
"######o      -#############=       =&#######################################&##-OX           +######",
"######+      @##############+     .@########################################*-OX .        .o@#######",
"######@      X=#############@.     @#######################################-+            o@&########",
"####&&-       +#############+      @#####################################-O            X+#&#########",
"#######+       +*###########OX    .@###################################-O             +=############",
"######*-..      O-#########@..     =################################*-O ..         XO-&#############",
"######&&+X      XX+-#####*@.      O*############################&&&-O          X  O@################",
"########&O          o+++O.        @#############################*-O ..         Xo@&#################",
"#########=o                       @**&#########################@O             X+*###################",
"##########=O                       O-########################@OX          ...+=#&###################",
"###########*+ .                      O-####################@O              O-#######################",
"#############@o.                       +=###############*@o              O-*########################",
"##############&@O   .                   .+&########*&&*@o.             X@&##########################",
"#################-@+X                     o@&######**@o              X@*############################",
"##################**#=-@+O. oX              O@####*@X              .+=##############################",
"###################&&**##&=-+O                O-#+o               +-################################",
"##############################=@O               X               O-&#################################",
"#################################=@o            ..            o@&#&#################################",
"###################################&@o                    .  @######################################",
"#####################################*@X                  X+=#######################################",
"#######################################=+                +=#########################################",
"#######################################-O                O-#########################################",
"######################################@                   .+=*######################################",
"###################################&@o                      X@*#####################################",
"###############################&&=@o                          o@*###################################",
"##############################=@O               X              .O-##################################",
"####################&&#&#&*-+O  .             O-*+o               +-################################",
"####################*=-@+O                 .O@##&##@o              X+=##############################",
"#################-@OX                    Xo@&#######=@o              X+#############################",
"###############@O                       .+*#########&#&@o              o@&##########################",
"###########&#@o                     .  +=#&##############@o              O@#########################",
"###########*+ .                     XO-#&##################@O              +-#######################",
"##########=O                       O@#######################&@O             .+=#####################",
"#########=o                       @&###########################@O             X+*###################",
"#########O          o+++Oo        @##############################-O             X@&#################",
"########+        .+-####&=@.      O################################-O             O@################",
"#######-        O-#########@X..   .=#################################-O. ..         O-&&############",
"#######+       +&###########O      @#################################**-OX          . +=############",
"######-       +*############+      @####################################*-OXX.         X+#*#########",
"#####*@      o=&############@      @#######################################-O            o@&########",
"######+      @**############+      @#########################################-OX           O@#######",
"######o      =#&###########=.      =#########################################**-+            +######",
"######X     X##############+    ..o#############################################&-OX    .X X@=######",
"######X     X#############@.     X+#############################################&##-+X   O+*########",
"######O      -*##########@.      .=&&################################################*--*&##########",
"######+      O*########*+       X+##################################################################",
"######@.      o@&####-+o.       o*##################################################################",
"######&o     ..XXO+Oo XX      .o-###################################################################",
"#######@   .                  .@####################################################################",
"########+  .                 X@#####################################################################",
"########*+XX                O-######################################################################",
"########&*+                @*#######################################################################",
"###########-+X          X@=#########################################################################",
"#############=@+Oo.oO+@-**##########################################################################"
};
