/* XPM */
static const char *const dolbydigital_1080[] = {
/* columns rows colors chars-per-pixel */
"50 25 22 1 ",
"  c #000000",
". c #030303",
"X c #040404",
"o c #090909",
"O c #171717",
"+ c #3E3E3E",
"@ c #272727",
"# c #5B5B5B",
"$ c #4A4A4A",
"% c #656565",
"& c #9E9E9E",
"* c #8D8D8D",
"= c #BBBBBB",
"- c #BEBEBE",
"; c #B5B5B5",
": c #C0C0C0",
"> c #DDDDDD",
", c #FFFFFF",
"< c #FEFEFE",
"1 c #FDFDFD",
"2 c #F3F3F3",
"3 c #E3E3E3",
/* pixels */
",,,,,,,                                    ,,,,,,,",
",,,,,,,                                    ,,,,,,,",
",,,,,,,                                    ,,,,,,,",
",,,,,,,    *====&#o            o#&==-=*    ,,,,,,,",
",,,,,,,    -,,,,,,3$          $3,,,,,,:    ,,,,,,,",
",,,,,,,    -,,,,,,,,%        %,,,,,,,,:    ,,,,,,,",
",,,,,,,    -,,,,,,,,,+      +,,,,,,,,,:    ,,,,,,,",
",,,,,,,    -,,,,,,,,,>X    X>,,,,,,,,,:    ,,,,,,,",
",,,,,,,    -,,,,,,,,,,#    #,,,,,,,,,,:    ,,,,,,,",
",,,,,,,    -,,,,,,,,,,;    =,,,,,,,,,,:    ,,,,,,,",
",,,,,,,    -,,,,,,,,,,2   X2,,,,,,,,,,:    ,,,,,,,",
",,,,,,,    -,,,,,,,,,,,O  O,,,,,,,,,,,:    ,,,,,,,",
",,,,,,,    -,,,,,,,,,,,@  @,,,,,,,,,,,:    ,,,,,,,",
",,,,,,,    -,,,,,,,,,,,O  O,,,,,,,,,,,:    ,,,,,,,",
",,,,,,,    -,,,,,,,,,,2    2,,,,,,,,,,:    ,,,,,,,",
",,,,,,,    -,,,,,,,,,,;    ;,,,,,,,,,,:    ,,,,,,,",
",,,,,,,    -,,,,,,,,,,#    #,,,,,,,,,,:    ,,,,,,,",
",,,,,,,    -,,,,,,,,,>     X>,,,,,,,,,:    ,,,,,,,",
",,,,,,,    -,,,,,,,,,+      +1,,,,,,,,:    ,,,,,,,",
",,,,,,,    -,,,,,,,,%        %,,,,,,,,:    ,,,,,,,",
",,,,,,,    -,,,,,,3$          $3,,,,,,:    ,,,,,,,",
",,,,,,,    *=-=;&#o            o#&;===*    ,,,,,,,",
",,,,,,,                                    ,,,,,,,",
",,,,,,,                                    ,,,,,,,",
",,,,,,,                                    ,,,,,,,"
};
