/* XPM */
static const char *const dolbydigital_720[] = {
/* columns rows colors chars-per-pixel */
"33 17 16 1 ",
"  c #000000",
". c #010101",
"X c #020202",
"o c #0D0D0D",
"O c #0F0F0F",
"+ c #0A0A0A",
"@ c #111111",
"# c #262626",
"$ c #363636",
"% c #707070",
"& c #888888",
"* c #B4B4B4",
"= c #CCCCCC",
"- c #DEDEDE",
"; c #E5E5E5",
": c #FFFFFF",
/* pixels */
"::::                         ::::",
"::::                         ::::",
"::::  +===*%+       o%*===+  ::::",
"::::  o:::::-#     #-:::::o  ::::",
"::::  o::::::-O   O;::::::o  ::::",
"::::  o:::::::&   &:::::::o  ::::",
"::::  +:::::::;   ;:::::::o  ::::",
"::::  o::::::::# #::::::::o  ::::",
"::::  o::::::::$ $::::::::o  ::::",
"::::  o::::::::# #::::::::o  ::::",
"::::  +:::::::;   ;:::::::o  ::::",
"::::  o:::::::&   &:::::::o  ::::",
"::::  o::::::-o   O;::::::o  ::::",
"::::  o:::::-#     #-:::::o  ::::",
"::::  +===*%+       +%*===+  ::::",
"::::                         ::::",
"::::                         ::::"
};
