/* XPM */
static const char *const dolbydigital[] = {
/* columns rows colors chars-per-pixel */
"100 50 15 1 ",
"  c #000000",
". c #161616",
"X c #2B2B2B",
"o c #343434",
"O c #464646",
"+ c #565656",
"@ c #7E7E7E",
"# c #656565",
"$ c #858585",
"% c #9A9A9A",
"& c #A1A1A1",
"* c #CBCBCB",
"= c #DADADA",
"- c #EAEAEA",
"; c #FFFFFF",
/* pixels */
";;;;;;;;;;;;;;                                                                        ;;;;;;;;;;;;;;",
";;;;;;;;;;;;;;                                                                        ;;;;;;;;;;;;;;",
";;;;;;;;;;;;;;                                                                        ;;;;;;;;;;;;;;",
";;;;;;;;;;;;;;                                                                        ;;;;;;;;;;;;;;",
";;;;;;;;;;;;;;                                                                        ;;;;;;;;;;;;;;",
";;;;;;;;;;;;;;                                                                        ;;;;;;;;;;;;;;",
";;;;;;;;;;;;;;        O$$$$$$$$@#o                                o#@$$$$$$$$O        ;;;;;;;;;;;;;;",
";;;;;;;;;;;;;;        @;;;;;;;;;;;-%X                          X%-;;;;;;;;;;;$        ;;;;;;;;;;;;;;",
";;;;;;;;;;;;;;        $;;;;;;;;;;;;;;%.                      .%;;;;;;;;;;;;;;@        ;;;;;;;;;;;;;;",
";;;;;;;;;;;;;;        @;;;;;;;;;;;;;;;-o                    O-;;;;;;;;;;;;;;;$        ;;;;;;;;;;;;;;",
";;;;;;;;;;;;;;        @;;;;;;;;;;;;;;;;;+                  +-;;;;;;;;;;;;;;;;$        ;;;;;;;;;;;;;;",
";;;;;;;;;;;;;;        @;;;;;;;;;;;;;;;;;;+                +;;;;;;;;;;;;;;;;;;@        ;;;;;;;;;;;;;;",
";;;;;;;;;;;;;;        @;;;;;;;;;;;;;;;;;;-X              X-;;;;;;;;;;;;;;;;;;@        ;;;;;;;;;;;;;;",
";;;;;;;;;;;;;;        $;;;;;;;;;;;;;;;;;;;*              *;;;;;;;;;;;;;;;;;;;$        ;;;;;;;;;;;;;;",
";;;;;;;;;;;;;;        @;;;;;;;;;;;;;;;;;;;;$            $;;;;;;;;;;;;;;;;;;;;@        ;;;;;;;;;;;;;;",
";;;;;;;;;;;;;;        @;;;;;;;;;;;;;;;;;;;;-.          X-;;;;;;;;;;;;;;;;;;;;$        ;;;;;;;;;;;;;;",
";;;;;;;;;;;;;;        @;;;;;;;;;;;;;;;;;;;;;$          %;;;;;;;;;;;;;;;;;;;;;@        ;;;;;;;;;;;;;;",
";;;;;;;;;;;;;;        @;;;;;;;;;;;;;;;;;;;;;-          -;;;;;;;;;;;;;;;;;;;;;$        ;;;;;;;;;;;;;;",
";;;;;;;;;;;;;;        @;;;;;;;;;;;;;;;;;;;;;;+        +;;;;;;;;;;;;;;;;;;;;;;@        ;;;;;;;;;;;;;;",
";;;;;;;;;;;;;;        @;;;;;;;;;;;;;;;;;;;;;;%        &;;;;;;;;;;;;;;;;;;;;;;$        ;;;;;;;;;;;;;;",
";;;;;;;;;;;;;;        @;;;;;;;;;;;;;;;;;;;;;;=        =;;;;;;;;;;;;;;;;;;;;;;$        ;;;;;;;;;;;;;;",
";;;;;;;;;;;;;;        @;;;;;;;;;;;;;;;;;;;;;;;.      .;;;;;;;;;;;;;;;;;;;;;;;@        ;;;;;;;;;;;;;;",
";;;;;;;;;;;;;;        $;;;;;;;;;;;;;;;;;;;;;;;o      o;;;;;;;;;;;;;;;;;;;;;;;@        ;;;;;;;;;;;;;;",
";;;;;;;;;;;;;;        @;;;;;;;;;;;;;;;;;;;;;;;O      O;;;;;;;;;;;;;;;;;;;;;;;$        ;;;;;;;;;;;;;;",
";;;;;;;;;;;;;;        @;;;;;;;;;;;;;;;;;;;;;;;+      +;;;;;;;;;;;;;;;;;;;;;;;@        ;;;;;;;;;;;;;;",
";;;;;;;;;;;;;;        @;;;;;;;;;;;;;;;;;;;;;;;+      O;;;;;;;;;;;;;;;;;;;;;;;$        ;;;;;;;;;;;;;;",
";;;;;;;;;;;;;;        @;;;;;;;;;;;;;;;;;;;;;;;O      O;;;;;;;;;;;;;;;;;;;;;;;$        ;;;;;;;;;;;;;;",
";;;;;;;;;;;;;;        @;;;;;;;;;;;;;;;;;;;;;;;X      o;;;;;;;;;;;;;;;;;;;;;;;@        ;;;;;;;;;;;;;;",
";;;;;;;;;;;;;;        $;;;;;;;;;;;;;;;;;;;;;;;.      .;;;;;;;;;;;;;;;;;;;;;;;@        ;;;;;;;;;;;;;;",
";;;;;;;;;;;;;;        @;;;;;;;;;;;;;;;;;;;;;;*        =;;;;;;;;;;;;;;;;;;;;;;$        ;;;;;;;;;;;;;;",
";;;;;;;;;;;;;;        @;;;;;;;;;;;;;;;;;;;;;;%        %;;;;;;;;;;;;;;;;;;;;;;@        ;;;;;;;;;;;;;;",
";;;;;;;;;;;;;;        @;;;;;;;;;;;;;;;;;;;;;;O        +;;;;;;;;;;;;;;;;;;;;;;$        ;;;;;;;;;;;;;;",
";;;;;;;;;;;;;;        @;;;;;;;;;;;;;;;;;;;;;-          -;;;;;;;;;;;;;;;;;;;;;@        ;;;;;;;;;;;;;;",
";;;;;;;;;;;;;;        @;;;;;;;;;;;;;;;;;;;;;%          %;;;;;;;;;;;;;;;;;;;;;$        ;;;;;;;;;;;;;;",
";;;;;;;;;;;;;;        $;;;;;;;;;;;;;;;;;;;;;.          .-;;;;;;;;;;;;;;;;;;;;@        ;;;;;;;;;;;;;;",
";;;;;;;;;;;;;;        @;;;;;;;;;;;;;;;;;;;;$            $;;;;;;;;;;;;;;;;;;;;$        ;;;;;;;;;;;;;;",
";;;;;;;;;;;;;;        @;;;;;;;;;;;;;;;;;;;=              -;;;;;;;;;;;;;;;;;;;$        ;;;;;;;;;;;;;;",
";;;;;;;;;;;;;;        @;;;;;;;;;;;;;;;;;;;X              o-;;;;;;;;;;;;;;;;;;@        ;;;;;;;;;;;;;;",
";;;;;;;;;;;;;;        @;;;;;;;;;;;;;;;;;;+                +;;;;;;;;;;;;;;;;;;@        ;;;;;;;;;;;;;;",
";;;;;;;;;;;;;;        @;;;;;;;;;;;;;;;;;+                  +;;;;;;;;;;;;;;;;;$        ;;;;;;;;;;;;;;",
";;;;;;;;;;;;;;        @;;;;;;;;;;;;;;;-o                    O-;;;;;;;;;;;;;;;@        ;;;;;;;;;;;;;;",
";;;;;;;;;;;;;;        @;;;;;;;;;;;;;;%.                      .%;;;;;;;;;;;;;;$        ;;;;;;;;;;;;;;",
";;;;;;;;;;;;;;        @;;;;;;;;;;;-%X                          X%-;;;;;;;;;;;$        ;;;;;;;;;;;;;;",
";;;;;;;;;;;;;;        O$$$$$$$$@+X                                o+@$$$$$$$$O        ;;;;;;;;;;;;;;",
";;;;;;;;;;;;;;                                                                        ;;;;;;;;;;;;;;",
";;;;;;;;;;;;;;                                                                        ;;;;;;;;;;;;;;",
";;;;;;;;;;;;;;                                                                        ;;;;;;;;;;;;;;",
";;;;;;;;;;;;;;                                                                        ;;;;;;;;;;;;;;",
";;;;;;;;;;;;;;                                                                        ;;;;;;;;;;;;;;",
";;;;;;;;;;;;;;                                                                        ;;;;;;;;;;;;;;"
};
