/* XPM */
static const char *const dolbydigital_576[] = {
/* columns rows colors chars-per-pixel */
"27 13 28 1 ",
"  c #000000",
". c #050505",
"X c #1C1C1C",
"o c #1D1D1D",
"O c #1F1F1F",
"+ c #222222",
"@ c #232323",
"# c #242424",
"$ c #252525",
"% c #404040",
"& c #4D4D4D",
"* c #555555",
"= c #6A6A6A",
"- c #6B6B6B",
"; c #6C6C6C",
": c #828282",
"> c #838383",
", c #959595",
"< c #979797",
"1 c #989898",
"2 c #999999",
"3 c #9A9A9A",
"4 c #C0C0C0",
"5 c #C1C1C1",
"6 c #FCFCFC",
"7 c #FDFDFD",
"8 c #FEFEFE",
"9 c #FFFFFF",
/* pixels */
"9999                   9999",
"9999  %*&O       O&*%  9999",
"9999  49971.   .38995  9999",
"9999  49999,   <99995  9999",
"9999  499996@ $799995  9999",
"9999  499999- ;999995  9999",
"9999  499999: >999995  9999",
"9999  499999= -999995  9999",
"9999  499996+ #799995  9999",
"9999  49999,   <99995  9999",
"9999  49971.   .27995  9999",
"9999  %*&X       o&*%  9999",
"9999                   9999"
};
