/* XPM */
static const char *const dolbydigital_2160[] = {
/* columns rows colors chars-per-pixel */
"100 50 25 1 ",
"  c #000000",
". c #030303",
"X c #040404",
"o c #0B0B0B",
"O c #161616",
"+ c #343434",
"@ c #2B2B2B",
"# c #464646",
"$ c #565656",
"% c #7F7F7F",
"& c #7A7A7A",
"* c #767676",
"= c #656565",
"- c #818181",
"; c #888888",
": c #8F8F8F",
"> c #9A9A9A",
", c #A1A1A1",
"< c #D6D6D6",
"1 c #FFFFFF",
"2 c #FEFEFE",
"3 c #FDFDFD",
"4 c #F9F9F9",
"5 c #F6F6F6",
"6 c #EAEAEA",
/* pixels */
"11111111111111                                                                        11111111111111",
"11111111111111                                                                        11111111111111",
"11111111111111                                                                        11111111111111",
"11111111111111                                                                        11111111111111",
"11111111111111                                                                        11111111111111",
"11111111111111                                                                        11111111111111",
"11111111111111        #;;;;;;;;&=+                               X+=&;;;;;;;;#        11111111111111",
"11111111111111        %111111111116>@                          @>611111111111-        11111111111111",
"11111111111111        %11111111111111>O                      O>11111111111111-        11111111111111",
"11111111111111        %1111111111111116+                    #6111111111111111-        11111111111111",
"11111111111111        %11111111111111114$                  $41111111111111111-        11111111111111",
"11111111111111        %111111111111111114$                $411111111111111111-        11111111111111",
"11111111111111        %1111111111111111115@              O5111111111111111111-        11111111111111",
"11111111111111        %1111111111111111111<X            X<1111111111111111111-        11111111111111",
"11111111111111        %11111111111111111111%            -11111111111111111111-        11111111111111",
"11111111111111        %111111111111111111115O          O511111111111111111111-        11111111111111",
"11111111111111        %111111111111111111111%          :111111111111111111111-        11111111111111",
"11111111111111        %1111111111111111111116o        o6111111111111111111111-        11111111111111",
"11111111111111        %1111111111111111111111#        $1111111111111111111111-        11111111111111",
"11111111111111        %1111111111111111111111,        ,1111111111111111111111-        11111111111111",
"11111111111111        %1111111111111111111111<        <1111111111111111111111-        11111111111111",
"11111111111111        %11111111111111111111111O      O11111111111111111111111-        11111111111111",
"11111111111111        %11111111111111111111111+      +11111111111111111111111-        11111111111111",
"11111111111111        %11111111111111111111111#      #11111111111111111111111-        11111111111111",
"11111111111111        %11111111111111111111111$      $11111111111111111111111-        11111111111111",
"11111111111111        %11111111111111111111111$      $11111111111111111111111-        11111111111111",
"11111111111111        %11111111111111111111111#      #11111111111111111111111-        11111111111111",
"11111111111111        %11111111111111111111111@      +11111111111111111111111-        11111111111111",
"11111111111111        %11111111111111111111111o      o11111111111111111111111-        11111111111111",
"11111111111111        %1111111111111111111111<        <1111111111111111111111-        11111111111111",
"11111111111111        %1111111111111111111111>        >1111111111111111111111-        11111111111111",
"11111111111111        %1111111111111111111111#        $1111111111111111111111-        11111111111111",
"11111111111111        %1111111111111111111116o        o5111111111111111111111-        11111111111111",
"11111111111111        %111111111111111111111;          :111111111111111111111-        11111111111111",
"11111111111111        %111111111111111111115O         XO511111111111111111111-        11111111111111",
"11111111111111        %11111111111111111111;            ;11111111111111111111-        11111111111111",
"11111111111111        %1111111111111111111<o            O<1111111111111111111%        11111111111111",
"11111111111111        %1111111111111111114+              @5111111111111111111%        11111111111111",
"11111111111111        %111111111111111111$                $111111111111111111-        11111111111111",
"11111111111111        %11111111111111114$                  $41111111111111111-        11111111111111",
"11111111111111        %1111111111111116+X                   #6111111111111111-        11111111111111",
"11111111111111        %11111111111111>O                      O>41111111111111-        11111111111111",
"11111111111111        %111111111116:@                          @>611111111111-        11111111111111",
"11111111111111        #;;;;;;;;*$@X                               +$*;;;;;;;;#        11111111111111",
"11111111111111                  X                                                     11111111111111",
"11111111111111                                                                        11111111111111",
"11111111111111                                                                        11111111111111",
"11111111111111                                                                        11111111111111",
"11111111111111                                                                        11111111111111",
"11111111111111                                                                        11111111111111"
};
