/* XPM */
static const char *const encrypted_720[] = {
/* columns rows colors chars-per-pixel */
"33 17 24 1 ",
"  c #000000",
". c #010101",
"X c #030303",
"o c #050505",
"O c #0E0E0E",
"+ c #171717",
"@ c #272727",
"# c #3B3B3B",
"$ c #474747",
"% c #545454",
"& c #767676",
"* c #898989",
"= c #9C9C9C",
"- c #ADADAD",
"; c #B7B7B7",
": c #CCCCCC",
"> c #C9C9C9",
", c #C7C7C7",
"< c #D5D5D5",
"1 c #FFFFFF",
"2 c #FEFEFE",
"3 c #FDFDFD",
"4 c #F4F4F4",
"5 c #E4E4E4",
/* pixels */
"111111111111111111111111111111111",
"111111111111111111111111111111111",
"111111111111111111111113111111111",
"111111111111111111111:%@ +%-11111",
"11111111111111111111&X      $4111",
"1111111111111111111&         #111",
"1114::::::::::::::;           =11",
"115#                     X@   #11",
"11@                      ;1=  O11",
"11:O       % OO          51;  O11",
"111<***5--,1:<5@         @&+  #11",
"1111111111111114OX$           =11",
"1111111111111111<51&         #111",
"11111111111111111111*       $4111",
"111111111111111111111:&@O+%-11111",
"111111111111111111111141111111111",
"111111111111111111111111111111111"
};
