/* XPM */
static const char *const encrypted_1080[] = {
/* columns rows colors chars-per-pixel */
"50 25 22 1 ",
"  c #000000",
". c #020202",
"X c #050505",
"o c #0B0B0B",
"O c #111111",
"+ c #191919",
"@ c #393939",
"# c #2A2A2A",
"$ c #464646",
"% c #575757",
"& c #777777",
"* c #686868",
"= c #888888",
"- c #979797",
"; c #ABABAB",
": c #C9C9C9",
"> c #D8D8D8",
", c #FFFFFF",
"< c #FDFDFD",
"1 c #F9F9F9",
"2 c #F3F3F3",
"3 c #E8E8E8",
/* pixels */
",,,,,,,,,,,,,,,,,,,,,,,,,,,,,,,,,,,,,,,,,,,,,,,,,,",
",,,,,,,,,,,,,,,,,,,,,,,,,,,,,,,,,,,,,,,,,,,,,,,,,,",
",,,,,,,,,,,,,,,,,,,,,,,,,,,,,,,,,,,,,,,,,,,,,,,,,,",
",,,,,,,,,,,,,,,,,,,,,,,,,,,,,,,,,:*@O +$=3,,,,,,,,",
",,,,,,,,,,,,,,,,,,,,,,,,,,,,,,,3%        o&,,,,,,,",
",,,,,,,,,,,,,,,,,,,,,,,,,,,,,,:O           @1,,,,,",
",,,,,,,,,,,,,,,,,,,,,,,,,,,,,:o             $1,,,,",
",,,,,,,,,,,,,,,,,,,,,,,,,,,,1#               &,,,,",
",,,,,,,,,,,,,,,,,,,,,,,,,,,,-                X3,,,",
",,,,1&OOOOOOOOOOOOOOOOOOOOOOX                 =,,,",
",,,2$                                  $%X    @,,,",
",,,#                                  -,,:X   +,,,",
",,,=                                 o,,,,@   X,,,",
",,,,&           O=o o#                3,,1+   +,,,",
",,,,,=##@+&>=*%*>,>*;1%               @::%    $,,,",
",,,,,,,,,,,,,,,,,,,,,,,=X                     =,,,",
",,,,,,,,,,,,,,,,,,,,,,,,%  O$                o3,,,",
",,,,,,,,,,,,,,,,,,,,,,,,;*=31#               &,,,,",
",,,,,,,,,,,,,,,,,,,,,,,,,,,,,:o             @,,,,,",
",,,,,,,,,,,,,,,,,,,,,,,,,,,,,,:O           $3,,,,,",
",,,,,,,,,,,,,,,,,,,,,,,,,,,,,,,>$X       o=1,,,,,,",
",,,,,,,,,,,,,,,,,,,,,,,,,,,,,,,,,:&#o +$=3,,,,,,,,",
",,,,,,,,,,,,,,,,,,,,,,,,,,,,,,,,,,,,,,,,,,,,,,,,,,",
",,,,,,,,,,,,,,,,,,,,,,,,,,,,,,,,,,,,,,,,,,,,,,,,,,",
",,,,,,,,,,,,,,,,,,,,,,,,,,,,,,,,,,,,,,,,,,,,,,,,,,"
};
