/* XPM */
static const char *const encrypted_2160[] = {
/* columns rows colors chars-per-pixel */
"100 50 24 1 ",
"  c #000000",
". c #010101",
"X c #030303",
"o c #060606",
"O c #0C0C0C",
"+ c #161616",
"@ c #272727",
"# c #333333",
"$ c #363636",
"% c #3B3B3B",
"& c #464646",
"* c #585858",
"= c #707070",
"- c #909090",
"; c #A8A8A8",
": c #B6B6B6",
"> c #C6C6C6",
", c #D7D7D7",
"< c #E8E8E8",
"1 c #FFFFFF",
"2 c #FEFEFE",
"3 c #FDFDFD",
"4 c #FAFAFA",
"5 c #F4F4F4",
/* pixels */
"1111111111111111111111111111111111111111111111111111111111111111111111111111111111111111111111111111",
"1111111111111111111111111111111111111111111111111111111111111111111111111111111111111111111111111111",
"1111111111111111111111111111111111111111111111111111111111111111111111111111111111111111111111111111",
"1111111111111111111111111111111111111111111111111111111111111111111111111111111111111111111111111111",
"1111111111111111111111111111111111111111111111111111111111111111111111111111111111111111111111111111",
"1111111111111111111111111111111111111111111111111111111111111111111111111111111111111111111111111111",
"1111111111111111111111111111111111111111111111111111111111111111111111111111111111111111111111111111",
"1111111111111111111111111111111111111111111111111111111111111111111111111111111111111111111111111111",
"111111111111111111111111111111111111111111111111111111111111111111111<;=&&##&=->11111111111111111111",
"111111111111111111111111111111111111111111111111111111111111111111<-@...........O=>11111111111111111",
"11111111111111111111111111111111111111111111111111111111111111115=o................&>111111111111111",
"111111111111111111111111111111111111111111111111111111111111111;+....................=51111111111111",
"11111111111111111111111111111111111111111111111111111111111111=.......................@,111111111111",
"1111111111111111111111111111111111111111111111111111111111114&.........................+,11111111111",
"111111111111111111111111111111111111111111111111111111111114&...........................O,4111111111",
"11111111111111111111111111111111111111111111111111111111111=.............................@<111111111",
"1111111111111111111111111111111111111111111111111111111111:...............................*111111111",
"111111111111111111111111111111111111111111111111111111111<+................................;11111111",
"111111111111111111111111111111111111111111111111111111111=o................................@41111111",
"11111111111111111111111111111111111111111111111111111111<Oo.................................;1111111",
"11111111111-&&&&&&&&&&$#################################@...................................$1111111",
"1111111114=.................................................................................o,111111",
"11111111<&...................................................................................-111111",
"1111111,@.....................................................................*;;=+..........*111111",
"111111:+....................................................................+:1111<$.........#111111",
"111111O.....................................................................;111111<o........+111111",
"111111-o...................................................................O51111111*........o111111",
"1111111=...................................................................#11111111=........o111111",
"11111111=.........................+o.......................................+11111111*........+111111",
"111111115=.......................%<,@...o+-o................................:111111<+o.......@111111",
"1111111114*......o...+=>*..@@...*5115=...:1>+...............................+<11115&.........*111111",
"11111111111-*@@*=%o*:4111>*<,*;<111141;;<111<&...............................+=>>-@..........-111111",
"1111111111111111115111111111111111111111111114=..............................................,111111",
"11111111111111111111111111111111111111111111111;o...........................................@1111111",
"111111111111111111111111111111111111111111111111-..........................................o-1111111",
"111111111111111111111111111111111111111111111111:......#;*.................................+51111111",
"111111111111111111111111111111111111111111111111<.o..%:14<o................................-11111111",
"1111111111111111111111111111111111111111111111111;:,<11111-...............................&111111111",
"11111111111111111111111111111111111111111111111111111111111&.............................+<111111111",
"11111111111111111111111111111111111111111111111111111111111<@...........................o>1111111111",
"111111111111111111111111111111111111111111111111111111111111<@.........................O>11111111111",
"1111111111111111111111111111111111111111111111111111111111114<&.......................+>111111111111",
"111111111111111111111111111111111111111111111111111111111111114-o....................*<1111111111111",
"1111111111111111111111111111111111111111111111111111111111111145,&.................@;111111111111111",
"111111111111111111111111111111111111111111111111111111111111111111,*O............%:11111111111111111",
"111111111111111111111111111111111111111111111111111111111111111111114>=&@+O++&=;<1111111111111111111",
"1111111111111111111111111111111111111111111111111111111111111111111111111111111111111111111111111111",
"1111111111111111111111111111111111111111111111111111111111111111111111111111111111111111111111111111",
"1111111111111111111111111111111111111111111111111111111111111111111111111111111111111111111111111111",
"1111111111111111111111111111111111111111111111111111111111111111111111111111111111111111111111111111"
};
