/* XPM */
static const char *const encrypted_576[] = {
/* columns rows colors chars-per-pixel */
"27 13 19 1 ",
"  c #000000",
". c #010101",
"X c #060606",
"o c #0D0D0D",
"O c #181818",
"+ c #242424",
"@ c #393939",
"# c #4A4A4A",
"$ c #555555",
"% c #676767",
"& c #747474",
"* c #898989",
"= c #B8B8B8",
"- c #A4A4A4",
"; c #DDDDDD",
": c #C5C5C5",
"> c #E2E2E2",
", c #FFFFFF",
"< c #F8F8F8",
/* pixels */
",,,,,,,,,,,,,,,,,,,,,,,,,,,",
",,,,,,,,,,,,,,,,,>%OOO%>,,,",
",,,,,,,,,,,,,,,,=o.....o=,,",
",,,,,,,,,,,,,,,;O.......o>,",
",,=************#.........%,",
",*...................$&.XO,",
",#..................O,,@.o,",
",<$++%$#&:#-o.......X-=o.O,",
",,,,,,,,,,,,;o.o.........%,",
",,,,,,,,,,,,,-=;o.......o;,",
",,,,,,,,,,,,,,<,=O.....o=,,",
",,,,,,,,,,,,,,,,,;&+o+%;,,,",
",,,,,,,,,,,,,,,,,,,,,,,,,,,"
};
