/* XPM */
static const char *const encrypted[] = {
/* columns rows colors chars-per-pixel */
"100 50 16 1 ",
"  c #000000",
". c #161616",
"X c #272727",
"o c #343434",
"O c #464646",
"+ c #585858",
"@ c #686868",
"# c #797979",
"$ c #959595",
"% c #8A8A8A",
"& c #A8A8A8",
"* c #B6B6B6",
"= c #C6C6C6",
"- c #D7D7D7",
"; c #E8E8E8",
": c #FFFFFF",
/* pixels */
"::::::::::::::::::::::::::::::::::::::::::::::::::::::::::::::::::::::::::::::::::::::::::::::::::::",
"::::::::::::::::::::::::::::::::::::::::::::::::::::::::::::::::::::::::::::::::::::::::::::::::::::",
"::::::::::::::::::::::::::::::::::::::::::::::::::::::::::::::::::::::::::::::::::::::::::::::::::::",
"::::::::::::::::::::::::::::::::::::::::::::::::::::::::::::::::::::::::::::::::::::::::::::::::::::",
"::::::::::::::::::::::::::::::::::::::::::::::::::::::::::::::::::::::::::::::::::::::::::::::::::::",
"::::::::::::::::::::::::::::::::::::::::::::::::::::::::::::::::::::::::::::::::::::::::::::::::::::",
"::::::::::::::::::::::::::::::::::::::::::::::::::::::::::::::::::::::::::::::::::::::::::::::::::::",
"::::::::::::::::::::::::::::::::::::::::::::::::::::::::::::::::::::::::::::::::::::::::::::::::::::",
":::::::::::::::::::::::::::::::::::::::::::::::::::::::::::::::::::::;*#OOoo+@%=::::::::::::::::::::",
"::::::::::::::::::::::::::::::::::::::::::::::::::::::::::::::::::;$X           .@=:::::::::::::::::",
":::::::::::::::::::::::::::::::::::::::::::::::::::::::::::::::::#                 O=:::::::::::::::",
":::::::::::::::::::::::::::::::::::::::::::::::::::::::::::::::&.                    @::::::::::::::",
"::::::::::::::::::::::::::::::::::::::::::::::::::::::::::::::@                       X-::::::::::::",
":::::::::::::::::::::::::::::::::::::::::::::::::::::::::::::O                         .=:::::::::::",
"::::::::::::::::::::::::::::::::::::::::::::::::::::::::::::O                           .-::::::::::",
":::::::::::::::::::::::::::::::::::::::::::::::::::::::::::@                             X;:::::::::",
"::::::::::::::::::::::::::::::::::::::::::::::::::::::::::*                               +:::::::::",
":::::::::::::::::::::::::::::::::::::::::::::::::::::::::;.                                &::::::::",
":::::::::::::::::::::::::::::::::::::::::::::::::::::::::#                                 X::::::::",
"::::::::::::::::::::::::::::::::::::::::::::::::::::::::;.                                  &:::::::",
":::::::::::$OOOOOOOOOOooooooooooooooooooooooooooooooooooX                                   o:::::::",
"::::::::::@                                                                                  -::::::",
"::::::::;O                                                                                   $::::::",
":::::::-X                                                                     +&&#.          +::::::",
"::::::*.                                                                    .=::::;o         o::::::",
"::::::.                                                                     $::::::;         .::::::",
"::::::%                                                                    .::::::::+         ::::::",
":::::::#                                                                   X::::::::#         ::::::",
"::::::::@                         ..                                       .::::::::@        .::::::",
":::::::::@                       o;-X    .$                                 *::::::;.        o::::::",
"::::::::::@          .#=+  XX   +;::;@   *:=.                               X-::::;O         +::::::",
":::::::::::%+XX+#o +*::::=+;-@&;::::::*&;:::;O                                #==$X          %::::::",
"::::::::::::::::::::::::::::::::::::::::::::::@                                              -::::::",
":::::::::::::::::::::::::::::::::::::::::::::::&                                            X:::::::",
"::::::::::::::::::::::::::::::::::::::::::::::::$                                           $:::::::",
"::::::::::::::::::::::::::::::::::::::::::::::::*      o&+                                 .;:::::::",
"::::::::::::::::::::::::::::::::::::::::::::::::;    o*::;                                 $::::::::",
":::::::::::::::::::::::::::::::::::::::::::::::::**-;:::::$                               O:::::::::",
":::::::::::::::::::::::::::::::::::::::::::::::::::::::::::O                             .;:::::::::",
":::::::::::::::::::::::::::::::::::::::::::::::::::::::::::;X                            =::::::::::",
"::::::::::::::::::::::::::::::::::::::::::::::::::::::::::::-o                         .*:::::::::::",
":::::::::::::::::::::::::::::::::::::::::::::::::::::::::::::;O                       .=::::::::::::",
":::::::::::::::::::::::::::::::::::::::::::::::::::::::::::::::#.                    +;:::::::::::::",
"::::::::::::::::::::::::::::::::::::::::::::::::::::::::::::::::-O                 X&:::::::::::::::",
"::::::::::::::::::::::::::::::::::::::::::::::::::::::::::::::::::=+.            O*:::::::::::::::::",
":::::::::::::::::::::::::::::::::::::::::::::::::::::::::::::::::::::*#OX....O@&;:::::::::::::::::::",
"::::::::::::::::::::::::::::::::::::::::::::::::::::::::::::::::::::::::::::::::::::::::::::::::::::",
"::::::::::::::::::::::::::::::::::::::::::::::::::::::::::::::::::::::::::::::::::::::::::::::::::::",
"::::::::::::::::::::::::::::::::::::::::::::::::::::::::::::::::::::::::::::::::::::::::::::::::::::",
"::::::::::::::::::::::::::::::::::::::::::::::::::::::::::::::::::::::::::::::::::::::::::::::::::::"
};
