/* XPM */
static const char *const error_720[] = {
/* columns rows colors chars-per-pixel */
"24 30 25 1 ",
"  c #000000",
". c #010101",
"X c #030303",
"o c #050505",
"O c #0C0C0C",
"+ c #171717",
"@ c #272727",
"# c #323232",
"$ c #535353",
"% c #7D7D7D",
"& c #767676",
"* c #696969",
"= c #878787",
"- c #959595",
"; c #A7A7A7",
": c #BABABA",
"> c #DADADA",
", c #CACACA",
"< c #EDEDED",
"1 c #E1E1E1",
"2 c #FFFFFF",
"3 c #FEFEFE",
"4 c #FDFDFD",
"5 c #F9F9F9",
"6 c #F4F4F4",
/* pixels */
"222222222222222222222222",
"222222222222222222222222",
"222222222222222222222222",
"2222222222,@#>2222222222",
"2222222222#  #5222222222",
"222222222;    ;222222222",
"222222225@    @522222222",
"22222222-  oo  -22222222",
"22222225@  *$  @62222222",
"2222222-  o>1o  -2222222",
"222222<+  *>>*  +<222222",
"222222=  o; o;o  =222222",
"22222<+  &=  =&  +<22222",
"22222%  o<%  %<O  %22222",
"2222<O  =2=  %2%  o<2222",
"2222*  +<2%  %26+  *2222",
"222>o  =22%  %22=  o>222",
"222*  +522-  -222+  *222",
"22>o  -2221@@>222-  o>22",
"22$  @52222,,22225@  $22",
"2,o  ;2222:  :2222;   ,2",
"2$  @22222;  ;22225#  $2",
",   ;222222;;222222;   ,",
"$                      $",
"+                      O",
"=                     O-",
"25<<<<<<<<<<<<<<<<<<<<52",
"222222222222222222222222",
"222222222222222222222222",
"222222222222222222222222"
};
