/* XPM */
static const char *const error_576[] = {
/* columns rows colors chars-per-pixel */
"20 24 23 1 ",
"  c #000000",
". c #010101",
"X c #020202",
"o c #060606",
"O c #0B0B0B",
"+ c #171717",
"@ c #262626",
"# c #343434",
"$ c #454545",
"% c #5B5B5B",
"& c #6E6E6E",
"* c #909090",
"= c #BDBDBD",
"- c #AAAAAA",
"; c #CBCBCB",
": c #C2C2C2",
"> c #D8D8D8",
", c #E9E9E9",
"< c #FFFFFF",
"1 c #FEFEFE",
"2 c #FDFDFD",
"3 c #FAFAFA",
"4 c #F4F4F4",
/* pixels */
"<<<<<<<<<<<<<<<<<<<<",
"<<<<<<<<<<<<<<<<<<<<",
"<<<<<<<<,#$,<<<<<<<<",
"<<<<<<<<%XX%<<<<<<<<",
"<<<<<<<>XXXX;<<<<<<<",
"<<<<<<<$XXXX$<<<<<<<",
"<<<<<<:XX$$XX=<<<<<<",
"<<<<<<#XX>>XX#<<<<<<",
"<<<<<-XX%&&%XX-<<<<<",
"<<<<<@Xo=Xo=oX@2<<<<",
"<<<<*oX&:XX;&XX*<<<<",
"<<<<+XO,;XX:,OX@4<<<",
"<<<*XX*<;XX;<*XX*<<<",
"<<4OX+,2;XX;<4+XO4<<",
"<<&XX*<<4++4<<*XX&<<",
"<,OX+2<<<==<<<4@Xo,<",
"<%XX-<<<>oX><<<-XX%<",
">oX@2<<<2#$4<<<2@XX>",
"%XX@$$$$$$$$$$$$@XX%",
"+XXXXXXXXXXXXXXXXXX+",
"*######@##@########-",
"<<<<2<<<<<<<<<<<<<<<",
"<<<<<<<<<<<<<<<<<<<<",
"<<<<<<<<<<<<<<<<<<<<"
};
