/* XPM */
static const char *const error_2160[] = {
/* columns rows colors chars-per-pixel */
"66 84 24 1 ",
"  c #000000",
". c #010101",
"X c #020202",
"o c #050505",
"O c #0C0C0C",
"+ c #141414",
"@ c #272727",
"# c #393939",
"$ c #555555",
"% c #5C5C5C",
"& c #474747",
"* c #676767",
"= c #787878",
"- c #898989",
"; c #979797",
": c #B0B0B0",
"> c #D9D9D9",
", c #C8C8C8",
"< c #E7E7E7",
"1 c #FFFFFF",
"2 c #FEFEFE",
"3 c #FCFCFC",
"4 c #FAFAFA",
"5 c #F4F4F4",
/* pixels */
"111111111111111111111111111111111111111111111111111111111111111111",
"111111111111111111111111111111111111111111111111111111111111111111",
"111111111111111111111111111111111111111111111111111111111111111111",
"111111111111111111111111111111111111111111111111111111111111111111",
"111111111111111111111111111111111111111111111111111111111111111111",
"111111111111111111111111111111111111111111111111111111111111111111",
"111111111111111111111111111111111111111111111111111111111111111111",
"111111111111111111111111111111111111111111111111111111111111111111",
"1111111111111111111111111111113:=*;3111111111111111111111111111111",
"11111111111111111111111111111>@    @<31111111111111111111111111111",
"11111111111111111111111111114@      #41111111111111111111111111111",
"1111111111111111111111111111-        -1111111111111111111111111111",
"1111111111111111111111111115+        +5111111111111111111111111111",
"111111111111111111111111111-         o-111111111111111111111111111",
"11111111111111111111111111<+          +411111111111111111111111111",
"11111111111111111111111111=            =11111111111111111111111111",
"1111111111111111111111111<+            O<1111111111111111111111111",
"1111111111111111111111111=              =1111111111111111111111111",
"111111111111111111111111<O              O<111111111111111111111111",
"111111111111111111111111=                =111111111111111111111111",
"11111111111111111111111<O                O<31111111111111111111111",
"11111111111111111111111*        o         *11111111111111111111111",
"1111111111111111111111<o        %%        o>1111111111111111111111",
"1111111111111111111111*         >>o        *1111111111111111111111",
"111111111111111111111>O        *11*        o>111111111111111111111",
"111111111111111111111%        o>11>o        *111111111111111111111",
"11111111111111111111>o        *1111*         >11111111111111111111",
"11111111111111111111$        o<1111<O        $11111111111111111111",
"1111111111111111111>         *111111*         >1111111111111111111",
"1111111111111111111$        O<111111<O        &1111111111111111111",
"111111111111111111,         =1>$O+$>1=         ,111111111111111111",
"111111111111111111&        O<>O    O><O        &111111111111111111",
"11111111111111111,         =1$      $1=         ,11111111111111111",
"11111111111111111&        +<1+      +1<+        &11111111111111111",
"1111111111111111,         -31        11-        o:1111111111111111",
"1111111111111111#        +511        115+       o#1111111111111111",
"111111111111111:         -111        111-         :111111111111111",
"111111111111111#        +5111        1113+        #111111111111111",
"11111111111111:         -1111        1111-         :11111111111111",
"11111111111111#        +31111        11111+        #11111111111111",
"1111111111111:         ;11111        11111;         :1111111111111",
"1111111111111@        +311111        111114@        @1111111111111",
"111111111111:         ;111111        111113;         :111111111111",
"111111111111@        @1111111        1111111@        +311111111111",
"11111111111;         ;1111111        1111111;o        ;11111111111",
"11111111113+        @31111111        11111111@        @11111111111",
"1111111111;         :11111111        11111111:         ;1111111111",
"1111111134@        @311111111        111111111@        +3111111111",
"111111111-         :111111111        111111111:         ;111111111",
"111111111+        #1111111111O      +1111111111#        +511111111",
"11111111-         :1111111111$      $1111111111:         -11111111",
"11111114+        #11111111111>O    O>11111111111&        +51111111",
"1111111-         :111111111111>$+O$>111111111111:o        -1111111",
"111111<+        #31111111111111111111111111111111&        O5111111",
"111111-         ,31111111111111311111111111111111,         =111111",
"11111<O        &11111111111111<$OO$>11111111111111&        +<11111",
"11111=         ,1111111111113<+    +<1111111111111,         =11111",
"1111<O        &11111111111111$      $31111111111111&        O<1111",
"1111=         >11111111111111O      O11111111111111>         =1111",
"111<O        $111111111111111O      O111111111111111$        o<111",
"111*         >311111111111111&      $111111111111111>         *111",
"11<o        %1111111111111111>+    +<1111111111111111%        O>11",
"11*         >11111111111111111<$OO$<11111111111111111>o        *11",
"1>o        %111111111111111111111111111111111111111113*        o>1",
"1%         #$%$$$$$$$$$$%$$$$$$$$$$$$$$$$$%$$$$$$$$$$$&         %1",
">o                                                               >",
"*                                                                =",
"@                                                                +",
"o                                                                O",
"@                                                                @",
"-                                                                -",
"3$                                                              &3",
"33-@O                                                        O#;31",
"111111111111111111111111111111111111111111111111111111111111111131",
"111111111111111111111111111111111111111111111111111111111111111111",
"111111111111111111111111111111111111111111111111111111111111111111",
"111111111111111111111111111111111111111111111111111111111111111111",
"111111111111111111111111111111111111111111111111111111111111111111",
"111111111111111111111111111111111111111111111111111111111111111111",
"111111111111111111111111111111111111111111111111111111111111111111",
"111111111111111111111111111111111111111111111111111111111111111111",
"111111111111111111111111111111111111111111111111111111111111111111",
"111111111111111111111111111111111111111111111111111111111111111111",
"111111111111111111111111111111111111111111111111111111111111111111"
};
