/* XPM */
static const char *const error_1080[] = {
/* columns rows colors chars-per-pixel */
"34 43 25 1 ",
"  c #000000",
". c #010101",
"X c #020202",
"o c #060606",
"O c #0D0D0D",
"+ c #191919",
"@ c #282828",
"# c #383838",
"$ c #4F4F4F",
"% c #7A7A7A",
"& c #676767",
"* c #999999",
"= c #949494",
"- c #868686",
"; c #AFAFAF",
": c #C9C9C9",
"> c #D8D8D8",
", c #EEEEEE",
"< c #EAEAEA",
"1 c #E4E4E4",
"2 c #FFFFFF",
"3 c #FEFEFE",
"4 c #FCFCFC",
"5 c #FAFAFA",
"6 c #F4F4F4",
/* pixels */
"2222222222222222222222222222222222",
"2222222222222222222222222222222222",
"2222222222222222222222222222222222",
"2222222222222222222222222222222222",
"222222222222222:&$>422222222222222",
"222222222222221+XX+122222222222222",
"22222222222222&    &22222222222222",
"2222222222222>X    X>2222222222222",
"2222222222222&      $4222222222222",
"222222222222>X      X>222222222222",
"222222222222$        $222222222222",
"22222222222:X   @@  XX:22222222222",
"22222222222$    ;;    $42222222222",
"2222222222:   X#22#    :2222222222",
"2222222224$    ;22;X   $2222222222",
"222222222:    #<%%1$   X;222222222",
"222222222#    :@  @:    #222222222",
"22222222;    $<+  +<$   X;22222222",
"22222222#    :,    ,:    #22222222",
"2222222;    $2,    ,2$    ;2222222",
"2222222@   X:2,    ,2>X   @2222222",
"222222*   X$22,   X,22$   X*222222",
"222222@   o>22,    ,22>    @422222",
"22222*    &222,    ,222&    *22222",
"22224@   X>222<    <222>o   @52222",
"2222=    &22224O  O42222&    =2222",
"2224+   o122222-Xo-222221oX  +5422",
"222-    &2222222442222222&    -222",
"22,+   o1222222:$$:4222221o   +,22",
"22-    %2222222+  +4222222%    -22",
"2,+   O<2222224X  X2222222<+   +<2",
"2%    %22222222%  %22222222%    %2",
"<O   O1<,<,,,,,,::,,,,,,,,,1+   O1",
"%                                %",
"#                                +",
"@                                +",
"*oXXX                         XXO;",
"2>******************************52",
"2222222222222222222222222222222222",
"2222222222222222222222222222222222",
"2222222222222222222222222222222222",
"2222222222222222222222222222222222",
"2222222222222222222222222222222222"
};
