/* XPM */
static const char *const ffwd4[] = {
/* columns rows colors chars-per-pixel */
"112 84 53 1 ",
"  c #000000",
". c #141414",
"X c #1B1B1B",
"o c #252525",
"O c #292929",
"+ c #323232",
"@ c #3A3A3A",
"# c #424242",
"$ c #454545",
"% c #484848",
"& c #4B4B4B",
"* c #535353",
"= c #595959",
"- c #5E5E5E",
"; c #636363",
": c #656565",
"> c #696969",
", c #6E6E6E",
"< c #707070",
"1 c #747474",
"2 c #787878",
"3 c #7E7E7E",
"4 c #828282",
"5 c #848484",
"6 c #8B8B8B",
"7 c #929292",
"8 c #969696",
"9 c #999999",
"0 c #9C9C9C",
"q c #A2A2A2",
"w c #A5A5A5",
"e c #A9A9A9",
"r c #ACACAC",
"t c #B1B1B1",
"y c #B6B6B6",
"u c #B9B9B9",
"i c #BEBEBE",
"p c #C2C2C2",
"a c #C5C5C5",
"s c #C9C9C9",
"d c #CFCFCF",
"f c #D1D1D1",
"g c #D7D7D7",
"h c #DBDBDB",
"j c #DFDFDF",
"k c #E1E1E1",
"l c #E7E7E7",
"z c #E8E8E8",
"x c #EFEFEF",
"c c #F1F1F1",
"v c #F6F6F6",
"b c #F9F9F9",
"n c #FFFFFF",
/* pixels */
"nnnnnnnnnnnnnnnnnnnnnnnnnnnnnnnnnnnnnnnnnnnnnnnnnnnnnnnnnnnnnnnnnnnnnnnnnnnnnnnnnnnnnnnnnnnnnnnnnnnnnnnnnnnnnnnn",
"nnnnnnnnnnnnnnnnnnnnnnnnnnnnnnnnnnnnnnnnnnnnnnnnnnnnnnnnnnnnnnnnnnnnnnnnnnnnnnnnnnnnnnnnnnnnnnnnnnnnnnnnnnnnnnnn",
"nnnnnnnnnnnnnnnnnnnnnnnnnnnnnnnnnnnnnnnnnnnnnnnnnnnnnnnnnnnnnnnnnnnnnnnnnnnnnnnnnnnnnnnnnnnnnnnnnnnnnnnnnnnnnnnn",
"nnnnnnnnnnnnnnnnnnnnnnnnnnnnnnnnnnnnnnnnnnnnnnnnnnnnnnnnnnnnnnnnnnnnnnnnnnnnnnnnnnnnnnnnnnnnnnnnnnnnnnnnnnnnnnnn",
"nnnnnnnnnnnnnnnnnnnnnnnnnnnnnnnnnnnnnnnnnnnnnnnnnnnnnnnnnnnnnnnnnnnnnnnnnnnnnnnnnnnnnnnnnnnnnnnnnnnnnnnnnnnnnnnn",
"nnnnnnnnn                     snnnnnnnnnnnnn                     snnnnnnnnnnnnnnnnnnnnnnnnnnnnnnnnnnnnnnnnnnnnnn",
"nnnnnnnnnz                     0nnnnnnnnnnnnl                     9nnnnnnnnnnnnnnnnnnnnnnnnnnnnnnnnnnnnnnnnnnnnn",
"nnnnnnnnnnb3                    =vnnnnnnnnnnnb<                    =vnnnnnnnnnnnnnnnnnnnnnnnnnnnnnnnnnnnnnnnnnnn",
"nnnnnnnnnnnnu                     knnnnnnnnnnnne                     knnnnnnnnnnnnnnnnnnnnnnnnnnnnnnnnnnnnnnnnnn",
"nnnnnnnnnnnnnj                     innnnnnnnnnnng                     innnnnnnnnnnnnnnnnnnnnnnnnnnnnnnnnnnnnnnnn",
"nnnnnnnnnnnnnnv:                    6bnnnnnnnnnnnxO                    6bnnnnnnnnnnnnnnnnnnnnnnnnnnnnnnnnnnnnnnn",
"nnnnnnnnnnnnnnnne                    @cnnnnnnnnnnnb5                    @cnnnnnnnnnnnnnnnnnnnnnnnnnnnnnnnnnnnnnn",
"nnnnnnnnnnnnnnnnng                     gnnnnnnnnnnnny                     gnnnnnnnnnnnnnnnnnnnnnnnnnnnnnnnnnnnnn",
"nnnnnnnnnnnnnnnnnnx$                    tnnnnnnnnnnnnj                     tnnnnnnnnnnnnnnnnnnnnnnnnnnnnnnnnnnnn",
"nnnnnnnnnnnnnnnnnnnn9                    2bnnnnnnnnnnnc&                    2bnnnnnnnnnnnnnnnnnnnnnnnnnnnnnnnnnn",
"nnnnnnnnnnnnnnnnnnnnns                     znnnnnnnnnnnn8                     znnnnnnnnnnnnnnnnnnnnnnnnnnnnnnnnn",
"nnnnnnnnnnnnnnnnnnnnnnz                     dnnnnnnnnnnnna                     dnnnnnnnnnnnnnnnnnnnnnnnnnnnnnnnn",
"nnnnnnnnnnnnnnnnnnnnnnnb4                    qnnnnnnnnnnnnl                     qnnnnnnnnnnnnnnnnnnnnnnnnnnnnnnn",
"nnnnnnnnnnnnnnnnnnnnnnnnnu                    ;vnnnnnnnnnnnv:                    ;vnnnnnnnnnnnnnnnnnnnnnnnnnnnnn",
"nnnnnnnnnnnnnnnnnnnnnnnnnnk                     knnnnnnnnnnnnw                     knnnnnnnnnnnnnnnnnnnnnnnnnnnn",
"nnnnnnnnnnnnnnnnnnnnnnnnnnnv>                    pnnnnnnnnnnnnd                     pnnnnnnnnnnnnnnnnnnnnnnnnnnn",
"nnnnnnnnnnnnnnnnnnnnnnnnnnnnnr                    7nnnnnnnnnnnnz                     7nnnnnnnnnnnnnnnnnnnnnnnnnn",
"nnnnnnnnnnnnnnnnnnnnnnnnnnnnnng                    &xnnnnnnnnnnnb3                    &cnnnnnnnnnnnnnnnnnnnnnnnn",
"nnnnnnnnnnnnnnnnnnnnnnnnnnnnnnnc&                    hnnnnnnnnnnnnt                     hnnnnnnnnnnnnnnnnnnnnnnn",
"nnnnnnnnnnnnnnnnnnnnnnnnnnnnnnnnn8                    ynnnnnnnnnnnnh                     ynnnnnnnnnnnnnnnnnnnnnn",
"nnnnnnnnnnnnnnnnnnnnnnnnnnnnnnnnnnd                    4bnnnnnnnnnnnc#                    4bnnnnnnnnnnnnnnnnnnnn",
"nnnnnnnnnnnnnnnnnnnnnnnnnnnnnnnnnnnz.                   Xxnnnnnnnnnnnn6                    Xxnnnnnnnnnnnnnnnnnnn",
"nnnnnnnnnnnnnnnnnnnnnnnnnnnnnnnnnnnnb5                    fnnnnnnnnnnnnp                     fnnnnnnnnnnnnnnnnnn",
"nnnnnnnnnnnnnnnnnnnnnnnnnnnnnnnnnnnnnni                    ennnnnnnnnnnnk                     wnnnnnnnnnnnnnnnnn",
"nnnnnnnnnnnnnnnnnnnnnnnnnnnnnnnnnnnnnnnk                    >bnnnnnnnnnnnv-                    ,vnnnnnnnnnnnnnnn",
"nnnnnnnnnnnnnnnnnnnnnnnnnnnnnnnnnnnnnnnnv,                    lnnnnnnnnnnnn0                     lnnnnnnnnnnnnnn",
"nnnnnnnnnnnnnnnnnnnnnnnnnnnnnnnnnnnnnnnnnnr                    annnnnnnnnnnns                     annnnnnnnnnnnn",
"nnnnnnnnnnnnnnnnnnnnnnnnnnnnnnnnnnnnnnnnnnng                    9nnnnnnnnnnnnz                     9nnnnnnnnnnnn",
"nnnnnnnnnnnnnnnnnnnnnnnnnnnnnnnnnnnnnnnnnnnnc*                   *cnnnnnnnnnnnb1                    *cnnnnnnnnnn",
"nnnnnnnnnnnnnnnnnnnnnnnnnnnnnnnnnnnnnnnnnnnnnn9                    jnnnnnnnnnnnnr                     jnnnnnnnnn",
"nnnnnnnnnnnnnnnnnnnnnnnnnnnnnnnnnnnnnnnnnnnnnnnd                    unnnnnnnnnnnng                     innnnnnnn",
"nnnnnnnnnnnnnnnnnnnnnnnnnnnnnnnnnnnnnnnnnnnnnnnnxo                   6nnnnnnnnnnnnx+                    6nnnnnnn",
"nnnnnnnnnnnnnnnnnnnnnnnnnnnnnnnnnnnnnnnnnnnnnnnnzo                   5nnnnnnnnnnnnx+                    5nnnnnnn",
"nnnnnnnnnnnnnnnnnnnnnnnnnnnnnnnnnnnnnnnnnnnnnnnd                    unnnnnnnnnnnng                     unnnnnnnn",
"nnnnnnnnnnnnnnnnnnnnnnnnnnnnnnnnnnnnnnnnnnnnnn0                    jnnnnnnnnnnnnr                     jnnnnnnnnn",
"nnnnnnnnnnnnnnnnnnnnnnnnnnnnnnnnnnnnnnnnnnnnc*                   *vnnnnnnnnnnnb1                    =cnnnnnnnnnn",
"nnnnnnnnnnnnnnnnnnnnnnnnnnnnnnnnnnnnnnnnnnnh                    9bnnnnnnnnnnnz                     9bnnnnnnnnnnn",
"nnnnnnnnnnnnnnnnnnnnnnnnnnnnnnnnnnnnnnnnnnr                    snnnnnnnnnnnns                     annnnnnnnnnnnn",
"nnnnnnnnnnnnnnnnnnnnnnnnnnnnnnnnnnnnnnnnv,                    lnnnnnnnnnnnnq                     lnnnnnnnnnnnnnn",
"nnnnnnnnnnnnnnnnnnnnnnnnnnnnnnnnnnnnnnnk                    ,vnnnnnnnnnnnv-                    ,vnnnnnnnnnnnnnnn",
"nnnnnnnnnnnnnnnnnnnnnnnnnnnnnnnnnnnnnni                    wnnnnnnnnnnnnk                     wnnnnnnnnnnnnnnnnn",
"nnnnnnnnnnnnnnnnnnnnnnnnnnnnnnnnnnnnb5                    fnnnnnnnnnnnnp                     fnnnnnnnnnnnnnnnnnn",
"nnnnnnnnnnnnnnnnnnnnnnnnnnnnnnnnnnnz.                   Xxnnnnnnnnnnnn6                    Xxnnnnnnnnnnnnnnnnnnn",
"nnnnnnnnnnnnnnnnnnnnnnnnnnnnnnnnnns                    4bnnnnnnnnnnnx#                    4bnnnnnnnnnnnnnnnnnnnn",
"nnnnnnnnnnnnnnnnnnnnnnnnnnnnnnnnn9                    ynnnnnnnnnnnnh                     ynnnnnnnnnnnnnnnnnnnnnn",
"nnnnnnnnnnnnnnnnnnnnnnnnnnnnnnnc&                    hnnnnnnnnnnnny                     hnnnnnnnnnnnnnnnnnnnnnnn",
"nnnnnnnnnnnnnnnnnnnnnnnnnnnnnnh                    &cnnnnnnnnnnnb3                    $cnnnnnnnnnnnnnnnnnnnnnnnn",
"nnnnnnnnnnnnnnnnnnnnnnnnnnnnne                    7nnnnnnnnnnnnz                     7nnnnnnnnnnnnnnnnnnnnnnnnnn",
"nnnnnnnnnnnnnnnnnnnnnnnnnnnv>                    pnnnnnnnnnnnnf                     pnnnnnnnnnnnnnnnnnnnnnnnnnnn",
"nnnnnnnnnnnnnnnnnnnnnnnnnnk                     knnnnnnnnnnnnw                     knnnnnnnnnnnnnnnnnnnnnnnnnnnn",
"nnnnnnnnnnnnnnnnnnnnnnnnnu                    ;vnnnnnnnnnnnb:                    ;vnnnnnnnnnnnnnnnnnnnnnnnnnnnnn",
"nnnnnnnnnnnnnnnnnnnnnnnb4                    qnnnnnnnnnnnnl                     qnnnnnnnnnnnnnnnnnnnnnnnnnnnnnnn",
"nnnnnnnnnnnnnnnnnnnnnnz                     dnnnnnnnnnnnna                     dnnnnnnnnnnnnnnnnnnnnnnnnnnnnnnnn",
"nnnnnnnnnnnnnnnnnnnnns                     znnnnnnnnnnnn8                     znnnnnnnnnnnnnnnnnnnnnnnnnnnnnnnnn",
"nnnnnnnnnnnnnnnnnnnn8                    2bnnnnnnnnnnnv&                    2bnnnnnnnnnnnnnnnnnnnnnnnnnnnnnnnnnn",
"nnnnnnnnnnnnnnnnnnx$                    tnnnnnnnnnnnnj                     tnnnnnnnnnnnnnnnnnnnnnnnnnnnnnnnnnnnn",
"nnnnnnnnnnnnnnnnng                     hnnnnnnnnnnnnu                     gnnnnnnnnnnnnnnnnnnnnnnnnnnnnnnnnnnnnn",
"nnnnnnnnnnnnnnnne                    @xnnnnnnnnnnnb4                    @cnnnnnnnnnnnnnnnnnnnnnnnnnnnnnnnnnnnnnn",
"nnnnnnnnnnnnnnv;                    6nnnnnnnnnnnnxO                    6bnnnnnnnnnnnnnnnnnnnnnnnnnnnnnnnnnnnnnnn",
"nnnnnnnnnnnnnj                     innnnnnnnnnnng                     innnnnnnnnnnnnnnnnnnnnnnnnnnnnnnnnnnnnnnnn",
"nnnnnnnnnnnnu                     knnnnnnnnnnnne                     knnnnnnnnnnnnnnnnnnnnnnnnnnnnnnnnnnnnnnnnnn",
"nnnnnnnnnnb3                    =vnnnnnnnnnnnb<                    =vnnnnnnnnnnnnnnnnnnnnnnnnnnnnnnnnnnnnnnnnnnn",
"nnnnnnnnnz                     0nnnnnnnnnnnnl                     0nnnnnnnnnnnnnnnnnnnnnnnnnnnnnnnnnnnnnnnnnnnnn",
"nnnnnnnnn                     snnnnnnnnnnnnn                     snnnnnnnnnnnnnnnnnnnnnnnnnnnnnnnnnnnnnnnnnnnnnn",
"nnnnnnnnnnnnnnnnnnnnnnnnnnnnnnnnnnnnnnnnnnnnnnnnnnnnnnnnnnnnnnnnnnnnnnnnnnnnnnnnn                        nnnnnnn",
"nnnnnnnnnnnnnnnnnnnnnnnnnnnnnnnnnnnnnnnnnnnnnnnnnnnnnnnnnnnnnnnnnnnnnnnnnnnnnnnnn                        nnnnnnn",
"nnnnnnnnnnnnnnnnnnnnnnnnnnnnnnnnnnnnnnnnnnnnnnnnnnnnnnnnnnnnnnnnnnnnnnnnnnnnnnnnn                        nnnnnnn",
"nnnnnnnnnnnnnnnnnnnnnnnnnnnnnnnnnnnnnnnnnnnnnnnnnnnnnnnnnnnnnnnnnnnnnnnnnnnnnnnnn                        nnnnnnn",
"nnnnnnnnnnnnnnnnnnnnnnnnnnnnnnnnnnnnnnnnnnnnnnnnnnnnnnnnnnnnnnnnnnnnnnnnnnnnnnnnn                        nnnnnnn",
"nnnnnnnnnnnnnnnnnnnnnnnnnnnnnnnnnnnnnnnnnnnnnnnnnnnnnnnnnnnnnnnnnnnnnnnnnnnnnnnnn                        nnnnnnn",
"nnnnnnnnn                        nnnnnnnnnnnn                        nnnnnnnnnnnn                        nnnnnnn",
"nnnnnnnnn                        nnnnnnnnnnnn                        nnnnnnnnnnnn                        nnnnnnn",
"nnnnnnnnn                        nnnnnnnnnnnn                        nnnnnnnnnnnn                        nnnnnnn",
"nnnnnnnnn                        nnnnnnnnnnnn                        nnnnnnnnnnnn                        nnnnnnn",
"nnnnnnnnn                        nnnnnnnnnnnn                        nnnnnnnnnnnn                        nnnnnnn",
"nnnnnnnnn                        nnnnnnnnnnnn                        nnnnnnnnnnnn                        nnnnnnn",
"nnnnnnnnnnnnnnnnnnnnnnnnnnnnnnnnnnnnnnnnnnnnnnnnnnnnnnnnnnnnnnnnnnnnnnnnnnnnnnnnnnnnnnnnnnnnnnnnnnnnnnnnnnnnnnnn",
"nnnnnnnnnnnnnnnnnnnnnnnnnnnnnnnnnnnnnnnnnnnnnnnnnnnnnnnnnnnnnnnnnnnnnnnnnnnnnnnnnnnnnnnnnnnnnnnnnnnnnnnnnnnnnnnn",
"nnnnnnnnnnnnnnnnnnnnnnnnnnnnnnnnnnnnnnnnnnnnnnnnnnnnnnnnnnnnnnnnnnnnnnnnnnnnnnnnnnnnnnnnnnnnnnnnnnnnnnnnnnnnnnnn"
};
