/* XPM */
static const char *const frew4[] = {
/* columns rows colors chars-per-pixel */
"112 84 53 1 ",
"  c #000000",
". c #141414",
"X c #1B1B1B",
"o c #252525",
"O c #292929",
"+ c #323232",
"@ c #3A3A3A",
"# c #424242",
"$ c #454545",
"% c #484848",
"& c #4B4B4B",
"* c #515151",
"= c #535353",
"- c #595959",
"; c #5E5E5E",
": c #636363",
"> c #676767",
", c #6C6C6C",
"< c #747474",
"1 c #787878",
"2 c #7C7C7C",
"3 c #808080",
"4 c #848484",
"5 c #8B8B8B",
"6 c #8F8F8F",
"7 c #929292",
"8 c #969696",
"9 c #9A9A9A",
"0 c #9F9F9F",
"q c #A2A2A2",
"w c #A5A5A5",
"e c #A8A8A8",
"r c #AEAEAE",
"t c #B1B1B1",
"y c #B6B6B6",
"u c #B9B9B9",
"i c #BEBEBE",
"p c #C2C2C2",
"a c #C7C7C7",
"s c #C9C9C9",
"d c #CDCDCD",
"f c #D1D1D1",
"g c #D7D7D7",
"h c #DBDBDB",
"j c #DCDCDC",
"k c #E1E1E1",
"l c #E6E6E6",
"z c #E9E9E9",
"x c #ECECEC",
"c c #F2F2F2",
"v c #F7F7F7",
"b c #FAFAFA",
"n c #FFFFFF",
/* pixels */
"nnnnnnnnnnnnnnnnnnnnnnnnnnnnnnnnnnnnnnnnnnnnnnnnnnnnnnnnnnnnnnnnnnnnnnnnnnnnnnnnnnnnnnnnnnnnnnnnnnnnnnnnnnnnnnnn",
"nnnnnnnnnnnnnnnnnnnnnnnnnnnnnnnnnnnnnnnnnnnnnnnnnnnnnnnnnnnnnnnnnnnnnnnnnnnnnnnnnnnnnnnnnnnnnnnnnnnnnnnnnnnnnnnn",
"nnnnnnnnnnnnnnnnnnnnnnnnnnnnnnnnnnnnnnnnnnnnnnnnnnnnnnnnnnnnnnnnnnnnnnnnnnnnnnnnnnnnnnnnnnnnnnnnnnnnnnnnnnnnnnnn",
"nnnnnnnnnnnnnnnnnnnnnnnnnnnnnnnnnnnnnnnnnnnnnnnnnnnnnnnnnnnnnnnnnnnnnnnnnnnnnnnnnnnnnnnnnnnnnnnnnnnnnnnnnnnnnnnn",
"nnnnnnnnnnnnnnnnnnnnnnnnnnnnnnnnnnnnnnnnnnnnnnnnnnnnnnnnnnnnnnnnnnnnnnnnnnnnnnnnnnnnnnnnnnnnnnnnnnnnnnnnnnnnnnnn",
"nnnnnnnnnnnnnnnnnnnnnnnnnnnnnnnnnnnnnnnnnnnnnnnns                     nnnnnnnnnnnnns                     nnnnnnn",
"nnnnnnnnnnnnnnnnnnnnnnnnnnnnnnnnnnnnnnnnnnnnnnn9                     lnnnnnnnnnnnn0                     znnnnnnn",
"nnnnnnnnnnnnnnnnnnnnnnnnnnnnnnnnnnnnnnnnnnnnnv-                    ,bnnnnnnnnnnnb*                    2bnnnnnnnn",
"nnnnnnnnnnnnnnnnnnnnnnnnnnnnnnnnnnnnnnnnnnnnk                     ennnnnnnnnnnnk                     unnnnnnnnnn",
"nnnnnnnnnnnnnnnnnnnnnnnnnnnnnnnnnnnnnnnnnnni                     gnnnnnnnnnnnni                     jnnnnnnnnnnn",
"nnnnnnnnnnnnnnnnnnnnnnnnnnnnnnnnnnnnnnnnnn5                    Oxnnnnnnnnnnnb5                    >vnnnnnnnnnnnn",
"nnnnnnnnnnnnnnnnnnnnnnnnnnnnnnnnnnnnnnnnx@                    4bnnnnnnnnnnnc@                    ennnnnnnnnnnnnn",
"nnnnnnnnnnnnnnnnnnnnnnnnnnnnnnnnnnnnnnng                     unnnnnnnnnnnng                     gnnnnnnnnnnnnnnn",
"nnnnnnnnnnnnnnnnnnnnnnnnnnnnnnnnnnnnnnt                     jnnnnnnnnnnnnr                    $cnnnnnnnnnnnnnnnn",
"nnnnnnnnnnnnnnnnnnnnnnnnnnnnnnnnnnnnb1                    %vnnnnnnnnnnnb1                    8nnnnnnnnnnnnnnnnnn",
"nnnnnnnnnnnnnnnnnnnnnnnnnnnnnnnnnnnz                     8nnnnnnnnnnnnz                     snnnnnnnnnnnnnnnnnnn",
"nnnnnnnnnnnnnnnnnnnnnnnnnnnnnnnnnnd                     annnnnnnnnnnnd                     znnnnnnnnnnnnnnnnnnnn",
"nnnnnnnnnnnnnnnnnnnnnnnnnnnnnnnnnq                     lnnnnnnnnnnnnq                    3bnnnnnnnnnnnnnnnnnnnnn",
"nnnnnnnnnnnnnnnnnnnnnnnnnnnnnnnv:                    >vnnnnnnnnnnnv:                    unnnnnnnnnnnnnnnnnnnnnnn",
"nnnnnnnnnnnnnnnnnnnnnnnnnnnnnnk                     wnnnnnnnnnnnnk                     knnnnnnnnnnnnnnnnnnnnnnnn",
"nnnnnnnnnnnnnnnnnnnnnnnnnnnnnp                     fnnnnnnnnnnnnp                    ,vnnnnnnnnnnnnnnnnnnnnnnnnn",
"nnnnnnnnnnnnnnnnnnnnnnnnnnnn7                     znnnnnnnnnnnb7                    ennnnnnnnnnnnnnnnnnnnnnnnnnn",
"nnnnnnnnnnnnnnnnnnnnnnnnnnc%                    2bnnnnnnnnnnnc%                    gnnnnnnnnnnnnnnnnnnnnnnnnnnnn",
"nnnnnnnnnnnnnnnnnnnnnnnnnh                     tnnnnnnnnnnnnh                    %cnnnnnnnnnnnnnnnnnnnnnnnnnnnnn",
"nnnnnnnnnnnnnnnnnnnnnnnny                     hnnnnnnnnnnnny                    9nnnnnnnnnnnnnnnnnnnnnnnnnnnnnnn",
"nnnnnnnnnnnnnnnnnnnnnnb3                    #cnnnnnnnnnnnb3                    dnnnnnnnnnnnnnnnnnnnnnnnnnnnnnnnn",
"nnnnnnnnnnnnnnnnnnnnnxX                    6bnnnnnnnnnnnxX                   .znnnnnnnnnnnnnnnnnnnnnnnnnnnnnnnnn",
"nnnnnnnnnnnnnnnnnnnnf                     pnnnnnnnnnnnnf                    4bnnnnnnnnnnnnnnnnnnnnnnnnnnnnnnnnnn",
"nnnnnnnnnnnnnnnnnnne                     knnnnnnnnnnnne                    innnnnnnnnnnnnnnnnnnnnnnnnnnnnnnnnnnn",
"nnnnnnnnnnnnnnnnnv,                    ;vnnnnnnnnnnnv,                    knnnnnnnnnnnnnnnnnnnnnnnnnnnnnnnnnnnnn",
"nnnnnnnnnnnnnnnnl                     0nnnnnnnnnnnnl                    ,vnnnnnnnnnnnnnnnnnnnnnnnnnnnnnnnnnnnnnn",
"nnnnnnnnnnnnnnna                     snnnnnnnnnnnna                    rnnnnnnnnnnnnnnnnnnnnnnnnnnnnnnnnnnnnnnnn",
"nnnnnnnnnnnnnn9                     znnnnnnnnnnnn9                    hnnnnnnnnnnnnnnnnnnnnnnnnnnnnnnnnnnnnnnnnn",
"nnnnnnnnnnnnc*                    <bnnnnnnnnnnnv*                   *cnnnnnnnnnnnnnnnnnnnnnnnnnnnnnnnnnnnnnnnnnn",
"nnnnnnnnnnnj                     rnnnnnnnnnnnnj                    0nnnnnnnnnnnnnnnnnnnnnnnnnnnnnnnnnnnnnnnnnnnn",
"nnnnnnnnnni                     gnnnnnnnnnnnnu                    dnnnnnnnnnnnnnnnnnnnnnnnnnnnnnnnnnnnnnnnnnnnnn",
"nnnnnnnnn4                    +cnnnnnnnnnnnn5                   oxnnnnnnnnnnnnnnnnnnnnnnnnnnnnnnnnnnnnnnnnnnnnnn",
"nnnnnnnnn5                    +xnnnnnnnnnnnn4                   oxnnnnnnnnnnnnnnnnnnnnnnnnnnnnnnnnnnnnnnnnnnnnnn",
"nnnnnnnnnnu                     gnnnnnnnnnnnnu                    dnnnnnnnnnnnnnnnnnnnnnnnnnnnnnnnnnnnnnnnnnnnnn",
"nnnnnnnnnnnj                     rnnnnnnnnnnnnj                    9nnnnnnnnnnnnnnnnnnnnnnnnnnnnnnnnnnnnnnnnnnnn",
"nnnnnnnnnnnnc*                    <bnnnnnnnnnnnv*                   *cnnnnnnnnnnnnnnnnnnnnnnnnnnnnnnnnnnnnnnnnnn",
"nnnnnnnnnnnnnn9                     znnnnnnnnnnnn9                    hnnnnnnnnnnnnnnnnnnnnnnnnnnnnnnnnnnnnnnnnn",
"nnnnnnnnnnnnnnna                     snnnnnnnnnnnna                    rnnnnnnnnnnnnnnnnnnnnnnnnnnnnnnnnnnnnnnnn",
"nnnnnnnnnnnnnnnnl                     0nnnnnnnnnnnnl                    ,vnnnnnnnnnnnnnnnnnnnnnnnnnnnnnnnnnnnnnn",
"nnnnnnnnnnnnnnnnnv,                    ;vnnnnnnnnnnnv,                    knnnnnnnnnnnnnnnnnnnnnnnnnnnnnnnnnnnnn",
"nnnnnnnnnnnnnnnnnnne                     knnnnnnnnnnnne                    innnnnnnnnnnnnnnnnnnnnnnnnnnnnnnnnnnn",
"nnnnnnnnnnnnnnnnnnnnf                     pnnnnnnnnnnnnf                    4bnnnnnnnnnnnnnnnnnnnnnnnnnnnnnnnnnn",
"nnnnnnnnnnnnnnnnnnnnnxX                    6bnnnnnnnnnnnxX                   .znnnnnnnnnnnnnnnnnnnnnnnnnnnnnnnnn",
"nnnnnnnnnnnnnnnnnnnnnnb3                    #cnnnnnnnnnnnb3                    dnnnnnnnnnnnnnnnnnnnnnnnnnnnnnnnn",
"nnnnnnnnnnnnnnnnnnnnnnnny                     hnnnnnnnnnnnny                    9nnnnnnnnnnnnnnnnnnnnnnnnnnnnnnn",
"nnnnnnnnnnnnnnnnnnnnnnnnnh                     tnnnnnnnnnnnnh                    %cnnnnnnnnnnnnnnnnnnnnnnnnnnnnn",
"nnnnnnnnnnnnnnnnnnnnnnnnnnc%                    2bnnnnnnnnnnnc%                    gnnnnnnnnnnnnnnnnnnnnnnnnnnnn",
"nnnnnnnnnnnnnnnnnnnnnnnnnnnn7                     xnnnnnnnnnnnn7                    ennnnnnnnnnnnnnnnnnnnnnnnnnn",
"nnnnnnnnnnnnnnnnnnnnnnnnnnnnnp                     dnnnnnnnnnnnnp                    ,vnnnnnnnnnnnnnnnnnnnnnnnnn",
"nnnnnnnnnnnnnnnnnnnnnnnnnnnnnnk                     wnnnnnnnnnnnnk                     knnnnnnnnnnnnnnnnnnnnnnnn",
"nnnnnnnnnnnnnnnnnnnnnnnnnnnnnnnv:                    >vnnnnnnnnnnnv:                    unnnnnnnnnnnnnnnnnnnnnnn",
"nnnnnnnnnnnnnnnnnnnnnnnnnnnnnnnnnq                     lnnnnnnnnnnnnq                    3bnnnnnnnnnnnnnnnnnnnnn",
"nnnnnnnnnnnnnnnnnnnnnnnnnnnnnnnnnnd                     pnnnnnnnnnnnnd                     znnnnnnnnnnnnnnnnnnnn",
"nnnnnnnnnnnnnnnnnnnnnnnnnnnnnnnnnnnz                     8nnnnnnnnnnnnz                     snnnnnnnnnnnnnnnnnnn",
"nnnnnnnnnnnnnnnnnnnnnnnnnnnnnnnnnnnnb1                    %vnnnnnnnnnnnb1                    8nnnnnnnnnnnnnnnnnn",
"nnnnnnnnnnnnnnnnnnnnnnnnnnnnnnnnnnnnnnt                     jnnnnnnnnnnnnt                    $cnnnnnnnnnnnnnnnn",
"nnnnnnnnnnnnnnnnnnnnnnnnnnnnnnnnnnnnnnng                     unnnnnnnnnnnng                     gnnnnnnnnnnnnnnn",
"nnnnnnnnnnnnnnnnnnnnnnnnnnnnnnnnnnnnnnnnx@                    4bnnnnnnnnnnnc@                    ennnnnnnnnnnnnn",
"nnnnnnnnnnnnnnnnnnnnnnnnnnnnnnnnnnnnnnnnnn5                    Oxnnnnnnnnnnnb6                    :vnnnnnnnnnnnn",
"nnnnnnnnnnnnnnnnnnnnnnnnnnnnnnnnnnnnnnnnnnni                     fnnnnnnnnnnnni                     jnnnnnnnnnnn",
"nnnnnnnnnnnnnnnnnnnnnnnnnnnnnnnnnnnnnnnnnnnnk                     ennnnnnnnnnnnk                     unnnnnnnnnn",
"nnnnnnnnnnnnnnnnnnnnnnnnnnnnnnnnnnnnnnnnnnnnnc-                    <bnnnnnnnnnnnb*                    2bnnnnnnnn",
"nnnnnnnnnnnnnnnnnnnnnnnnnnnnnnnnnnnnnnnnnnnnnnn0                     lnnnnnnnnnnnn0                     znnnnnnn",
"nnnnnnnnnnnnnnnnnnnnnnnnnnnnnnnnnnnnnnnnnnnnnnnns                     nnnnnnnnnnnnns                     nnnnnnn",
"nnnnnnnnn                        nnnnnnnnnnnnnnnnnnnnnnnnnnnnnnnnnnnnnnnnnnnnnnnnnnnnnnnnnnnnnnnnnnnnnnnnnnnnnnn",
"nnnnnnnnn                        nnnnnnnnnnnnnnnnnnnnnnnnnnnnnnnnnnnnnnnnnnnnnnnnnnnnnnnnnnnnnnnnnnnnnnnnnnnnnnn",
"nnnnnnnnn                        nnnnnnnnnnnnnnnnnnnnnnnnnnnnnnnnnnnnnnnnnnnnnnnnnnnnnnnnnnnnnnnnnnnnnnnnnnnnnnn",
"nnnnnnnnn                        nnnnnnnnnnnnnnnnnnnnnnnnnnnnnnnnnnnnnnnnnnnnnnnnnnnnnnnnnnnnnnnnnnnnnnnnnnnnnnn",
"nnnnnnnnn                        nnnnnnnnnnnnnnnnnnnnnnnnnnnnnnnnnnnnnnnnnnnnnnnnnnnnnnnnnnnnnnnnnnnnnnnnnnnnnnn",
"nnnnnnnnn                        nnnnnnnnnnnnnnnnnnnnnnnnnnnnnnnnnnnnnnnnnnnnnnnnnnnnnnnnnnnnnnnnnnnnnnnnnnnnnnn",
"nnnnnnnnn                        nnnnnnnnnnnn                        nnnnnnnnnnnn                        nnnnnnn",
"nnnnnnnnn                        nnnnnnnnnnnn                        nnnnnnnnnnnn                        nnnnnnn",
"nnnnnnnnn                        nnnnnnnnnnnn                        nnnnnnnnnnnn                        nnnnnnn",
"nnnnnnnnn                        nnnnnnnnnnnn                        nnnnnnnnnnnn                        nnnnnnn",
"nnnnnnnnn                        nnnnnnnnnnnn                        nnnnnnnnnnnn                        nnnnnnn",
"nnnnnnnnn                        nnnnnnnnnnnn                        nnnnnnnnnnnn                        nnnnnnn",
"nnnnnnnnnnnnnnnnnnnnnnnnnnnnnnnnnnnnnnnnnnnnnnnnnnnnnnnnnnnnnnnnnnnnnnnnnnnnnnnnnnnnnnnnnnnnnnnnnnnnnnnnnnnnnnnn",
"nnnnnnnnnnnnnnnnnnnnnnnnnnnnnnnnnnnnnnnnnnnnnnnnnnnnnnnnnnnnnnnnnnnnnnnnnnnnnnnnnnnnnnnnnnnnnnnnnnnnnnnnnnnnnnnn",
"nnnnnnnnnnnnnnnnnnnnnnnnnnnnnnnnnnnnnnnnnnnnnnnnnnnnnnnnnnnnnnnnnnnnnnnnnnnnnnnnnnnnnnnnnnnnnnnnnnnnnnnnnnnnnnnn"
};
