/* XPM */
static const char *const mute[] = {
/* columns rows colors chars-per-pixel */
"102 76 3 1 ",
". c None",
"# c #FFFFFF",
"* c #FF0000",
/* pixels */
"...........................*............................########............................*.........",
"..........................***..........................#########...........................***........",
".........................*****.......................###########..........................*****.......",
"........................*******....................#############.........................*******......",
".......................*********.................###############........................*********.....",
".......................**********...............################.......................**********.....",
"........................**********............##################......................**********......",
".........................**********..........###################.....................**********.......",
"..........................**********.......#####################....................**********........",
"...........................**********....#######################...................**********.........",
"............................**********....############..########..................**********..........",
".............................**********....##########...########.................**********...........",
"..............................**********....#######.....########................**********............",
"...............................**********....####.......########...............**********.............",
"................................**********..............########..............**********..............",
".................................**********.............########.............**********...............",
"............................##....**********............########............**********................",
"...........................####....**********...........########...........**********.................",
".........................#######....**********..........########..........**********..................",
".......................##########....**********.........########.........**********...................",
".....................#############....**********........########........**********....................",
"...................################....**********.......########.......**********.....................",
".................################.......**********......########......**********......................",
"...............#################.........**********.....########.....**********.......................",
"##############################............**********....########....**********........................",
"#############################..............**********....######....**********.........................",
"###########################.................**********....####....**********..........................",
"##########################...................**********....##....**********...........................",
"##########################....................**********........**********............................",
"##########################.....................**********......**********.............................",
"########..........########......................**********....**********..............................",
"########..........########.......................**********..**********...............................",
"########..........########........................********************................................",
"########..........########.........................******************.................................",
"########..........########..........................****************..................................",
"########..........########...........................**************...................................",
"########..........########............................************....................................",
"########..........########.............................**********.....................................",
"########..........########.............................**********.....................................",
"########..........########............................************....................................",
"########..........########...........................**************...................................",
"########..........########..........................****************..................................",
"########..........########.........................******************.................................",
"########..........########........................********************................................",
"########..........########.......................**********..**********...............................",
"########..........########......................**********....**********..............................",
"##########################.....................**********......**********.............................",
"##########################....................**********........**********............................",
"##########################...................**********....##....**********...........................",
"###########################.................**********....####....**********..........................",
"#############################..............**********....######....**********.........................",
"###############################...........**********....########....**********........................",
"...............#################.........**********.....########.....**********.......................",
".................################.......**********......########......**********......................",
"...................################....**********.......########.......**********.....................",
".....................#############....**********........########........**********....................",
".......................##########....**********.........########.........**********...................",
".........................#######....**********..........########..........**********..................",
"...........................####....**********...........########...........**********.................",
"............................##....**********............########............**********................",
".................................**********.............########.............**********...............",
"................................**********..............########..............**********..............",
"...............................**********....####.......########...............**********.............",
"..............................**********....#######.....########................**********............",
".............................**********....##########...########.................**********...........",
"............................**********....############..########..................**********..........",
"...........................**********....#######################...................**********.........",
"..........................**********.......#####################....................**********........",
".........................**********..........###################.....................**********.......",
"........................**********............##################......................**********......",
".......................**********..............#################.......................**********.....",
".......................*********.................###############........................*********.....",
"........................*******....................#############.........................*******......",
".........................*****.......................###########..........................*****.......",
"..........................***..........................#########...........................***........",
"...........................*............................########............................*........."
};
