/* XPM */
static const char *const newsml[] = {
/* columns rows colors chars-per-pixel */
"66 84 16 1 ",
"  c #000000",
". c #1A1A1A",
"X c #292929",
"o c #313131",
"O c #454545",
"+ c #565656",
"@ c #696969",
"# c #767676",
"$ c #828282",
"% c #9A9A9A",
"& c #ACACAC",
"* c #B6B6B6",
"= c #C9C9C9",
"- c #D7D7D7",
"; c #E7E7E7",
": c #FFFFFF",
/* pixels */
"      #:::::::#     o:::::::::::::::::::::::::::::::::::::::::::::",
"       -::::::#     o:::::::::::::::::::::::::::::::::::::::::::::",
"       O::::::#     o:::::::::::::::::::::::::::::::::::::::::::::",
"        *:::::#     o:::::::::::::::::::::::::::::::::::::::::::::",
"        X:::::#     o:::::::::::::::::::::::::::::::::::::::::::::",
"         %::::#     o:::::::::::::::::::::::::::::::::::::::::::::",
"         .;:::#     o:::::::::::::::::::::::::::::::::::::::::::::",
"          #:::#     o:::::::::::::::::::::::::::::::::::::::::::::",
"           -::#     o:::::::::::::::::::::::::::::::::::::::::::::",
"           +::#     o:::::::::::::::::::::::::::::::::::::::::::::",
"            *:#     o:::::::::::::::::::::::::::::::::::::::::::::",
"            o:#     o:::::::::::::::::::::::::::::::::::::::::::::",
"      #      %#     o:::::::::::::::::::::::::::::::::::::::::::::",
"      &+     .@     o:::::::::::::::::::::::::::::::::::::::::::::",
"      &;            o:::::::::::::::::::::::::::::::::::::::::::::",
"      &:$           o:::::::::::::::::::::::::::::::::::::::::::::",
"      &::.          o:::::::::::::::::::::::::::::::::::::::::::::",
"      &::%          o:::::::::::::::::::::::::::::::::::::::::::::",
"      &:::o         o:::::::::::::::::::::::::::::::::::::::::::::",
"      &:::=         o:::::::::::::::::::::::::::::::::::::::::::::",
"      &::::+        o:::::::::::::::::::::::::::::::::::::::::::::",
"      &::::-        o:::::::::::::::::::::::::::::::::::::::::::::",
"      &:::::$       o:::::::::::::::::::::::::::::::::::::::::::::",
"      &::::::.      o:::::::::::::::::::::::::::::::::::::::::::::",
"      &::::::%      o:::::::::::::::::::::::::::::::::::::::::::::",
"      &:::::::o     o:::::::::::::::::::::::::::::::::::::::::::::",
"::::::::::::::::::::::::::::::::::::::::::::::::::::::::::::::::::",
"::::::::::::::::::::::::::::::::::::::::::::::::::::::::::::::::::",
"::::::::::::::::::::::::::::::::::::::::::::::::::::::::::::::::::",
"::::::::::::::::::::::::                  ::::::::::::::::::::::::",
"::::::::::::::::::::::::                  ::::::::::::::::::::::::",
"::::::::::::::::::::::::                  ::::::::::::::::::::::::",
"::::::::::::::::::::::::                  ::::::::::::::::::::::::",
"::::::::::::::::::::::::                  ::::::::::::::::::::::::",
"::::::::::::::::::::::::      X###@##@###@::::::::::::::::::::::::",
"::::::::::::::::::::::::      o:::::::::::::::::::::::::::::::::::",
"::::::::::::::::::::::::      O:::::::::::::::::::::::::::::::::::",
"::::::::::::::::::::::::      O:::::::::::::::::::::::::::::::::::",
"::::::::::::::::::::::::      o&&&&&&&&&&;::::::::::::::::::::::::",
"::::::::::::::::::::::::                 =::::::::::::::::::::::::",
"::::::::::::::::::::::::                 =::::::::::::::::::::::::",
"::::::::::::::::::::::::                 =::::::::::::::::::::::::",
"::::::::::::::::::::::::                 =::::::::::::::::::::::::",
"::::::::::::::::::::::::                 =::::::::::::::::::::::::",
"::::::::::::::::::::::::      o:::::::::::::::::::::::::::::::::::",
"::::::::::::::::::::::::      O:::::::::::::::::::::::::::::::::::",
"::::::::::::::::::::::::      O:::::::::::::::::::::::::::::::::::",
"::::::::::::::::::::::::      O:::::::::::::::::::::::::::::::::::",
"::::::::::::::::::::::::      O:::::::::::::::::::::::::::::::::::",
"::::::::::::::::::::::::       ...........&:::::::::::::::::::::::",
"::::::::::::::::::::::::                  &:::::::::::::::::::::::",
"::::::::::::::::::::::::                  &:::::::::::::::::::::::",
"::::::::::::::::::::::::                  &:::::::::::::::::::::::",
"::::::::::::::::::::::::                  &:::::::::::::::::::::::",
"::::::::::::::::::::::::                  &:::::::::::::::::::::::",
"::::::::::::::::::::::::::::::::::::::::::::::::::::::::::::::::::",
"::::::::::::::::::::::::::::::::::::::::::::::::::::::::::::::::::",
"::::::::::::::::::::::::::::::::::::::::::::::::::::::::::::::::::",
":::::::::::::::::::::::::::::::::::::::::::::      @::::::;      $",
":::::::::::::::::::::::::::::::::::::::::::::      @::::::;      $",
":::::::::::::::::::::::::::::::::::::::::::::      @::::::;      $",
":::::::::::::::::::::::::::::::::::::::::::::      @::::::;      $",
":::::::::::::::::::::::::::::::::::::::::::::      @::::::;      $",
":::::::::::::::::::::::::::::::::::::::::::::      @::::::;      $",
":::::::::::::::::::::::::::::::::::::::::::::      @::::::;      $",
":::::::::::::::::::::::::::::::::::::::::::::      @::::::;      $",
":::::::::::::::::::::::::::::::::::::::::::::      @::::::;      $",
":::::::::::::::::::::::::::::::::::::::::::::      @::::::;      $",
":::::::::::::::::::::::::::::::::::::::::::::      @::::::;      $",
":::::::::::::::::::::::::::::::::::::::::::::      @::::::;      $",
":::::::::::::::::::::::::::::::::::::::::::::      @::::::;      $",
":::::::::::::::::::::::::::::::::::::::::::::      @::::::;      $",
":::::::::::::::::::::::::::::::::::::::::::::      @::::::;      $",
":::::::::::::::::::::::::::::::::::::::::::::      @::::::;      $",
":::::::::::::::::::::::::::::::::::::::::::::.     O::::::=      %",
":::::::::::::::::::::::::::::::::::::::::::::o     X::::::%      &",
":::::::::::::::::::::::::::::::::::::::::::::@      &:::::o      ;",
":::::::::::::::::::::::::::::::::::::::::::::&       %::=O      X:",
":::::::::::::::::::::::::::::::::::::::::::::;                  #:",
"::::::::::::::::::::::::::::::::::::::::::::::@                 ;:",
"::::::::::::::::::::::::::::::::::::::::::::::;.               %::",
":::::::::::::::::::::::::::::::::::::::::::::::-.             @:::",
"::::::::::::::::::::::::::::::::::::::::::::::::-o           %::::",
"::::::::::::::::::::::::::::::::::::::::::::::::::*#OoX  XO%;:::::"
};
