/* XPM */
static const char *const newsml_1080[] = {
/* columns rows colors chars-per-pixel */
"34 43 24 1 ",
"  c #000000",
". c #010101",
"X c #030303",
"o c #060606",
"O c #0D0D0D",
"+ c #141414",
"@ c #272727",
"# c #3A3A3A",
"$ c #565656",
"% c #484848",
"& c #707070",
"* c #898989",
"= c #919191",
"- c #B9B9B9",
"; c #B4B4B4",
": c #A9A9A9",
"> c #C6C6C6",
", c #CACACA",
"< c #D7D7D7",
"1 c #FFFFFF",
"2 c #FCFCFC",
"3 c #FAFAFA",
"4 c #F3F3F3",
"5 c #E6E6E6",
/* pixels */
"1111111111111111111111111111111111",
"1   :111+  <1111111111111111111111",
"1   @311+  ,1111111111111111111111",
"1    &11+  <1111111111111111111111",
"1    o51+  <1111111111111111111111",
"1     $1+  <1111111111111111111111",
"1   o X,+  <1111111111111111111111",
"1   &  #+  <1111111111111111111111",
"1   5@     <1111111111111111111111",
"1   5:     <1111111111111111111111",
"1   51%    <1111111111111111111111",
"1   51,    <1111111111111111111111",
"1   511&   <1111111111111111111111",
"1$$$4115$$$51111111111111111111111",
"1111111111111313111111111111111111",
"111111111111>@@@@+@@@*111111111111",
"111111111111-        &111111111111",
"111111111111-   @@@@@*111111111111",
"111111111111-   311111111111111111",
"111111111111-   <5<<<3111111111111",
"111111111111-        <111111111111",
"111111111111-        5111111111111",
"111111111111-   *****4111111111111",
"111111111111-   311111111111111111",
"111111111111-   443443111111111111",
"111111111111- XX   X %111111111111",
"111111111111-  X  oX %111111111111",
"111111111111>@@@@@@@@&111111111111",
"1111111111111111111111111111111111",
"11111111111111111111111$$$<11<$$$1",
"11111111111111111111111   ,11>   1",
"11111111111111111111113   ,11>   1",
"11111111111111111111113   ,11>   1",
"11111111111111111111111   ,11>   1",
"11111111111111111111111   ,11>   1",
"11111111111111111111113   ,11>   1",
"11111111111111111111111X  ,11>   1",
"11111111111111111111111+  ;11;  O1",
"11111111111111111111111#  %44%  #1",
"11111111111111111111111*   XX   =1",
"111111111111111111111114#X     #31",
"1111111111111111111111114&@OX@&411",
"1111111111111111111111111111111111"
};
