/* XPM */
static const char *const newsml_720[] = {
/* columns rows colors chars-per-pixel */
"24 30 23 1 ",
"  c #000000",
". c #010101",
"X c #020202",
"o c #060606",
"O c #0F0F0F",
"+ c #1B1B1B",
"@ c #272727",
"# c #3B3B3B",
"$ c #575757",
"% c #464646",
"& c #787878",
"* c #696969",
"= c #959595",
"- c #AAAAAA",
"; c #A5A5A5",
": c #B5B5B5",
"> c #DBDBDB",
", c #C7C7C7",
"< c #E6E6E6",
"1 c #FFFFFF",
"2 c #FDFDFD",
"3 c #FBFBFB",
"4 c #F3F3F3",
/* pixels */
"111111111111111111111111",
"1  =1>  1111111111111111",
"1  +4> o1111111111111111",
"1   &>  1111111111111111",
"1   o:  1111111111111111",
"1  $o@ o1111111111111111",
"1  >+   1111111111111111",
"1  >;   1111111111111111",
"1  <3#  1111111111111111",
"1$$<1,$$1111111111111111",
"111111111---;-;411111111",
"111111111O     <11111111",
"111111111O $&&&411111111",
"111111111O =<<<111111111",
"111111111O    @111111111",
"111111111O #$$&111111111",
"111111111O -111111111111",
"111111111O #$$$>11111111",
"111111111O  o  ,11111111",
"111111111:-----411111111",
"1111111111111111*$,1>$$1",
"1111111111111111+ -1,  1",
"1111111111111111+ -1,  1",
"1111111111111111@ -1,  1",
"1111111111111111+ -1,  1",
"1111111111111111@ ;1, o1",
"1111111111111111% $3& @1",
"1111111111111111;     =1",
"11111111111111111=@ +&31",
"111111111111111133111311"
};
