/* XPM */
static const char *const newsml_2160[] = {
/* columns rows colors chars-per-pixel */
"66 84 24 1 ",
"  c #000000",
". c #010101",
"X c #020202",
"o c #050505",
"O c #0C0C0C",
"+ c #161616",
"@ c #252525",
"# c #3A3A3A",
"$ c #4A4A4A",
"% c #575757",
"& c #737373",
"* c #656565",
"= c #8C8C8C",
"- c #989898",
"; c #BBBBBB",
": c #A8A8A8",
"> c #D4D4D4",
", c #C6C6C6",
"< c #EAEAEA",
"1 c #FFFFFF",
"2 c #FEFEFE",
"3 c #FCFCFC",
"4 c #F8F8F8",
"5 c #F5F5F5",
/* pixels */
"111111111111111111111111111111111111111111111111111111111111111111",
"1      -1111111@     :11111111111111111111111111111111111111111111",
"1      +<111111@     :11111111111111111111111111111111111111111111",
"1       &111111@     :11111111111111111111111111111111111111111111",
"1        >11111@     :11111111111111111111111111111111111111111111",
"1        $11111@     :11111111111111111111111111111111111111111111",
"1         ;1111@     :11111111111111111111111111111111111111111111",
"1         @3113@     :11111111111111111111111111111111111111111111",
"1          -111@     :11111111111111111111111111111111111111111111",
"1          +<11@     :11111111111111111111111111111111111111111111",
"1           &11@     :11111111111111111111111111111111111111111111",
"1           o>1@     :11111111111111111111111111111111111111111111",
"1      +     $1@     :11111111111111111111111111111111111111111111",
"1      -      ;@     :11111111111111111111111111111111111111111111",
"1      >%     @@     :11111111111111111111111111111111111111111111",
"1      ><O           :11111111111111111111111111111111111111111111",
"1      >1=           :11111111111111111111111111111111111111111111",
"1      >15+          :11111111111111111111111111111111111111111111",
"1      >11:          :11111111111111111111111111111111111111111111",
"1      >111#         :11111111111111111111111111111111111111111111",
"1      >111,         :11111111111111111111111111111111111111111111",
"1      >1111%        :11111111111111111111111111111111111111111111",
"1      >1111<O       :11111111111111111111111111111111111111111111",
"1      >11113=       :11111111111111111111111111111111111111111111",
"1      >111115+      :11111111111111111111111111111111111111111111",
"1      >111111:o    o:11111111111111111111111111111111111111111111",
"1------<1111111------>11111111111111111111111111111111111111111111",
"111111111111111111111111111111111111111111111111111111111111111111",
"111111111111111111111111111111111111111111111111111111111111111111",
"111111111111111111111111-$$$$$$$$$$$$$$$$$511111111111111111111111",
"111111111111111111111111&                 <11111111111111111111111",
"111111111111111111111111&                 511111111111111111111111",
"111111111111111111111111&                 <11111111111111111111111",
"111111111111111111111111&                 511111111111111111111111",
"111111111111111111111111&      $$$$$$$$$$$511111111111111111111111",
"111111111111111111111111&      51111111111111111111111111111111111",
"111111111111111111111111&      51111111111111111111111111111111111",
"111111111111111111111111&      51111111111111111111111111111111111",
"111111111111111111111111&      ;;;;;;;;;;<111111111111111111111111",
"111111111111111111111111&                ;111111111111111111111111",
"111111111111111111111111&                ;111111111111111111111111",
"111111111111111111111111&                ;111111111111111111111111",
"111111111111111111111111&                ;111111111111111111111111",
"111111111111111111111111&      ++++++++++,111111111111111111111111",
"111111111111111111111111&      51111111111111111111111111111111111",
"111111111111111111111111&      51111111111111111111111111111111111",
"111111111111111111111111&      51111111111111111111111111111111111",
"111111111111111111111111&      51111111111111111111111111111111111",
"111111111111111111111111&      <<<<<<<<<<<311111111111111111111111",
"111111111111111111111111&                 -11111111111111111111111",
"111111111111111111111111&                 -11111111111111111111111",
"111111111111111111111111&                 -11111111111111111111111",
"111111111111111111111111&                 -11111111111111111111111",
"111111111111111111111111&                 -11111111111111111111111",
"111111111111111111111111-%%%%%%%%%%%%%%%%%,11111111111111111111111",
"111111111111111111111111111111111111111111111111111111111111111111",
"111111111111111111111111111111111111111111111111111111111111111111",
"111111111111111111111111111111111111111111113------>111111>------1",
"111111111111111111111111111111111111111111115      -111111=      1",
"111111111111111111111111111111111111111111113      -111111=      1",
"111111111111111111111111111111111111111111113      -111111=      1",
"111111111111111111111111111111111111111111115      -111111=      1",
"111111111111111111111111111111111111111111115      -111111-      1",
"111111111111111111111111111111111111111111113      -111111=      1",
"111111111111111111111111111111111111111111115      -111111=      1",
"111111111111111111111111111111111111111111113      -111111=      1",
"111111111111111111111111111111111111111111115      -111111=      1",
"111111111111111111111111111111111111111111113      -111113-      1",
"111111111111111111111111111111111111111111115      =111111=      1",
"111111111111111111111111111111111111111111113      -111111=      1",
"111111111111111111111111111111111111111111115      -111111-      1",
"111111111111111111111111111111111111111111115      -111111=      1",
"111111111111111111111111111111111111111111113      -111111=      1",
"111111111111111111111111111111111111111111111O    o&111111&     +1",
"111111111111111111111111111111111111111111111@     %111111%     @1",
"111111111111111111111111111111111111111111113%     +<1111<O     %1",
"111111111111111111111111111111111111111111111=      #>11>#      =1",
"111111111111111111111111111111111111111111111>      oo@@       o<1",
"1111111111111111111111111111111111111111111111$                %11",
"1111111111111111111111111111111111111111111111>O              +<11",
"11111111111111111111111111111111111111111111111;o            O;111",
"111111111111111111111111111111111111111111111111,@ o        @,1111",
"11111111111111111111111111111111111111111111111113:*#@+ +@*:311111",
"111111111111111111111111111111111111111111111111111111111111111111"
};
