/* XPM */
static const char *const newsml_576[] = {
/* columns rows colors chars-per-pixel */
"20 24 22 1 ",
"  c #000000",
". c #010101",
"X c #0C0C0C",
"o c #181818",
"O c #323232",
"+ c #2A2A2A",
"@ c #484848",
"# c #434343",
"$ c #5B5B5B",
"% c #787878",
"& c #686868",
"* c #999999",
"= c #969696",
"- c #868686",
"; c #B6B6B6",
": c #D6D6D6",
"> c #C7C7C7",
", c #FFFFFF",
"< c #FDFDFD",
"1 c #F9F9F9",
"2 c #F4F4F4",
"3 c #E7E7E7",
/* pixels */
",,,,,,,,,,,,,,,,,,,,",
", X31 @,,,,,,,,,,,,,",
",  &, @,,,,,,,,,,,,,",
",   ; @,,,,,,,,,,,,,",
", Oo+ @,,,,,,,,,,,,,",
", #=  @,,,,,,,,,,,,,",
", #,O.@,,,,,,,,,,,,,",
",O&,>O&,,,,,,,,,,,,,",
",,,,,,,:====>,,,,,,,",
",,,,,,,*    %,,,,,,,",
",,,,,,,* -212,,,,,,,",
",,,,,,,= ooo;,,,,,,,",
",,,,,,,* @%-:,,,,,,,",
",,,,,,,* %::3,,,,,,,",
",,,,,,,*  ..$,,,,,,,",
",,,,,,,:****;,,,,,,,",
",,,,,,,,,,,,,%O:,$O,",
",,,,,,,,,,,,,& :,O ,",
",,,,,,,,,,,,,$ :,O ,",
",,,,,,,,,,,,,$ :,O ,",
",,,,,,,,,,,,,% >,+X,",
",,,,,,,,,,,,,* O$ @,",
",,,,,,,,,,,,,1&o.O:,",
",,,,,,,,,,,,,,,,,,,,"
};
