/* XPM */
static const char *const pause_xpm[] = {
/* columns rows colors chars-per-pixel */
"112 84 2 1 ",
"  c #000000",
". c #FFFFFF",
/* pixels */
"................................................................................................................",
"................................................................................................................",
"................................................................................................................",
"................................................................................................................",
"................................................................................................................",
"......................                            ..............                            ....................",
"......................                            ..............                            ....................",
"......................                            ..............                            ....................",
"......................                            ..............                            ....................",
"......................                            ..............                            ....................",
"......................                            ..............                            ....................",
"......................                            ..............                            ....................",
"......................                            ..............                            ....................",
"......................                            ..............                            ....................",
"......................                            ..............                            ....................",
"......................                            ..............                            ....................",
"......................                            ..............                            ....................",
"......................                            ..............                            ....................",
"......................                            ..............                            ....................",
"......................                            ..............                            ....................",
"......................                            ..............                            ....................",
"......................                            ..............                            ....................",
"......................                            ..............                            ....................",
"......................                            ..............                            ....................",
"......................                            ..............                            ....................",
"......................                            ..............                            ....................",
"......................                            ..............                            ....................",
"......................                            ..............                            ....................",
"......................                            ..............                            ....................",
"......................                            ..............                            ....................",
"......................                            ..............                            ....................",
"......................                            ..............                            ....................",
"......................                            ..............                            ....................",
"......................                            ..............                            ....................",
"......................                            ..............                            ....................",
"......................                            ..............                            ....................",
"......................                            ..............                            ....................",
"......................                            ..............                            ....................",
"......................                            ..............                            ....................",
"......................                            ..............                            ....................",
"......................                            ..............                            ....................",
"......................                            ..............                            ....................",
"......................                            ..............                            ....................",
"......................                            ..............                            ....................",
"......................                            ..............                            ....................",
"......................                            ..............                            ....................",
"......................                            ..............                            ....................",
"......................                            ..............                            ....................",
"......................                            ..............                            ....................",
"......................                            ..............                            ....................",
"......................                            ..............                            ....................",
"......................                            ..............                            ....................",
"......................                            ..............                            ....................",
"......................                            ..............                            ....................",
"......................                            ..............                            ....................",
"......................                            ..............                            ....................",
"......................                            ..............                            ....................",
"......................                            ..............                            ....................",
"......................                            ..............                            ....................",
"......................                            ..............                            ....................",
"......................                            ..............                            ....................",
"......................                            ..............                            ....................",
"......................                            ..............                            ....................",
"......................                            ..............                            ....................",
"......................                            ..............                            ....................",
"......................                            ..............                            ....................",
"......................                            ..............                            ....................",
"......................                            ..............                            ....................",
"......................                            ..............                            ....................",
"......................                            ..............                            ....................",
"......................                            ..............                            ....................",
"......................                            ..............                            ....................",
"......................                            ..............                            ....................",
"......................                            ..............                            ....................",
"......................                            ..............                            ....................",
"......................                            ..............                            ....................",
"......................                            ..............                            ....................",
"................................................................................................................",
"................................................................................................................",
"................................................................................................................",
"................................................................................................................",
"................................................................................................................",
"................................................................................................................",
"................................................................................................................"
};
