/* XPM */
static const char *const play[] = {
/* columns rows colors chars-per-pixel */
"112 84 29 1 ",
"  c #000000",
". c #292929",
"X c #3F3F3F",
"o c #464646",
"O c #5B5B5B",
"+ c #616161",
"@ c #6C6C6C",
"# c #7B7B7B",
"$ c #7C7C7C",
"% c #898989",
"& c #929292",
"* c #A1A1A1",
"= c #A6A6A6",
"- c #ACACAC",
"; c #B7B7B7",
": c #BFBFBF",
"> c #C6C6C6",
", c #C8C8C8",
"< c #D3D3D3",
"1 c #D7D7D7",
"2 c #DEDEDE",
"3 c #E3E3E3",
"4 c #E7E7E7",
"5 c #E8E8E8",
"6 c #EFEFEF",
"7 c #F4F4F4",
"8 c #F7F7F7",
"9 c #F9F9F9",
"0 c #FFFFFF",
/* pixels */
"0000000000000000000000000000000000000000000000000000000000000000000000000000000000000000000000000000000000000000",
"0000000000000000000000000000000000000000000000000000000000000000000000000000000000000000000000000000000000000000",
"0000000000000000000000000000000000000000000000000000000000000000000000000000000000000000000000000000000000000000",
"0000000000000000000000000000000000000000000000000000000000000000000000000000000000000000000000000000000000000000",
"0000000000000000000000000000000000000000000000000000000000000000000000000000000000000000000000000000000000000000",
"0000000000000000           &600000000000000000000000000000000000000000000000000000000000000000000000000000000000",
"0000000000000000             $4000000000000000000000000000000000000000000000000000000000000000000000000000000000",
"0000000000000000               +20000000000000000000000000000000000000000000000000000000000000000000000000000000",
"0000000000000000                 X<00000000000000000000000000000000000000000000000000000000000000000000000000000",
"0000000000000000                    >000000000000000000000000000000000000000000000000000000000000000000000000000",
"0000000000000000                      ;9000000000000000000000000000000000000000000000000000000000000000000000000",
"0000000000000000                        =70000000000000000000000000000000000000000000000000000000000000000000000",
"0000000000000000                          &600000000000000000000000000000000000000000000000000000000000000000000",
"0000000000000000                            $4000000000000000000000000000000000000000000000000000000000000000000",
"0000000000000000                              +20000000000000000000000000000000000000000000000000000000000000000",
"0000000000000000                                X<00000000000000000000000000000000000000000000000000000000000000",
"0000000000000000                                   >000000000000000000000000000000000000000000000000000000000000",
"0000000000000000                                     ;7000000000000000000000000000000000000000000000000000000000",
"0000000000000000                                       =70000000000000000000000000000000000000000000000000000000",
"0000000000000000                                         &600000000000000000000000000000000000000000000000000000",
"0000000000000000                                           $4000000000000000000000000000000000000000000000000000",
"0000000000000000                                             +20000000000000000000000000000000000000000000000000",
"0000000000000000                                               X<00000000000000000000000000000000000000000000000",
"0000000000000000                                                  >900000000000000000000000000000000000000000000",
"0000000000000000                                                    ;9000000000000000000000000000000000000000000",
"0000000000000000                                                      =70000000000000000000000000000000000000000",
"0000000000000000                                                        &600000000000000000000000000000000000000",
"0000000000000000                                                          $4000000000000000000000000000000000000",
"0000000000000000                                                            +20000000000000000000000000000000000",
"0000000000000000                                                              X<00000000000000000000000000000000",
"0000000000000000                                                                 >000000000000000000000000000000",
"0000000000000000                                                                   ;9000000000000000000000000000",
"0000000000000000                                                                     =70000000000000000000000000",
"0000000000000000                                                                       &600000000000000000000000",
"0000000000000000                                                                         $4000000000000000000000",
"0000000000000000                                                                           +20000000000000000000",
"0000000000000000                                                                             X<00000000000000000",
"0000000000000000                                                                                >900000000000000",
"0000000000000000                                                                                  ;9000000000000",
"0000000000000000                                                                                    =70000000000",
"0000000000000000                                                                                      0000000000",
"0000000000000000                                                                                    *90000000000",
"0000000000000000                                                                                  -7000000000000",
"0000000000000000                                                                                ;900000000000000",
"0000000000000000                                                                              :90000000000000000",
"0000000000000000                                                                            >0000000000000000000",
"0000000000000000                                                                         .,000000000000000000000",
"0000000000000000                                                                       o100000000000000000000000",
"0000000000000000                                                                     O20000000000000000000000000",
"0000000000000000                                                                   @3000000000000000000000000000",
"0000000000000000                                                                 #500000000000000000000000000000",
"0000000000000000                                                               %60000000000000000000000000000000",
"0000000000000000                                                             &7000000000000000000000000000000000",
"0000000000000000                                                           *700000000000000000000000000000000000",
"0000000000000000                                                         -70000000000000000000000000000000000000",
"0000000000000000                                                       ;9000000000000000000000000000000000000000",
"0000000000000000                                                     >900000000000000000000000000000000000000000",
"0000000000000000                                                   ,90000000000000000000000000000000000000000000",
"0000000000000000                                                .,0000000000000000000000000000000000000000000000",
"0000000000000000                                              o1000000000000000000000000000000000000000000000000",
"0000000000000000                                            O200000000000000000000000000000000000000000000000000",
"0000000000000000                                          @30000000000000000000000000000000000000000000000000000",
"0000000000000000                                        #5000000000000000000000000000000000000000000000000000000",
"0000000000000000                                      %600000000000000000000000000000000000000000000000000000000",
"0000000000000000                                    &70000000000000000000000000000000000000000000000000000000000",
"0000000000000000                                  *7000000000000000000000000000000000000000000000000000000000000",
"0000000000000000                                -700000000000000000000000000000000000000000000000000000000000000",
"0000000000000000                              ;70000000000000000000000000000000000000000000000000000000000000000",
"0000000000000000                            >9000000000000000000000000000000000000000000000000000000000000000000",
"0000000000000000                          >900000000000000000000000000000000000000000000000000000000000000000000",
"0000000000000000                       .<00000000000000000000000000000000000000000000000000000000000000000000000",
"0000000000000000                     o10000000000000000000000000000000000000000000000000000000000000000000000000",
"0000000000000000                   O2000000000000000000000000000000000000000000000000000000000000000000000000000",
"0000000000000000                 @300000000000000000000000000000000000000000000000000000000000000000000000000000",
"0000000000000000               #50000000000000000000000000000000000000000000000000000000000000000000000000000000",
"0000000000000000             %6000000000000000000000000000000000000000000000000000000000000000000000000000000000",
"0000000000000000           &700000000000000000000000000000000000000000000000000000000000000000000000000000000000",
"0000000000000000000000000000000000000000000000000000000000000000000000000000000000000000000000000000000000000000",
"0000000000000000000000000000000000000000000000000000000000000000000000000000000000000000000000000000000000000000",
"0000000000000000000000000000000000000000000000000000000000000000000000000000000000000000000000000000000000000000",
"0000000000000000000000000000000000000000000000000000000000000000000000000000000000000000000000000000000000000000",
"0000000000000000000000000000000000000000000000000000000000000000000000000000000000000000000000000000000000000000",
"0000000000000000000000000000000000000000000000000000000000000000000000000000000000000000000000000000000000000000",
"0000000000000000000000000000000000000000000000000000000000000000000000000000000000000000000000000000000000000000"
};
