/* XPM */
static const char *const radio[] = {
/* columns rows colors chars-per-pixel */
"100 50 16 1 ",
"  c #000000",
". c #141414",
"X c #262626",
"o c #373737",
"O c #4C4C4C",
"+ c #585858",
"@ c #696969",
"# c #787878",
"$ c #868686",
"% c #9A9A9A",
"& c #A3A3A3",
"* c #B8B8B8",
"= c #C6C6C6",
"- c #D9D9D9",
"; c #E8E8E8",
": c #FFFFFF",
/* pixels */
"::::::::::::::::::::::::::::::::::::::::::::::::::::::::::::::::::::*$O$::::::::::::::::::::::::::::",
":::::::::::::::::::::::::::::::::::::::::::::::::::::::::::::::;=$O    $::::::::::::::::::::::::::::",
"::::::::::::::::::::::::::::::::::::::::::::::::::::::::::::*#O        $::::::::::::::::::::::::::::",
"::::::::::::::::::::::::::::::::::::::::::::::::::::::::*#O            $::::::::::::::::::::::::::::",
"::::::::::::::::::::::::::::::::::::::::::::::::::::*#o                $::::::::::::::::::::::::::::",
":::::::::::::::::::::::::::::::::::::::::::::::;*#o                    $::::::::::::::::::::::::::::",
":::::::::::::::::::::::::::::::::::::::::::;*#o                        $::::::::::::::::::::::::::::",
"::::::::::::::::::::::::::::::::::::::::=@X                            $::::::::::::::::::::::::::::",
"::::::::::::::::::::::::::::::::::::::::O                              $::::::::::::::::::::::::::::",
"::::::::::::::::::::::::::::::::::::::::O                              $::::::::::::::::::::::::::::",
"::::::::::::::::::::::::::::::::::::::::O                              $::::::::::::::::::::::::::::",
"::::::::::::::::::::::::::::::::::::::::O                        o#*+  $::::::::::::::::::::::::::::",
"::::::::::::::::::::::::::::::::::::::::O                    o@&;:::@  $::::::::::::::::::::::::::::",
"::::::::::::::::::::::::::::::::::::::::O                o#&;:::::::@  $::::::::::::::::::::::::::::",
"::::::::::::::::::::::::::::::::::::::::O            o#*;:::::::::::@  $::::::::::::::::::::::::::::",
"::::::::::::::::::::::::::::::::::::::::O        o#*;:::::::::::::::@  $::::::::::::::::::::::::::::",
"::::::::::::::::::::::::::::::::::::::::O   .o#*::::::::::::::::::::@  $::::::::::::::::::::::::::::",
"::::::::::::::::::::::::::::::::::::::::O  $::::::::::::::::::::::::@  $::::::::::::::::::::::::::::",
"::::::::::::::::::::::::::::::::::::::::O  &::::::::::::::::::::::::@  $::::::::::::::::::::::::::::",
"::::::::::::::::::::::::::::::::::::::::O  %::::::::::::::::::::::::@  $::::::::::::::::::::::::::::",
"::::::::::::::::::::::::::::::::::::::::O  &::::::::::::::::::::::::@  $::::::::::::::::::::::::::::",
"::::::::::::::::::::::::::::::::::::::::O  &::::::::::::::::::::::::@  $::::::::::::::::::::::::::::",
"::::::::::::::::::::::::::::::::::::::::O  &::::::::::::::::::::::::@  $::::::::::::::::::::::::::::",
"::::::::::::::::::::::::::::::::::::::::O  &::::::::::::::::::::::::@  $::::::::::::::::::::::::::::",
"::::::::::::::::::::::::::::::::::::::::O  &::::::::::::::::::::::::@  $::::::::::::::::::::::::::::",
"::::::::::::::::::::::::::::::::::::::::O  &::::::::::::::::::::::::@  $::::::::::::::::::::::::::::",
"::::::::::::::::::::::::::::::::::::::::O  &::::::::::::::::::::::::@  $::::::::::::::::::::::::::::",
"::::::::::::::::::::::::::::::::::::::::O  &::::::::::::::::::::::::@  $::::::::::::::::::::::::::::",
"::::::::::::::::::::::::::::::::::::::::O  &:::::::::::::::;%+OO+%;:@  $::::::::::::::::::::::::::::",
"::::::::::::::::::::::::::::::::::::::::O  &:::::::::::::;@        +O  $::::::::::::::::::::::::::::",
"::::::::::::::::::::::::::::::::::::::::O  &::::::::::::-X             $::::::::::::::::::::::::::::",
"::::::::::::::::::::::::::::::::::::::::O  &:::::::::::;X              $::::::::::::::::::::::::::::",
"::::::::::::::::::::::::::::::::::::::::O  &:::::::::::@               $::::::::::::::::::::::::::::",
"::::::::::::::::::::::::::::::::::::::::O  &:::::::::::                $::::::::::::::::::::::::::::",
"::::::::::::::::::::::::::::::::::::::::O  &::::::::::*                $::::::::::::::::::::::::::::",
":::::::::::::::::::::::::::::::-$OooO$;:O  &::::::::::&                $::::::::::::::::::::::::::::",
":::::::::::::::::::::::::::::;O        @o  &::::::::::*                %::::::::::::::::::::::::::::",
"::::::::::::::::::::::::::::=.             &::::::::::;                -::::::::::::::::::::::::::::",
":::::::::::::::::::::::::::-.              &:::::::::::O              o:::::::::::::::::::::::::::::",
":::::::::::::::::::::::::::O               &:::::::::::-.             =:::::::::::::::::::::::::::::",
"::::::::::::::::::::::::::-                &::::::::::::&.           &::::::::::::::::::::::::::::::",
"::::::::::::::::::::::::::&                &:::::::::::::=o        X=:::::::::::::::::::::::::::::::",
"::::::::::::::::::::::::::$                &:::::::::::::::&+.  .O&:::::::::::::::::::::::::::::::::",
"::::::::::::::::::::::::::%                *::::::::::::::::::::::::::::::::::::::::::::::::::::::::",
"::::::::::::::::::::::::::-                ;::::::::::::::::::::::::::::::::::::::::::::::::::::::::",
":::::::::::::::::::::::::::o              +:::::::::::::::::::::::::::::::::::::::::::::::::::::::::",
":::::::::::::::::::::::::::=             .-:::::::::::::::::::::::::::::::::::::::::::::::::::::::::",
"::::::::::::::::::::::::::::&.          .=::::::::::::::::::::::::::::::::::::::::::::::::::::::::::",
":::::::::::::::::::::::::::::=X        o-:::::::::::::::::::::::::::::::::::::::::::::::::::::::::::",
":::::::::::::::::::::::::::::::&+...X@*:::::::::::::::::::::::::::::::::::::::::::::::::::::::::::::"
};
