/* XPM */
static const char *const radio_576[] = {
/* columns rows colors chars-per-pixel */
"27 18 22 1 ",
"  c #000000",
". c #030303",
"X c #050505",
"o c #0D0D0D",
"O c #181818",
"+ c #272727",
"@ c #373737",
"# c #4A4A4A",
"$ c #595959",
"% c #787878",
"& c #696969",
"* c #9E9E9E",
"= c #909090",
"- c #848484",
"; c #ACACAC",
": c #D1D1D1",
"> c #EAEAEA",
", c #FFFFFF",
"< c #FEFEFE",
"1 c #FDFDFD",
"2 c #FAFAFA",
"3 c #F2F2F2",
/* pixels */
",,,,,,,,,,,,,,,,,,,,,,,,,,,",
",,,,,,,,,,,,,,,,,3:-$+,,,,,",
",,,,,,,,,,,,,:*$+X    ,,,,,",
",,,,,,,,,,-@X         ,,,,,",
",,,,,,,,,,@       X+# ,,,,,",
",,,,,,,,,,@   O#-;3,: ,,,,,",
",,,,,,,,,,@$;>,,,,,,:X,,,,,",
",,,,,,,,,,@*,,,,,,,,:X,,,,,",
",,,,,,,,,,@*,,,,,,,,: ,,,,,",
",,,,,,,,,,@*,,,,,,,,: ,,,,,",
",,,,,,,,,,@*,,,,:#OO$ ,,,,,",
",,,,,,,,,,@*,,2>o     ,,,,,",
",,,,,,;$#-+*,,,;     o,,,,,",
",,,,2%    X*,,,3+    &,,,,,",
",,,,,O     *,,,,>%#$*,,,,,,",
",,,,,#    X>,,,,,,,,,,,,,,,",
",,,,,3&Oo#:,,,,,,,,,,,,,,,,",
",,,,,,,,,,3,,,,,,,,,,,,,,,,"
};
