/* XPM */
static const char *const radio_720[] = {
/* columns rows colors chars-per-pixel */
"33 22 24 1 ",
"  c #000000",
". c #010101",
"X c #050505",
"o c #0B0B0B",
"O c #161616",
"+ c #282828",
"@ c #373737",
"# c #404040",
"$ c #4D4D4D",
"% c #5A5A5A",
"& c #747474",
"* c #858585",
"= c #8E8E8E",
"- c #959595",
"; c #B3B3B3",
": c #A9A9A9",
"> c #C5C5C5",
", c #CCCCCC",
"< c #D9D9D9",
"1 c #FFFFFF",
"2 c #FDFDFD",
"3 c #FAFAFA",
"4 c #F1F1F1",
"5 c #E9E9E9",
/* pixels */
"111111111111111111111111111111111",
"111111111111111111111111111111111",
"1111111111111111111111<-%+1111111",
"111111111111111115;&#X....1111111",
"1111111111111<=%OX........1111111",
"1111111111111*............1111111",
"1111111111111*......o@&;;.1111111",
"1111111111111*..+%=,1111>.1111111",
"1111111111111*@411111111>.1111111",
"1111111111111*@111111111>.1111111",
"1111111111111*#111111111>.1111111",
"1111111111111*#111111111>.1111111",
"1111111111111*#11111,%@$&.1111111",
"1111111111111*#1111;X.....1111111",
"1111111111,;<*@1111%......1111111",
"11111111<+...O#1113&.....+1111111",
"11111111@.....#11115+...O>1111111",
"11111111O.....$111111;=:411111111",
"11111111&.....:111111111111111111",
"111111114*+X@:1111111111111111111",
"111111111111111111111111111111111",
"111111111111111111111111111111111"
};
