/* XPM */
static const char *const radio_1080[] = {
/* columns rows colors chars-per-pixel */
"50 33 20 1 ",
"  c #000000",
". c #010101",
"X c #050505",
"o c #090909",
"O c #181818",
"+ c #232323",
"@ c #3A3A3A",
"# c #484848",
"$ c #5D5D5D",
"% c #525252",
"& c #797979",
"* c #929292",
"= c #B6B6B6",
"- c #D2D2D2",
"; c #E7E7E7",
": c #FFFFFF",
"> c #FEFEFE",
", c #FDFDFD",
"< c #F9F9F9",
"1 c #F3F3F3",
/* pixels */
"::::::::::::::::::::::::::::::::::::::::::::::::::",
"::::::::::::::::::::::::::::::::::::::::::::::::::",
"::::::::::::::::::::::::::::::::::::::::::::::::::",
"::::::::::::::::::::::::::::::::::::::::::::::::::",
":::::::::::::::::::::::::::::<<:<-*$+:::::::::::::",
"::::::::::::::::::::::::::::1-*#O    :::::::::::::",
"::::::::::::::::::::::::;=&@X        :::::::::::::",
"::::::::::::::::::::-*$+             :::::::::::::",
"::::::::::::::::::::$                :::::::::::::",
"::::::::::::::::::::$            X#+ :::::::::::::",
"::::::::::::::::::::$      X O%*-1:$ :::::::::::::",
"::::::::::::::::::::$    +$*-:<<:::$ :::::::::::::",
"::::::::::::::::::::$ &=1::::::::::$ :::::::::::::",
"::::::::::::::::::::$ :::::::::::::$ :::::::::::::",
"::::::::::::::::::::$ :::::::::::::$ :::::::::::::",
"::::::::::::::::::::$ :::::::::::::$ :::::::::::::",
"::::::::::::::::::::$ :::::::::::::$ :::::::::::::",
"::::::::::::::::::::$ :::::::::::::$ :::::::::::::",
"::::::::::::::::::::$ :::::::1*@+#*% :::::::::::::",
"::::::::::::::::::::$ ::::::;+       :::::::::::::",
"::::::::::::::::::::$ ::::::%        :::::::::::::",
":::::::::::::::1=*=1$ ::::::o        :::::::::::::",
"::::::::::::::*OX  O+ ::::::O       O:::::::::::::",
":::::::::::::*        :::::<*       *:::::::::::::",
":::::::::::::+        :::::::&o   X&::::::::::::::",
":::::::::::::X       o::::::::;***;:::::::::::::::",
":::::::::::::#       #::::::::::::::::::::::::::::",
":::::::::::::-O    XO-::::::::::::::::::::::::::::",
"::::::::::::::;&+ O&;:::::::::::::::::::::::::::::",
"::::::::::::::::::::::::::::::::::::::::::::::::::",
"::::::::::::::::::::::::::::::::::::::::::::::::::",
"::::::::::::::::::::::::::::::::::::::::::::::::::",
"::::::::::::::::::::::::::::::::::::::::::::::::::"
};
