/* XPM */
static const char *const radio_2160[] = {
/* columns rows colors chars-per-pixel */
"100 66 25 1 ",
"  c #000000",
". c #010101",
"X c #030303",
"o c #050505",
"O c #0B0B0B",
"+ c #1C1C1C",
"@ c #151515",
"# c #383838",
"$ c #252525",
"% c #474747",
"& c #575757",
"* c #717171",
"= c #929292",
"- c #BFBFBF",
"; c #BBBBBB",
": c #B4B4B4",
"> c #A7A7A7",
", c #DBDBDB",
"< c #C9C9C9",
"1 c #E7E7E7",
"2 c #FFFFFF",
"3 c #FEFEFE",
"4 c #FCFCFC",
"5 c #FAFAFA",
"6 c #F3F3F3",
/* pixels */
"2222222222222222222222222222222222222222222222222222222222222222222222222222222222222222222222222222",
"2222222222222222222222222222222222222222222222222222222222222222222222222222222222222222222222222222",
"2222222222222222222222222222222222222222222222222222222222222222222222222222222222222222222222222222",
"2222222222222222222222222222222222222222222222222222222222222222222222222222222222222222222222222222",
"2222222222222222222222222222222222222222222222222222222222222222222222222222222222222222222222222222",
"2222222222222222222222222222222222222222222222222222222222222222222222222222222222222222222222222222",
"2222222222222222222222222222222222222222222222222222222222222222222222222222222222222222222222222222",
"2222222222222222222222222222222222222222222222222222222222222222222222252222222222222222222222222222",
"222222222222222222222222222222222222222222222222222222222222222222222,>*+222222222222222222222222222",
"22222222222222222222222222222222222222222222222222222222222222222,=&+    222222222222222222222222222",
"2222222222222222222222222222222222222222222222222222222222222<=&@        222222222222222222222222222",
"222222222222222222222222222222222222222222222222222222225<=%O            222222222222222222222222222",
"22222222222222222222222222222222222222222222222222226;=%O                222222222222222222222222222",
"2222222222222222222222222222222222222222222222226:*#o                    222222222222222222222222222",
"222222222222222222222222222222222222222222221>*#o o                      222222222222222222222222222",
"22222222222222222222222222222222222222222>&$                             222222222222222222222222222",
"22222222222222222222222222222222222222222+                               222222222222222222222222222",
"22222222222222222222222222222222222222222+                               222222222222222222222222222",
"22222222222222222222222222222222222222222+                               222222222222222222222222222",
"22222222222222222222222222222222222222222+                        +&=;   222222222222222222222222222",
"22222222222222222222222222222222222222222+                 o  +&=,222,   222222222222222222222222222",
"22222222222222222222222222222222222222222+                $&>,2222222,   222222222222222222222222222",
"22222222222222222222222222222222222222222+            $*>622222222222,   222222222222222222222222222",
"22222222222222222222222222222222222222222+     o o#*:6222222222222222,   222222222222222222222222222",
"22222222222222222222222222222222222222222+   O#*;62222222222222222222,   222222222222222222222222222",
"22222222222222222222222222222222222222222+  =222222222222222222222222,   222222222222222222222222222",
"22222222222222222222222222222222222222222+  <222222222222222222222222,   222222222222222222222222222",
"22222222222222222222222222222222222222222+  ;222222222222222222222222,   222222222222222222222222222",
"22222222222222222222222222222222222222222+  ;222222222222222222222222,   222222222222222222222222222",
"22222222222222222222222222222222222222222+  <222222222222222222222222,   222222222222222222222222222",
"22222222222222222222222222222222222222222+  ;222222222222222222222222,   222222222222222222222222222",
"22222222222222222222222222222222222222222+  ;222222222222222222222222,   222222222222222222222222222",
"22222222222222222222222222222222222222222+  ;222222222222222222222222,   222222222222222222222222222",
"22222222222222222222222222222222222222222+  <222222222222222222222222,   222222222222222222222222222",
"22222222222222222222222222222222222222222+  ;222222222222222222222222,   222222222222222222222222222",
"22222222222222222222222222222222222222222+  ;222222222222222222222222,   222222222222222222222222222",
"22222222222222222222222222222222222222222+  ;2222222222222256>*%%%*<2,   222222222222222222222222222",
"22222222222222222222222222222222222222222+  <22222222222225=@     oo$=   222222222222222222222222222",
"22222222222222222222222222222222222222222+  ;2222222222226%              222222222222222222222222222",
"22222222222222222222222222222222222222222+  ;222222222225%               222222222222222222222222222",
"22222222222222222222222222222222222222222+  ;22222222222=                222222222222222222222222222",
"22222222222222222222222222222222222222222+  ;22222222222$                222222222222222222222222222",
"22222222222222222222222222222222222222222+  <2222222222,                 222222222222222222222222222",
"22222222222222222222222222222225:*%##*=62+  ;2222222222<                 222222222222222222222222222",
"222222222222222222222222222222>+       O=@  ;2222222222,                +222222222222222222222222222",
"22222222222222222222222222222*              <22222222225@               &222222222222222222222222222",
"2222222222222222222222222222*               ;22222222222*               :222222222222222222222222222",
"222222222222222222222222222<o               ;222222222226+             %2222222222222222222222222222",
"222222222222222222222222222&                ;222222222222,@           #62222222222222222222222222222",
"222222222222222222222222222$                <22222222222221%        O*622222222222222222222222222222",
"222222222222222222222222222O                ;222222222222222<*$O O#*12222222222222222222222222222222",
"222222222222222222222222222+                ,2222222222222225222522222222222222222222222222222222222",
"222222222222222222222222222&               +22222222222222222222222222222222222222222222222222222222",
"222222222222222222222222222;               *22222222222222222222222222222222222222222222222222222222",
"2222222222222222222222222222&             $622222222222222222222222222222222222222222222222222222222",
"22222222222222222222222222226%           +,222222222222222222222222222222222222222222222222222222222",
"222222222222222222222222222222*O        &12222222222222222222222222222222222222222222222222222222222",
"22222222222222222222222222222221=%+ @#*,222222222222222222222222222222222222222222222222222222222222",
"2222222222222222222222222222222252222222222222222222222222222222222222222222222222222222222222222222",
"2222222222222222222222222222222222222222222222222222222222222222222222222222222222222222222222222222",
"2222222222222222222222222222222222222222222222222222222222222222222222222222222222222222222222222222",
"2222222222222222222222222222222222222222222222222222222222222222222222222222222222222222222222222222",
"2222222222222222222222222222222222222222222222222222222222222222222222222222222222222222222222222222",
"2222222222222222222222222222222222222222222222222222222222222222222222222222222222222222222222222222",
"2222222222222222222222222222222222222222222222222222222222222222222222222222222222222222222222222222",
"2222222222222222222222222222222222222222222222222222222222222222222222222222222222222222222222222222"
};
