/* XPM */
static const char *const rec[] = {
/* columns rows colors chars-per-pixel */
"100 66 16 1 ",
"  c #000000",
". c #171717",
"X c #292929",
"o c #363636",
"O c #464646",
"+ c #565656",
"@ c #6A6A6A",
"# c #767676",
"$ c #858585",
"% c #979797",
"& c #A8A8A8",
"* c #BABABA",
"= c #CBCBCB",
"- c #DCDCDC",
"; c #E9E9E9",
": c #FFFFFF",
/* pixels */
"::::::::::::::::::::::::::::::::::::::::::::::::::::::::::::::::::::::::::::::::::::::::::::::::::::",
"::::::::::::::::::::::::::::::::::::::::::::::::::::::::::::::::::::::::::::::::::::::::::::::::::::",
"::::::::::::::::::::::::::::::::::::::::::::::::::::::::::::::::::::::::::::::::::::::::::::::::::::",
"::::::::::::::::::::::::::::::::::::::::::::::::::::::::::::::::::::::::::::::::::::::::::::::::::::",
"::::::::::::::::::::::::::::::::::::::::::::::::::::::::::::::::::::::::::::::::::::::::::::::::::::",
"::::::::::::::::::::::::::::::::::::::::::::::::::::::::::::::::::::::::::::::::::::::::::::::::::::",
"::::::::::::::::::::::::::::::::::::::::::::::::::::::::::::::::::::::::::::::::::::::::::::::::::::",
"::::::::::::::::::::::::::::::::::::::::::::::::::::::::::::::::::::::::::::::::::::::::::::::::::::",
"::::::===============--::::::::::::::;=======================;:::::::::::::;%+.. .X@&:::::::::::::::",
"::::::                  .+&::::::::::@                       $::::::::::::#          .%:::::::::::::",
"::::::                     X=::::::::@                       #::::::::::=X             O;:::::::::::",
"::::::                      .=:::::::@                       $:::::::::=.               o;::::::::::",
"::::::                       X:::::::@                       $::::::::-.                 @::::::::::",
"::::::                        %::::::@                       $::::::::o                   &:::::::::",
"::::::                        .::::::@                       $:::::::$                    X:::::::::",
"::::::                         *:::::@                       $::::::;.                     &::::::::",
"::::::                         #:::::@                       $::::::$                      X::::::::",
"::::::                         o:::::@                       $::::::.                       =:::::::",
"::::::         @@@@+o          .:::::@                       $:::::*                        #:::::::",
"::::::         ::::::-.         ;::::@        #------------;-;:::::@          X%=&O         X:::::::",
"::::::         ;::::::&         -::::@        %::::::::::::::::::::.         +:::::@         ;::::::",
"::::::         ::::::::         =::::@        %:::::::::::::::::::-         X:::::::o        &::::::",
"::::::         ::::::::.        =::::@        %:::::::::::::::::::&         &:::::::=        @::::::",
"::::::         ::::::::X        -::::@        $:::::::::::::::::::$        .:::::::::X     X#;::::::",
"::::::         ::::::::.        ;::::@        %:::::::::::::::::::+        @:::::::::#  .@*:::::::::",
"::::::         :::::::-         :::::@        %:::::::::::::::::::o        &:::::::::*O&::::::::::::",
"::::::         :::::::#        X:::::@        #=============;:::::.        -::::::::::::::::::::::::",
"::::::         :::::;$         +:::::@                      %::::;         :::::::::::::::::::::::::",
"::::::         @@@@O           %:::::@                      %::::;        .:::::::::::::::::::::::::",
"::::::                         ;:::::@                      %::::;        X:::::::::::::::::::::::::",
"::::::                        @::::::@                      %::::=        o:::::::::::::::::::::::::",
"::::::                        -::::::@                      %::::=        o:::::::::::::::::::::::::",
"::::::                       #:::::::@                      %::::*        O:::::::::::::::::::::::::",
"::::::                      O::::::::@                      %::::*        O:::::::::::::::::::::::::",
"::::::                     @:::::::::@                      %::::=        o:::::::::::::::::::::::::",
"::::::                   O=::::::::::@                      %::::=        o:::::::::::::::::::::::::",
"::::::                   .&::::::::::@        X+++++++++++++*::::-        X:::::::::::::::::::::::::",
"::::::         #+          %:::::::::@        %::::::::::::::::::;        .:::::::::::%:::::::::::::",
"::::::         ;:=          ;::::::::@        %:::::::::::::::::::         ::::::::::; .%:::::::::::",
"::::::         :::$         @::::::::@        %:::::::::::::::::::.        ;:::::::::*   .%:::::::::",
"::::::         :::;          -:::::::@        %:::::::::::::::::::o        *:::::::::$     X%:::::::",
"::::::         ::::+         #:::::::@        %:::::::::::::::::::+        $:::::::::+       X::::::",
"::::::         ::::&         .;::::::@        %:::::::::::::::::::$        O:::::::::        o::::::",
"::::::         ::::;.         &::::::@        $:::::::::::::::::::=         ;:::::::%        +::::::",
"::::::         :::::+         +::::::@        %:::::::::::::::::::;         @:::::::X        %::::::",
"::::::         :::::&          ::::::@        %::::::::::::::::::::O         %:::::+         =::::::",
"::::::         :::::;.         *:::::@        .oooooooooooooXO:::::$          +&=%o         .:::::::",
"::::::         ::::::O         @:::::@                       .:::::-                        +:::::::",
"::::::         ::::::&         .:::::@                       .::::::O                       &:::::::",
"::::::         ::::::;          =::::@                       .::::::*                      .::::::::",
"::::::         :::::::O         #::::@                       .:::::::X                     #::::::::",
"::::::         :::::::%         X::::@                       .:::::::&                    .;::::::::",
"::::::         :::::::;          -:::@                       .::::::::O                   %:::::::::",
"::::::         ::::::::o         $:::@                       .::::::::;.                 o::::::::::",
"::::::         ::::::::%         o:::@                       .:::::::::=.               .;::::::::::",
"::::::         ::::::::;          ;::@                       .::::::::::=.             X;:::::::::::",
"::::::         :::::::::o         %::@                       .:::::::::::;@.          @;::::::::::::",
"::::::---------:::::::::;--------;;::;;----------------------;:::::::::::::;%@X.. .O$;::::::::::::::",
"::::::::::::::::::::::::::::::::::::::::::::::::::::::::::::::::::::::::::::::::::::::::::::::::::::",
"::::::::::::::::::::::::::::::::::::::::::::::::::::::::::::::::::::::::::::::::::::::::::::::::::::",
"::::::::::::::::::::::::::::::::::::::::::::::::::::::::::::::::::::::::::::::::::::::::::::::::::::",
"::::::::::::::::::::::::::::::::::::::::::::::::::::::::::::::::::::::::::::::::::::::::::::::::::::",
"::::::::::::::::::::::::::::::::::::::::::::::::::::::::::::::::::::::::::::::::::::::::::::::::::::",
"::::::::::::::::::::::::::::::::::::::::::::::::::::::::::::::::::::::::::::::::::::::::::::::::::::",
"::::::::::::::::::::::::::::::::::::::::::::::::::::::::::::::::::::::::::::::::::::::::::::::::::::",
"::::::::::::::::::::::::::::::::::::::::::::::::::::::::::::::::::::::::::::::::::::::::::::::::::::"
};
