/* XPM */
static const char *const rec_720[] = {
/* columns rows colors chars-per-pixel */
"33 22 23 1 ",
"  c #000000",
". c #010101",
"X c #030303",
"o c #060606",
"O c #0B0B0B",
"+ c #151515",
"@ c #2A2A2A",
"# c #373737",
"$ c #464646",
"% c #565656",
"& c #666666",
"* c #747474",
"= c #929292",
"- c #A8A8A8",
"; c #B8B8B8",
": c #C7C7C7",
"> c #D3D3D3",
", c #E6E6E6",
"< c #FFFFFF",
"1 c #FEFEFE",
"2 c #FDFDFD",
"3 c #F9F9F9",
"4 c #F3F3F3",
/* pixels */
"<<<<<<<<<<<<<<<<<<<<<<<<<<<<<<<<<",
"<<<<<<<<<<<<<<<<<<<<<<<<<<<<<<<<<",
"<$$$$$$*:<<<%$$$$$$$=<<<,&+o#-<<<",
"<        ;<<O       *<<,+     -<<",
"<        #<<O       *<<%      O3<",
"<   @@O   ,<+       *<>o       -<",
"<   ><>   ><+  :<<<<<<=  o-,#  %<",
"<   ><<o  :<+  :<<<<<<$  %<<> O=<",
"<   ><>  o,<+  =:>:>3<#  =<<<;32<",
"<   $%O  +<<+       ><+  ;<<<<<2<",
"<        =<<+       ><O  :<<<<<<<",
"<       *2<<O       ><+  :<<<<<<<",
"<   $  o=<<<O  =----4<@  ;<<<><<<",
"<   >*  O,<<+  ;<<<<<<@  =<<2O#;<",
"<   >>  o=2<O  :<<<<<<&  &<<: o+<",
"<   >2@  #22+  =;;;;><=  o;>#  %<",
"<   ><*  o,<O       $<,o       =<",
"<   ><>o  =<+       $<<&      O4<",
"< o ><<+  $<+       $<<,@     -<<",
"<%%%><<=%%%<&%%%%%%%=<<<>&@o@-<<<",
"<<<<<<<<<<<<<<<<<<<<<<<<<<<<<<<<<",
"<<<<<<<<<<<<<<<<<<<<<<<<<<<<<<<<<"
};
