/* XPM */
static const char *const rec_1080[] = {
/* columns rows colors chars-per-pixel */
"50 33 23 1 ",
"  c #000000",
". c #010101",
"X c #030303",
"o c #060606",
"O c #0C0C0C",
"+ c #151515",
"@ c #242424",
"# c #3B3B3B",
"$ c #585858",
"% c #484848",
"& c #666666",
"* c #6C6C6C",
"= c #7B7B7B",
"- c #919191",
"; c #B2B2B2",
": c #D9D9D9",
"> c #C7C7C7",
", c #E9E9E9",
"< c #FFFFFF",
"1 c #FEFEFE",
"2 c #FDFDFD",
"3 c #FAFAFA",
"4 c #F2F2F2",
/* pixels */
"<<<<<<<<<<<<<<<<<<<<<<<<<<<<<<<<<<<<<<<<<<<<<<<<<<",
"<<<<<<<<<<<<<<<<<<<<<<<<<<<<<<<<<<<<<<<<<<<<<<<<<<",
"<<<<<<<<<<<<<<<<<<<<<<<<<<<<<<<<<<<<<<<<<<<<<<<<<<",
"<<<<<<<<<<<<<<<<<<<<<<<<<<<<<<<<<<<<<<<<<<<<<<<<<<",
"<<<&&&&&&&*=;,<<<<:&*&&&&&&*&&-<<<<<4;%+o@*,<<<<<<",
"<<<          O;<<<;           #<<<<,%      +><<<<<",
"<<<           O,<<;           #<<<<$        +,<<<<",
"<<<            =<<;o          #<<4;          *<<<<",
"<<<      o     #<<;           #<<<@          o4<<<",
"<<<    $;;=o   o<<;    $&&&&&&-<3>     #$+    ;<<<",
"<<<    =<<<&    ,<;o   ><<<<<<<<<-    &<<:+   $<<<",
"<<<    =<<<-    ,<;    ><<<<<<<<<%   o,<<<=  o=<<<",
"<<<    -<<<=    3<;    ><<<<<<<<<@   #<<<<>#-4<<<<",
"<<<    =<<,+   @<<;    %&&&*&&:<3o   *<<<<<<<<<<<<",
"<<<    +#@     &<<;o          ><4    -<<<<<<<<<<<<",
"<<<            :<<;o          ><,    -<<<<<<<<<<<<",
"<<<           =<<<;           ><,    -<<<<<<<<<<<<",
"<<<    o    +-3<<<;           ><4   o-<<<<<<<<<<<<",
"<<<    ++   o-3<<<;o   -;;;;;;,<3   o-3<<<<,3<<<<<",
"<<<    =4@   o:<<<;o   >3<434<<<<+   =3<<3,o*,<<<<",
"<<<    -<-    $<<<;o   ><<<<<<<<<@   $<<<<;o o*<<<",
"<<<    =<,     ,<<;   o><<<<<<<<3$   +3<<<$   @<<<",
"<<<    =<<%    -<<;    ><<<<<<<<<-    =<<:o   &<<<",
"<<<    =<<-    %<<;o   +@@+@@@@<<:     %$O    -<<<",
"<<<    =<<,    o4<;           o<<<%          o,<<<",
"<<<    =<<<#    ;<;           o<<<>          &<<<<",
"<<<    =<<<-    $3;o          o<<<3$        +,<<<<",
"<<<    -<<<:    +4;           o<<<<4#      o><<<<<",
"<<<&&&&;<<<<=&&&&::&&&&&&&&&&&*<<<<<<-#+o@&:<<<<<<",
"<<<<<<<<<<<<<<<<<<<<<<<<<<<<<<<<<<<<<<<<<<<<<<<<<<",
"<<<<<<<<<<<<<<<<<<<<<<<<<<<<<<<<<<<<<<<<<<<<<<<<<<",
"<<<<<<<<<<<<<<<<<<<<<<<<<<<<<<<<<<<<<<<<<<<<<<<<<<",
"<<<<<<<<<<<<<<<<<<<<<<<<<<<<<<<<<<<<<<<<<<<<<<<<<<"
};
