/* XPM */
static const char *const rec_2160[] = {
/* columns rows colors chars-per-pixel */
"100 66 25 1 ",
"  c #000000",
". c #010101",
"X c #030303",
"o c #050505",
"O c #0C0C0C",
"+ c #181818",
"@ c #363636",
"# c #292929",
"$ c #565656",
"% c #474747",
"& c #717171",
"* c #7D7D7D",
"= c #676767",
"- c #8B8B8B",
"; c #979797",
": c #AFAFAF",
"> c #CBCBCB",
", c #DDDDDD",
"< c #D4D4D4",
"1 c #E9E9E9",
"2 c #FFFFFF",
"3 c #FEFEFE",
"4 c #FCFCFC",
"5 c #FAFAFA",
"6 c #F4F4F4",
/* pixels */
"2222222222222222222222222222222222222222222222222222222222222222222222222222222222222222222222222222",
"2222222222222222222222222222222222222222222222222222222222222222222222222222222222222222222222222222",
"2222222222222222222222222222222222222222222222222222222222222222222222222222222222222222222222222222",
"2222222222222222222222222222222222222222222222222222222222222222222222222222222222222222222222222222",
"2222222222222222222222222222222222222222222222222222222222222222222222222222222222222222222222222222",
"2222222222222222222222222222222222222222222222222222222222222222222222222222222222222222222222222222",
"2222222222222222222222222222222222222222222222222222222222222222222222222222222222222222222222222222",
"2222222222222222222222222222222222222222222222222222222222222222222222222222222222222222222222222222",
"222222>>>>>>>>>>>>>>>,,525222222222221>>>>>>>>>>>>>>>>>>>>>>>122222222222221;$+O.+#=:122222222222222",
"222222..................+$:5222222222&.......................*222222222226&O..o......+;2222222222222",
"222222.....................#>22222222&.......................*2222222225>#.............%622222222222",
"222222......................O<2222222&.......................*222222222>O...............@62222222222",
"222222.......................#5222222&.......................*22222222,O.................=2222222222",
"222222........................;222222&.......................*22222222@...................:222222222",
"222222........................+222222&.......................*2222222-....................#222222222",
"222222.......................oo:22222&.......................*2222226O.....................;22222222",
"222222.........................&22222&.......................*222222-......................#22222222",
"222222.........................@22222&.......................*222225+.......................<2222222",
"222222.........=====@o.........O22222&.......................-22222:........................*5222222",
"222222.........522222<+.........12222&........*,,,,,,,,,,,,,,122222=.........o#;>:%.........#2222222",
"222222.........5222222:.........<2222&........-22222222222222222222+.........$52522&.........1522222",
"222222.........52222225.........>2222&........-2222222222222222222,.........#5222225@........:222222",
"222222.........52222222+........>2222&........-2222222222222222222:.........:5222222>........=222222",
"222222.........52222222#........,2222&........;2222222222222222222*........+552222222#.....#*1222222",
"222222.........52222222+........12222&........-2222222222222222222$........&222222222*..O=>222222222",
"222222.........5222222,.........22222&........-2222222222222222222@........:222222222:%:522222222222",
"222222.........5222222&........+22222&........&>>>>>>>>>>>>>122222O........<222222222222222222222222",
"222222.........522221-.........$22222&......................;22225.........5222222222222222222222222",
"222222.........====%o..........;22222&......................;22221........+2222222222222222222222222",
"222222........................O122222&......................;5222,........#2222222222222222222222222",
"222222........................=222222&......................;2222<........@2222222222222222222222222",
"222222.......................o,222222&......................;2222>........@2222222222222222222222222",
"222222.......................*2222222&......................;2222:O.......%2222222222222222222222222",
"222222......................%52222222&......................;5222:........@2222222222222222222222222",
"222222.....................&522222222&......................;2222>........@2222222222222222222222222",
"222222...................%>2222222222&......................;2222>........@2222222222222222222222222",
"222222...................+:5222222222&........#$$$$$$$$$$$$$:2222<........#2222222222222222222222222",
"222222.........&%O.........;222222222&........-2222225222222222251........+22222222222;5222222222222",
"222222.........52:O........O152222222&........;2222222222222222222.........52222222226o+;52222222222",
"222222.........522*.........=22222222&........-2222222222222222222+........1222222222:.o.+;522222222",
"222222.........5221O.........,2222222&........-2222222222222222222@.......o:222222222-.....+;5222222",
"222222.........5222%.........&2222222&........-2222222222222222222$........-222222225$.......#222222",
"222222.........5222:.........O5222222&........-2222222222222222222-........%222222225O.......@222222",
"222222.........52225O.........;222222&........-2222222222222222222:.........12222222;.......o$222222",
"222222.........52222$.........$222222&........-22222222222222222226o........=2222225+o.......;222222",
"222222.........52222:.........O522222&........-22222252222252222222@.........;22222$.........>222222",
"222222.........522226O.........:22222&........+@@@@#@@@@@#@@@@22222-..........%:>;@.........O2222222",
"222222.........522222%.........=22222&.......................O22222,........................$2222222",
"222222.........522222;.........+52222&.......................O222222%.......................:2222222",
"222222.........5222225o.........>2222&.......................O222222:......................+52222222",
"222222.........5222222%.........*5222&.......................O2222222#.....................*22222222",
"222222.........5222222;.........#2222&.......................O2222222:....................O122222222",
"222222.........52222221o.........,222&.......................O22222222%...................-222222222",
"222222.........52222222@.........-222&.......................O222222221+.................@2222222222",
"222222.........52222222;.........@222&.......................O222222222>O...............+12222222222",
"222222.........522222221..........122&.......................O2222222222>O.............#122222222222",
"222222.........522222222@.........;22&.......................O222222222221&O.o........=1222222222222",
"222222,,,,,,,,,2222222221,,,,,,,,,1221,,,,,,,,,,,,,,,,,,,,,,,,22222222222221;$#+oO+%-122222222222222",
"2222222222222222222222222222222222222222222222222222222222222222222222222222222222222222222222222222",
"2222222222222222222222222222222222222222222222222222222222222222222222222222222222222222222222222222",
"2222222222222222222222222222222222222222222222222222222222222222222222222222222222222222222222222222",
"2222222222222222222222222222222222222222222222222222222222222222222222222222222222222222222222222222",
"2222222222222222222222222222222222222222222222222222222222222222222222222222222222222222222222222222",
"2222222222222222222222222222222222222222222222222222222222222222222222222222222222222222222222222222",
"2222222222222222222222222222222222222222222222222222222222222222222222222222222222222222222222222222",
"2222222222222222222222222222222222222222222222222222222222222222222222222222222222222222222222222222"
};
