/* XPM */
static const char *const rec_576[] = {
/* columns rows colors chars-per-pixel */
"27 18 24 1 ",
"  c #000000",
". c #020202",
"X c #060606",
"o c #0C0C0C",
"O c #191919",
"+ c #393939",
"@ c #272727",
"# c #464646",
"$ c #585858",
"% c #737373",
"& c #7C7C7C",
"* c #696969",
"= c #858585",
"- c #969696",
"; c #B0B0B0",
": c #D8D8D8",
"> c #CACACA",
", c #EDEDED",
"< c #E5E5E5",
"1 c #FFFFFF",
"2 c #FEFEFE",
"3 c #FDFDFD",
"4 c #FAFAFA",
"5 c #F4F4F4",
/* pixels */
"111111111111111111111111111",
"1#####%<15######%114&OX$<11",
"1      +15      +11%    #11",
"1       :<      +1:      ;1",
"1  #-#  -,  +&&%-1=  @$  *1",
"1  %1:  -,  =11111# o:1# +1",
"1  %1>  -5  =11111O #11;-51",
"1  +=@  >5      =1X *111111",
"1      @1,      =1  &411111",
"1     @:1,      =1X %111111",
"1  +@ O:1,  *>>><1o *11:>11",
"1  %;  *1,  =11111@ #11= *1",
"1  %4o o1,  =41111$ o,1+ @1",
"1  %1#  >,  O+@+#1=  @#  $1",
"1  %1-  &<      O1<X     ;1",
"1  %1<  +5      O11&    +11",
"1##-11$##,######$414&Oo#<11",
"111111111111111111111111111"
};
