/* XPM */
static const char *const recording[] = {
/* columns rows colors chars-per-pixel */
"150 66 16 1 ",
"  c #000000",
". c #141414",
"X c #242424",
"o c #383838",
"O c #464646",
"+ c #595959",
"@ c #676767",
"# c #777777",
"$ c #8C8C8C",
"% c #9C9C9C",
"& c #AAAAAA",
"* c #B7B7B7",
"= c #D9D9D9",
"- c #C8C8C8",
"; c #E9E9E9",
": c #FFFFFF",
/* pixels */
"::::::::::::::::::::::::::::::::::::::::::::::::::::::::::::::::::::::::::::::::::::::::::::::::::::::::::::::::::::::::*#+o..  ..o+$*;:::::::::::::::",
"..........................XXXO+#&-:::::::::::::::::::%........................................#:::::::::::::::::::::;&O               .+*:::::::::::::",
"                                  .+*::::::::::::::::$                                        @::::::::::::::::::::$.                    o&:::::::::::",
"                                     O=::::::::::::::$                                        @::::::::::::::::::&.                        O;:::::::::",
"                                      .*:::::::::::::$                                        @:::::::::::::::::@                           .-::::::::",
"                                        &::::::::::::$                                        @:::::::::::::::;o                             .-:::::::",
"                                        .=:::::::::::$                                        @::::::::::::::;o                               .-::::::",
"                                         o:::::::::::$                                        @::::::::::::::o                                 X;:::::",
"                                          %::::::::::$                                        @:::::::::::::@                                   +:::::",
"                                          .::::::::::$                                        @::::::::::::&                                     &::::",
"                                           *:::::::::$                                        @:::::::::::;.                                     .::::",
"                                           +:::::::::$                                        @:::::::::::@                                       $:::",
"                                           .:::::::::$                                        @::::::::::=                                        X:::",
"                ......                      -::::::::$                                        @::::::::::+                                         *::",
"               &:::::::;=&O                 &::::::::$               OOOOOOoOOOOOoOOOOOOOOOOOO$:::::::::;                    .ooX                  o::",
"               %:::::::::::%                $::::::::$              .:::::::::::::::::::::::::::::::::::$                  @-::::=$.                =:",
"               %::::::::::::@               @::::::::$              .:::::::::::::::::::::::::::::::::::o                .-::::::::=X               $:",
"               &::::::::::::;               +::::::::$              .::::::::::::::::::::::::::::::::::=                .=::::::::::;o              o:",
"               %:::::::::::::X              O::::::::$              .::::::::::::::::::::::::::::::::::$                -::::::::::::-.              =",
"               %:::::::::::::O              +::::::::$              .::::::::::::::::::::::::::::::::::O               @::::::::::::::#              &",
"               &:::::::::::::O              +::::::::$              .::::::::::::::::::::::::::::::::::.               ;::::::::::::::;.          O%=:",
"               %:::::::::::::o              @::::::::$              X:::::::::::::::::::::::::::::::::=               O::::::::::::::::+      X@*:::::",
"               %::::::::::::;.              %::::::::$              .:::::::::::::::::::::::::::::::::&               &::::::::::::::::&  .O%=::::::::",
"               &::::::::::::%               *::::::::$              .:::::::::::::::::::::::::::::::::#               ;::::::::::::::::;@*;:::::::::::",
"               %:::::::::::;.               ;::::::::$              .;===;====;===;===;==;==;:::::::::+              X::::::::::::::::::::::::::::::::",
"               %::::::::::-o               X:::::::::$                                      O:::::::::o              +::::::::::::::::::::::::::::::::",
"               %;;;:;;=&@X                 $:::::::::$                                      O:::::::::.              #::::::::::::::::::::::::::::::::",
"                                           =:::::::::$                                      O:::::::::.              %::::::::::::::::::::::::::::::::",
"                                          +::::::::::$                                      O::::::::;               *::::::::::::::::::::::::::::::::",
"                                          =::::::::::$                                      O::::::::;               *::::::::::::::::::::::::::::::::",
"                                         #:::::::::::$                                      O::::::::=               -::::::::::::::::::::::::::::::::",
"                                        o::::::::::::$                                      O::::::::=               -::::::::::::::::::::::::::::::::",
"                                       X;::::::::::::$                                      O::::::::=               =::::::::::::::::::::::::::::::::",
"                                      o=:::::::::::::$                                      O::::::::=               =::::::::::::::::::::::::::::::::",
"                                     @;::::::::::::::$                                      O::::::::;               -::::::::::::::::::::::::::::::::",
"                                   +-::::::::::::::::$                                      O::::::::;               *::::::::::::::::::::::::::::::::",
"                                 $;::::::::::::::::::$                                      O::::::::;               *::::::::::::::::::::::::::::::::",
"                                 X$::::::::::::::::::$               XXXXXXXXXXXXXXXXXXXXXXX+:::::::::               *::::::::::::::::::::::::::::::::",
"                                   o=::::::::::::::::$              .:::::::::::::::::::::::::::::::::.              %::::::::::::::::::;:::::::::::::",
"               %:;*o                .=:::::::::::::::$              .:::::::::::::::::::::::::::::::::X              #::::::::::::::::::#o$;::::::::::",
"               %::::#                X:::::::::::::::$              .:::::::::::::::::::::::::::::::::O              +::::::::::::::::::o  .+*::::::::",
"               &:::::O                @::::::::::::::$              .:::::::::::::::::::::::::::::::::#              o::::::::::::::::::.     .#;:::::",
"               %:::::=.                -:::::::::::::$              .:::::::::::::::::::::::::::::::::%              .:::::::::::::::::*         O&:::",
"               %::::::+                o:::::::::::::$              .:::::::::::::::::::::::::::::::::*               -::::::::::::::::#           .#=",
"               &::::::=                 %::::::::::::$              .:::::::::::::::::::::::::::::::::;               $::::::::::::::::.             .",
"               %:::::::O                .::::::::::::$              X::::::::::::::::::::::::::::::::::o              o:::::::::::::::&              +",
"               %:::::::*                 &:::::::::::$              .::::::::::::::::::::::::::::::::::#               *::::::::::::::o              $",
"               &::::::::X                o:::::::::::$              .::::::::::::::::::::::::::::::::::*               o:::::::::::::%               -",
"               %::::::::%                 =::::::::::$              .::::::::::::::::::::::::::::::::::;.               @:::::::::::-.              .:",
"               %::::::::;                 @::::::::::$              .:::::::::::::::::::::::::::::::::::+                +;::::::::-.               @:",
"               &:::::::::@                .;:::::::::$              .@@@@@@@@@@@@@@@@@@@@@@@@@@-::::::::*                 X$;::::*@                 &:",
"               %:::::::::=                 &:::::::::$                                         *:::::::::X                   .XX.                  .::",
"               %::::::::::o                o:::::::::$                                         &:::::::::%                                         #::",
"               &::::::::::&                 -::::::::$                                         &::::::::::o                                        =::",
"               %:::::::::::.                @::::::::$                                         &::::::::::*                                       @:::",
"               %:::::::::::#                .::::::::$                                         &:::::::::::O                                      ;:::",
"               &:::::::::::;                 &:::::::$                                         &:::::::::::=.                                    #::::",
"               %::::::::::::+                o:::::::$                                         &::::::::::::&                                   o:::::",
"               %::::::::::::*                 -::::::$                                         &:::::::::::::+                                 .-:::::",
"               &:::::::::::::o                @::::::$                                         *::::::::::::::O                                *::::::",
"               %:::::::::::::%                .::::::$                                         &:::::::::::::::O                              %:::::::",
"               %:::::::::::::;.                %:::::$                                         &:::::::::::::::;+                           .&::::::::",
"               &::::::::::::::@                o:::::$                                         &:::::::::::::::::%.                        o-:::::::::",
"               %::::::::::::::=                 =::::$                                         &::::::::::::::::::;#.                    .$;::::::::::",
"XX.XXXXXX.XXXXX&:::::::::::::::+XX.XXXXX.XXXXXX.$::::%XXX.XXXXXXXXXX.XXXXXXX.XXXXX.XXXXX.XXXXX.*::::::::::::::::::::;%O                o$;::::::::::::",
":::::::::::::::::::::::::::::::::::::::::::::::::::::::::::::::::::::::::::::::::::::::::::::::::::::::::::::::::::::::;*$@oX.. ..XO#%=:::::::::::::::"
};
