/* XPM */
static const char *const recremote_2160[] = {
/* columns rows colors chars-per-pixel */
"100 66 24 1 ",
"  c #000000",
". c #010101",
"X c #030303",
"o c #050505",
"O c #0B0B0B",
"+ c #151515",
"@ c #252525",
"# c #373737",
"$ c #4A4A4A",
"% c #555555",
"& c #7A7A7A",
"* c #676767",
"= c #989898",
"- c #878787",
"; c #A8A8A8",
": c #BABABA",
"> c #CECECE",
", c #ECECEC",
"< c #E3E3E3",
"1 c #FFFFFF",
"2 c #FEFEFE",
"3 c #FDFDFD",
"4 c #F9F9F9",
"5 c #F4F4F4",
/* pixels */
"1111111111111111111111111111111111111111111111111111111111111111111111111111111111111111111111111111",
"1111111111111111111111111111111111111111111111111111111111111111111111111111111111111111111111111111",
"1111111111111111111111111111111111111111111111111111111111111111111111111111111111111111111111111111",
"1111111111111111111111111111111111111111111111111111111111111111111111111111111111111111111111111111",
"1111111111111111111111111111111111111111111111111111111111111111111111111111111111111111111111111111",
"1111111111111111111111111111111111111111111111111111111111111111111111111111111111111111111111111111",
"1111111111111111111111111111111111111111411411111114141111411111111111111111111111111111111111111111",
"111111,,,,5,,5,,,5,,,5111111111111111,,,,,,,,,,,,,,,,,,,,,,,,,,51111111111111114,4111111111111111111",
"111111.................+@*=,111111111..........................&1111111111<=%@+...o@%-,1111111111111",
"111111.....................O=11111111..........................&11111111>%.............%<41111111111",
"111111.......................&1111111..........................&1111111-o...............O=1111111111",
"111111........................:111111..........................&111114%...................=111111111",
"111111........................@111111..........................&11111*.....................:11111111",
"111111.........................>11111..........................&1111;......................+51111111",
"111111........+;;;;=&@.........-11111.........o$$$$$$$$$$$$$$$$;111,O..............o........-1111111",
"111111.......o@1111114#........*11111.........+11111111111111111111-.........O->5,;@........O5111111",
"111111........@1111111;........%11111.........+11111111111111111111@........+>111114%........;111111",
"111111........@1111111>........*11111.........+1111111111111111111>.........>11111115@.....o#;111111",
"111111........@1111111;o.......-11111.........+1141111111114111111=........$111111111=.+$->511111111",
"111111........@1111115@........;11111.........+:::>::>:::::>::,114*........=111111111,>1111111111111",
"111111........+>>>>=*+o.......+511111.........................;111#........>111111111111111111111111",
"111111........o...............&111111.........................;111@........5111111111111111111111111",
"111111.......................@5111111.........................:111+.......O1111111111111111111111111",
"111111.....................o@<1111111.........................;111........+1111111111111111111111111",
"111111....................o*,11111111.........................;111O.......O1111111111111111111111111",
"111111...................&<1111111111.........................;111+.......o1111111111111111111111111",
"111111........o#+........O*4111111111.........O>>>>:>>>>>>>>>>5111@........,1111111111:4111111111111",
"111111........@11=.........%411111111.........+1151115114154511111$........>111111111,oO%;5111111111",
"111111........@111-.........-11111111.........+1111111111111111111&........=111111111;....o$=,111111",
"111111........@1114@........o>1111111.........+1111111111111111111:........#111111111#.......@111111",
"111111........@1111=.........$4111111.........+41111111111111111115O........:4111111;........*111111",
"111111........@11114+o........>411111.........+11111111111111111111*........o:11111:O........:111111",
"111111........@11111=.........%111111.........O&&&&&&&&&&&&&&&&&111<..........#&-*#.........+1111111",
"111111.......o@111115+.........>11111...........................1111*............o..........=1111111",
"111111........@111111-.........*11111...........................11115@o....................#11111111",
"111111........@1111115+........o,4111...........................11111>+...................+>11111111",
"111111........@1111111-.........&1111...........................111111>O.................O>111111111",
"111111........@1111111,+........O5111...........................1111114<#...............#<1111111111",
"111111......oo@11111111&.........-111...........................111111111:$o..........#=411111111111",
"111111%%%%%%%%*11111111,%%%%%%%%%*111$%%$%%$%%%%%%%$%%%$%%$%%$%%111111111145:=**%%*&;<11111111111111",
"1111111111111111111111111111111111111111111111111111111141111111111111111111111111111111111111111111",
"1111111111111111111111111111111111111111111111111111111111111111111111111111111111111111111111111111",
"11111111111111111111111111,;:111111111111111111111111111111111111111111=:411111111111111111111111111",
"111111111111111111111114:%O.@41111111111111111111111111111111111111111<..+%:111111111111111111111111",
"111111111111111111111>*+.....;1111111111111111111111111111111111111111*.....+*>111111111111111111111",
"111111111111111111>&+........@111111111111111111111111111111111111111<o........@&<111111111111111111",
"111111111111111>&@.........+*:4111111111111111111111111111111111111115;$o.........#=,111111111111111",
"111111111114<=#.........O$;411111111111111111111111111111111111111111111,;$..........#=5111111111111",
"111111111,=#..........O+@@@+@@@@@@@@@@@@@@@@@@@@@@@+@@@@@+@@@@@+@@@@@+@@@@@++o.........o$;4111111111",
"1111115=#..................o.......................o......................................o#=4111111",
"111111-@..................................................................................oo#:111111",
"11111111,=#.............................................................................O#=544111111",
"11111111111<-@o........O$;<<<<<<<<<<<<<<<<<<<<<<<<<<<<<<<<<<<<<<<<<<<<<<<>-#o.........$=511111111111",
"11111111111111>-@.........+%:411111111111111111111111111111111111111115:%O.........@-,11111111111111",
"11111111111111111>*+.........@111111111111111111111111111111111111111>O.o.......@-<11111111111111111",
"11111111111111111114>*+......&1111111111111111111111111111111111111111#......+*>11111111111111111111",
"11111111111111111111114:%O..O,1111111111111111111111111111111111111111:...+%:11111111111111111111111",
"11111111111111111111111115=$&111111111111111111111111111111111111111114$%:11111111111111111111111111",
"1111111111111111111111111111111111111111111111111111111111111111111111111111111111111111111111111111",
"1111111111111111111111111111111111111111111111111111111111111111111111111111111111111111111111111111",
"1111111111111111111111111111111111111111111111111111111111111111111111111111111111111111111111111111",
"1111111111111111111111111111111111111111111111111111111111111111111111111111111111111111111111111111",
"1111111111111111111111111111111111111111111111111111111111111111111111111111111111111111111111111111",
"1111111111111111111111111111111111111111111111111111111111111111111111111111111111111111111111111111",
"1111111111111111111111111111111111111111111111111111111111111111111111111111111111111111111111111111",
"1111111111111111111111111111111111111111111111111111111111111111111111111111111111111111111111111111"
};
