/* XPM */
static const char *const recremote_576[] = {
/* columns rows colors chars-per-pixel */
"27 18 24 1 ",
"  c #000000",
". c #020202",
"X c #060606",
"o c #0B0B0B",
"O c #191919",
"+ c #292929",
"@ c #383838",
"# c #545454",
"$ c #484848",
"% c #656565",
"& c #797979",
"* c #9D9D9D",
"= c #898989",
"- c #AAAAAA",
"; c #B9B9B9",
": c #C7C7C7",
"> c #DADADA",
", c #EEEEEE",
"< c #E0E0E0",
"1 c #FFFFFF",
"2 c #FEFEFE",
"3 c #FDFDFD",
"4 c #F9F9F9",
"5 c #F3F3F3",
/* pixels */
"111111111111111111111111111",
"111111111111111111111111111",
"1-++++@=11+++++++<1:#+@=511",
"1* XOO  -4  ooooo>-X  X #41",
"1* X,,OX&1  #,,,,5+ @>-XO>1",
"4- X-=o *1  +%%%=<X -11>511",
"1*    X%51      +>  :411111",
"1* X=XX=11  $>>><<X -14&-,1",
"4-XX5% o>4  $><>>5+ $>*X :1",
"1* o5>XX%1     X ;;o    #11",
"1-+@41%+$,+++++++:1:#@@&,11",
"111111,;11111111111;,111111",
"111,-#X$5111111111,@o#-,111",
"1,%O  X++O+++OO+O++Oo XO&,1",
"11,-$Xo%;::::::::::#oo$-,11",
"11111,*%11111111114%*,11111",
"111111111111111111111111111",
"111111111111111111111111111"
};
