/* XPM */
static const char *const recremote_1080[] = {
/* columns rows colors chars-per-pixel */
"50 33 23 1 ",
"  c #000000",
". c #010101",
"X c #020202",
"o c #060606",
"O c #0B0B0B",
"+ c #121212",
"@ c #1D1D1D",
"# c #282828",
"$ c #3A3A3A",
"% c #525252",
"& c #676767",
"* c #787878",
"= c #848484",
"- c #979797",
"; c #AEAEAE",
": c #DBDBDB",
"> c #C7C7C7",
", c #E6E6E6",
"< c #F3F3F3",
"1 c #FFFFFF",
"2 c #FEFEFE",
"3 c #FCFCFC",
"4 c #F9F9F9",
/* pixels */
"11111111111111111111111111111111111111111111111111",
"11111111111111111111111111111111111111111111111111",
"11111411111111111111111111111111111111111111111111",
"1114444444411111114<<4<4<<4<<<<4111111114111111111",
"111        X#&,111*            $1111>&#X O$=111111",
"111           #<11=            $111*        #,1111",
"111            *11*            %11=          $4111",
"111    *:>;O   $11=    &;;-;;-;;1:X   X%*$    -111",
"111    -111&   #11=   X=411111111*   X;111&   &111",
"111    -114$   %11*   X*:::,:,:41$   $1111:*;<1111",
"111    $&%@   X-11=            :1@   *111111111111",
"111           %111=            :1X   =111111111111",
"111         #-4111=    X       :1X  X=111111111111",
"111    %&X   &1111*    *,,,,,,,41@   &11111&;11111",
"111    -1&    -111=   X=111111111%   $1111;X +&111",
"111    -1,O   +<11=    =111111111-    -11,$X  %111",
"111    -11&   X=11*X   #$$%$$$$%14@    #%O    ;111",
"111    -11,    @41=             11;O         %1111",
"111    -111&  X -1=             111;+X      %,1111",
"111####;114:$###%1-#############1111<=%$#$&;111111",
"11111111111111111111111111111111111111111111111111",
"111111111111>&;11111111111111111111-*>111111111111",
"111111114:*@  $11111111111111111114#  #*:411111111",
"111111:=#   +&>11111111111111111111;&+   $=,111111",
"111,=$     O+++++++O++++++++++++++++++X     $-,111",
"111;&O                                      +&;111",
"111114;%O XX$=,<<<<<<<<<<<<<<<<<<<<:=$   O&;111111",
"111111114-%X  #11111111111414111114+  X%;411111111",
"11111111111,-$-11111111111111111111*%-<11111111111",
"11111111111111111111111111111111111141111111111111",
"11111111111111111111111111111111111141111111111111",
"11111111111111111111111111111111111111111111111111",
"11111111111111111111111111111111111111111111111111"
};
