/* XPM */
static const char *const recremote_720[] = {
/* columns rows colors chars-per-pixel */
"33 22 23 1 ",
"  c #000000",
". c #030303",
"X c #050505",
"o c #0D0D0D",
"O c #161616",
"+ c #383838",
"@ c #272727",
"# c #474747",
"$ c #575757",
"% c #6D6D6D",
"& c #989898",
"* c #858585",
"= c #A4A4A4",
"- c #BABABA",
"; c #B3B3B3",
": c #D6D6D6",
"> c #C6C6C6",
", c #E6E6E6",
"< c #F3F3F3",
"1 c #FFFFFF",
"2 c #FEFEFE",
"3 c #FCFCFC",
"4 c #FAFAFA",
/* pixels */
"111111111111111111111111111111111",
"111111111111111111111111111111111",
"11=====;><1<-=======;<14:;=->4111",
"14      O$4<#       @,1&+X X@&<11",
"14  o+#o o;<#  @++++$,&o X@oXo&11",
"14  +:,% X*<#  %:,:,,,#X *>&O #11",
"14  +-># X=<#  #&&&&>:O +<14>:111",
"14  XOO  +<<#       %>X #<1111111",
"14  X@  #,1<#  @$###=>X #<11,,111",
"14  +;@ o=4<#  *<<1<4:O @<1<%#*11",
"14  +,=o O,<#  %>-->>,$  %>*o #41",
"14  +:,+  &,#  oOOOOo,-o XoX o=11",
"14oo#,1&oo#:#oXooXooo,1;#OoO+=111",
"11--><1<---<>--------<11,>->:1111",
"111111,-%*1111111111111%%-,111111",
"1111:%+O@&1111111111111*@O+*:1111",
"11-+   ooooooooXoXoooooooX   #-41",
"11:;$O X#*=&========&==*+X O%;:11",
"111114=$@$1111111111111+@$-411111",
"11111114>:1111111111111::41111111",
"111111111111111111111111111111111",
"111111111111111111111111111111111"
};
