/* XPM */
static const char *const recsml_720[] = {
/* columns rows colors chars-per-pixel */
"24 30 21 1 ",
"  c #020202",
". c #0A0A0A",
"X c #111111",
"o c #1A1A1A",
"O c #383838",
"+ c #272727",
"@ c #464646",
"# c #595959",
"$ c #787878",
"% c #666666",
"& c #888888",
"* c #979797",
"= c #AAAAAA",
"- c #A3A3A3",
"; c #B5B5B5",
": c #CFCFCF",
"> c #E8E8E8",
", c #FFFFFF",
"< c #FCFCFC",
"1 c #FAFAFA",
"2 c #F3F3F3",
/* pixels */
",,,,,,,,,,,,,,,,,,,,,,,,",
",    o#2,,,,,,,,,,,,,,,,",
",  OO  *,,,,,,,,,,,,,,,,",
",  ;1@ %,,,,,,,,,,,,,,,,",
",  %$  =,,,,,,,,,,,,,,,,",
",     &,,,,,,,,,,,,,,,,,",
",  *+ #,,,,,,,,,,,,,,,,,",
",  ;=  ;,,,,,,,,,,,,,,,,",
",  ;,+ @,,,,,,,,,,,,,,,,",
",##:,=##2,,,,,,,,,,,,,,,",
",,,,,,,,,======2,,,,,,,,",
",,,,,,,,,X     >,,,,,,,,",
",,,,,,,,,X #$$$2,,,,,,,,",
",,,,,,,,,X *>>>,,,,,,,,,",
",,,,,,,,,X    +,,,,,,,,,",
",,,,,,,,,X O##$,,,,,,,,,",
",,,,,,,,,X =,,,,,,,,,,,,",
",,,,,,,,,X O###:,,,,,,,,",
",,,,,,,,,X     :,,,,,,,,",
",,,,,,,,,;=;;=;2,,,,,,,,",
",,,,,,,,,,,,,,,,,2&#$:,,",
",,,,,,,,,,,,,,,,>+    :,",
",,,,,,,,,,,,,,,,$ o=# O,",
",,,,,,,,,,,,,,,,@ &,2=2,",
",,,,,,,,,,,,,,,,+ =,,,,,",
",,,,,,,,,,,,,,,,O -,,*>,",
",,,,,,,,,,,,,,,,% @1- +,",
",,,,,,,,,,,,,,,,:X    &,",
",,,,,,,,,,,,,,,,,;O o$1,",
",,,,,,,,,,,,,,,,,,,,,,,,"
};
