/* XPM */
static const char *const recsml_576[] = {
/* columns rows colors chars-per-pixel */
"20 24 23 1 ",
"  c #020202",
". c #0D0D0D",
"X c #181818",
"o c #222222",
"O c #2A2A2A",
"+ c #393939",
"@ c #575757",
"# c #494949",
"$ c #7B7B7B",
"% c #747474",
"& c #696969",
"* c #9A9A9A",
"= c #969696",
"- c #898989",
"; c #B7B7B7",
": c #A8A8A8",
"> c #C6C6C6",
", c #D5D5D5",
"< c #FFFFFF",
"1 c #FEFEFE",
"2 c #FAFAFA",
"3 c #F5F5F5",
"4 c #E4E4E4",
/* pixels */
"<<<<<<<<<<<<<<<<<<<<",
"<   .#3<<<<<<<<<<<<<",
"< X=+ :<<<<<<<<<<<<<",
"< o;# ;<<<<<<<<<<<<<",
"<    %2<<<<<<<<<<<<<",
"< o* +<<<<<<<<<<<<<<",
"< o2+ ;<<<<<<<<<<<<<",
"<+@<;+&<<<<<<<<<<<<<",
"<<<<<<<,====><<<<<<<",
"<<<<<<<=    %<<<<<<<",
"<<<<<<<= -333<<<<<<<",
"<<<<<<<= Xoo;<<<<<<<",
"<<<<<<<= #$-,<<<<<<<",
"<<<<<<<= $,,4<<<<<<<",
"<<<<<<<*    @<<<<<<<",
"<<<<<<<,*=**><<<<<<<",
"<<<<<<<<<<<<<<>@#%3<",
"<<<<<<<<<<<<<4..+ &<",
"<<<<<<<<<<<<<- :2-:<",
"<<<<<<<<<<<<<& ><<<<",
"<<<<<<<<<<<<<$ ;<$=<",
"<<<<<<<<<<<<<> O& #<",
"<<<<<<<<<<<<<<=o #4<",
"<<<<<<<<<<<<<<<<<2<<"
};
