/* XPM */
static const char *const recsml[] = {
/* columns rows colors chars-per-pixel */
"66 84 16 1 ",
"  c #010101",
". c #191919",
"X c #262626",
"o c #333333",
"O c #454545",
"+ c #5A5A5A",
"@ c #686868",
"# c #747474",
"$ c #878787",
"% c #9A9A9A",
"& c #AAAAAA",
"* c #B8B8B8",
"= c #C8C8C8",
"- c #D8D8D8",
"; c #E9E9E9",
": c #FFFFFF",
/* pixels */
"            .XO#-:::::::::::::::::::::::::::::::::::::::::::::::::",
".                %::::::::::::::::::::::::::::::::::::::::::::::::",
"                  &:::::::::::::::::::::::::::::::::::::::::::::::",
".                 .:::::::::::::::::::::::::::::::::::::::::::::::",
"                   &::::::::::::::::::::::::::::::::::::::::::::::",
".     X***&#       $::::::::::::::::::::::::::::::::::::::::::::::",
"      o:::::%      @::::::::::::::::::::::::::::::::::::::::::::::",
".     o:::::;      +::::::::::::::::::::::::::::::::::::::::::::::",
"      o:::::-      #::::::::::::::::::::::::::::::::::::::::::::::",
".     o:::::+      %::::::::::::::::::::::::::::::::::::::::::::::",
"      .$$$+.       ;::::::::::::::::::::::::::::::::::::::::::::::",
".                 #:::::::::::::::::::::::::::::::::::::::::::::::",
"                 o::::::::::::::::::::::::::::::::::::::::::::::::",
".               @;::::::::::::::::::::::::::::::::::::::::::::::::",
"              X=::::::::::::::::::::::::::::::::::::::::::::::::::",
".     .$o      .=:::::::::::::::::::::::::::::::::::::::::::::::::",
"      o::@      .;::::::::::::::::::::::::::::::::::::::::::::::::",
".     o::;       @::::::::::::::::::::::::::::::::::::::::::::::::",
"      o:::#       =:::::::::::::::::::::::::::::::::::::::::::::::",
".     o:::;       +:::::::::::::::::::::::::::::::::::::::::::::::",
"      o::::+       ;::::::::::::::::::::::::::::::::::::::::::::::",
".     o::::-       #::::::::::::::::::::::::::::::::::::::::::::::",
"      o:::::O      .::::::::::::::::::::::::::::::::::::::::::::::",
".     o:::::*       %:::::::::::::::::::::::::::::::::::::::::::::",
"      o::::::o      o:::::::::::::::::::::::::::::::::::::::::::::",
".     o::::::%       =::::::::::::::::::::::::::::::::::::::::::::",
"::::::::::::::::::::::::::::::::::::::::::::::::::::::::::::::::::",
"::::::::::::::::::::::::::::::::::::::::::::::::::::::::::::::::::",
"::::::::::::::::::::::::::::::::::::::::::::::::::::::::::::::::::",
"::::::::::::::::::::::::                  ::::::::::::::::::::::::",
"::::::::::::::::::::::::                  ::::::::::::::::::::::::",
"::::::::::::::::::::::::                  ::::::::::::::::::::::::",
"::::::::::::::::::::::::                  ::::::::::::::::::::::::",
"::::::::::::::::::::::::                  ::::::::::::::::::::::::",
"::::::::::::::::::::::::      X###########::::::::::::::::::::::::",
"::::::::::::::::::::::::      o:::::::::::::::::::::::::::::::::::",
"::::::::::::::::::::::::      O:::::::::::::::::::::::::::::::::::",
"::::::::::::::::::::::::      O:::::::::::::::::::::::::::::::::::",
"::::::::::::::::::::::::      o&&&&&&&&&&;::::::::::::::::::::::::",
"::::::::::::::::::::::::                 =::::::::::::::::::::::::",
"::::::::::::::::::::::::                 =::::::::::::::::::::::::",
"::::::::::::::::::::::::                 =::::::::::::::::::::::::",
"::::::::::::::::::::::::                 =::::::::::::::::::::::::",
"::::::::::::::::::::::::                 =::::::::::::::::::::::::",
"::::::::::::::::::::::::      O:::::::::::::::::::::::::::::::::::",
"::::::::::::::::::::::::      o:::::::::::::::::::::::::::::::::::",
"::::::::::::::::::::::::      O:::::::::::::::::::::::::::::::::::",
"::::::::::::::::::::::::      O:::::::::::::::::::::::::::::::::::",
"::::::::::::::::::::::::      O:::::::::::::::::::::::::::::::::::",
"::::::::::::::::::::::::       ...........&:::::::::::::::::::::::",
"::::::::::::::::::::::::                  &:::::::::::::::::::::::",
"::::::::::::::::::::::::                  &:::::::::::::::::::::::",
"::::::::::::::::::::::::                  &:::::::::::::::::::::::",
"::::::::::::::::::::::::                  &:::::::::::::::::::::::",
"::::::::::::::::::::::::                  &:::::::::::::::::::::::",
"::::::::::::::::::::::::::::::::::::::::::::::::::::::::::::::::::",
"::::::::::::::::::::::::::::::::::::::::::::::::::::::::::::::::::",
"::::::::::::::::::::::::::::::::::::::::::::::::::::::::::::::::::",
":::::::::::::::::::::::::::::::::::::::::::::::::::*@o. .X+%::::::",
":::::::::::::::::::::::::::::::::::::::::::::::::=o         .&::::",
"::::::::::::::::::::::::::::::::::::::::::::::::&             $:::",
":::::::::::::::::::::::::::::::::::::::::::::::&               *::",
"::::::::::::::::::::::::::::::::::::::::::::::;.               .::",
"::::::::::::::::::::::::::::::::::::::::::::::#        X.       %:",
"::::::::::::::::::::::::::::::::::::::::::::::.      @;::&.     o:",
":::::::::::::::::::::::::::::::::::::::::::::&      O:::::*      ;",
":::::::::::::::::::::::::::::::::::::::::::::#      -::::::o o#*;:",
":::::::::::::::::::::::::::::::::::::::::::::O     X:::::::-;:::::",
":::::::::::::::::::::::::::::::::::::::::::::X     O::::::::::::::",
":::::::::::::::::::::::::::::::::::::::::::::.     @::::::::::::::",
":::::::::::::::::::::::::::::::::::::::::::::      #::::::::::::::",
":::::::::::::::::::::::::::::::::::::::::::::      #::::::::::::::",
":::::::::::::::::::::::::::::::::::::::::::::.     #::::::::::::::",
":::::::::::::::::::::::::::::::::::::::::::::X     +:::::::=$;::::",
":::::::::::::::::::::::::::::::::::::::::::::O     o:::::::#  O&;:",
":::::::::::::::::::::::::::::::::::::::::::::#      ;::::::.    .*",
":::::::::::::::::::::::::::::::::::::::::::::*      #:::::%      -",
"::::::::::::::::::::::::::::::::::::::::::::::.      $:::&      X:",
"::::::::::::::::::::::::::::::::::::::::::::::$        X        $:",
":::::::::::::::::::::::::::::::::::::::::::::::X               .::",
":::::::::::::::::::::::::::::::::::::::::::::::=               &::",
"::::::::::::::::::::::::::::::::::::::::::::::::&             #:::",
":::::::::::::::::::::::::::::::::::::::::::::::::*.         .&::::",
":::::::::::::::::::::::::::::::::::::::::::::::::::&@o. .XO$;:::::"
};
