/* XPM */
static const char *const recsml_1080[] = {
/* columns rows colors chars-per-pixel */
"34 43 19 1 ",
"  c #020202",
". c #0A0A0A",
"X c #161616",
"o c #262626",
"O c #363636",
"+ c #474747",
"@ c #555555",
"# c #787878",
"$ c #686868",
"% c #8A8A8A",
"& c #979797",
"* c #B9B9B9",
"= c #B2B2B2",
"- c #C6C6C6",
"; c #DBDBDB",
": c #FFFFFF",
"> c #FBFBFB",
", c #F3F3F3",
"< c #ECECEC",
/* pixels */
"::::::::::::::::::::::::::::::::::",
":      XO-::::::::::::::::::::::::",
":        .;:::::::::::::::::::::::",
":   @#+   %:::::::::::::::::::::::",
":   =::O  $:::::::::::::::::::::::",
":   =:,X  %:::::::::::::::::::::::",
":   Xo.  .;:::::::::::::::::::::::",
":       o=::::::::::::::::::::::::",
":   @X. @,::::::::::::::::::::::::",
":   *-   $::::::::::::::::::::::::",
":   =:@  .;:::::::::::::::::::::::",
":   =:*.  #:::::::::::::::::::::::",
":   =::O  X,::::::::::::::::::::::",
":@@@-::*@@@-::::::::::::::::::::::",
":::::::::::::>:>::::::::::::::::::",
"::::::::::::-oooooooo%::::::::::::",
"::::::::::::*       .#::::::::::::",
"::::::::::::*   ooooo%::::::::::::",
"::::::::::::*   >:::::::::::::::::",
"::::::::::::*   ;;;;;>::::::::::::",
"::::::::::::*        ;::::::::::::",
"::::::::::::*      . ;::::::::::::",
"::::::::::::*   %%%%%,::::::::::::",
"::::::::::::*   >:::::::::::::::::",
"::::::::::::*   <,,,,,::::::::::::",
"::::::::::::*       .+::::::::::::",
"::::::::::::*. .     +::::::::::::",
"::::::::::::-oOoOoOOo#::::::::::::",
"::::::::::::::::::::::::::::::::::",
":::::::::::::::::::::::::,%$@%-:::",
"::::::::::::::::::::::::-X    .%::",
":::::::::::::::::::::::<X      .-:",
":::::::::::::::::::::::%  .&-+  @:",
":::::::::::::::::::::::O  #:>,O%-:",
":::::::::::::::::::::::.  *:::::::",
":::::::::::::::::::::::. .-:::::::",
":::::::::::::::::::::::X  -:::<:::",
":::::::::::::::::::::::o  &>:,XO&:",
":::::::::::::::::::::::#  O,:#. O:",
":::::::::::::::::::::::;.  .X   &:",
"::::::::::::::::::::::::%     .O>:",
":::::::::::::::::::::::::=+X.o#,::",
"::::::::::::::::::::::::::::>:::::"
};
