/* XPM */
static const char *const sfwd[] = {
/* columns rows colors chars-per-pixel */
"112 84 50 1 ",
"  c #000000",
". c #1B1B1B",
"X c #292929",
"o c #323232",
"O c #3A3A3A",
"+ c #424242",
"@ c #484848",
"# c #4E4E4E",
"$ c #535353",
"% c #595959",
"& c #5E5E5E",
"* c #636363",
"= c #676767",
"- c #6C6C6C",
"; c #707070",
": c #747474",
"> c #787878",
", c #7C7C7C",
"< c #808080",
"1 c #848484",
"2 c #888888",
"3 c #8B8B8B",
"4 c #929292",
"5 c #969696",
"6 c #999999",
"7 c #9C9C9C",
"8 c #A2A2A2",
"9 c #A5A5A5",
"0 c #ABABAB",
"q c #AEAEAE",
"w c #B1B1B1",
"e c #B6B6B6",
"r c #B9B9B9",
"t c #BEBEBE",
"y c #C2C2C2",
"u c #C5C5C5",
"i c #C9C9C9",
"p c #CFCFCF",
"a c #D3D3D3",
"s c #D5D5D5",
"d c #DBDBDB",
"f c #DCDCDC",
"g c #E0E0E0",
"h c #E7E7E7",
"j c #EBEBEB",
"k c #EDEDED",
"l c #F2F2F2",
"z c #F7F7F7",
"x c #F8F8F8",
"c c #FFFFFF",
/* pixels */
"cccccccccccccccccccccccccccccccccccccccccccccccccccccccccccccccccccccccccccccccccccccccccccccccccccccccccccccccc",
"cccccccccccccccccccccccccccccccccccccccccccccccccccccccccccccccccccccccccccccccccccccccccccccccccccccccccccccccc",
"cccccccccccccccccccccccccccccccccccccccccccccccccccccccccccccccccccccccccccccccccccccccccccccccccccccccccccccccc",
"cccccccccccccccccccccccccccccccccccccccccccccccccccccccccccccccccccccccccccccccccccccccccccccccccccccccccccccccc",
"cccccccccccccccccccccccccccccccccccccccccccccccccccccccccccccccccccccccccccccccccccccccccccccccccccccccccccccccc",
"ccccccccc                        ccccccccccc                     icccccccccccccccccccccccccccccccccccccccccccccc",
"ccccccccc                        ccccccccccch                     7ccccccccccccccccccccccccccccccccccccccccccccc",
"ccccccccc                        ccccccccccccx;                    $zccccccccccccccccccccccccccccccccccccccccccc",
"ccccccccc                        cccccccccccccc0                     gcccccccccccccccccccccccccccccccccccccccccc",
"ccccccccc                        cccccccccccccccs                     tccccccccccccccccccccccccccccccccccccccccc",
"ccccccccc                        cccccccccccccccckX                    2xccccccccccccccccccccccccccccccccccccccc",
"ccccccccc                        cccccccccccccccccx1                    Olcccccccccccccccccccccccccccccccccccccc",
"ccccccccc                        cccccccccccccccccccr                     sccccccccccccccccccccccccccccccccccccc",
"ccccccccc                        ccccccccccccccccccccf                     wcccccccccccccccccccccccccccccccccccc",
"ccccccccc                        cccccccccccccccccccccl#                    >xcccccccccccccccccccccccccccccccccc",
"ccccccccc                        ccccccccccccccccccccccc5                     jccccccccccccccccccccccccccccccccc",
"ccccccccc                        ccccccccccccccccccccccccu                     pcccccccccccccccccccccccccccccccc",
"ccccccccc                        ccccccccccccccccccccccccch                     8ccccccccccccccccccccccccccccccc",
"ccccccccc                        ccccccccccccccccccccccccccz=                    *zccccccccccccccccccccccccccccc",
"ccccccccc                        cccccccccccccccccccccccccccc9                     gcccccccccccccccccccccccccccc",
"ccccccccc                        cccccccccccccccccccccccccccccp                     yccccccccccccccccccccccccccc",
"ccccccccc                        ccccccccccccccccccccccccccccccj                     4cccccccccccccccccccccccccc",
"ccccccccc                        cccccccccccccccccccccccccccccccx,                    @lcccccccccccccccccccccccc",
"ccccccccc                        ccccccccccccccccccccccccccccccccce                     dccccccccccccccccccccccc",
"ccccccccc                        ccccccccccccccccccccccccccccccccccd                     ecccccccccccccccccccccc",
"ccccccccc                        cccccccccccccccccccccccccccccccccccl+                    <xcccccccccccccccccccc",
"ccccccccc                        ccccccccccccccccccccccccccccccccccccx4                    .kccccccccccccccccccc",
"ccccccccc                        cccccccccccccccccccccccccccccccccccccct                     acccccccccccccccccc",
"ccccccccc                        cccccccccccccccccccccccccccccccccccccccg                     0ccccccccccccccccc",
"ccccccccc                        ccccccccccccccccccccccccccccccccccccccccz&                    -zccccccccccccccc",
"ccccccccc                        cccccccccccccccccccccccccccccccccccccccccc7                     hcccccccccccccc",
"ccccccccc                        ccccccccccccccccccccccccccccccccccccccccccci                     uccccccccccccc",
"ccccccccc                        cccccccccccccccccccccccccccccccccccccccccccch                     6xccccccccccc",
"ccccccccc                        cccccccccccccccccccccccccccccccccccccccccccccx:                    $zcccccccccc",
"ccccccccc                        cccccccccccccccccccccccccccccccccccccccccccccccq                     fccccccccc",
"ccccccccc                        ccccccccccccccccccccccccccccccccccccccccccccccccs                     tcccccccc",
"ccccccccc                        cccccccccccccccccccccccccccccccccccccccccccccccccko                    1ccccccc",
"ccccccccc                        cccccccccccccccccccccccccccccccccccccccccccccccccko                    2ccccccc",
"ccccccccc                        ccccccccccccccccccccccccccccccccccccccccccccccccs                     rcccccccc",
"ccccccccc                        cccccccccccccccccccccccccccccccccccccccccccccccq                     fccccccccc",
"ccccccccc                        cccccccccccccccccccccccccccccccccccccccccccccx:                    $lcccccccccc",
"ccccccccc                        ccccccccccccccccccccccccccccccccccccccccccccj                     6cccccccccccc",
"ccccccccc                        ccccccccccccccccccccccccccccccccccccccccccci                     uccccccccccccc",
"ccccccccc                        cccccccccccccccccccccccccccccccccccccccccc7                     hcccccccccccccc",
"ccccccccc                        ccccccccccccccccccccccccccccccccccccccccz&                    -zccccccccccccccc",
"ccccccccc                        cccccccccccccccccccccccccccccccccccccccg                     9ccccccccccccccccc",
"ccccccccc                        ccccccccccccccccccccccccccccccccccccccy                     acccccccccccccccccc",
"ccccccccc                        ccccccccccccccccccccccccccccccccccccc2                    .kccccccccccccccccccc",
"ccccccccc                        cccccccccccccccccccccccccccccccccccl+                    <xcccccccccccccccccccc",
"ccccccccc                        ccccccccccccccccccccccccccccccccccd                     ecccccccccccccccccccccc",
"ccccccccc                        cccccccccccccccccccccccccccccccccr                     dccccccccccccccccccccccc",
"ccccccccc                        cccccccccccccccccccccccccccccccx,                    @lcccccccccccccccccccccccc",
"ccccccccc                        ccccccccccccccccccccccccccccccj                     4cccccccccccccccccccccccccc",
"ccccccccc                        cccccccccccccccccccccccccccccp                     yccccccccccccccccccccccccccc",
"ccccccccc                        cccccccccccccccccccccccccccc9                     gcccccccccccccccccccccccccccc",
"ccccccccc                        ccccccccccccccccccccccccccz=                    *zccccccccccccccccccccccccccccc",
"ccccccccc                        ccccccccccccccccccccccccch                     8ccccccccccccccccccccccccccccccc",
"ccccccccc                        ccccccccccccccccccccccccu                     pcccccccccccccccccccccccccccccccc",
"ccccccccc                        ccccccccccccccccccccccc5                     jccccccccccccccccccccccccccccccccc",
"ccccccccc                        cccccccccccccccccccccl#                    >xcccccccccccccccccccccccccccccccccc",
"ccccccccc                        ccccccccccccccccccccf                     wcccccccccccccccccccccccccccccccccccc",
"ccccccccc                        cccccccccccccccccccr                     sccccccccccccccccccccccccccccccccccccc",
"ccccccccc                        cccccccccccccccccx1                    Olcccccccccccccccccccccccccccccccccccccc",
"ccccccccc                        cccccccccccccccckX                    2xccccccccccccccccccccccccccccccccccccccc",
"ccccccccc                        ccccccccccccccca                     tccccccccccccccccccccccccccccccccccccccccc",
"ccccccccc                        cccccccccccccc0                     gcccccccccccccccccccccccccccccccccccccccccc",
"ccccccccc                        ccccccccccccx;                    %zccccccccccccccccccccccccccccccccccccccccccc",
"ccccccccc                        ccccccccccch                     7ccccccccccccccccccccccccccccccccccccccccccccc",
"ccccccccc                        ccccccccccc                     icccccccccccccccccccccccccccccccccccccccccccccc",
"cccccccccccccccccccccccccccccccccccccccccccccccccccccccccccccccccccccccccccccccccccccccccccccccccccccccccccccccc",
"cccccccccccccccccccccccccccccccccccccccccccccccccccccccccccccccccccccccccccccccccccccccccccccccccccccccccccccccc",
"cccccccccccccccccccccccccccccccccccccccccccccccccccccccccccccccccccccccccccccccccccccccccccccccccccccccccccccccc",
"cccccccccccccccccccccccccccccccccccccccccccccccccccccccccccccccccccccccccccccccccccccccccccccccccccccccccccccccc",
"cccccccccccccccccccccccccccccccccccccccccccccccccccccccccccccccccccccccccccccccccccccccccccccccccccccccccccccccc",
"cccccccccccccccccccccccccccccccccccccccccccccccccccccccccccccccccccccccccccccccccccccccccccccccccccccccccccccccc",
"cccccccccccccccccccccccccccccccccccccccccccccccccccccccccccccccccccccccccccccccccccccccccccccccccccccccccccccccc",
"cccccccccccccccccccccccccccccccccccccccccccccccccccccccccccccccccccccccccccccccccccccccccccccccccccccccccccccccc",
"cccccccccccccccccccccccccccccccccccccccccccccccccccccccccccccccccccccccccccccccccccccccccccccccccccccccccccccccc",
"cccccccccccccccccccccccccccccccccccccccccccccccccccccccccccccccccccccccccccccccccccccccccccccccccccccccccccccccc",
"cccccccccccccccccccccccccccccccccccccccccccccccccccccccccccccccccccccccccccccccccccccccccccccccccccccccccccccccc",
"cccccccccccccccccccccccccccccccccccccccccccccccccccccccccccccccccccccccccccccccccccccccccccccccccccccccccccccccc",
"cccccccccccccccccccccccccccccccccccccccccccccccccccccccccccccccccccccccccccccccccccccccccccccccccccccccccccccccc",
"cccccccccccccccccccccccccccccccccccccccccccccccccccccccccccccccccccccccccccccccccccccccccccccccccccccccccccccccc",
"cccccccccccccccccccccccccccccccccccccccccccccccccccccccccccccccccccccccccccccccccccccccccccccccccccccccccccccccc"
};
