/* XPM */
static const char *const srew3[] = {
/* columns rows colors chars-per-pixel */
"112 84 49 1 ",
"  c #000000",
". c #1B1B1B",
"X c #292929",
"o c #323232",
"O c #3A3A3A",
"+ c #424242",
"@ c #484848",
"# c #4E4E4E",
"$ c #535353",
"% c #595959",
"& c #5E5E5E",
"* c #636363",
"= c #676767",
"- c #6C6C6C",
"; c #747474",
": c #787878",
"> c #7C7C7C",
", c #808080",
"< c #848484",
"1 c #8B8B8B",
"2 c #8F8F8F",
"3 c #929292",
"4 c #969696",
"5 c #9C9C9C",
"6 c #9F9F9F",
"7 c #A2A2A2",
"8 c #A5A5A5",
"9 c #A8A8A8",
"0 c #AEAEAE",
"q c #B1B1B1",
"w c #B6B6B6",
"e c #B9B9B9",
"r c #BEBEBE",
"t c #C2C2C2",
"y c #C7C7C7",
"u c #C9C9C9",
"i c #CDCDCD",
"p c #D1D1D1",
"a c #D7D7D7",
"s c #DBDBDB",
"d c #DCDCDC",
"f c #E1E1E1",
"g c #E6E6E6",
"h c #E9E9E9",
"j c #ECECEC",
"k c #F2F2F2",
"l c #F7F7F7",
"z c #FAFAFA",
"x c #FFFFFF",
/* pixels */
"xxxxxxxxxxxxxxxxxxxxxxxxxxxxxxxxxxxxxxxxxxxxxxxxxxxxxxxxxxxxxxxxxxxxxxxxxxxxxxxxxxxxxxxxxxxxxxxxxxxxxxxxxxxxxxxx",
"xxxxxxxxxxxxxxxxxxxxxxxxxxxxxxxxxxxxxxxxxxxxxxxxxxxxxxxxxxxxxxxxxxxxxxxxxxxxxxxxxxxxxxxxxxxxxxxxxxxxxxxxxxxxxxxx",
"xxxxxxxxxxxxxxxxxxxxxxxxxxxxxxxxxxxxxxxxxxxxxxxxxxxxxxxxxxxxxxxxxxxxxxxxxxxxxxxxxxxxxxxxxxxxxxxxxxxxxxxxxxxxxxxx",
"xxxxxxxxxxxxxxxxxxxxxxxxxxxxxxxxxxxxxxxxxxxxxxxxxxxxxxxxxxxxxxxxxxxxxxxxxxxxxxxxxxxxxxxxxxxxxxxxxxxxxxxxxxxxxxxx",
"xxxxxxxxxxxxxxxxxxxxxxxxxxxxxxxxxxxxxxxxxxxxxxxxxxxxxxxxxxxxxxxxxxxxxxxxxxxxxxxxxxxxxxxxxxxxxxxxxxxxxxxxxxxxxxxx",
"xxxxxxxxxxxxxxxxxxxxxxxxxxxxxxxxxxxxxxxxxxxxxxxxu                     xxxxxxxxxxx                        xxxxxxx",
"xxxxxxxxxxxxxxxxxxxxxxxxxxxxxxxxxxxxxxxxxxxxxxx5                     gxxxxxxxxxxx                        xxxxxxx",
"xxxxxxxxxxxxxxxxxxxxxxxxxxxxxxxxxxxxxxxxxxxxxl%                    -zxxxxxxxxxxxx                        xxxxxxx",
"xxxxxxxxxxxxxxxxxxxxxxxxxxxxxxxxxxxxxxxxxxxxf                     9xxxxxxxxxxxxxx                        xxxxxxx",
"xxxxxxxxxxxxxxxxxxxxxxxxxxxxxxxxxxxxxxxxxxxr                     axxxxxxxxxxxxxxx                        xxxxxxx",
"xxxxxxxxxxxxxxxxxxxxxxxxxxxxxxxxxxxxxxxxxx1                    Xjxxxxxxxxxxxxxxxx                        xxxxxxx",
"xxxxxxxxxxxxxxxxxxxxxxxxxxxxxxxxxxxxxxxxjO                    <zxxxxxxxxxxxxxxxxx                        xxxxxxx",
"xxxxxxxxxxxxxxxxxxxxxxxxxxxxxxxxxxxxxxxa                     exxxxxxxxxxxxxxxxxxx                        xxxxxxx",
"xxxxxxxxxxxxxxxxxxxxxxxxxxxxxxxxxxxxxxq                     dxxxxxxxxxxxxxxxxxxxx                        xxxxxxx",
"xxxxxxxxxxxxxxxxxxxxxxxxxxxxxxxxxxxxz:                    #kxxxxxxxxxxxxxxxxxxxxx                        xxxxxxx",
"xxxxxxxxxxxxxxxxxxxxxxxxxxxxxxxxxxxh                     4xxxxxxxxxxxxxxxxxxxxxxx                        xxxxxxx",
"xxxxxxxxxxxxxxxxxxxxxxxxxxxxxxxxxxi                     yxxxxxxxxxxxxxxxxxxxxxxxx                        xxxxxxx",
"xxxxxxxxxxxxxxxxxxxxxxxxxxxxxxxxx7                     gxxxxxxxxxxxxxxxxxxxxxxxxx                        xxxxxxx",
"xxxxxxxxxxxxxxxxxxxxxxxxxxxxxxxl*                    =lxxxxxxxxxxxxxxxxxxxxxxxxxx                        xxxxxxx",
"xxxxxxxxxxxxxxxxxxxxxxxxxxxxxxf                     8xxxxxxxxxxxxxxxxxxxxxxxxxxxx                        xxxxxxx",
"xxxxxxxxxxxxxxxxxxxxxxxxxxxxxt                     pxxxxxxxxxxxxxxxxxxxxxxxxxxxxx                        xxxxxxx",
"xxxxxxxxxxxxxxxxxxxxxxxxxxxx3                     hxxxxxxxxxxxxxxxxxxxxxxxxxxxxxx                        xxxxxxx",
"xxxxxxxxxxxxxxxxxxxxxxxxxxk@                    >zxxxxxxxxxxxxxxxxxxxxxxxxxxxxxxx                        xxxxxxx",
"xxxxxxxxxxxxxxxxxxxxxxxxxs                     qxxxxxxxxxxxxxxxxxxxxxxxxxxxxxxxxx                        xxxxxxx",
"xxxxxxxxxxxxxxxxxxxxxxxxw                     sxxxxxxxxxxxxxxxxxxxxxxxxxxxxxxxxxx                        xxxxxxx",
"xxxxxxxxxxxxxxxxxxxxxxz,                    +kxxxxxxxxxxxxxxxxxxxxxxxxxxxxxxxxxxx                        xxxxxxx",
"xxxxxxxxxxxxxxxxxxxxxj.                    2xxxxxxxxxxxxxxxxxxxxxxxxxxxxxxxxxxxxx                        xxxxxxx",
"xxxxxxxxxxxxxxxxxxxxp                     rxxxxxxxxxxxxxxxxxxxxxxxxxxxxxxxxxxxxxx                        xxxxxxx",
"xxxxxxxxxxxxxxxxxxx9                     fxxxxxxxxxxxxxxxxxxxxxxxxxxxxxxxxxxxxxxx                        xxxxxxx",
"xxxxxxxxxxxxxxxxxl-                    &lxxxxxxxxxxxxxxxxxxxxxxxxxxxxxxxxxxxxxxxx                        xxxxxxx",
"xxxxxxxxxxxxxxxxg                     5xxxxxxxxxxxxxxxxxxxxxxxxxxxxxxxxxxxxxxxxxx                        xxxxxxx",
"xxxxxxxxxxxxxxxy                     uxxxxxxxxxxxxxxxxxxxxxxxxxxxxxxxxxxxxxxxxxxx                        xxxxxxx",
"xxxxxxxxxxxxxx5                     hxxxxxxxxxxxxxxxxxxxxxxxxxxxxxxxxxxxxxxxxxxxx                        xxxxxxx",
"xxxxxxxxxxxxk$                    ;zxxxxxxxxxxxxxxxxxxxxxxxxxxxxxxxxxxxxxxxxxxxxx                        xxxxxxx",
"xxxxxxxxxxxd                     0xxxxxxxxxxxxxxxxxxxxxxxxxxxxxxxxxxxxxxxxxxxxxxx                        xxxxxxx",
"xxxxxxxxxxe                     axxxxxxxxxxxxxxxxxxxxxxxxxxxxxxxxxxxxxxxxxxxxxxxx                        xxxxxxx",
"xxxxxxxxx<                    okxxxxxxxxxxxxxxxxxxxxxxxxxxxxxxxxxxxxxxxxxxxxxxxxx                        xxxxxxx",
"xxxxxxxxx1                    ojxxxxxxxxxxxxxxxxxxxxxxxxxxxxxxxxxxxxxxxxxxxxxxxxx                        xxxxxxx",
"xxxxxxxxxxe                     axxxxxxxxxxxxxxxxxxxxxxxxxxxxxxxxxxxxxxxxxxxxxxxx                        xxxxxxx",
"xxxxxxxxxxxd                     0xxxxxxxxxxxxxxxxxxxxxxxxxxxxxxxxxxxxxxxxxxxxxxx                        xxxxxxx",
"xxxxxxxxxxxxk$                    ;zxxxxxxxxxxxxxxxxxxxxxxxxxxxxxxxxxxxxxxxxxxxxx                        xxxxxxx",
"xxxxxxxxxxxxxx5                     hxxxxxxxxxxxxxxxxxxxxxxxxxxxxxxxxxxxxxxxxxxxx                        xxxxxxx",
"xxxxxxxxxxxxxxxy                     uxxxxxxxxxxxxxxxxxxxxxxxxxxxxxxxxxxxxxxxxxxx                        xxxxxxx",
"xxxxxxxxxxxxxxxxg                     5xxxxxxxxxxxxxxxxxxxxxxxxxxxxxxxxxxxxxxxxxx                        xxxxxxx",
"xxxxxxxxxxxxxxxxxl-                    &lxxxxxxxxxxxxxxxxxxxxxxxxxxxxxxxxxxxxxxxx                        xxxxxxx",
"xxxxxxxxxxxxxxxxxxx9                     fxxxxxxxxxxxxxxxxxxxxxxxxxxxxxxxxxxxxxxx                        xxxxxxx",
"xxxxxxxxxxxxxxxxxxxxp                     txxxxxxxxxxxxxxxxxxxxxxxxxxxxxxxxxxxxxx                        xxxxxxx",
"xxxxxxxxxxxxxxxxxxxxxj.                    2zxxxxxxxxxxxxxxxxxxxxxxxxxxxxxxxxxxxx                        xxxxxxx",
"xxxxxxxxxxxxxxxxxxxxxxz,                    +kxxxxxxxxxxxxxxxxxxxxxxxxxxxxxxxxxxx                        xxxxxxx",
"xxxxxxxxxxxxxxxxxxxxxxxxw                     sxxxxxxxxxxxxxxxxxxxxxxxxxxxxxxxxxx                        xxxxxxx",
"xxxxxxxxxxxxxxxxxxxxxxxxxs                     qxxxxxxxxxxxxxxxxxxxxxxxxxxxxxxxxx                        xxxxxxx",
"xxxxxxxxxxxxxxxxxxxxxxxxxxk@                    >zxxxxxxxxxxxxxxxxxxxxxxxxxxxxxxx                        xxxxxxx",
"xxxxxxxxxxxxxxxxxxxxxxxxxxxx3                     jxxxxxxxxxxxxxxxxxxxxxxxxxxxxxx                        xxxxxxx",
"xxxxxxxxxxxxxxxxxxxxxxxxxxxxxt                     ixxxxxxxxxxxxxxxxxxxxxxxxxxxxx                        xxxxxxx",
"xxxxxxxxxxxxxxxxxxxxxxxxxxxxxxf                     8xxxxxxxxxxxxxxxxxxxxxxxxxxxx                        xxxxxxx",
"xxxxxxxxxxxxxxxxxxxxxxxxxxxxxxxl*                    =lxxxxxxxxxxxxxxxxxxxxxxxxxx                        xxxxxxx",
"xxxxxxxxxxxxxxxxxxxxxxxxxxxxxxxxx7                     gxxxxxxxxxxxxxxxxxxxxxxxxx                        xxxxxxx",
"xxxxxxxxxxxxxxxxxxxxxxxxxxxxxxxxxxi                     yxxxxxxxxxxxxxxxxxxxxxxxx                        xxxxxxx",
"xxxxxxxxxxxxxxxxxxxxxxxxxxxxxxxxxxxh                     4xxxxxxxxxxxxxxxxxxxxxxx                        xxxxxxx",
"xxxxxxxxxxxxxxxxxxxxxxxxxxxxxxxxxxxxz:                    #kxxxxxxxxxxxxxxxxxxxxx                        xxxxxxx",
"xxxxxxxxxxxxxxxxxxxxxxxxxxxxxxxxxxxxxxq                     dxxxxxxxxxxxxxxxxxxxx                        xxxxxxx",
"xxxxxxxxxxxxxxxxxxxxxxxxxxxxxxxxxxxxxxxa                     exxxxxxxxxxxxxxxxxxx                        xxxxxxx",
"xxxxxxxxxxxxxxxxxxxxxxxxxxxxxxxxxxxxxxxxjO                    ,xxxxxxxxxxxxxxxxxx                        xxxxxxx",
"xxxxxxxxxxxxxxxxxxxxxxxxxxxxxxxxxxxxxxxxxx1                    Xjxxxxxxxxxxxxxxxx                        xxxxxxx",
"xxxxxxxxxxxxxxxxxxxxxxxxxxxxxxxxxxxxxxxxxxxr                     pxxxxxxxxxxxxxxx                        xxxxxxx",
"xxxxxxxxxxxxxxxxxxxxxxxxxxxxxxxxxxxxxxxxxxxxf                     9xxxxxxxxxxxxxx                        xxxxxxx",
"xxxxxxxxxxxxxxxxxxxxxxxxxxxxxxxxxxxxxxxxxxxxxk%                    ;zxxxxxxxxxxxx                        xxxxxxx",
"xxxxxxxxxxxxxxxxxxxxxxxxxxxxxxxxxxxxxxxxxxxxxxx5                     gxxxxxxxxxxx                        xxxxxxx",
"xxxxxxxxxxxxxxxxxxxxxxxxxxxxxxxxxxxxxxxxxxxxxxxxu                     xxxxxxxxxxx                        xxxxxxx",
"xxxxxxxxxxxxxxxxxxxxxxxxxxxxxxxxxxxxxxxxxxxxxxxxxxxxxxxxxxxxxxxxxxxxxxxxxxxxxxxxxxxxxxxxxxxxxxxxxxxxxxxxxxxxxxxx",
"xxxxxxxxxxxxxxxxxxxxxxxxxxxxxxxxxxxxxxxxxxxxxxxxxxxxxxxxxxxxxxxxxxxxxxxxxxxxxxxxxxxxxxxxxxxxxxxxxxxxxxxxxxxxxxxx",
"xxxxxxxxxxxxxxxxxxxxxxxxxxxxxxxxxxxxxxxxxxxxxxxxxxxxxxxxxxxxxxxxxxxxxxxxxxxxxxxxxxxxxxxxxxxxxxxxxxxxxxxxxxxxxxxx",
"xxxxxxxxxxxxxxxxxxxxxxxxxxxxxxxxxxxxxxxxxxxxxxxxxxxxxxxxxxxxxxxxxxxxxxxxxxxxxxxxxxxxxxxxxxxxxxxxxxxxxxxxxxxxxxxx",
"xxxxxxxxxxxxxxxxxxxxxxxxxxxxxxxxxxxxxxxxxxxxxxxxxxxxxxxxxxxxxxxxxxxxxxxxxxxxxxxxxxxxxxxxxxxxxxxxxxxxxxxxxxxxxxxx",
"xxxxxxxxxxxxxxxxxxxxxxxxxxxxxxxxxxxxxxxxxxxxxxxxxxxxxxxxxxxxxxxxxxxxxxxxxxxxxxxxxxxxxxxxxxxxxxxxxxxxxxxxxxxxxxxx",
"xxxxxxxxx                        xxxxxxxxxxxx                        xxxxxxxxxxxx                        xxxxxxx",
"xxxxxxxxx                        xxxxxxxxxxxx                        xxxxxxxxxxxx                        xxxxxxx",
"xxxxxxxxx                        xxxxxxxxxxxx                        xxxxxxxxxxxx                        xxxxxxx",
"xxxxxxxxx                        xxxxxxxxxxxx                        xxxxxxxxxxxx                        xxxxxxx",
"xxxxxxxxx                        xxxxxxxxxxxx                        xxxxxxxxxxxx                        xxxxxxx",
"xxxxxxxxx                        xxxxxxxxxxxx                        xxxxxxxxxxxx                        xxxxxxx",
"xxxxxxxxxxxxxxxxxxxxxxxxxxxxxxxxxxxxxxxxxxxxxxxxxxxxxxxxxxxxxxxxxxxxxxxxxxxxxxxxxxxxxxxxxxxxxxxxxxxxxxxxxxxxxxxx",
"xxxxxxxxxxxxxxxxxxxxxxxxxxxxxxxxxxxxxxxxxxxxxxxxxxxxxxxxxxxxxxxxxxxxxxxxxxxxxxxxxxxxxxxxxxxxxxxxxxxxxxxxxxxxxxxx",
"xxxxxxxxxxxxxxxxxxxxxxxxxxxxxxxxxxxxxxxxxxxxxxxxxxxxxxxxxxxxxxxxxxxxxxxxxxxxxxxxxxxxxxxxxxxxxxxxxxxxxxxxxxxxxxxx"
};
