/* XPM */
static const char *const teletext[] = {
/* columns rows colors chars-per-pixel */
"100 50 3 1 ",
"  c #000000",
". c #EDEDED",
"X c #FFFFFF",
/* pixels */
"XXXXXX                                                                                        XXXXXX",
"XXXXXX                                                                                        XXXXXX",
"XXXXXX                                                                                        XXXXXX",
"XXXXXX     .XXXXXXXXXXXXXXXXXXXXXXXXXXXXXXXXXXXXXXXXXXXXXXXXXXXXXXXXXXXXXXXXXXXXXXXXXXXXX     XXXXXX",
"XXXXXX     .XXXXXXXXXXXXXXXXXXXXXXXXXXXXXXXXXXXXXXXXXXXXXXXXXXXXXXXXXXXXXXXXXXXXXXXXXXXXX     XXXXXX",
"XXXXXX     .XXXXXXXXXXXXXXXXXXXXXXXXXXXXXXXXXXXXXXXXXXXXXXXXXXXXXXXXXXXXXXXXXXXXXXXXXXXXX     XXXXXX",
"XXXXXX     .XXXXXXXXXXXXXXXXXXXXXXXXXXXXXXXXXXXXXXXXXXXXXXXXXXXXXXXXXXXXXXXXXXXXXXXXXXXXX     XXXXXX",
"XXXXXX     .XXXXXXXXXXXXXXXXXXXXXXXXXXXXXXXXXXXXXXXXXXXXXXXXXXXXXXXXXXXXXXXXXXXXXXXXXXXXX     XXXXXX",
"XXXXXX     .XXXXXXXXXXXXXXXXXXXXXXXXXXXXXXXXXXXXXXXXXXXXXXXXXXXXXXXXXXXXXXXXXXXXXXXXXXXXX     XXXXXX",
"XXXXXX     .XXXXXXXXXXXXXXXXXXXXXXXXXXXXXXXXXXXXXXXXXXXXXXXXXXXXXXXXXXXXXXXXXXXXXXXXXXXXX     XXXXXX",
"XXXXXX     .XXXXXXXXXX                                                        XXXXXXXXXXX     XXXXXX",
"XXXXXX     .XXXXXXXXXX                                                        XXXXXXXXXXX     XXXXXX",
"XXXXXX     .XXXXXXXXXX                                                        XXXXXXXXXXX     XXXXXX",
"XXXXXX     .XXXXXXXXXX                                                        XXXXXXXXXXX     XXXXXX",
"XXXXXX     .XXXXXXXXXX                                                        XXXXXXXXXXX     XXXXXX",
"XXXXXX     .XXXXXXXXXX                                                        XXXXXXXXXXX     XXXXXX",
"XXXXXX     .XXXXXXXXXXXXXXXXXXXXXXXXXXXXXXXXXXXXXXXXXXXXXXXXXXXXXXXXXXXXXXXXXXXXXXXXXXXXX     XXXXXX",
"XXXXXX     .XXXXXXXXXXXXXXXXXXXXXXXXXXXXXXXXXXXXXXXXXXXXXXXXXXXXXXXXXXXXXXXXXXXXXXXXXXXXX     XXXXXX",
"XXXXXX     .XXXXXXXXXXXXXXXXXXXXXXXXXXXXXXXXXXXXXXXXXXXXXXXXXXXXXXXXXXXXXXXXXXXXXXXXXXXXX     XXXXXX",
"XXXXXX     .XXXXXXXXXXXXXXXXXXXXXXXXXXXXXXXXXXXXXXXXXXXXXXXXXXXXXXXXXXXXXXXXXXXXXXXXXXXXX     XXXXXX",
"XXXXXX     .XXXXXXXXXXXXXXXXXXXXXXXXXXXXXXXXXXXXXXXXXXXXXXXXXXXXXXXXXXXXXXXXXXXXXXXXXXXXX     XXXXXX",
"XXXXXX     .XXXXXXXXXXXXXXXXXXXXXXXXXXXXXXXXXXXXXXXXXXXXXXXXXXXXXXXXXXXXXXXXXXXXXXXXXXXXX     XXXXXX",
"XXXXXX     .XXXXXXXXXX                                                        XXXXXXXXXXX     XXXXXX",
"XXXXXX     .XXXXXXXXXX                                                        XXXXXXXXXXX     XXXXXX",
"XXXXXX     .XXXXXXXXXX                                                        XXXXXXXXXXX     XXXXXX",
"XXXXXX     .XXXXXXXXXX                                                        XXXXXXXXXXX     XXXXXX",
"XXXXXX     .XXXXXXXXXX                                                        XXXXXXXXXXX     XXXXXX",
"XXXXXX     .XXXXXXXXXX                                                        XXXXXXXXXXX     XXXXXX",
"XXXXXX     .XXXXXXXXXXXXXXXXXXXXXXXXXXXXXXXXXXXXXXXXXXXXXXXXXXXXXXXXXXXXXXXXXXXXXXXXXXXXX     XXXXXX",
"XXXXXX     .XXXXXXXXXXXXXXXXXXXXXXXXXXXXXXXXXXXXXXXXXXXXXXXXXXXXXXXXXXXXXXXXXXXXXXXXXXXXX     XXXXXX",
"XXXXXX     .XXXXXXXXXXXXXXXXXXXXXXXXXXXXXXXXXXXXXXXXXXXXXXXXXXXXXXXXXXXXXXXXXXXXXXXXXXXXX     XXXXXX",
"XXXXXX     .XXXXXXXXXXXXXXXXXXXXXXXXXXXXXXXXXXXXXXXXXXXXXXXXXXXXXXXXXXXXXXXXXXXXXXXXXXXXX     XXXXXX",
"XXXXXX     .XXXXXXXXXXXXXXXXXXXXXXXXXXXXXXXXXXXXXXXXXXXXXXXXXXXXXXXXXXXXXXXXXXXXXXXXXXXXX     XXXXXX",
"XXXXXX     .XXXXXXXXXXXXXXXXXXXXXXXXXXXXXXXXXXXXXXXXXXXXXXXXXXXXXXXXXXXXXXXXXXXXXXXXXXXXX     XXXXXX",
"XXXXXX     .XXXXXXXXXX                                                        XXXXXXXXXXX     XXXXXX",
"XXXXXX     .XXXXXXXXXX                                                        XXXXXXXXXXX     XXXXXX",
"XXXXXX     .XXXXXXXXXX                                                        XXXXXXXXXXX     XXXXXX",
"XXXXXX     .XXXXXXXXXX                                                        XXXXXXXXXXX     XXXXXX",
"XXXXXX     .XXXXXXXXXX                                                        XXXXXXXXXXX     XXXXXX",
"XXXXXX     .XXXXXXXXXX                                                        XXXXXXXXXXX     XXXXXX",
"XXXXXX     .XXXXXXXXXXXXXXXXXXXXXXXXXXXXXXXXXXXXXXXXXXXXXXXXXXXXXXXXXXXXXXXXXXXXXXXXXXXXX     XXXXXX",
"XXXXXX     .XXXXXXXXXXXXXXXXXXXXXXXXXXXXXXXXXXXXXXXXXXXXXXXXXXXXXXXXXXXXXXXXXXXXXXXXXXXXX     XXXXXX",
"XXXXXX     .XXXXXXXXXXXXXXXXXXXXXXXXXXXXXXXXXXXXXXXXXXXXXXXXXXXXXXXXXXXXXXXXXXXXXXXXXXXXX     XXXXXX",
"XXXXXX     .XXXXXXXXXXXXXXXXXXXXXXXXXXXXXXXXXXXXXXXXXXXXXXXXXXXXXXXXXXXXXXXXXXXXXXXXXXXXX     XXXXXX",
"XXXXXX     .XXXXXXXXXXXXXXXXXXXXXXXXXXXXXXXXXXXXXXXXXXXXXXXXXXXXXXXXXXXXXXXXXXXXXXXXXXXXX     XXXXXX",
"XXXXXX     .XXXXXXXXXXXXXXXXXXXXXXXXXXXXXXXXXXXXXXXXXXXXXXXXXXXXXXXXXXXXXXXXXXXXXXXXXXXXX     XXXXXX",
"XXXXXX     .XXXXXXXXXXXXXXXXXXXXXXXXXXXXXXXXXXXXXXXXXXXXXXXXXXXXXXXXXXXXXXXXXXXXXXXXXXXXX     XXXXXX",
"XXXXXX                                                                                        XXXXXX",
"XXXXXX                                                                                        XXXXXX",
"XXXXXX                                                                                        XXXXXX"
};
