/* XPM */
static const char *const unmute[] = {
/* columns rows colors chars-per-pixel */
"102 76 2 1 ",
". c #000000",
"# c #FFFFFF",
/* pixels */
"........................................................########......................................",
".......................................................#########......................................",
".....................................................###########......................................",
"...................................................#############......................................",
".................................................###############......................................",
"................................................################......................................",
"..............................................##################......................................",
".............................................###################......................................",
"...........................................#####################......................................",
".........................................#######################......................................",
"........................................##############..########......................................",
"......................................###############...########......................................",
".....................................##############.....########......................................",
"...................................##############.......########......................................",
".................................##############.........########......................................",
"...............................##############...........########......................................",
".............................##############.............########......................................",
"...........................###############..............########......................................",
".........................###############................########......................................",
".......................###############..................########......................................",
".....................###############....................########......................................",
"...................################.....................########......................................",
".................################.......................########......................................",
"...............#################........................########......................................",
"##############################..........................########......................................",
"#############################...........................########......................................",
"###########################.............................########......................................",
"##########################..............................########......................................",
"##########################..............................########......................................",
"##########################..............................########......................................",
"########..........########..............................########......................................",
"########..........########..............................########......................................",
"########..........########..............................########......................................",
"########..........########..............................########......................................",
"########..........########..............................########......................................",
"########..........########..............................########......................................",
"########..........########..............................########......................................",
"########..........########..............................########......................................",
"########..........########..............................########......................................",
"########..........########..............................########......................................",
"########..........########..............................########......................................",
"########..........########..............................########......................................",
"########..........########..............................########......................................",
"########..........########..............................########......................................",
"########..........########..............................########......................................",
"########..........########..............................########......................................",
"##########################..............................########......................................",
"##########################..............................########......................................",
"##########################..............................########......................................",
"###########################.............................########......................................",
"#############################...........................########......................................",
"###############################.........................########......................................",
"...............#################........................########......................................",
".................################.......................########......................................",
"...................################.....................########......................................",
".....................###############....................########......................................",
".......................###############..................########......................................",
".........................###############................########......................................",
"...........................##############...............########......................................",
"............................###############.............########......................................",
"..............................###############...........########......................................",
"................................###############.........########......................................",
"..................................###############.......########......................................",
"...................................################.....########......................................",
".....................................################...########......................................",
".......................................###############..########......................................",
".........................................#######################......................................",
"...........................................#####################......................................",
".............................................###################......................................",
"..............................................##################......................................",
"................................................################......................................",
".................................................###############......................................",
"...................................................#############......................................",
".....................................................###########......................................",
".......................................................#########......................................",
"........................................................########......................................"
};
