/* XPM */
static const char *const volume[] = {
/* columns rows colors chars-per-pixel */
"104 52 49 1 ",
"  c #000000",
". c #050505",
"X c #1F1F1F",
"o c #2A2A2A",
"O c #333333",
"+ c #3A3A3A",
"@ c #4B4B4B",
"# c #555555",
"$ c #5A5A5A",
"% c #5E5E5E",
"& c #636363",
"* c #676767",
"= c #6B6B6B",
"- c #6F6F6F",
"; c #727272",
": c #767676",
"> c #7A7A7A",
", c #7D7D7D",
"< c #818181",
"1 c #848484",
"2 c #8A8A8A",
"3 c #8E8E8E",
"4 c #919191",
"5 c #949494",
"6 c #999999",
"7 c #9C9C9C",
"8 c #A2A2A2",
"9 c #A7A7A7",
"0 c #AAAAAA",
"q c #ACACAC",
"w c #B1B1B1",
"e c #B6B6B6",
"r c #BABABA",
"t c #BFBFBF",
"y c #C3C3C3",
"u c #C5C5C5",
"i c #CBCBCB",
"p c #CFCFCF",
"a c #D7D7D7",
"s c #DADADA",
"d c #DDDDDD",
"f c #E0E0E0",
"g c #E7E7E7",
"h c #E8E8E8",
"j c #EDEDED",
"k c #F0F0F0",
"l c #F7F7F7",
"z c #F9F9F9",
"x c #FFFFFF",
/* pixels */
"xxxxxxxxxxxxxxxxxxxxxxxxxxxxxxxxxxxxxxxxxxxxxxxxxxxxxxxxxxxxxxxxxxxxxxxxxxxxxxxxxxxxxxxxxxxxxxxxxxxxxl6 ",
"xxxxxxxxxxxxxxxxxxxxxxxxxxxxxxxxxxxxxxxxxxxxxxxxxxxxxxxxxxxxxxxxxxxxxxxxxxxxxxxxxxxxxxxxxxxxxxxxxxxk5   ",
"xxxxxxxxxxxxxxxxxxxxxxxxxxxxxxxxxxxxxxxxxxxxxxxxxxxxxxxxxxxxxxxxxxxxxxxxxxxxxxxxxxxxxxxxxxxxxxxxxk5     ",
"xxxxxxxxxxxxxxxxxxxxxxxxxxxxxxxxxxxxxxxxxxxxxxxxxxxxxxxxxxxxxxxxxxxxxxxxxxxxxxxxxxxxxxxxxxxxxxxk4       ",
"xxxxxxxxxxxxxxxxxxxxxxxxxxxxxxxxxxxxxxxxxxxxxxxxxxxxxxxxxxxxxxxxxxxxxxxxxxxxxxxxxxxxxxxxxxxxxj3         ",
"xxxxxxxxxxxxxxxxxxxxxxxxxxxxxxxxxxxxxxxxxxxxxxxxxxxxxxxxxxxxxxxxxxxxxxxxxxxxxxxxxxxxxxxxxxxj2           ",
"xxxxxxxxxxxxxxxxxxxxxxxxxxxxxxxxxxxxxxxxxxxxxxxxxxxxxxxxxxxxxxxxxxxxxxxxxxxxxxxxxxxxxxxxxj2             ",
"xxxxxxxxxxxxxxxxxxxxxxxxxxxxxxxxxxxxxxxxxxxxxxxxxxxxxxxxxxxxxxxxxxxxxxxxxxxxxxxxxxxxxxxj1               ",
"xxxxxxxxxxxxxxxxxxxxxxxxxxxxxxxxxxxxxxxxxxxxxxxxxxxxxxxxxxxxxxxxxxxxxxxxxxxxxxxxxxxxxj<                 ",
"xxxxxxxxxxxxxxxxxxxxxxxxxxxxxxxxxxxxxxxxxxxxxxxxxxxxxxxxxxxxxxxxxxxxxxxxxxxxxxxxxxxh,                   ",
"xxxxxxxxxxxxxxxxxxxxxxxxxxxxxxxxxxxxxxxxxxxxxxxxxxxxxxxxxxxxxxxxxxxxxxxxxxxxxxxxxh>                     ",
"xxxxxxxxxxxxxxxxxxxxxxxxxxxxxxxxxxxxxxxxxxxxxxxxxxxxxxxxxxxxxxxxxxxxxxxxxxxxxxxh:                       ",
"xxxxxxxxxxxxxxxxxxxxxxxxxxxxxxxxxxxxxxxxxxxxxxxxxxxxxxxxxxxxxxxxxxxxxxxxxxxxxg;                         ",
"xxxxxxxxxxxxxxxxxxxxxxxxxxxxxxxxxxxxxxxxxxxxxxxxxxxxxxxxxxxxxxxxxxxxxxxxxxxg-                           ",
"xxxxxxxxxxxxxxxxxxxxxxxxxxxxxxxxxxxxxxxxxxxxxxxxxxxxxxxxxxxxxxxxxxxxxxxxxg=                             ",
"xxxxxxxxxxxxxxxxxxxxxxxxxxxxxxxxxxxxxxxxxxxxxxxxxxxxxxxxxxxxxxxxxxxxxxxf*                               ",
"xxxxxxxxxxxxxxxxxxxxxxxxxxxxxxxxxxxxxxxxxxxxxxxxxxxxxxxxxxxxxxxxxxxxxf&                                 ",
"xxxxxxxxxxxxxxxxxxxxxxxxxxxxxxxxxxxxxxxxxxxxxxxxxxxxxxxxxxxxxxxxxxxf%                                   ",
"xxxxxxxxxxxxxxxxxxxxxxxxxxxxxxxxxxxxxxxxxxxxxxxxxxxxxxxxxxxxxxxxxd$                                     ",
"xxxxxxxxxxxxxxxxxxxxxxxxxxxxxxxxxxxxxxxxxxxxxxxxxxxxxxxxxxxxxxxd#                                       ",
"xxxxxxxxxxxxxxxxxxxxxxxxxxxxxxxxxxxxxxxxxxxxxxxxxxxxxxxxxxxxxd@                                         ",
"xxxxxxxxxxxxxxxxxxxxxxxxxxxxxxxxxxxxxxxxxxxxxxxxxxxxxxxxxxxs@                                           ",
"xxxxxxxxxxxxxxxxxxxxxxxxxxxxxxxxxxxxxxxxxxxxxxxxxxxxxxxxxs@                                             ",
"xxxxxxxxxxxxxxxxxxxxxxxxxxxxxxxxxxxxxxxxxxxxxxxxxxxxxxxa+                                               ",
"xxxxxxxxxxxxxxxxxxxxxxxxxxxxxxxxxxxxxxxxxxxxxxxxxxxxxs+                                                 ",
"xxxxxxxxxxxxxxxxxxxxxxxxxxxxxxxxxxxxxxxxxxxxxxxxxxxaO                                                   ",
"xxxxxxxxxxxxxxxxxxxxxxxxxxxxxxxxxxxxxxxxxxxxxxxxxpo                                                     ",
"xxxxxxxxxxxxxxxxxxxxxxxxxxxxxxxxxxxxxxxxxxxxxxxpX                                                       ",
"xxxxxxxxxxxxxxxxxxxxxxxxxxxxxxxxxxxxxxxxxxxxxp.                                                         ",
"xxxxxxxxxxxxxxxxxxxxxxxxxxxxxxxxxxxxxxxxxxxi                                                            ",
"xxxxxxxxxxxxxxxxxxxxxxxxxxxxxxxxxxxxxxxxxi                                                              ",
"xxxxxxxxxxxxxxxxxxxxxxxxxxxxxxxxxxxxxxxi                                                                ",
"xxxxxxxxxxxxxxxxxxxxxxxxxxxxxxxxxxxxzu                                                                  ",
"xxxxxxxxxxxxxxxxxxxxxxxxxxxxxxxxxxxu                                                                    ",
"xxxxxxxxxxxxxxxxxxxxxxxxxxxxxxxxzy                                                                      ",
"xxxxxxxxxxxxxxxxxxxxxxxxxxxxxxzy                                                                        ",
"xxxxxxxxxxxxxxxxxxxxxxxxxxxxxt                                                                          ",
"xxxxxxxxxxxxxxxxxxxxxxxxxxzt                                                                            ",
"xxxxxxxxxxxxxxxxxxxxxxxxzr                                                                              ",
"xxxxxxxxxxxxxxxxxxxxxxzr                                                                                ",
"xxxxxxxxxxxxxxxxxxxxze                                                                                  ",
"xxxxxxxxxxxxxxxxxxzw                                                                                    ",
"xxxxxxxxxxxxxxxxzw                                                                                      ",
"xxxxxxxxxxxxxxzq                                                                                        ",
"xxxxxxxxxxxxzq                                                                                          ",
"xxxxxxxxxxl0                                                                                            ",
"xxxxxxxxl9                                                                                              ",
"xxxxxxl9                                                                                                ",
"xxxxl8                                                                                                  ",
"xxl7                                                                                                    ",
"l7                                                                                                      ",
"                                                                                                        "
};
