/* XPM */
static const char *const vps[] = {
/* columns rows colors chars-per-pixel */
"100 50 16 1 ",
"  c #000000",
". c #171717",
"X c #2B2B2B",
"o c #363636",
"O c #484848",
"+ c #585858",
"@ c #686868",
"# c #777777",
"$ c #868686",
"% c #989898",
"& c #A7A7A7",
"* c #B7B7B7",
"= c #CACACA",
"- c #DADADA",
"; c #E9E9E9",
": c #FFFFFF",
/* pixels */
"::::::=========;::::::::::::-=======-;::-==========-===;::::::::::::::::::::*@X. ..o@*::::::::::::::",
"::::::X        %::::::::::::.        -::X                X$;::::::::::::::&.          X&::::::::::::",
"::::::@        +:::::::::::;        .:::X                  .*::::::::::::@              @:::::::::::",
"::::::%        X:::::::::::=        O:::X                    &::::::::::O                @::::::::::",
"::::::=         :::::::::::$        $:::X                    .-::::::::%                  *:::::::::",
":::::::.        =::::::::::@        *:::X                     +:::::::;                   X:::::::::",
":::::::O        %::::::::::X        ;:::X                      -::::::#                    &::::::::",
":::::::$        @::::::::::        X::::X                      #::::::.                    O::::::::",
":::::::*        o:::::::::=        @::::X                      X:::::*                      ;:::::::",
":::::::;        .:::::::::&        &::::X                       ;::::@        @;:=O         *:::::::",
"::::::::X        -::::::::#        -::::X        O++O.          =::::o       O:::::X        #:::::::",
"::::::::@        &::::::::O       .:::::X        -:::;@         %::::.       &:::::=        O:::::::",
"::::::::&        $::::::::.       O:::::X        ;:::::X        #::::        =::::::.       X:::::::",
"::::::::-        O:::::::;        $:::::X        -:::::%        @:::;        =::::::+       .:::::::",
":::::::::.       .:::::::*        *:::::X        -:::::=        @:::;        @::::::$  .Xo+@$:::::::",
":::::::::O        ;::::::$        ;:::::X        -:::::;        O::::         $:::::;-;:::::::::::::",
":::::::::$        *::::::+       X::::::X        ;:::::;        @::::          .$;::::::::::::::::::",
":::::::::*        $::::::X       @::::::X        -:::::=        @::::X            O*::::::::::::::::",
"::::::::::        +::::::        %::::::X        -:::::&        #::::+              X&::::::::::::::",
"::::::::::o       X:::::=        -::::::X        -:::::X        $::::%                X=::::::::::::",
"::::::::::@        :::::%       .:::::::X        -::::@         *::::;                  #:::::::::::",
"::::::::::&        =::::#       O:::::::X        @#@O.          ;:::::+                  O::::::::::",
"::::::::::;        &::::o       $:::::::X                      .::::::=                   O:::::::::",
":::::::::::X       @::::.       *:::::::X                      @:::::::#                   %::::::::",
":::::::::::+       o:::-        ;:::::::X                      *::::::::O                  .;:::::::",
":::::::::::%       .:::*       X::::::::X                     X:::::::::;O                  #:::::::",
":::::::::::=        -::$       @::::::::X                     &:::::::::::@                 .:::::::",
"::::::::::::        &::+       &::::::::X                    O:::::::::::::=X                =::::::",
"::::::::::::o       #::X       =::::::::X                   X;:::::::::::::::&X              $::::::",
"::::::::::::#       O:;       .:::::::::X                  O;::::::::::::::::::=+            +::::::",
"::::::::::::*       X:=       O:::::::::X                O*::::::::::::::::::::::;@          X::::::",
"::::::::::::;        ;%       #:::::::::X        &***==;:::::::::::::::::::::::::::*         .::::::",
":::::::::::::X       *@       *:::::::::X        -::::::::::::::::::::;=*%#+=:::::::$         ::::::",
":::::::::::::+       %o       ;:::::::::X        -:::::::::::::::::-.       $:::::::;         ::::::",
":::::::::::::%       +.      X::::::::::X        -:::::::::::::::::;        @::::::::o       .::::::",
":::::::::::::=       .       @::::::::::X        -::::::::::::::::::        o::::::::O       .::::::",
"::::::::::::::.              %::::::::::X        ;::::::::::::::::::X        ;:::::::X       X::::::",
"::::::::::::::O              =::::::::::X        -::::::::::::::::::O        %::::::;.       +::::::",
"::::::::::::::$             .:::::::::::X        -::::::::::::::::::$        .;:::::$        $::::::",
"::::::::::::::*             O:::::::::::X        -::::::::::::::::::*         o;:::=.        =::::::",
"::::::::::::::;             #:::::::::::X        -:::::::::::::::::::          .+#O         .;::::::",
":::::::::::::::X            *:::::::::::X        -:::::::::::::::::::+                      +:::::::",
":::::::::::::::@            ;:::::::::::X        ;:::::::::::::::::::&                      =:::::::",
":::::::::::::::&           X::::::::::::X        -::::::::::::::::::::X                    o::::::::",
":::::::::::::::-           @::::::::::::X        -::::::::::::::::::::&                    =::::::::",
"::::::::::::::::.          %::::::::::::X        -:::::::::::::::::::::o                  @:::::::::",
"::::::::::::::::O          =::::::::::::X        -:::::::::::::::::::::-.                O::::::::::",
"::::::::::::::::$         .:::::::::::::X        -::::::::::::::::::::::=X              O:::::::::::",
"::::::::::::::::=         O:::::::::::::X        -:::::::::::::::::::::::;#.          .%::::::::::::",
":::::::::::::::::=========;:::::::::::::-========::::::::::::::::::::::::::;&@o.  .X@&::::::::::::::"
};
