/* XPM */
static const char *const vps_720[] = {
/* columns rows colors chars-per-pixel */
"33 17 24 1 ",
"  c #000000",
". c #010101",
"X c #020202",
"o c #060606",
"O c #0B0B0B",
"+ c #171717",
"@ c #383838",
"# c #282828",
"$ c #454545",
"% c #565656",
"& c #707070",
"* c #888888",
"= c #969696",
"- c #A8A8A8",
"; c #B9B9B9",
": c #C5C5C5",
"> c #CCCCCC",
", c #D7D7D7",
"< c #E8E8E8",
"1 c #FFFFFF",
"2 c #FEFEFE",
"3 c #FDFDFD",
"4 c #FAFAFA",
"5 c #F2F2F2",
/* pixels */
"11%$$<111&$$,&$$$$%=1111-#X+%5111",
"11$XX-111+XX5$XXXXXX=11-XXXXX$111",
"11&XX*115XX#1$XXXXXX+11#XXXXXX:11",
"11;XX%11:XX%1$XX%$XXX,,XX@<%XX*11",
"11<XX#11*XX=1$XX:4$XX;;Xo&1>XX&11",
"111#XX51&XX>1$XX:1&XX->XXO=5,1111",
"111%XX>1@Xo41$XX:1$XX:5XXXXO*1111",
"111=XX=1OX@11$XX##XXX<4%XXXXX$511",
"111>XX&<XX&11$XXXXXX#11<#XXXXX=11",
"1114XX@-XX-11$XXXXXX:1115&XXXX@11",
"1111$X+&XX<11$XX%%&,111111<%XX+11",
"1111&XX@X+111$XX:11111*#o;14OXX11",
"1111-XXXX%111$XX>11111*XX*11+X+11",
"1111<XXXX*111$XX:11111;XXO-&XX$11",
"11111+XXX;111$XX:111114+XXXXXX-11",
"11111%XXX5111$XX:111111*XXXXX@411",
"11111-$$%1111&$$,1111111=#X+&<111"
};
