/* XPM */
static const char *const vps_1080[] = {
/* columns rows colors chars-per-pixel */
"50 25 24 1 ",
"  c #000000",
". c #010101",
"X c #030303",
"o c #060606",
"O c #0C0C0C",
"+ c #1A1A1A",
"@ c #141414",
"# c #2F2F2F",
"$ c #5A5A5A",
"% c #484848",
"& c #666666",
"* c #6C6C6C",
"= c #777777",
"- c #898989",
"; c #969696",
": c #A7A7A7",
"> c #B5B5B5",
", c #CECECE",
"< c #E8E8E8",
"1 c #FFFFFF",
"2 c #FEFEFE",
"3 c #FDFDFD",
"4 c #FAFAFA",
"5 c #F3F3F3",
/* pixels */
"111**&&;111111**&&:1=&&&&&&*-,1111111>%+o+%>111111",
"111#...+11111<....;1+........o;11111=.......=11111",
"111=....<1111>....,1+.........o,114:.........>1111",
"111>....,1111-...O11+..........$111#........o#1111",
"111<....-1111$...%11+..........O41,....%*O....<411",
"1111#...&1111#...=11+...%:-@....,1;..o#11>....>111",
"1111$...#1114o...>11+...*11>....>1=...&411+...-111",
"1111;...o411,....<11+...*115....>1=...@<11;=;><111",
"1111,....,11:...+111+...*115....>1-....o$,14111111",
"11111O...:11*...&111+...*14>....>1>o......#,111111",
"11111%...*11%...;111+...%>;@....<15@........=11111",
"11111=...%11@...,111+...o......+111;.........-1111",
"11111>...@1<..oO4111+..........*1111&........o<111",
"111115....<>..o#1111+.........+<11111-O.......=111",
"111111#...>=...=1111+........+,5111111<=+.....#111",
"111111&...-$...>1111+...#&**;<11111111115=...o+111",
"111111:...%#...<1111+...*111111115-*$#,111$...o111",
"111111,...+...#11111+...*111111114....:111:...@111",
"1111114+......$11111+...*111111111+...$411-...#111",
"1111111%......;11111+...*111111111%...O,15+...$111",
"1111111-......,11111+...*111111111;.....#@....:411",
"1111111,.....@111111+...*111111111<O.........+5111",
"11111115o....#111111+...*1111111111=.........;1111",
"11111111#....=111111+...*11111111114%.......*11111",
"11111111:&&&&,411111=&&&:111111111111:%+.+%>111111"
};
