/* XPM */
static const char *const vps_2160[] = {
/* columns rows colors chars-per-pixel */
"100 50 24 1 ",
"  c #000000",
". c #010101",
"X c #020202",
"o c #050505",
"O c #0C0C0C",
"+ c #171717",
"@ c #323232",
"# c #3B3B3B",
"$ c #292929",
"% c #484848",
"& c #575757",
"* c #686868",
"= c #777777",
"- c #8E8E8E",
"; c #B7B7B7",
": c #A7A7A7",
"> c #CACACA",
", c #D7D7D7",
"< c #E9E9E9",
"1 c #FFFFFF",
"2 c #FEFEFE",
"3 c #FDFDFD",
"4 c #FAFAFA",
"5 c #F3F3F3",
/* pixels */
">>>>>>>>>5333333333333,>>>>>>>>433,>>>>>>>>>>>>>><43333333333333333333;*@+oo+#*;33333333333333333333",
"$        -333333333333+ XXXX  X,33@   XX    XX  XX $=<33333333333333:+        XX$:333333333333333333",
"*        &33333333333<        +333@                  +;333333333334*              =33333333333333333",
"-        $33333333333>        %333@                    :3333333333&                *3333333333333333",
",X        43333333333-        -333@                    O,33333333-                  ;333333333333333",
"3+        >3333333333*        ;333@                     &3333333<o                  $433333333333333",
"3%        :3333333333@       X4333@                      ,333333=                    :33333333333333",
"3-        *3333333334o       @3333@                      =333334+                    %33333333333333",
"3;        #333333333,        *3333@                      $33333;                     X53333333333333",
"35        +333333333:        :3333@                       <3333=        *<4>%         ;3333333333333",
"33@        ,33333333=        ,3333@        %&&%+          ;3333#       %33334@        =3333333333333",
"33*        :33333333%       +33333@        ,3334=         -3333+       :33333>       X%3333333333333",
"33:        =33333333+       %33333@        ,33334@XX      =3334        >333333$       @3333333333333",
"33,        &3333333<        -33333@        ,33333-        *333<        >333333%       O3333333333333",
"333+       +3333333;        ;33333@        ,33333,        &333<        *333333-  O$#&=-4333333333333",
"333&       X<333333-        533333@        ,333335        &3334         -33333<,53333343333333333333",
"333-        ;333333&       @333333@       X,333334        &3333X         +-<333333333333333333333333",
"333>        -333333@       *333333@        ,33333,        *3333@           X&;3333333333333333333333",
"3334X       &333334X       :333333@        ,33333:        =3333&              @:33333333333333333333",
"3333#       @33333>        ,333333@        ,33343@        -3333-                @>333333333333333333",
"3333=       o43333:       +3333333@        ,3334*         ;3333<                  =43333333333333333",
"3333:        >3333*       %3333333@        *=*&+          ,33333&                  %4333333333333333",
"3333<X       :3333%       -3333333@                      +333333,                   &333333333333333",
"33333+       *3333+       ;3333333@                      *3333333=                  X-33333333333333",
"33333&       %333<        53333333@                      ;33333333%                  +<3333333333333",
"33333-       O333;       @33333333@                     $4333333335%                  =3333333333333",
"33333>        ,34-       *33333333@                     :43333333333*                 +3333333333333",
"333333O       ;34&       :33333333@                    %4433333333333>@               X>333333333333",
"333333#       =33$       ,33333333@                   $5333333333333333:@              -333333333333",
"333333=       &35       +433333333@                  %<333333333333333333>&X           &333333333333",
"333333;       $3>       %333333333@               o%;3333333333333333333333<*          @333333333333",
"333333<        <-       =333333333@        :;;;>><333333333333333333333333333;X        +333333333333",
"3333333$       >*       ;333333333@        ,33333333333333333334<>;-=*>4333333-        o333333333333",
"3333333*       -#       5333333333@        ,33333333333333333<+X      -3333333<X       X333333333333",
"3333333-       &O      @3333333333@       X,333333333333333335        *33333333@       O333333333333",
"3333333,       +       *3333333333@       X,333333333333333333o       #33333333%      X+333333333333",
"33333333O              -3333333333@        ,333333333333333333$       X<3333333@       @333333333333",
"33333333%              ,3333333333@        ,333333333333333333%        -3333335O       &333333333333",
"33333333-             +33333333333@        ,333333333333333333-        +533333-        -333333333333",
"33333334;             %33333333333@        ,333333333333333333;         #<333>o        ;333333333333",
"333333335             =33333333333@        ,3333333333333333334O         +&=&o        +4333333333333",
"333333333@            ;33333333333@        ,3333333333333333333&                      &3333333333333",
"333333333*            533333333333@        ,3333333333333333333;                      >3333333333333",
"333333333:           $333333333333@        ,33333333333333333334$                    @33333333333333",
"333333333,X          &333333333333@        ,33333333333333333333:                    >33333333333333",
"3333333333+          :333333333333@       X,333333333333333333333#                  *333333333333333",
"3333333333%          ,333333333333@        ,333333333333333333333,+                %3333333333333333",
"3333333333-         O3333333333333@        ,3333333333333333333333>$              &43333333333333333",
"3333333333>     X  X%3333333333333@XXX X X ,333333333333333333333335=o          +:333333333333333333",
"33333333333>>>>>>>>><3333333333333,>>>>>>>>433333333333333333333343334:*@+oX+@*:43333333333333333333"
};
