/* XPM */
static const char *const vps_576[] = {
/* columns rows colors chars-per-pixel */
"27 13 23 1 ",
"  c #000000",
". c #010101",
"X c #030303",
"o c #060606",
"O c #0A0A0A",
"+ c #181818",
"@ c #252525",
"# c #333333",
"$ c #494949",
"% c #565656",
"& c #686868",
"* c #797979",
"= c #919191",
"- c #A7A7A7",
"; c #B9B9B9",
": c #C6C6C6",
"> c #D6D6D6",
", c #EFEFEF",
"< c #E2E2E2",
"1 c #FFFFFF",
"2 c #FDFDFD",
"3 c #FAFAFA",
"4 c #F4F4F4",
/* pixels */
"11$#=11:##>####&<11;#O@-111",
"11$ $11=o+, o   #1,O   o>11",
"11= @11& %,  @+  >= +=+ *11",
"11;  ,1# =,  ;<  ;* %1*@*11",
"114o :1O :,  ;1O ;=  $;1111",
"111# => o3,  &%  >:    %411",
"111& %- #1,     @11*    *11",
"111- #* *1,    +;111:$  @11",
"111< o$ -1,  ->111-*;1* o11",
"1111+   <1,  ;1111$ &1- +11",
"1111%  +11,  ;1111*  &# $31",
"1111=  $11,  ;1111<O    ;11",
"1111>##-11,##:11111-@O@=111"
};
