/* XPM */
static const char *const vpssml_2160[] = {
/* columns rows colors chars-per-pixel */
"66 84 22 1 ",
"  c #000000",
". c #010101",
"X c #020202",
"o c #050505",
"O c #0C0C0C",
"+ c #171717",
"@ c #262626",
"# c #383838",
"$ c #4E4E4E",
"% c #676767",
"& c #777777",
"* c #878787",
"= c #979797",
"- c #A7A7A7",
"; c #B7B7B7",
": c #CFCFCF",
"> c #E8E8E8",
", c #FFFFFF",
"< c #FEFEFE",
"1 c #FCFCFC",
"2 c #FAFAFA",
"3 c #F3F3F3",
/* pixels */
",,,,@XXXXXX;2,,,,,,,>XXXXXX@,,,,,,,,,,,,,,,,,,,,,,,,,,,,,,,,,,,,,,",
",,,,&XXXXXX&,,,,,,,,-XXXXXX&,,,,,,,,,,,,,,,,,,,,,,,,,,,,,,,,,,,,,,",
",,,,:XXXXXX@,,,,,,,,%XXXXXX:,,,,,,,,,,,,,,,,,,,,,,,,,,,,,,,,,,,,,,",
",,,,2@XXXXXX>,,,,,,,+XXXXX+2,,,,,,,,,,,,,,,,,,,,,,,,,,,,,,,,,,,,,,",
",,,,,&XXXXXX-2,,,,,>XXXXXX%,,,,,,,,,,,,,,,,,,,,,,,,,,,,,,,,,,,,,,,",
",,,,2:XXXXXX%2,,,,,=XXXXXX;,,,,,,,,,,,,,,,,,,,,,,,,,,,,,,,,,,,,,,,",
",,,,22+XXXXX+,,,,,,$XXXXXO2,,,,,,,,,,,,,,,,,,,,,,,,,,,,,,,,,,,,,,,",
",,,,,,%XXXXXX:,,,,,+XXXXX%,,,,,,,,,,,,,,,,,,,,,,,,,,,,,,,,,,,,,,,,",
",,,,,,;XXXXXX=2,,,:XXXXXX;,,,,,,,,,,,,,,,,,,,,,,,,,,,,,,,,,,,,,,,,",
",,,,,,,OXXXXX$,,,,*XXXXXo3,,,,,,,,,,,,,,,,,,,,,,,,,,,,,,,,,,,,,,,,",
",,,,,,,%XXXXXO2,,,$XXXXX$,,,,,,,,,,,,,,,,,,,,,,,,,,,,,,,,,,,,,,,,,",
",,,,,,2;XXXXXX:,,2OXXXXX-,,,,,,,,,,,,,,,,,,,,,,,,,,,,,,,,,,,,,,,,,",
",,,,,,,2OXXXXX&,,:XXXXXX>,,,,,,,,,,,,,,,,,,,,,,,,,,,,,,,,,,,,,,,,,",
",,,,,,,,$XXXXX#,,*XXXXX$,,,,,,,,,,,,,,,,,,,,,,,,,,,,,,,,,,,,,,,,,,",
",,,,,,,,;XXXXXO32#XXXXX=,,,,,,,,,,,,,,,,,,,,,,,,,,,,,,,,,,,,,,,,,,",
",,,,,,,,3OXXXXX;2oXXXXX>,,,,,,,,,,,,,,,,,,,,,,,,,,,,,,,,,,,,,,,,,,",
",,,,,,,,,$XXXXX&;XXXXX#,,,,,,,,,,,,,,,,,,,,,,,,,,,,,,,,,,,,,,,,,,,",
",,,,,,,,,-XXXXX@&XXXXX*,,,,,,,,,,,,,,,,,,,,,,,,,,,,,,,,,,,,,,,,,,,",
",,,,,,,,,>oXXXXX+XXXXX:,,,,,,,,,,,,,,,,,,,,,,,,,,,,,,,,,,,,,,,,,,,",
",,,,,,,,,2$XXXXXXXXXX@,,,,,,,,,,,,,,,,,,,,,,,,,,,,,,,,,,,,,,,,,,,,",
",,,,,,,,,,=XXXXXXXXXX&,,,,,,,,,,,,,,,,,,,,,,,,,,,,,,,,,,,,,,,,,,,,",
",,,,,,,,,,>oXXXXXXXXX:,,,,,,,,,,,,,,,,,,,,,,,,,,,,,,,,,,,,,,,,,,,,",
",,,,,,,,,,2$XXXXXXXX+,,,,,,,,,,,,,,,,,,,,,,,,,,,,,,,,,,,,,,,,,,,,,",
",,,,,,,,,,,*XXXXXXXX&,,,,,,,,,,,,,,,,,,,,,,,,,,,,,,,,,,,,,,,,,,,,,",
",,,,,,,,,,,>XXXXXXXX:22,,,,,,,,,,,,,,,,,,,,,,,,,,,,,,,,,,,,,,,,,,,",
",,,,,,,,,,,,#XXXXXXO2,,,,,,,,,,,,,,,,,,,,,,,,,,,,,,,,,,,,,,,,,,,,,",
",,,,,,,,,,,,,,,,,,,,,,,,,,,,,,,,,,,,,,,,,,,,,,,,,,,,,,,,,,,,,,,,,,",
",,,,,,,,,,,,,,,,,,,,,,,,,,,,,,,,,,,,,,,,,,,,,,,,,,,,,,,,,,,,,,,,,,",
",,,,,,,,,,,,,,,,,,,,,,,,,,,,,,,,,,,,,,,,,,,,,,,,,,,,,,,,,,,,,,,,,,",
",,,,,,,,,,,,,,,,,,,,,,,,XXXXXXXXXXXXO@%:,,,,,,,,,,,,,,,,,,,,,,,,,,",
",,,,,,,,,,,,,,,,,,,,,,,,XXXXXXXXXXXXXXoX*,,,,,,,,,,,,,,,,,,,,,,,,,",
",,,,,,,,,,,,,,,,,,,,,,,,XXXXXXXXXXXXXXXXX*,,,,,,,,,,,,,,,,,,,,,,,,",
",,,,,,,,,,,,,,,,,,,,,,,,XXXXXXXXXXXXXXXXXo>,,,,,,,,,,,,,,,,,,,,,,,",
",,,,,,,,,,,,,,,,,,,,,,,,XXXXXXXXXXXXXXXXXX*2,,,,,,,,,,,,,,,,,,,,,,",
",,,,,,,,,,,,,,,,,,,,,,,,XXXXXXO;;-*OXXXXXX$,,,,,,,,,,,,,,,,,,,,,,,",
",,,,,,,,,,,,,,,,,,,,,,,,XXXXXXO,,,,:XXXXXXO,,,,,,,,,,,,,,,,,,,,,,,",
",,,,,,,,,,,,,,,,,,,,,,,,XXXXXXO,,,,,@XXXXXo,,,,,,,,,,,,,,,,,,,,,,,",
",,,,,,,,,,,,,,,,,,,,,,,,XXXXXXO,,,,,#XXXXXO,,,,,,,,,,,,,,,,,,,,,,,",
",,,,,,,,,,,,,,,,,,,,,,,,XXXXXXO,,,,>oXXXXX+,,,,,,,,,,,,,,,,,,,,,,,",
",,,,,,,,,,,,,,,,,,,,,,,,XXXXXXO,,>;#XXXXXX$,,,,,,,,,,,,,,,,,,,,,,,",
",,,,,,,,,,,,,,,,,,,,,,,,XXXXXXXOOXXXXXXXXX*,,,,,,,,,,,,,,,,,,,,,,,",
",,,,,,,,,,,,,,,,,,,,,,,,XXXXXXXXXXXXXXXXXO3,,,,,,,,,,,,,,,,,,,,,,,",
",,,,,,,,,,,,,,,,,,,,,,,,XXXXXXXXXXXXXXXXX=,,,,,,,,,,,,,,,,,,,,,,,,",
",,,,,,,,,,,,,,,,,,,,,,,,XXXXXXXXXXXXXXXo*,,,,,,,,,,,,,,,,,,,,,,,,,",
",,,,,,,,,,,,,,,,,,,,,,,,XXXXXXXXXXXXXO$:,,,,,,,,,,,,,,,,,,,,,,,,,,",
",,,,,,,,,,,,,,,,,,,,,,,,XXXXXXO----::2,,,,,,,,,,,,,,,,,,,,,,,,,,,,",
",,,,,,,,,,,,,,,,,,,,,,,,XXXXXXO,,,,,,,,,,,,,,,,,,,,,,,,,,,,,,,,,,,",
",,,,,,,,,,,,,,,,,,,,,,,,XXXXXXO,,,,,,,,,,,,,,,,,,,,,,,,,,,,,,,,,,,",
",,,,,,,,,,,,,,,,,,,,,,,,XXXXXXO,,,,,,,,,,,,,,,,,,,,,,,,,,,,,,,,,,,",
",,,,,,,,,,,,,,,,,,,,,,,,XXXXXXO,,,,,,,,,,,,,,,,,,,,,,,,,,,,,,,,,,,",
",,,,,,,,,,,,,,,,,,,,,,,,XXXXXXO,,,,,,,,,,,,,,,,,,,,,,,,,,,,,,,,,,,",
",,,,,,,,,,,,,,,,,,,,,,,,XXXXXXO,,,,,,,,,,,,,,,,,,,,,,,,,,,,,,,,,,,",
",,,,,,,,,,,,,,,,,,,,,,,,XXXXXXO,,,,,,,,,,,,,,,,,,,,,,,,,,,,,,,,,,,",
",,,,,,,,,,,,,,,,,,,,,,,,XXXXXXO,,,,,,,,,,,,,,,,,,,,,,,,,,,,,,,,,,,",
",,,,,,,,,,,,,,,,,,,,,,,,OO+OOO@,,,,,,,,,,,,,,,,,,,,,,,,,,,,,,,,,,,",
",,,,,,,,,,,,,,,,,,,,,,,,,,,,,,,,,,,,,,,,,,,,,,,,,,,,,,,,,,,,,,,,,,",
",,,,,,,,,,,,,,,,,,,,,,,,,,,,,,,,,,,,,,,,,,,,,,,,,,,,,,,,,,,,,,,,,,",
",,,,,,,,,,,,,,,,,,,,,,,,,,,,,,,,,,,,,,,,,,,,,,,,,,,,,,,2,,,,,,,,,,",
",,,,,,,,,,,,,,,,,,,,,,,,,,,,,,,,,,,,,,,,,,,,,,,;%$@+O+#%;22,,,,,,,",
",,,,,,,,,,,,,,,,,,,,,,,,,,,,,,,,,,,,,,,,,,,,,:#XXXXXXXXXX@;,,,,,,,",
",,,,,,,,,,,,,,,,,,,,,,,,,,,,,,,,,,,,,,,,,,,,;oXXXXXXXXXXXXX;,,,,,,",
",,,,,,,,,,,,,,,,,,,,,,,,,,,,,,,,,,,,,,,,,,,>OXXXXXXXXXXXXXXO>,,,,,",
",,,,,,,,,,,,,,,,,,,,,,,,,,,,,,,,,,,,,,,,,,,&XXXXXX+$@XXXXXXX&,,,,,",
",,,,,,,,,,,,,,,,,,,,,,,,,,,,,,,,,,,,,,,,,,,+XXXXX%22,-XXXXXX@,,,,,",
",,,,,,,,,,,,,,,,,,,,,,,,,,,,,,,,,,,,,,,,,,>XXXXXX:,,,,%XXXXoX>,,,,",
",,,,,,,,,,,,,,,,,,,,,,,,,,,,,,,,,,,,,,,,,,:XXXXXX*,,,,;+@#$$%>,,,,",
",,,,,,,,,,,,,,,,,,,,,,,,,,,,,,,,,,,,,,,,,,3XXXXXXX#*:,,,,,,,,,,,,,",
",,,,,,,,,,,,,,,,,,,,,,,,,,,,,,,,,,,,,,,,,,,@XXXXXXXXo@%;2,,,,,,,,,",
",,,,,,,,,,,,,,,,,,,,,,,,,,,,,,,,,,,,,,,,,,,*XXXXXXXXXXXX+=>2,,,,,,",
",,,,,,,,,,,,,,,,,,,,,,,,,,,,,,,,,,,,,,,,,,,2@XXXXXXXXXXXXX@:,,,,,,",
",,,,,,,,,,,,,,,,,,,,,,,,,,,,,,,,,,,,,,,,,,,,>#XXXXXXXXXXXXXo:2,,,,",
",,,,,,,,,,,,,,,,,,,,,,,,,,,,,,,,,,,,,,,,,,,,,2*oXXXXXXXXXXXX+>,,,,",
",,,,,,,,,,,,,,,,,,,,,,,,,,,,,,,,,,,,,,,,,,,,,,,>=#XXXXXXXXXXX=,,,,",
",,,,,,,,,,,,,,,,,,,,,,,,,,,,,,,,,,,,,,,,,,,,,,,,2,>=$oXXXXXXX#,,,,",
",,,,,,,,,,,,,,,,,,,,,,,,,,,,,,,,,,,,,,,,,,2,,,>>>,,,,>$XXXXXX+,,,,",
",,,,,,,,,,,,,,,,,,,,,,,,,,,,,,,,,,,,,,,,,,$@+oXX%,,,,,2@XXXXXo,,,,",
",,,,,,,,,,,,,,,,,,,,,,,,,,,,,,,,,,,,,,,,,,@XXXXX+,,,,,2$XXXXXO,,,,",
",,,,,,,,,,,,,,,,,,,,,,,,,,,,,,,,,,,,,,,,,,%XXXXXX-,,,,2@XXXXX$,,,,",
",,,,,,,,,,,,,,,,,,,,,,,,,,,,,,,,,,,,,,,,,,-XXXXXXO=3,:$XXXXXX*,,,,",
",,,,,,,,,,,,,,,,,,,,,,,,,,,,,,,,,,,,,,,,,,2@XXXXXXXXoXoXXXXXO3,,,,",
",,,,,,,,,,,,,,,,,,,,,,,,,,,,,,,,,,,,,,,,,,,;XXXXXXXXXXXXXXXX=,,,,,",
",,,,,,,,,,,,,,,,,,,,,,,,,,,,,,,,,,,,,,,,,,,,&XXXXXXXXXXXXXX&,,,,,,",
",,,,,,,,,,,,,,,,,,,,,,,,,,,,,,,,,,,,,,,,,,,,,=+XXXXXXXXXXO-,,,,,,,",
",,,,,,,,,,,,,,,,,,,,,,,,,,,,,,,,,,,,,,,,,,,,,22-%@+Oo+#$-2,,,,,,,,"
};
