/* XPM */
static const char *const vpssml_576[] = {
/* columns rows colors chars-per-pixel */
"20 24 23 1 ",
"  c #000000",
". c #050505",
"X c #0B0B0B",
"o c #181818",
"O c #393939",
"+ c #282828",
"@ c #464646",
"# c #575757",
"$ c #686868",
"% c #767676",
"& c #838383",
"* c #949494",
"= c #A7A7A7",
"- c #B6B6B6",
"; c #C3C3C3",
": c #CFCFCF",
"> c #D4D4D4",
", c #FFFFFF",
"< c #FEFEFE",
"1 c #FDFDFD",
"2 c #F9F9F9",
"3 c #F2F2F2",
"4 c #E5E5E5",
/* pixels */
",,+ 4,* &,,,,,,,,,,,",
",,% =,# >,,,,,,,,,,,",
",,; #,X+,,,,,,,,,,,,",
",,,o+: %,,,,,,,,,,,,",
",,,$ $ ;,,,,,,,,,,,,",
",,,- XX,,,,,,,,,,,,,",
",,,2X #,,,,,,,,,,,,,",
",,,,-*>,,,,,,,,,,,,,",
",,,,,,,=@@@%3,,,,,,,",
",,,,,,,& oo %2,,,,,,",
",,,,,,,& *: @,,,,,,,",
",,,,,,,& @O $,,,,,,,",
",,,,,,,& .o@4,,,,,,,",
",,,,,,,& *,,,,,,,,,,",
",,,,,,,& *,,,,,,,,,,",
",,,,,,,=#-,,,,,,,,,,",
",,,,,,,,,,,,,3==:,,,",
",,,,,,,,,,,,2+ . =,,",
",,,,,,,,,,,,; $>+%,,",
",,,,,,,,,,,,4X +&3,,",
",,,,,,,,,,,,,;@  @,,",
",,,,,,,,,,,,;$;>XX,,",
",,,,,,,,,,,,- +&XO,,",
",,,,,,,,,,,,,&o.O>,,"
};
