/* XPM */
static const char *const vpssml_720[] = {
/* columns rows colors chars-per-pixel */
"24 30 22 1 ",
"  c #000000",
". c #030303",
"X c #070707",
"o c #0D0D0D",
"O c #1A1A1A",
"+ c #292929",
"@ c #383838",
"# c #525252",
"$ c #666666",
"% c #787878",
"& c #979797",
"* c #888888",
"= c #B7B7B7",
"- c #A3A3A3",
"; c #C6C6C6",
": c #D8D8D8",
"> c #E7E7E7",
", c #FFFFFF",
"< c #FEFEFE",
"1 c #FDFDFD",
"2 c #FAFAFA",
"3 c #F6F6F6",
/* pixels */
",,+ $2,;  :,,,,,,,,,,,,,",
",,% +,,% +,,,,,,,,,,,,,,",
",,;  >,@ *,,,,,,,,,,,,,,",
",,,O -2o ;,,,,,,,,,,,,,,",
",,,$ $=XO,,,,,,,,,,,,,,,",
",,,= O% $,,,,,,,,,,,,,,,",
",,,3o O =,,,,,,,,,,,,,,,",
",,,,#  o3,,,,,,,,,,,,,,,",
",,,,-X #,,,,,,,,,,,,,,,,",
",,,,3==:,,,,,,,,,,,,,,,,",
",,,,,,,,>####%:,,,,,,,,,",
",,,,,,,,> X   o>,,,,,,,,",
",,,,,,,,>  &-  -,,,,,,,,",
",,,,,,,,>  =2o &,,,,,,,,",
",,,,,,,,>  @+  ;,,,,,,,,",
",,,,,,,,>    X%,,,,,,,,,",
",,,,,,,,>  *:3,,,,,,,,,,",
",,,,,,,,>  =,,,,,,,,,,,,",
",,,,,,,,>  =,,,,,,,,,,,,",
",,,,,,,,>$$:,,,,,,,,,,,,",
",,,,,,,,,,,,,,,,,:=:,,,,",
",,,,,,,,,,,,,,,2#   @>,,",
",,,,,,,,,,,,,,,* O*O %,,",
",,,,,,,,,,,,,,,$ @;=*=,,",
",,,,,,,,,,,,,,,=   O*2,,",
",,,,,,,,,,,,,,,,&O   $,,",
",,,,,,,,,,,,,,,:;>;@ o,,",
",,,,,,,,,,,,,,,@ $,& O,,",
",,,,,,,,,,,,,,,&  +o %,,",
",,,,,,,,,,,,,,,,%+XO$3,,"
};
