/* XPM */
static const char *const vpssml_1080[] = {
/* columns rows colors chars-per-pixel */
"34 43 26 1 ",
"  c #000000",
". c #010101",
"X c #030303",
"o c #060606",
"O c #0B0B0B",
"+ c #131313",
"@ c #1C1C1C",
"# c #2A2A2A",
"$ c #383838",
"% c #595959",
"& c #545454",
"* c #484848",
"= c #666666",
"- c #777777",
"; c #999999",
": c #868686",
"> c #B9B9B9",
", c #A7A7A7",
"< c #CACACA",
"1 c #D9D9D9",
"2 c #FFFFFF",
"3 c #FEFEFE",
"4 c #FDFDFD",
"5 c #FBFBFB",
"6 c #F3F3F3",
"7 c #E7E7E7",
/* pixels */
"22#  #2222,   >2222222222222222222",
"22-   7222-  +52222222222222222222",
"22<   ;222#  =22222222222222222222",
"222#  %227   >22222222222222222222",
"222-  @22;  O522222222222222222222",
"222<   <2%  %222222222222222222222",
"2222#  :2@  ,222222222222222222222",
"2222= X*<  O6222222222222222222222",
"2222<  O:  &2222222222222222222222",
"22222@  +  ;2222222222222222222222",
"22222=    X72222222222222222222222",
"22222<    *22222222222222222222222",
"222222+   ;52222222222222222222222",
"222222<>>>622222222222222222222222",
"2222222222221<<<<<1222222222222222",
"222222222222%      X%5222222222222",
"222222222222%        =222222222222",
"222222222222%  X-=O  O222222222222",
"222222222222%  +22;   722222222222",
"222222222222%  +25;   722222222222",
"222222222222%  X-=O  +222222222222",
"222222222222%        :222222222222",
"222222222222%      O-2222222222222",
"222222222222%  O<<1222222222222222",
"222222222222%  +222222222222222222",
"222222222222%  +222222222222222222",
"222222222222%  O222222222222222222",
"222222222222%  +222222222222222222",
"2222222222227111222222222222222222",
"2222222222222222222222222<><722222",
"22222222222222222222222,@    $<222",
"2222222222222222222225>       @722",
"2222222222222222222222$X %1,XX ,52",
"2222222222222222222222@  =52=*=>22",
"2222222222222222222222*   O%;52222",
"2222222222222222222222<      O;222",
"22222222222222222222222<#      ,22",
"2222222222222222222222222<=#   #22",
"2222222222222222222221-=%625&  O22",
"2222222222222222222221   ;22-  @22",
"2222222222222222222222#  X%=X  -22",
"2222222222222222222222<X      #622",
"22222222222222222222222<%@XO#:6222"
};
