/* XPM */
static const char *const vpssml[] = {
/* columns rows colors chars-per-pixel */
"66 84 16 1 ",
"  c #000000",
". c #171717",
"X c #272727",
"o c #3D3D3D",
"O c #484848",
"+ c #5A5A5A",
"@ c #6A6A6A",
"# c #787878",
"$ c #979797",
"% c #878787",
"& c #A7A7A7",
"* c #B9B9B9",
"= c #CACACA",
"- c #D8D8D8",
"; c #E8E8E8",
": c #FFFFFF",
/* pixels */
"X      -::::::::$      $::::::::::::::::::::::::::::::::::::::::::",
"#      $::::::::@      -::::::::::::::::::::::::::::::::::::::::::",
"=      O::::::::.     X:::::::::::::::::::::::::::::::::::::::::::",
":.     .:::::::-      %:::::::::::::::::::::::::::::::::::::::::::",
":@      =::::::$      =:::::::::::::::::::::::::::::::::::::::::::",
":*      %::::::+     .::::::::::::::::::::::::::::::::::::::::::::",
"::.     O::::::.     #::::::::::::::::::::::::::::::::::::::::::::",
"::+      ;::::=      *::::::::::::::::::::::::::::::::::::::::::::",
"::&      =::::$     .:::::::::::::::::::::::::::::::::::::::::::::",
":::.     #::::O     +:::::::::::::::::::::::::::::::::::::::::::::",
":::O     o::::.     &:::::::::::::::::::::::::::::::::::::::::::::",
":::&      ;::=      ::::::::::::::::::::::::::::::::::::::::::::::",
":::;      *::%     O::::::::::::::::::::::::::::::::::::::::::::::",
"::::O     @::O     $::::::::::::::::::::::::::::::::::::::::::::::",
"::::$     X::      ;::::::::::::::::::::::::::::::::::::::::::::::",
"::::;      ;=     o:::::::::::::::::::::::::::::::::::::::::::::::",
":::::o     &#     %:::::::::::::::::::::::::::::::::::::::::::::::",
":::::%     @o     -:::::::::::::::::::::::::::::::::::::::::::::::",
":::::-     .     X::::::::::::::::::::::::::::::::::::::::::::::::",
"::::::X          #::::::::::::::::::::::::::::::::::::::::::::::::",
"::::::#          =::::::::::::::::::::::::::::::::::::::::::::::::",
"::::::=         .:::::::::::::::::::::::::::::::::::::::::::::::::",
":::::::X        @:::::::::::::::::::::::::::::::::::::::::::::::::",
":::::::@        *:::::::::::::::::::::::::::::::::::::::::::::::::",
":::::::*        ;:::::::::::::::::::::::::::::::::::::::::::::::::",
"::::::::.      +::::::::::::::::::::::::::::::::::::::::::::::::::",
"::::::::::::::::::::::::::::::::::::::::::::::::::::::::::::::::::",
"::::::::::::::::::::::::::::::::::::::::::::::::::::::::::::::::::",
"::::::::::::::::::::::::::::::::::::::::::::::::::::::::::::::::::",
"::::::::::::::::::::::::            .O$:::::::::::::::::::::::::::",
"::::::::::::::::::::::::               X-:::::::::::::::::::::::::",
"::::::::::::::::::::::::                X;::::::::::::::::::::::::",
"::::::::::::::::::::::::                 #::::::::::::::::::::::::",
"::::::::::::::::::::::::                 .::::::::::::::::::::::::",
"::::::::::::::::::::::::      X**$+       =:::::::::::::::::::::::",
"::::::::::::::::::::::::      o::::@      &:::::::::::::::::::::::",
"::::::::::::::::::::::::      o::::-      %:::::::::::::::::::::::",
"::::::::::::::::::::::::      O::::-      $:::::::::::::::::::::::",
"::::::::::::::::::::::::      o::::$      &:::::::::::::::::::::::",
"::::::::::::::::::::::::      o::;&.      =:::::::::::::::::::::::",
"::::::::::::::::::::::::       ..        .::::::::::::::::::::::::",
"::::::::::::::::::::::::                 #::::::::::::::::::::::::",
"::::::::::::::::::::::::                X;::::::::::::::::::::::::",
"::::::::::::::::::::::::               X-:::::::::::::::::::::::::",
"::::::::::::::::::::::::             .#;::::::::::::::::::::::::::",
"::::::::::::::::::::::::      X&&&&*-:::::::::::::::::::::::::::::",
"::::::::::::::::::::::::      o:::::::::::::::::::::::::::::::::::",
"::::::::::::::::::::::::      o:::::::::::::::::::::::::::::::::::",
"::::::::::::::::::::::::      o:::::::::::::::::::::::::::::::::::",
"::::::::::::::::::::::::      O:::::::::::::::::::::::::::::::::::",
"::::::::::::::::::::::::      o:::::::::::::::::::::::::::::::::::",
"::::::::::::::::::::::::      o:::::::::::::::::::::::::::::::::::",
"::::::::::::::::::::::::      O:::::::::::::::::::::::::::::::::::",
"::::::::::::::::::::::::      o:::::::::::::::::::::::::::::::::::",
"::::::::::::::::::::::::      o:::::::::::::::::::::::::::::::::::",
"::::::::::::::::::::::::::::::::::::::::::::::::::::::::::::::::::",
"::::::::::::::::::::::::::::::::::::::::::::::::::::::::::::::::::",
"::::::::::::::::::::::::::::::::::::::::::::::::::::::::::::::::::",
"::::::::::::::::::::::::::::::::::::::::::::::::::::$+XX ..O$;::::",
"::::::::::::::::::::::::::::::::::::::::::::::::::*.          %:::",
":::::::::::::::::::::::::::::::::::::::::::::::::&             #::",
"::::::::::::::::::::::::::::::::::::::::::::::::-               =:",
"::::::::::::::::::::::::::::::::::::::::::::::::@      oO       +:",
"::::::::::::::::::::::::::::::::::::::::::::::::.     *::;o      ;",
":::::::::::::::::::::::::::::::::::::::::::::::;     X::::-      =",
":::::::::::::::::::::::::::::::::::::::::::::::=      -::::oXoO+@-",
":::::::::::::::::::::::::::::::::::::::::::::::;       +&:::::::::",
"::::::::::::::::::::::::::::::::::::::::::::::::.         O$;:::::",
"::::::::::::::::::::::::::::::::::::::::::::::::#            @-:::",
"::::::::::::::::::::::::::::::::::::::::::::::::;X            .$::",
":::::::::::::::::::::::::::::::::::::::::::::::::-X             $:",
"::::::::::::::::::::::::::::::::::::::::::::::::::;@             -",
"::::::::::::::::::::::::::::::::::::::::::::::::::::-#X          #",
":::::::::::::::::::::::::::::::::::::::::::::::::::::::=#X       X",
":::::::::::::::::::::::::::::::::::::::::::::::::::;-:::::&       ",
":::::::::::::::::::::::::::::::::::::::::::::::OX.   &:::::%      ",
":::::::::::::::::::::::::::::::::::::::::::::::X     #:::::*     .",
":::::::::::::::::::::::::::::::::::::::::::::::+      ;::::%     X",
":::::::::::::::::::::::::::::::::::::::::::::::&      X=::$      #",
"::::::::::::::::::::::::::::::::::::::::::::::::.                ;",
"::::::::::::::::::::::::::::::::::::::::::::::::&               #:",
":::::::::::::::::::::::::::::::::::::::::::::::::+             O::",
"::::::::::::::::::::::::::::::::::::::::::::::::::%           #:::",
":::::::::::::::::::::::::::::::::::::::::::::::::::;%+X. .XO%;::::"
};
